<svg width="28" height="28" viewBox="0 0 28 28" fill="none" xmlns="http://www.w3.org/2000/svg">
<g id="Bank name=Ayandeh">
<path id="Shape 1" d="M3.92096 0C1.56945 0 0 1.56915 0 3.92021V24.0798C0 26.4308 1.56945 28 3.92096 28H24.079C26.4306 28 28 26.4308 28 24.0798V3.92021C28 1.56915 26.4306 0 24.079 0L3.92096 0Z" fill="#752D1E"/>
<path id="Shape 2" d="M1.18108 3.9734C1.18108 2.29255 2.29831 1.17553 3.97948 1.17553H24.0258C25.707 1.17553 26.8242 2.29255 26.8242 3.9734V7.55851C26.8242 11.4787 25.425 13.7713 22.9618 13.7713C18.7057 13.7713 13.5558 8.45213 9.24112 8.45213C5.9373 8.45213 3.08037 10.633 1.18108 15.3936V3.9734ZM26.8296 24.0213C26.8296 25.7021 25.7123 26.8191 24.0312 26.8191H3.97948C2.29831 26.8191 1.18108 25.7021 1.18108 24.0213V20.4362C1.18108 16.516 2.58028 14.2234 5.04351 14.2234C9.29964 14.2234 14.4496 19.5426 18.7642 19.5426C22.068 19.5426 24.9249 17.3617 26.8296 12.6011V24.0213ZM3.92096 0C1.56945 0 0 1.56915 0 3.92021V24.0798C0 26.4309 1.56945 28 3.92096 28H24.079C26.4306 28 28 26.4309 28 24.0798V3.92021C28 1.56915 26.4306 0 24.079 0H3.92096V0Z" fill="#D99D2A"/>
</g>
</svg>
