<svg width="28" height="28" viewBox="0 0 28 28" fill="none" xmlns="http://www.w3.org/2000/svg">
<path d="M18.2459 4.31899C18.2459 6.69784 16.3515 8.63798 14.0287 8.63798C11.7059 8.63798 9.81147 6.69784 9.81147 4.31899C9.81147 1.94013 11.7059 0 14.0287 0C16.3515 0 18.2459 1.94013 18.2459 4.31899Z" fill="#324C88"/>
<path d="M9.75411 9.6664C9.75411 11.4302 8.34932 12.8689 6.62713 12.8689C4.90479 12.8689 3.5 11.4302 3.5 9.6664C3.5 7.90249 4.90479 6.4638 6.62713 6.4638C8.34932 6.4638 9.75411 7.90249 9.75411 9.6664Z" fill="#324C88"/>
<path d="M24.5 9.72514C24.5 11.4889 23.0954 12.9276 21.373 12.9276C19.6507 12.9276 18.2459 11.4889 18.2459 9.72514C18.2459 7.96123 19.6507 6.52254 21.373 6.52254C23.0954 6.52254 24.5 7.96123 24.5 9.72514Z" fill="#324C88"/>
<path d="M14.0287 17.1585C15.751 17.1585 17.1557 15.7198 17.1557 13.956C17.1557 12.1921 15.751 10.7534 14.0287 10.7534C12.3063 10.7534 10.9017 12.1921 10.9017 13.956C10.9017 15.7198 12.3063 17.1585 14.0287 17.1585Z" fill="#324C88"/>
<path d="M7.71721 19.2739C8.8391 19.2739 9.75411 18.3368 9.75411 17.1878C9.75411 16.0389 8.8391 15.1018 7.71721 15.1018C6.59532 15.1018 5.6803 16.0389 5.6803 17.1878C5.6803 18.3368 6.59532 19.2739 7.71721 19.2739Z" fill="#324C88"/>
<path d="M22.4057 17.1878C22.4057 18.3368 21.4907 19.2739 20.369 19.2739C19.2471 19.2739 18.3321 18.3368 18.3321 17.1878C18.3321 16.0389 19.2471 15.1018 20.369 15.1018C21.4907 15.1018 22.4057 16.0389 22.4057 17.1878Z" fill="#324C88"/>
<path d="M14 23.6223C15.1219 23.6223 16.0369 22.6852 16.0369 21.5362C16.0369 20.3872 15.1219 19.4501 14 19.4501C12.8781 19.4501 11.9631 20.3872 11.9631 21.5362C11.9631 22.6852 12.8781 23.6223 14 23.6223Z" fill="#324C88"/>
<path d="M9.86883 24.768C9.86883 25.3668 9.39205 25.8552 8.80743 25.8552C8.22281 25.8552 7.74589 25.3668 7.74589 24.768C7.74589 24.1693 8.22281 23.681 8.80743 23.681C9.39205 23.681 9.86883 24.1693 9.86883 24.768Z" fill="#324C88"/>
<path d="M19.3361 25.8552C19.9207 25.8552 20.3975 25.3668 20.3975 24.768C20.3975 24.1693 19.9207 23.681 19.3361 23.681C18.7515 23.681 18.2747 24.1693 18.2747 24.768C18.2747 25.3668 18.7515 25.8552 19.3361 25.8552Z" fill="#324C88"/>
<path d="M15.1189 26.9128C15.1189 27.5116 14.642 28 14.0574 28C13.4727 28 12.996 27.5116 12.996 26.9128C12.996 26.3141 13.4727 25.8258 14.0574 25.8258C14.642 25.8258 15.1189 26.3141 15.1189 26.9128Z" fill="#324C88"/>
</svg>
