<svg width="28" height="28" viewBox="0 0 28 28" fill="none" xmlns="http://www.w3.org/2000/svg">
<g id="Bank name=Bank Markazi">
<path id="Shape" fill-rule="evenodd" clip-rule="evenodd" d="M14.9747 27.5962C14.7162 27.8547 14.3656 28.0001 14 28C13.6344 27.9999 13.2838 27.8547 13.0252 27.5962C11.988 26.559 10.4947 25.0657 10.4947 25.0657C10.4947 25.0657 12.0938 25.0657 13.1231 25.0657C13.6664 25.0657 14.1875 24.8499 14.5717 24.4657C16.269 22.7684 20.9823 18.0551 20.9823 18.0551L21.0106 21.5604C21.0106 21.5604 16.901 25.6699 14.9747 27.5962ZM5.55642 21.2057C5.93991 21.5892 6.46001 21.8046 7.00233 21.8046C9.40135 21.8046 16.0698 21.8046 16.0698 21.8046L13.6112 24.3032H3.69676V19.346C3.69676 19.346 4.82866 20.4779 5.55642 21.2057ZM24.3032 24.3032H19.346C19.346 24.3032 20.4779 23.1713 21.2057 22.4436C21.5892 22.0601 21.8046 21.54 21.8046 20.9977C21.8046 18.5986 21.8046 11.9302 21.8046 11.9302L24.3032 14.3888V24.3032ZM0.403783 14.9747C0.14525 14.7162 -5.83158e-05 14.3656 1.75564e-08 14C5.83509e-05 13.6344 0.14525 13.2838 0.403783 13.0252C1.44101 11.988 2.93428 10.4947 2.93428 10.4947C2.93428 10.4947 2.93428 12.0938 2.93428 13.1231C2.93428 13.6664 3.15012 14.1875 3.5343 14.5717C5.23157 16.269 9.9449 20.9823 9.9449 20.9823L6.43959 21.0106C6.43959 21.0106 2.33007 16.901 0.403783 14.9747ZM14 7.57365C17.5468 7.57365 20.4263 10.4532 20.4263 14C20.4263 17.5468 17.5468 20.4263 14 20.4263C10.4532 20.4263 7.57365 17.5468 7.57365 14C7.57365 10.4532 10.4532 7.57365 14 7.57365ZM27.5962 13.0252C27.8547 13.2838 28 13.6344 28 14C28 14.3656 27.8547 14.7162 27.5962 14.9748C26.559 16.012 25.0657 17.5053 25.0657 17.5053C25.0657 17.5053 25.0657 15.9062 25.0657 14.8769C25.0657 14.3335 24.8499 13.8125 24.4657 13.4283C22.7684 11.731 18.0551 7.01773 18.0551 7.01773L21.5604 6.98938C21.5604 6.98938 25.6699 11.099 27.5962 13.0252ZM3.69676 3.69676H8.65398C8.65398 3.69676 7.52208 4.82866 6.79426 5.55642C6.41083 5.93991 6.19541 6.46001 6.19541 7.00233C6.19541 9.40135 6.19541 16.0698 6.19541 16.0698L3.69676 13.6112V3.69676ZM17.5053 2.93428C17.5053 2.93428 15.9062 2.93428 14.8769 2.93428C14.3335 2.93428 13.8125 3.15012 13.4283 3.5343C11.731 5.23157 7.01773 9.9449 7.01773 9.9449L6.98938 6.43959C6.98938 6.43959 11.099 2.33007 13.0252 0.403783C13.2838 0.14525 13.6344 0 14 0C14.3656 0 14.7162 0.14525 14.9748 0.403783C16.012 1.44101 17.5053 2.93428 17.5053 2.93428ZM24.3032 3.69676V8.65398C24.3032 8.65398 23.1713 7.52208 22.4436 6.79426C22.0601 6.41083 21.54 6.19541 20.9977 6.19541C18.5986 6.19541 11.9302 6.19541 11.9302 6.19541L14.3888 3.69676H24.3032Z" fill="#00194A"/>
</g>
</svg>
