<svg width="28" height="28" viewBox="0 0 28 28" fill="none" xmlns="http://www.w3.org/2000/svg">
<g id="Bank name=Blu">
<path id="Oval" d="M6.65627 7.4688C7.26898 7.4688 7.76567 6.9721 7.76567 6.3594C7.76567 5.74669 7.26898 5.25 6.65627 5.25C6.04357 5.25 5.54688 5.74669 5.54688 6.3594C5.54688 6.9721 6.04357 7.4688 6.65627 7.4688Z" fill="black"/>
<g id="Vector">
<path d="M21.0786 12.4057V17.6753C21.0786 18.8401 21.942 19.7277 23.0755 19.7277C24.1977 19.7277 25.0724 18.84 25.0721 17.7093L25.0724 12.4057C25.0725 11.6398 25.6933 11.019 26.4592 11.0189H27.8459V17.5644C27.8459 20.199 25.7101 22.3348 23.0755 22.3348C20.4409 22.3348 18.3051 20.199 18.3051 17.5644V11.0189H19.6918C20.4577 11.0189 21.0786 11.6398 21.0786 12.4057Z" fill="#4E91E6"/>
<path fill-rule="evenodd" clip-rule="evenodd" d="M14.6995 6.80322H16.0863V20.9481C16.0863 21.7139 15.4654 22.3348 14.6995 22.3348H13.3128V8.18997C13.3128 7.42409 13.9337 6.80322 14.6995 6.80322Z" fill="#4E91E6"/>
<path d="M2.7735 6.80322L2.77344 12.0691C3.65133 11.2738 4.77107 10.7971 5.99076 10.7971C8.80919 10.7971 11.094 13.3426 11.094 16.4827C11.094 16.5067 11.0939 16.5306 11.0936 16.5545C11.0939 16.5767 11.094 16.5991 11.094 16.6214C11.0936 19.8663 8.61052 22.3348 5.54699 22.3348C2.53754 22.3348 0.0878344 19.8663 0.00230983 16.7879L0 16.7878V8.18997C0 7.41936 0.628052 6.80322 1.38675 6.80322H2.7735ZM5.49153 13.3487C3.89849 13.3487 2.60709 14.7767 2.60709 16.5382C2.60709 18.2997 3.89849 19.7277 5.49153 19.7277C7.08456 19.7277 8.37596 18.2997 8.37596 16.5382C8.37596 14.7767 7.08456 13.3487 5.49153 13.3487Z" fill="#4E91E6"/>
</g>
</g>
</svg>
