<svg width="28" height="28" viewBox="0 0 28 28" fill="none" xmlns="http://www.w3.org/2000/svg">
<g id="Bank name=Dey">
<g id="Shape">
<path d="M5.27207 12.3412C4.02958 12.3412 2.92425 12.9721 2.30343 14.0554C1.69379 15.1192 1.67718 16.4248 2.30286 17.486C2.90907 18.5143 4.05334 19.0588 5.22539 19.0588C8.85024 19.0588 11.2032 15.374 13.1088 12.3897C13.5436 11.7087 13.9552 11.0642 14.3532 10.5083C14.5757 10.1976 14.8071 9.89603 15.0499 9.60676C15.3772 9.21678 15.7251 8.84882 16.1 8.51149C17.4891 7.26028 19.2439 6.42537 21.6616 6.41679C21.6741 6.4165 21.687 6.4165 21.6999 6.4165V10.5083C20.6035 10.5083 19.5606 10.9106 18.5426 11.5575C18.0675 11.8594 17.5979 12.2145 17.1309 12.6067C16.0587 13.5074 15.0802 14.5078 14.1017 15.5083C13.0561 16.5774 12.0104 17.6466 10.85 18.5944C10.4869 18.8908 10.1183 19.1701 9.74292 19.4259C9.46687 19.6142 9.1871 19.7901 8.90304 19.9506C7.78282 20.5847 6.54892 20.9998 5.25002 20.9998C4.11319 20.9973 3.00901 20.6333 2.09984 19.9506C1.88707 19.791 1.68663 19.6153 1.50078 19.4259C0.572422 18.4797 0 17.1835 0 15.7541C0 15.2056 0.0841881 14.6771 0.240251 14.1801C0.572995 13.1223 1.23218 12.2087 2.09955 11.5575C3.00672 10.8766 4.1152 10.5083 5.25002 10.5083C6.65229 10.512 7.98212 10.9161 9.21803 11.5575C9.77613 11.8471 10.3188 12.1841 10.85 12.553C10.8757 12.5707 10.9015 12.5887 10.9273 12.6067C10.9498 12.6226 10.9766 12.6388 11.0062 12.6567C11.0385 12.6762 11.0742 12.6978 11.1114 12.7232L11.4877 12.9787L11.4945 12.9836L10.5026 14.4173C9.01414 13.3361 7.162 12.3412 5.27207 12.3412Z" fill="#008B9A"/>
<path d="M21.6999 10.5083L21.6999 14.5458C22.9461 14.5501 23.9575 15.5727 23.9575 16.803C23.9575 18.0473 22.9456 19.0445 21.7091 19.0599L21.6999 19.0602L21.7034 19.0599C21.6974 19.058 21.6904 19.0583 21.6836 19.0586C21.6813 19.0587 21.679 19.0588 21.6767 19.0588V19.0602C21.539 19.0602 21.4013 19.0516 21.2641 19.0396C19.4019 18.6848 17.1664 16.7698 15.6682 15.4857L15.6255 15.4494L14.3335 16.7406C16.5911 18.7297 19.574 20.9838 22.7225 20.9998H22.7772C23.9487 20.9938 25.0294 20.6044 25.9002 19.9506C26.1129 19.791 26.3131 19.6153 26.4989 19.4259C27.4276 18.4797 28 17.1835 28 15.7538C28 15.2059 27.9158 14.6771 27.7597 14.1801C27.427 13.1223 26.7678 12.2088 25.9002 11.5575C25.0294 10.9037 23.9487 10.5143 22.7772 10.5083H21.6999Z" fill="#008B9A"/>
</g>
</g>
</svg>
