<svg width="28" height="28" viewBox="0 0 28 28" fill="none" xmlns="http://www.w3.org/2000/svg">
<g id="Bank name=Gardeshgari">
<path id="Shape" fill-rule="evenodd" clip-rule="evenodd" d="M2.51434 18.3551L7 26.1244H10.3448L5.87662 18.4213L6.72898 16.945L12.0287 26.1244H21L22.6745 23.2241L13.7569 23.2278L8.42928 14.0001L10.369 10.6404H6.96844L2.51434 18.3551ZM23.5143 21.7694L28 14.0001L26.3276 11.1034L21.8906 18.8245H20.186L25.4857 9.64509L21 1.87573H17.651L22.113 9.59679L16.7854 18.8245H12.9059L14.6062 21.7694H23.5143ZM15.0851 6.23072L14.2327 4.75437L5.32764 4.77239L7 1.87573H15.9713L20.4254 9.59043L18.7251 12.5354L16.7854 9.17568H6.13013L1.67452 16.9004L0 14.0001L4.48566 6.23072H15.0851Z" fill="#B11116"/>
<path id="Shape_2" fill-rule="evenodd" clip-rule="evenodd" d="M14.0002 10.6519C15.8767 10.6519 17.4002 12.1754 17.4002 14.0519C17.4002 15.9285 15.8767 17.452 14.0002 17.452C12.1236 17.452 10.6001 15.9285 10.6001 14.0519C10.6001 12.1754 12.1236 10.6519 14.0002 10.6519Z" fill="#00A1BF"/>
</g>
</svg>
