<svg width="28" height="28" viewBox="0 0 28 28" fill="none" xmlns="http://www.w3.org/2000/svg">
<path d="M5.41935 4.3274H21L16.2282 0H1.6537C0.278937 0 0 1.92884 0 1.92884V15.6406C0 15.6406 0.368595 22.1667 9.35436 22.1667C18.3401 22.1667 17.2443 16.1003 17.2443 16.1003C17.2443 16.1003 16.4175 19.7781 11.4663 19.7781C6.51518 19.7781 5.41935 15.5506 5.41935 15.5506V4.3274Z" fill="#007D3D"/>
<path d="M21.414 23.6726H5.83333L10.6052 28H25.1796C26.5544 28 26.8333 26.0712 26.8333 26.0712V12.3694C26.8333 12.3694 26.4647 5.83333 17.479 5.83333C8.4932 5.83333 9.58903 11.8997 9.58903 11.8997C9.58903 11.8997 10.4159 8.2219 15.367 8.2219C20.3182 8.2219 21.414 12.4494 21.414 12.4494V23.6726Z" fill="#007D3D"/>
<path d="M13.6529 19.1469C16.5103 19.1469 18.8268 16.8247 18.8268 13.9599C18.8268 11.0952 16.5103 8.77295 13.6529 8.77295C10.7954 8.77295 8.479 11.0952 8.479 13.9599C8.479 16.8247 10.7954 19.1469 13.6529 19.1469Z" fill="#FFF400"/>
</svg>
