<svg width="28" height="28" viewBox="0 0 28 28" fill="none" xmlns="http://www.w3.org/2000/svg">
<g id="Bank name=Iran Zamin">
<path id="Shape" fill-rule="evenodd" clip-rule="evenodd" d="M18.3862 20.1635C5.81097 30.8121 -6.67344 14.6439 4.09087 3.74798C-0.921591 15.5611 8.29873 24.501 18.3862 20.1635ZM20.1195 9.44715C30.9481 21.8764 15.0323 34.661 3.98718 24.0512C15.8511 28.8796 24.6129 19.4875 20.1195 9.44715ZM9.56772 7.76653C22.0741 -2.96335 34.6624 13.1236 23.9686 24.0891C28.9047 12.2437 19.627 3.36374 9.56772 7.76653ZM7.47613 17.8522C-2.12854 4.44961 14.9243 -6.76469 24.9166 4.84708C13.5625 -1.08708 3.95221 7.42997 7.47613 17.8522Z" fill="#4C2A93"/>
<path id="Shape_2" fill-rule="evenodd" clip-rule="evenodd" d="M14 19.25C16.8916 19.25 19.25 16.8917 19.25 14C19.25 11.1084 16.8916 8.75 14 8.75C11.1084 8.75 8.75 11.1084 8.75 14C8.75 16.8917 11.1084 19.25 14 19.25Z" fill="#F10B7C"/>
</g>
</svg>
