<svg width="28" height="28" viewBox="0 0 28 28" fill="none" xmlns="http://www.w3.org/2000/svg">
<g id="Bank name=Karafarin">
<path id="Shape" fill-rule="evenodd" clip-rule="evenodd" d="M0.0056206 13.2834C0.173769 11.8556 3.14237 8.47433 6.38609 5.57673C9.74073 2.58017 14.6817 0.012912 16.1306 3.47542e-05C17.5261 -0.0123233 20.3605 3.27305 23.2665 6.67961C24.0626 7.6129 25.1706 8.9429 26.1991 10.2024C27.0971 11.3021 27.9751 12.3298 27.9992 13.2314C28.0434 14.8824 26.3758 15.0572 18.6712 21.7091C16.1779 23.8617 13.7559 26.1148 12.2507 27.4707C11.8328 27.8483 11.2776 28.0375 10.7156 27.9938C10.1536 27.9501 9.63439 27.6773 9.28019 27.2397C7.94198 25.5909 5.937 23.1074 4.74467 21.5662C2.8196 19.0775 -0.146399 14.575 0.0056206 13.2834ZM9.30017 26.3549C9.30017 26.3549 9.33555 26.3765 9.39486 26.4128C10.1577 26.8795 11.1325 26.815 11.8269 26.2518C12.8762 25.399 14.4017 24.1634 15.3595 23.4062C17.7893 21.4852 25.249 15.6673 25.249 15.6673C23.2729 17.2074 15.1808 24.5472 11.6753 27.2279C11.3104 27.4583 10.8666 27.5281 10.4484 27.4214C10.0301 27.3146 9.67445 27.0406 9.4652 26.6637C9.40953 26.5631 9.35449 26.4601 9.30017 26.3549ZM9.03297 25.1041C9.03297 25.1041 9.08863 25.1382 9.1776 25.1926C9.91689 25.6451 10.8584 25.5996 11.5504 25.0779C14.7608 22.6585 23.6018 15.9954 23.6018 15.9954C21.6389 17.5253 14.6864 23.5816 11.4149 25.9957C11.0506 26.2248 10.6079 26.2943 10.1908 26.188C9.77351 26.0816 9.41848 25.8088 9.20871 25.4335C9.14961 25.3262 9.09092 25.2164 9.03297 25.1041ZM8.73683 23.8543C8.73683 23.8543 8.80728 23.8974 8.91622 23.964C9.63813 24.4058 10.5548 24.3736 11.2439 23.8824C14.2148 21.7647 21.9822 16.228 21.9822 16.228C20.0338 17.7466 14.1575 22.6181 11.1252 24.7666C10.7615 24.9939 10.3203 25.0626 9.90451 24.9566C9.48861 24.8506 9.13442 24.5794 8.92434 24.2058C8.86159 24.0913 8.79875 23.9742 8.73683 23.8543ZM8.50574 22.6802C8.50574 22.6802 8.58471 22.7285 8.70468 22.8019C9.41661 23.2376 10.3192 23.2128 11.0061 22.7387C13.6458 20.917 19.9942 16.5357 19.9942 16.5357C18.0531 18.0485 13.5408 21.7104 10.868 23.5431C10.5109 23.7657 10.0793 23.8358 9.67008 23.7377C9.26084 23.6395 8.90821 23.3813 8.69147 23.0212C8.63028 22.9116 8.56702 22.799 8.50574 22.6802ZM1.07996 11.6183C1.07996 11.6183 0.987768 11.846 0.877681 12.118C0.644916 12.6926 0.677901 13.3404 0.967686 13.8886C1.34539 14.5995 1.91747 15.6612 2.53003 16.7412C3.58033 18.5932 6.99407 23.5958 6.99407 23.5958C5.75137 21.9544 4.46706 20.3037 3.2457 18.5452C2.3137 17.2033 1.4199 15.7507 0.497162 14.0676C0.334737 13.7708 0.272826 13.4297 0.320586 13.0949C0.372092 12.7233 0.463554 12.3768 1.07996 11.6183ZM8.28494 21.4343C8.28494 21.4343 8.4073 21.4989 8.57878 21.5895C9.24159 21.9397 10.041 21.9122 10.6781 21.517C12.9211 20.1262 18.052 16.9445 18.052 16.9445C16.1376 18.4365 12.9632 20.826 10.6528 22.3222C10.2972 22.5415 9.86861 22.6102 9.46208 22.5129C9.05544 22.4157 8.70458 22.1606 8.48711 21.8042C8.42062 21.6856 8.35174 21.5636 8.28494 21.4343ZM1.78418 11.1676C1.78418 11.1676 1.68585 11.4391 1.57514 11.7448C1.37859 12.2878 1.41407 12.8875 1.67326 13.4035C2.03516 14.1157 2.60359 15.2043 3.23425 16.2905C4.1009 17.7832 6.44967 21.5371 6.44967 21.5371C5.20697 19.8957 5.17128 19.8529 3.94992 18.0944C3.01324 16.7457 2.18957 15.3551 1.2737 13.6722C1.13032 13.4087 1.0657 13.1097 1.08745 12.8107C1.11627 12.377 1.11534 11.9906 1.78418 11.1676ZM7.96529 20.1528C7.96529 20.1528 8.04634 20.2072 8.16736 20.2884C8.81997 20.7263 9.66259 20.7654 10.3532 20.3898C12.2824 19.3401 16.0196 17.3068 16.0196 17.3068C14.1603 18.6808 12.2845 19.9415 10.398 21.13C10.0402 21.3547 9.60671 21.4261 9.1956 21.3278C8.78439 21.2296 8.4303 20.9701 8.21324 20.608C8.1298 20.4592 8.04541 20.308 7.96529 20.1528ZM2.60713 10.7187C2.60713 10.7187 2.5088 10.9903 2.39819 11.296C2.20153 11.8389 2.23702 12.4387 2.49631 12.9547C2.85821 13.667 3.31864 14.7237 3.9493 15.8098C4.81595 17.3024 6.84819 20.8913 6.84819 20.8913C5.63744 19.2291 5.38646 18.7643 4.25896 16.9445C3.39231 15.5455 3.00502 15.009 2.12547 13.3821C1.96887 13.0928 1.83964 12.5619 1.88199 12.2358C1.93173 11.8359 1.97429 11.4975 2.60713 10.7187ZM7.69829 18.9067C7.69829 18.9067 7.77727 18.9608 7.8936 19.0405C8.47608 19.4392 9.21995 19.5204 9.87506 19.2567C11.4227 18.6337 14.1368 17.5411 14.1368 17.5411C14.1368 17.5411 11.6416 19.0215 10.1113 19.9293C9.36978 20.3693 8.41157 20.1301 7.96477 19.3937C7.87497 19.235 7.78424 19.0732 7.69829 18.9067ZM3.45338 10.2504C3.45338 10.2504 3.33154 10.5144 3.24434 10.8277C3.06673 11.4658 3.08202 11.9855 3.2818 12.4536C3.59542 13.1884 3.88749 13.7404 4.48246 14.8915C5.29011 16.4541 6.99407 19.8498 6.99407 19.8498C5.78332 18.1876 3.85118 14.5406 2.97173 12.9137C2.81513 12.6245 2.6859 12.0936 2.72814 11.7675C2.77788 11.3676 2.82054 11.029 3.45338 10.2504ZM17.2217 5.89119C17.1561 5.62004 16.9779 5.3897 16.7317 5.25771C16.4855 5.12582 16.1947 5.10484 15.9319 5.20007C13.8075 5.97032 8.98365 7.71914 7.05816 8.41721C6.58483 8.58887 6.30066 9.07209 6.3812 9.56828C6.6792 11.4023 7.38166 15.726 7.74085 17.9366C7.79579 18.275 7.9963 18.5725 8.28962 18.7509C8.58284 18.9293 8.93963 18.9709 9.26625 18.8645C11.5833 18.1104 16.3701 16.5522 18.4946 15.8607C19.0904 15.6667 19.4367 15.0481 19.2896 14.44C18.7929 12.3867 17.7161 7.93525 17.2217 5.89119ZM4.36103 9.70775C4.23367 9.96882 4.13305 10.2628 4.0624 10.5801C3.95512 11.0618 3.98062 11.4931 4.1804 11.9613C4.49401 12.696 4.68515 13.1145 5.22706 14.2913C5.95792 15.8786 6.84819 17.8743 6.84819 17.8743C5.53661 15.8805 4.78015 14.2315 3.9006 12.6046C3.744 12.3153 3.58449 11.6013 3.62673 11.2751C3.67658 10.8752 3.72819 10.4864 4.36103 9.70775ZM5.29906 9.20003C5.1718 9.4611 5.07108 9.7551 5.00043 10.0725C4.89315 10.5542 4.9766 10.9648 5.11853 11.4537C5.35712 12.2757 6.74674 16.228 6.74674 16.228C5.52079 13.8312 5.44858 13.5189 4.78598 12.0577C4.65019 11.7581 4.48912 11.1027 4.53136 10.7767C4.5811 10.3766 4.66621 9.97879 5.29906 9.20003ZM19.2796 15.8098C19.2796 15.8098 19.3339 15.731 19.4136 15.6149C19.8132 15.0335 19.9579 14.2286 19.7336 13.5601C19.1645 11.8647 18.5669 9.70775 18.5669 9.70775C18.5669 9.70775 20.0446 12.8871 20.2523 13.4725C20.5423 14.29 20.5054 15.0979 19.7676 15.5439C19.6085 15.6335 19.4464 15.724 19.2796 15.8098ZM20.4197 15.6673C20.4197 15.6673 20.474 15.5885 20.5537 15.4725C20.9533 14.8911 21.1279 14.0626 20.8477 13.4155C20.1332 11.7654 18.052 7.19325 18.052 7.19325C18.052 7.19325 21.1861 12.6994 21.3979 13.2834C21.7715 14.3142 21.6456 14.9554 20.9077 15.4014C20.7486 15.491 20.5865 15.5816 20.4197 15.6673ZM21.5871 15.5206C21.5871 15.5206 21.6413 15.4418 21.7211 15.3257C22.1206 14.7443 22.289 13.836 22.015 13.2686C21.1059 11.3866 18.052 5.77186 18.052 5.77186C18.052 5.77186 22.3141 12.3371 22.5652 13.1366C22.8937 14.1826 22.7456 14.7324 22.0751 15.2546C21.931 15.3668 21.7538 15.4348 21.5871 15.5206ZM22.7964 15.393C22.7964 15.393 22.8507 15.314 22.9305 15.198C23.33 14.6167 23.5037 13.6661 23.2244 13.141C22.1541 11.1289 17.7625 4.12316 17.7625 4.12316C17.7625 4.12316 23.4978 12.1592 23.8247 12.9985C24.2227 14.0201 23.955 14.6047 23.2845 15.127C23.1404 15.2392 22.9632 15.3072 22.7964 15.393ZM23.892 15.2575C23.892 15.2575 23.9462 15.1787 24.0259 15.0626C24.4255 14.4813 24.6304 13.5129 24.3199 13.0056C22.7244 10.3991 17.7625 3.06795 17.7625 3.06795C18.458 3.81088 23.8978 10.8562 24.9201 12.8631C25.4179 13.8402 25.0504 14.4693 24.3799 14.9916C24.2359 15.1037 24.0588 15.1718 23.892 15.2575ZM25.1686 15.0776C25.1686 15.0776 25.2228 14.9986 25.3025 14.8826C25.7022 14.3012 25.8594 13.108 25.509 12.6273C23.4993 9.87068 17.7625 2.19364 17.7625 2.19364C18.849 3.26287 24.8082 10.6404 26.1969 12.683C26.5854 13.2546 26.327 14.2894 25.6565 14.8115C25.5125 14.9237 25.3354 14.9918 25.1686 15.0776ZM17.5726 1.27364C17.5579 1.26222 17.5437 1.25131 17.53 1.24103C17.5343 1.2402 17.5488 1.25131 17.5726 1.27364C19.1879 2.52949 26.108 10.3906 27.3634 12.4969C27.7302 13.1124 27.4937 14.1033 26.8232 14.6254C26.6791 14.7376 26.5019 14.8057 26.3352 14.8915C26.3352 14.8915 26.3894 14.8126 26.4692 14.6966C26.8687 14.1151 27.0885 13.1615 26.7247 12.5855C24.9836 9.82842 18.1844 1.84689 17.5726 1.27364ZM6.24229 8.71308C6.11504 8.97416 6.02253 9.19452 5.95188 9.51189C5.8446 9.99354 5.85699 10.3454 5.95126 10.8454C6.17247 12.0189 6.44967 13.791 6.44967 13.791C5.94293 12.1778 5.91089 12.0814 5.71537 11.4303C5.62079 11.1153 5.40863 10.5764 5.45087 10.2504C5.50061 9.85033 5.53328 9.5015 6.24229 8.71308ZM3.61987 8.81537C7.15108 4.5615 14.1316 0.190598 16.0196 0.257062C16.5907 0.277209 17.0178 0.837993 17.0178 0.837993C17.0178 0.837993 16.4935 0.613576 16.0196 0.611083C14.0196 0.600698 7.27761 4.9418 3.61987 8.81537ZM4.76839 8.25178C7.91909 4.84833 14.1316 0.815251 16.0196 0.881714C16.5907 0.901861 16.9448 1.40075 16.9448 1.40075C16.9448 1.40075 16.4935 1.23823 16.0196 1.23574C14.0196 1.22535 8.58409 4.84439 4.76839 8.25178ZM5.44536 8.1633C8.55183 5.10152 14.3153 1.44665 16.0196 1.48778C16.6699 1.50346 16.873 1.9984 16.873 1.9984C16.873 1.9984 16.4935 1.84439 16.0196 1.8418C14.1932 1.83162 9.25699 5.10754 5.44536 8.1633ZM6.44967 7.83005C9.39756 5.09383 14.5112 2.06165 16.0501 2.16435C16.6991 2.20766 16.9035 2.67498 16.9035 2.67498C16.9035 2.67498 16.5239 2.52637 16.0501 2.51838C14.5167 2.49221 10.3788 4.99217 6.44967 7.83005ZM7.69829 7.39046C10.8799 4.93681 14.8462 2.76668 16.0501 2.81528C16.7 2.84145 16.9035 3.3258 16.9035 3.3258C16.9035 3.3258 16.5228 3.20181 16.0501 3.1692C15.1855 3.10959 11.5732 4.88344 7.69829 7.39046ZM9.30017 6.92334C12.1059 5.039 14.8462 3.54669 16.0501 3.59529C16.7 3.62157 16.9035 4.03696 16.9035 4.03696C16.9035 4.03696 16.5607 3.96167 16.0196 3.95326C15.153 3.93986 12.9077 4.95727 9.30017 6.92334ZM10.8566 6.56828C12.7885 5.30008 15.0043 4.36554 16.0501 4.36554C16.7006 4.36554 16.9035 4.80711 16.9035 4.80711C16.9035 4.80711 16.5593 4.68186 16.0196 4.72351C14.9457 4.80648 13.0952 5.57839 10.8566 6.56828Z" fill="url(#paint0_linear_8389_66525)"/>
</g>
<defs>
<linearGradient id="paint0_linear_8389_66525" x1="28.0001" y1="13.2937" x2="0.000106811" y2="13.2937" gradientUnits="userSpaceOnUse">
<stop stop-color="#007773"/>
<stop offset="1" stop-color="#0ED068"/>
</linearGradient>
</defs>
</svg>
