<svg width="28" height="28" viewBox="0 0 28 28" fill="none" xmlns="http://www.w3.org/2000/svg">
<g id="Bank name=Keshavarzi">
<path id="Shape" fill-rule="evenodd" clip-rule="evenodd" d="M15.1315 28H12.8682V26.2838H11.8374V24.1657L7.27459 24.1611L7.27984 18.7635H6.20476L6.20126 18.2887H4.87359V17.563H4.04059V16.4815H4.87359V15.5307H6.16976L5.79642 14.9555H3.63226C3.33126 14.9555 3.13467 15.3288 3.13467 15.3288L2.76367 15.2122C2.79786 15.0588 2.84592 14.9088 2.90717 14.7642C2.96551 14.5991 3.09792 14.2753 3.09792 14.2753L3.11542 14.2316C3.14517 14.1604 3.17376 14.0898 3.20934 14.021C3.38434 13.6012 3.6952 13.2519 4.09192 13.0293C4.14495 13.0035 4.19972 12.9816 4.25584 12.9634C4.3567 12.9313 4.46111 12.9118 4.56676 12.9051C4.59884 12.9051 4.63092 12.9051 4.66301 12.9051L4.67176 12.8835L4.68517 12.852C4.72379 12.7654 4.7732 12.6841 4.83217 12.6099C4.8705 12.5642 4.91261 12.5218 4.95817 12.4833C5.14169 12.3182 5.36505 12.2039 5.60626 12.1514L5.59517 10.1243L6.68776 10.1278L6.68484 8.69167L7.75409 8.68525L7.75817 7.728L8.40975 7.72508L7.65376 6.41667H6.63876L8.33042 4.72092L11.2418 4.72442V1.51608H12.8915V0H15.1082V1.51667H16.7555V4.725L19.6669 4.7215L21.3609 6.41667H20.3459L19.5876 7.72625L20.2392 7.72917L20.2433 8.68642L21.3125 8.69283L21.3078 10.1267L22.401 10.1232L22.3899 12.1502C22.6325 12.2025 22.8572 12.3173 23.0415 12.4833C23.0881 12.5236 23.131 12.5679 23.1698 12.6158C23.2288 12.6899 23.2782 12.7713 23.3168 12.8578L23.3303 12.8893L23.3384 12.9109C23.3705 12.9109 23.4026 12.9109 23.4347 12.9109C23.5403 12.9176 23.6447 12.9372 23.7456 12.9692C23.8017 12.9874 23.8565 13.0094 23.9095 13.0352C24.3062 13.2577 24.6171 13.607 24.7921 14.0268C24.8253 14.0962 24.8563 14.1668 24.886 14.2374L24.9035 14.2812C24.9035 14.2812 25.0359 14.6055 25.0943 14.77C25.1555 14.9147 25.2036 15.0646 25.2378 15.218L24.8668 15.3347C24.8668 15.3347 24.6702 14.9613 24.3692 14.9613H22.205L21.8317 15.5365H23.1278V16.4873H23.9614V17.5583H23.1243V18.284H21.8008L21.7973 18.7588H20.7228L20.728 24.1564L16.1652 24.1611V26.2792H15.1315V28Z" fill="url(#paint0_linear_1041_13606)"/>
<path id="Shape_2" fill-rule="evenodd" clip-rule="evenodd" d="M14.6562 27.5332H13.3437V25.8171H12.3147V24.161H13.346V25.1106H14.6544V24.161H15.6858V25.8171H14.6562V27.5332ZM20.2387 23.6943H7.76176V18.5026H20.2381L20.2387 23.6943ZM18.1836 23.0707C18.189 23.0995 18.1867 23.1293 18.1772 23.1571C18.1651 23.1932 18.1496 23.2282 18.1311 23.2615C18.1092 23.3016 18.0804 23.3376 18.0459 23.3676C18.0322 23.3843 18.013 23.3957 17.9917 23.3997C17.9697 23.3923 17.9497 23.3799 17.9333 23.3636C17.9088 23.3433 17.8832 23.3225 17.8563 23.3011C17.8359 23.2857 17.8164 23.2689 17.798 23.251C17.7849 23.2412 17.7759 23.2268 17.7729 23.2107C17.7893 23.1763 17.8021 23.1495 17.8103 23.1308C17.8383 23.0717 17.8591 23.0289 17.8727 23.0025C17.8976 22.9636 17.9227 22.9221 17.9479 22.8782L17.973 22.8421C17.9807 22.8495 17.9891 22.8561 17.9981 22.8619L18.0313 22.8817C18.0736 22.9126 18.1127 22.9476 18.148 22.9861C18.1675 23.0105 18.1803 23.0394 18.1853 23.0701L18.1836 23.0707ZM15.0593 22.4921C15.2474 22.4926 15.4352 22.4744 15.6198 22.4378C15.7834 22.4059 15.9444 22.3623 16.1017 22.3071C16.2439 22.256 16.3785 22.1857 16.5018 22.0983C16.6184 22.0179 16.7236 21.9221 16.8145 21.8136C16.8394 21.7814 16.8783 21.7306 16.9312 21.6614C16.9563 21.6264 16.9743 21.6031 16.9854 21.5891C16.9965 21.5751 16.9994 21.578 17.0023 21.5809C17.0057 21.5854 17.0071 21.591 17.0064 21.5966L17.0023 21.641C16.9996 21.6651 16.9934 21.7166 16.9837 21.7956C16.9746 21.8648 16.9697 21.9346 16.9691 22.0044C16.9657 22.1085 16.9833 22.2123 17.021 22.3095C17.0511 22.3864 17.1282 22.4353 17.2106 22.4296C17.2689 22.4296 17.3259 22.3863 17.3815 22.2996C17.4475 22.1857 17.494 22.0617 17.5192 21.9326L17.5297 21.8807C17.5332 21.8648 17.5353 21.8486 17.5361 21.8323C17.5361 21.8055 17.5291 21.7921 17.5151 21.7921C17.5011 21.7921 17.4947 21.8043 17.4883 21.8282C17.4818 21.8521 17.4748 21.8737 17.4696 21.8924C17.4393 21.9752 17.4044 22.0166 17.3652 22.0166C17.3194 22.0179 17.2742 22.0053 17.2357 21.9805C17.1687 21.9246 17.1342 21.8385 17.1441 21.7518V21.6894C17.1441 21.6411 17.1484 21.5696 17.1569 21.4747C17.1663 21.3693 17.1787 21.2643 17.1943 21.1597L17.2818 20.7386C17.2857 20.718 17.2898 20.6973 17.294 20.6767L17.3914 20.6108L17.7811 20.3156C17.8927 20.2437 18.0039 20.171 18.1148 20.0975C18.2108 20.0337 18.3053 19.968 18.3983 19.9003C18.5484 19.7906 18.6609 19.707 18.736 19.6495C18.8359 19.5717 18.9069 19.5157 18.9489 19.4815C18.9909 19.4472 19.0319 19.4097 19.072 19.3689C19.1222 19.3211 19.1702 19.2715 19.2161 19.2201C19.2572 19.1728 19.2948 19.1225 19.3287 19.0696C19.3625 19.0237 19.3893 18.973 19.408 18.9191C19.4136 18.9094 19.4164 18.8983 19.4162 18.8871C19.4162 18.8917 19.3119 18.98 19.1035 19.1519C18.995 19.2436 18.8852 19.3343 18.7739 19.4237C18.6545 19.5186 18.5323 19.6106 18.407 19.6996C18.2297 19.8233 18.0518 19.9462 17.8733 20.0683C17.7011 20.1905 17.536 20.3225 17.3792 20.4638C17.3419 20.4959 17.3095 20.5332 17.2829 20.5746C17.2779 20.5816 17.2732 20.5888 17.2689 20.5962C17.2499 20.6282 17.2328 20.6614 17.2176 20.6954L17.1989 20.7321C17.1636 20.7981 17.133 20.8665 17.1073 20.9369L17.049 21.1656C17.0199 21.2715 16.9734 21.3718 16.9113 21.4625C16.8254 21.5765 16.7159 21.6707 16.5905 21.739C16.2471 21.9287 15.8647 22.0371 15.4728 22.0557C15.3783 22.0639 15.2519 22.068 15.0937 22.068C14.9032 22.094 14.7096 22.0515 14.5477 21.9478C14.5133 21.9096 14.4927 21.8609 14.4893 21.8096C14.4853 21.757 14.4788 21.7314 14.4707 21.7314C14.4485 21.7314 14.4312 21.7769 14.4188 21.8679C14.4065 21.9556 14.4003 22.0441 14.4001 22.1327C14.3938 22.2136 14.4168 22.2942 14.4648 22.3596C14.5325 22.4205 14.618 22.4578 14.7087 22.4658C14.8052 22.4809 14.9027 22.4877 15.0003 22.4862L15.0593 22.4921ZM10.7753 21.4082C10.7726 21.4622 10.7655 21.5158 10.7543 21.5686C10.7403 21.6433 10.7263 21.7088 10.7123 21.7652L10.6621 21.9618C10.6341 22.0365 10.6119 22.0913 10.5956 22.1263C10.5751 22.169 10.5521 22.2105 10.5268 22.2506C10.5094 22.2787 10.4876 22.3037 10.462 22.3246C10.4265 22.3499 10.3889 22.372 10.3494 22.3906L10.1995 22.4489C10.1674 22.4589 10.1346 22.4669 10.1015 22.4728C10.0693 22.4807 10.0365 22.4862 10.0035 22.4891C9.98951 22.4891 9.98134 22.4845 9.97843 22.4751C9.97615 22.4632 9.97913 22.4509 9.98659 22.4413C10.0156 22.4023 10.0512 22.3686 10.0916 22.3416C10.1488 22.2988 10.2052 22.2574 10.2608 22.2173C10.3245 22.1609 10.3718 22.1168 10.4025 22.0849C10.4503 22.0351 10.4922 21.9798 10.5273 21.9204C10.5415 21.894 10.5535 21.8665 10.5629 21.8381C10.5781 21.7969 10.6024 21.7295 10.6358 21.6357L10.686 21.4911C10.6914 21.4696 10.6998 21.4436 10.7111 21.4129C10.7222 21.3826 10.7362 21.3668 10.7531 21.3668C10.7635 21.3781 10.7708 21.392 10.7741 21.4071L10.7753 21.4082ZM13.8255 21.8626V21.8661C13.8838 21.809 13.9184 21.774 13.9293 21.7611C13.9728 21.7118 14.0081 21.656 14.0338 21.5955C14.0675 21.5112 14.0919 21.4236 14.1067 21.3341C14.1241 21.2514 14.1344 21.1672 14.1376 21.0827C14.1376 21.0127 14.1376 20.9392 14.1376 20.8622C14.1376 20.7852 14.1424 20.7075 14.1522 20.6289C14.1522 20.556 14.1563 20.5122 14.1563 20.4924C14.1563 20.4889 14.1563 20.4854 14.1563 20.4825C14.165 20.4778 14.1761 20.4708 14.1889 20.4626L14.312 20.3786L14.6101 20.1768C14.7268 20.1017 14.8419 20.0259 14.9554 19.9493C15.055 19.8828 15.1522 19.814 15.2471 19.7428C15.4027 19.6261 15.5193 19.5382 15.5971 19.4791C15.7013 19.3986 15.7752 19.3403 15.8188 19.3041C15.8623 19.268 15.9055 19.2279 15.9483 19.184C16.0012 19.133 16.0519 19.0801 16.1005 19.0253C16.1446 18.974 16.1849 18.9195 16.2213 18.8626C16.258 18.8123 16.2874 18.7571 16.3088 18.6986C16.3149 18.6878 16.3183 18.6755 16.3187 18.6631C16.3187 18.6685 16.2096 18.762 15.9914 18.9436C15.8779 19.0409 15.7632 19.1369 15.6473 19.2318C15.5228 19.3321 15.3954 19.4294 15.2652 19.5235C15.0813 19.653 14.8967 19.7815 14.7116 19.9091C14.5693 20.0035 14.4329 20.1065 14.3033 20.2176C14.2639 20.2516 14.2296 20.2908 14.2012 20.3343C14.1732 20.3778 14.1484 20.4231 14.1271 20.4702L14.1201 20.4866V20.4901L13.9789 20.8173C13.9657 20.8501 13.9586 20.8851 13.9579 20.9206C13.9552 20.9661 13.9538 21.0187 13.9538 21.0786L13.9579 21.34C13.9618 21.4252 13.9477 21.5102 13.9165 21.5896C13.9036 21.6166 13.8875 21.6421 13.8687 21.6655C13.8555 21.6831 13.8393 21.6983 13.8208 21.7104L13.7958 21.7221C13.776 21.7243 13.756 21.7217 13.7374 21.7145C13.7234 21.7355 13.7094 21.7547 13.6954 21.7728C13.6733 21.802 13.6428 21.8238 13.6079 21.8352C13.5914 21.8442 13.5708 21.8411 13.5578 21.8276C13.5385 21.8457 13.5204 21.8644 13.5035 21.8825C13.4773 21.9104 13.4414 21.927 13.4032 21.9291C13.3655 21.9293 13.3279 21.9266 13.2906 21.921C13.2292 21.9626 13.1693 22.0042 13.1109 22.0458C13.0612 22.0777 13.0031 22.0939 12.9441 22.0925C12.845 22.1011 12.7487 22.0547 12.6938 21.9717C12.6606 21.9109 12.6448 21.842 12.6483 21.7728C12.6483 21.7413 12.6483 21.6911 12.6565 21.6206C12.6635 21.537 12.6733 21.4537 12.6857 21.3709L12.7568 20.8949L12.7738 20.7934C12.7787 20.773 12.7801 20.7519 12.7778 20.731L12.7609 20.7386C12.736 20.788 12.7028 20.8606 12.6612 20.9567C12.6196 21.0528 12.5974 21.1061 12.5947 21.1166C12.5753 21.2441 12.5502 21.4281 12.5194 21.6684C12.4887 21.9087 12.4733 22.0448 12.4733 22.0767C12.474 22.1127 12.4767 22.1485 12.4815 22.1841C12.4844 22.218 12.4912 22.2515 12.5019 22.2838C12.531 22.4049 12.6405 22.4908 12.765 22.4903C12.8802 22.4848 12.9846 22.4198 13.0403 22.3188C13.1181 22.2045 13.1808 22.1473 13.2282 22.1473L13.2865 22.1531C13.3024 22.1552 13.3185 22.1552 13.3343 22.1531C13.3644 22.1416 13.3919 22.1243 13.4154 22.1024C13.4392 22.0813 13.4643 22.0618 13.4907 22.0441C13.5086 22.034 13.5285 22.0281 13.549 22.0266C13.5667 22.0253 13.584 22.02 13.5992 22.0108C13.6213 21.9898 13.64 21.9735 13.6575 21.9618C13.6716 21.9507 13.6871 21.9415 13.7036 21.9344C13.7188 21.928 13.7503 21.9128 13.7975 21.8895L13.8226 21.8696L13.8255 21.8626ZM10.3751 20.2911C10.378 20.2823 10.3765 20.2725 10.371 20.2649C10.3631 20.2553 10.3531 20.2475 10.3418 20.2421C10.2903 20.2533 10.241 20.2731 10.196 20.3005C10.1424 20.3278 10.0907 20.3587 10.0414 20.3932C9.98852 20.4298 9.94535 20.4619 9.91193 20.4895C9.83627 20.5564 9.76516 20.6284 9.69901 20.7047C9.6104 20.8042 9.53597 20.9155 9.47793 21.0355C9.43219 21.1214 9.40513 21.216 9.39859 21.3131C9.39626 21.3536 9.40799 21.3936 9.43184 21.4263C9.45769 21.4565 9.49053 21.48 9.52751 21.4946C9.54624 21.5032 9.56578 21.5101 9.58584 21.515C9.60259 21.5189 9.63035 21.5265 9.66926 21.5377C9.70817 21.549 9.72759 21.5659 9.72759 21.5885C9.72497 21.6344 9.7098 21.6788 9.68384 21.7168C9.64797 21.7728 9.60527 21.8242 9.55668 21.8696C9.49578 21.9273 9.42531 21.9739 9.34843 22.0073C9.23993 22.0572 9.12192 22.0831 9.00251 22.0831C8.88409 22.0904 8.76644 22.0593 8.66709 21.9945C8.59085 21.9389 8.54704 21.849 8.55043 21.7547C8.56443 21.6049 8.60532 21.4589 8.67118 21.3236L8.72134 21.2181C8.75477 21.1476 8.77985 21.0973 8.79659 21.067C8.82693 21.0086 8.84734 20.9678 8.85493 20.9439C8.86251 20.92 8.87768 20.8891 8.89459 20.8511C8.90072 20.8382 8.90352 20.824 8.90276 20.8097C8.90276 20.787 8.89284 20.7759 8.87359 20.7759C8.86543 20.7759 8.85493 20.7858 8.84209 20.8062C8.82926 20.8266 8.81759 20.8465 8.80651 20.8646L8.71084 21.0501L8.59009 21.2881C8.53969 21.3869 8.49641 21.4892 8.46059 21.5943C8.43889 21.6579 8.42209 21.723 8.41043 21.7891C8.39911 21.8546 8.39345 21.921 8.39351 21.9875C8.39415 22.0443 8.40255 22.1009 8.41859 22.1555C8.43639 22.2167 8.46614 22.2738 8.50609 22.3235C8.60194 22.4361 8.74678 22.4953 8.89401 22.4821C9.03594 22.4851 9.17588 22.4485 9.29826 22.3766C9.36009 22.3407 9.41749 22.2976 9.46918 22.2482C9.51876 22.2014 9.56479 22.1509 9.60684 22.0971C9.68915 21.98 9.75256 21.8507 9.79468 21.7139C9.83825 21.5878 9.86229 21.4558 9.86584 21.3225C9.87448 21.2593 9.84916 21.196 9.79934 21.1562C9.78599 21.1465 9.77123 21.1388 9.75559 21.1335L9.70368 21.1148L9.62843 21.0804C9.61139 21.0631 9.60107 21.0404 9.59926 21.0162C9.60994 20.9789 9.63 20.9449 9.65759 20.9176C9.70764 20.8573 9.76417 20.8028 9.82618 20.7549C9.87745 20.7092 9.93503 20.6711 9.99709 20.6417C10.0386 20.6203 10.0841 20.6074 10.1307 20.6038C10.1403 20.6043 10.1496 20.6075 10.1575 20.6131L10.189 20.6341C10.2059 20.6341 10.2252 20.619 10.2473 20.5886C10.2532 20.5811 10.2689 20.5513 10.2952 20.5C10.3166 20.4607 10.3361 20.4205 10.3535 20.3792C10.3647 20.3505 10.3731 20.3208 10.3786 20.2906L10.3751 20.2911ZM12.1163 21.9116L12.058 22.0598C12.0332 22.1129 12.0031 22.1633 11.9682 22.2103C11.9448 22.2453 11.9161 22.2764 11.883 22.3025C11.8434 22.3249 11.8016 22.3431 11.7582 22.3567L11.6707 22.3888C11.6259 22.4028 11.5814 22.4176 11.5371 22.4331C11.4938 22.4477 11.449 22.4571 11.4035 22.4611L11.3866 22.453C11.3866 22.4343 11.4366 22.3942 11.5365 22.3328L11.6993 22.2208C11.7269 22.2021 11.7574 22.1794 11.7908 22.1526C11.8296 22.121 11.8661 22.0867 11.8999 22.0499C11.9344 22.0146 11.9607 21.9722 11.9769 21.9256C11.9773 21.9175 11.9787 21.9095 11.981 21.9017L11.8725 21.9099C11.8265 21.9116 11.7816 21.895 11.7477 21.8638C11.7168 21.8395 11.7009 21.8007 11.7057 21.7617C11.7098 21.7355 11.7168 21.7099 11.7267 21.6853C11.7378 21.6561 11.7628 21.6025 11.8019 21.5249C11.8235 21.4801 11.8487 21.4372 11.8772 21.3966C11.9133 21.3481 11.9483 21.3242 11.9816 21.3242C12.0378 21.3246 12.0911 21.3495 12.1274 21.3925C12.1689 21.437 12.1913 21.4961 12.1898 21.557C12.1898 21.5892 12.1871 21.6214 12.1817 21.6532L12.1671 21.7372C12.163 21.7611 12.1566 21.7903 12.1484 21.8236C12.1414 21.8532 12.1316 21.8821 12.1193 21.9099L12.1163 21.9116ZM11.4881 21.3767C11.4854 21.4307 11.4784 21.4843 11.4671 21.5371C11.4531 21.6118 11.4391 21.6773 11.4251 21.7337L11.3749 21.9332C11.3469 22.0083 11.3248 22.0631 11.3084 22.0977C11.2879 22.1404 11.2649 22.1819 11.2396 22.222C11.2222 22.25 11.2003 22.275 11.1748 22.2961C11.1393 22.3213 11.1016 22.3434 11.0623 22.362L10.9123 22.4203C10.8802 22.4303 10.8475 22.4383 10.8143 22.4442C10.7821 22.4521 10.7494 22.4576 10.7163 22.4606C10.7023 22.4606 10.6942 22.4559 10.6913 22.4466C10.689 22.4347 10.692 22.4223 10.6994 22.4127C10.7287 22.3733 10.7646 22.3394 10.8056 22.3124C10.8628 22.2696 10.9192 22.2282 10.9748 22.1881C11.0385 22.1321 11.0858 22.088 11.1165 22.0557C11.1643 22.0058 11.2062 21.9507 11.2413 21.8912C11.2555 21.8649 11.2674 21.8374 11.2769 21.809C11.2921 21.7674 11.3164 21.6999 11.3498 21.6066L11.4 21.4619C11.4058 21.4403 11.414 21.4146 11.4251 21.3837C11.4362 21.3528 11.4502 21.3376 11.4671 21.3376C11.4773 21.3487 11.4845 21.3621 11.4881 21.3767ZM17.9456 21.6941C17.9456 21.662 17.9456 21.6101 17.9538 21.5377C17.9608 21.4518 17.9705 21.3662 17.9829 21.2811L18.0541 20.7916L18.071 20.6872C18.076 20.6662 18.0774 20.6445 18.0751 20.6231L18.0582 20.6312C18.0333 20.6821 17.9998 20.757 17.9578 20.8558C17.9158 20.9546 17.8937 21.0094 17.8913 21.0203C17.8719 21.1514 17.8468 21.3406 17.8161 21.5879C17.7854 21.8352 17.77 21.9745 17.77 22.0056C17.7666 22.1097 17.7842 22.2135 17.8219 22.3106C17.852 22.3876 17.9291 22.4365 18.0115 22.4308C18.0698 22.4308 18.1268 22.3875 18.1824 22.3007C18.2485 22.1869 18.295 22.0629 18.3201 21.9338L18.3306 21.8819C18.3342 21.866 18.3363 21.8497 18.337 21.8335C18.337 21.8066 18.33 21.7932 18.316 21.7932C18.302 21.7932 18.2962 21.8055 18.2892 21.8294L18.2705 21.8936C18.2398 21.9764 18.205 22.0178 18.1661 22.0178C18.1203 22.0191 18.0752 22.0065 18.0366 21.9816C17.9696 21.9258 17.9352 21.8397 17.945 21.753V21.6946L17.9456 21.6941ZM10.9666 20.5C10.972 20.5288 10.9697 20.5585 10.9602 20.5863C10.948 20.6224 10.9326 20.6574 10.9141 20.6907C10.8922 20.7309 10.8634 20.7668 10.8289 20.7969C10.8152 20.8136 10.796 20.825 10.7747 20.829C10.7527 20.8216 10.7327 20.8093 10.7163 20.7928C10.6907 20.7714 10.6643 20.7506 10.637 20.7304C10.6165 20.7149 10.5971 20.6982 10.5787 20.6802C10.5656 20.6705 10.5566 20.6561 10.5536 20.64C10.5703 20.6054 10.5828 20.5787 10.5909 20.5601C10.6189 20.5017 10.6393 20.4586 10.6533 20.4317C10.6784 20.3915 10.7035 20.3501 10.7286 20.3075L10.7537 20.2713C10.7614 20.2789 10.7698 20.2857 10.7788 20.2917L10.812 20.3116C10.8543 20.3424 10.8934 20.3774 10.9287 20.416C10.9483 20.4402 10.9614 20.4692 10.9666 20.5ZM13.1523 19.9668C13.1473 19.9361 13.1344 19.9071 13.115 19.8828C13.0797 19.8442 13.0406 19.8092 12.9983 19.7784L12.9651 19.7586C12.9561 19.7528 12.9477 19.7461 12.94 19.7387L12.9149 19.7749C12.89 19.8176 12.8649 19.8591 12.8397 19.8991C12.8257 19.926 12.8049 19.9687 12.7773 20.0275C12.7691 20.0461 12.7563 20.073 12.7399 20.1074C12.743 20.1235 12.7519 20.1378 12.765 20.1476C12.7834 20.1655 12.8029 20.1823 12.8233 20.1978C12.8502 20.2176 12.8766 20.2382 12.9027 20.2596C12.919 20.2761 12.939 20.2886 12.961 20.2958C12.9823 20.2918 13.0016 20.2805 13.0153 20.2637C13.0499 20.2337 13.0789 20.1977 13.101 20.1576C13.1196 20.1242 13.135 20.0893 13.1471 20.0531C13.1567 20.0254 13.1589 19.9956 13.1535 19.9668H13.1523ZM13.5817 19.9429C13.587 19.9718 13.5848 20.0015 13.5753 20.0292C13.5631 20.0654 13.5477 20.1003 13.5292 20.1336C13.5074 20.1738 13.4785 20.2098 13.444 20.2398C13.4303 20.2566 13.4111 20.2679 13.3898 20.2719C13.3678 20.2645 13.3478 20.2521 13.3314 20.2357C13.3058 20.2143 13.2793 20.1935 13.2521 20.1733C13.2316 20.1578 13.2121 20.1411 13.1938 20.1231C13.1806 20.1133 13.1717 20.099 13.1687 20.0829C13.1856 20.0485 13.1978 20.0211 13.206 20.003C13.2263 19.9598 13.247 19.917 13.2684 19.8746C13.2898 19.8322 13.3149 19.7908 13.3437 19.7504L13.3688 19.7142C13.3764 19.7217 13.3848 19.7283 13.3938 19.7341L13.4271 19.7545C13.4693 19.7853 13.5084 19.8203 13.5438 19.8589C13.5636 19.8831 13.5769 19.912 13.5823 19.9429H13.5817ZM17.4124 19.9131C17.4177 19.942 17.4155 19.9717 17.406 19.9995C17.3939 20.0356 17.3785 20.0706 17.3599 20.1039C17.338 20.144 17.3092 20.18 17.2748 20.2101C17.261 20.2268 17.2418 20.2382 17.2205 20.2421C17.1985 20.2348 17.1786 20.2224 17.1622 20.206C17.1365 20.1846 17.1101 20.1638 17.0828 20.1436C17.0623 20.1282 17.0428 20.1114 17.0245 20.0934C17.0114 20.0836 17.0024 20.0692 16.9994 20.0531C17.0162 20.0185 17.0286 19.9919 17.0368 19.9732C17.0648 19.9149 17.0852 19.8717 17.0992 19.8449C17.1243 19.8046 17.1493 19.7632 17.1744 19.7206L17.1995 19.6845C17.2072 19.6921 17.2156 19.6989 17.2246 19.7049L17.2578 19.7247C17.3001 19.7555 17.3393 19.7905 17.3745 19.8291C17.3945 19.8533 17.4071 19.8823 17.4124 19.9131ZM13.3647 19.4465C13.3595 19.4157 13.3464 19.3867 13.3268 19.3625C13.2915 19.3237 13.2524 19.2888 13.2101 19.2581L13.1768 19.2382C13.1678 19.2325 13.1594 19.2259 13.1518 19.2184L13.1267 19.2546C13.1016 19.2971 13.0765 19.3386 13.0514 19.3788C13.0374 19.4056 13.0164 19.4482 12.989 19.5071C12.9808 19.5258 12.968 19.5526 12.9511 19.5871C12.9541 19.6032 12.9631 19.6176 12.9762 19.6273C12.9931 19.6436 13.0129 19.6606 13.0345 19.6798L13.1138 19.7422C13.1305 19.7578 13.1504 19.7694 13.1722 19.7761C13.1935 19.7721 13.2127 19.7607 13.2264 19.744C13.2609 19.7139 13.2897 19.6779 13.3116 19.6378C13.3301 19.6045 13.3455 19.5695 13.3577 19.5334C13.3672 19.5056 13.3694 19.4759 13.3641 19.4471L13.3647 19.4465ZM11.4006 5.1618L12.142 6.44514V12.5299L13.7666 13.7117V18.0383H11.8748V14.053L10.0082 12.1863V7.68822L8.91734 5.7988H7.92101L8.56268 5.15714L11.4006 5.1618ZM9.77718 12.6156L11.4105 14.249V18.0406H9.87634L7.56693 14.4893H3.52734C3.84934 13.6511 4.37901 13.1476 5.04401 13.4831C5.05101 12.9499 5.24351 12.618 6.14301 12.618L9.77718 12.6156ZM7.31318 14.9536L9.31926 18.0383H8.36493L6.36351 14.9536H7.31318ZM16.125 18.0383H14.2333V13.7117L15.8578 12.5305V6.44572L16.5993 5.16239H19.4354L20.0771 5.80405H19.0808L17.9899 7.69347V12.1916L16.1233 14.0582L16.125 18.0383ZM20.4329 14.487L18.1235 18.0383H16.5917V14.2466L18.225 12.6133H21.8574C22.7569 12.6133 22.95 12.9452 22.9564 13.4784C23.6232 13.1412 24.1528 13.6464 24.4731 14.4846L20.4329 14.487ZM18.6829 18.0383L20.689 14.9536H21.6393L19.6349 18.0383H18.6829ZM7.26709 17.2036H6.14476V16.6727H6.92234L7.26709 17.2036ZM21.8557 17.2036H20.7328L21.0775 16.6727H21.8551L21.8557 17.2036ZM14.6293 1.98322H16.2749L16.2802 4.78322L15.3912 6.32322V12.2948L14.2333 13.1348V11.75L14.6486 11.4478V2.82089H13.3513V11.4472L13.7666 11.7494V13.1342L12.6087 12.2919V6.32089L11.7197 4.78322L11.7249 1.98322H13.3705V0.466553H14.6299L14.6293 1.98322ZM8.13276 12.149H8.59943V10.7577H8.13276V12.149ZM9.07776 12.149H9.54443V7.81655L8.65076 6.26839H8.12168L9.07776 7.92447V12.149ZM19.4028 12.149H19.8694V10.7577H19.4028V12.149ZM18.9244 12.149H18.4578V7.81655L19.3514 6.26839H19.8805L18.9244 7.92447V12.149Z" fill="#1F261A"/>
</g>
<defs>
<linearGradient id="paint0_linear_1041_13606" x1="25.2378" y1="0" x2="2.76367" y2="0" gradientUnits="userSpaceOnUse">
<stop stop-color="#D8AC4E"/>
<stop offset="1" stop-color="#ECE482"/>
</linearGradient>
</defs>
</svg>
