<svg width="28" height="28" viewBox="0 0 28 28" fill="none" xmlns="http://www.w3.org/2000/svg">
<g id="Bank name=Khavar Mianeh">
<g id="Shape">
<path d="M24.7723 5.70555L27.998 4.49606V2.46435L24.6313 4.14869L27.998 1.44324V0H26.6539L23.6391 3.26806L25.6426 0H23.7474L22.0415 3.11206C23.2542 3.60409 24.2262 4.54028 24.7723 5.70555Z" fill="#F29200"/>
<path d="M27.998 11.2241L24.8481 9.90112C25.061 9.39974 25.1973 8.85598 25.2413 8.28302C25.3042 7.46797 25.1733 6.68261 24.8879 5.972L27.998 5.21985V6.57766L26.1425 7.08055L27.998 7.43577V8.79725L26.5324 8.85448L27.998 9.39707V11.2241Z" fill="#F29200"/>
<path d="M0 15.0739L15.1091 9.15564C15.4148 10.3593 16.1474 11.4049 17.1475 12.1072L7.78815 27.998H3.84402L12.2387 15.8251L0 28V21.8955L10.4834 13.6904L0 18.9637V15.0739Z" fill="#F29200"/>
<path d="M10.8275 27.998L17.4403 12.2984C18.1079 12.7023 18.8776 12.9606 19.7086 13.0245C20.2479 13.0661 20.7741 13.0229 21.2745 12.9062L25.256 27.998H22.168L20.0452 17.8214L19.9058 27.998H16.7521L17.4842 18.0271L14.6485 27.998H10.8275Z" fill="#F29200"/>
<path d="M21.6646 12.7988L27.9713 27.9358L27.998 27.998V20.97L24.6125 15.1327L27.998 18.2734V15.8629L25.8797 13.0277L27.998 14.081V12.2255L24.6867 10.2452C24.0605 11.4603 22.9689 12.3837 21.6646 12.7988Z" fill="#F29200"/>
<path d="M22.9565 0L21.7984 3.02062C21.3881 2.87797 20.9533 2.7852 20.5 2.75033C19.7555 2.69293 19.0357 2.79705 18.3752 3.03297L17.6429 0H19.1457L19.4936 1.29191L19.5421 0H20.9228L20.8225 1.66231L21.3374 0H22.9565Z" fill="#F29200"/>
<path d="M18.1141 3.13391L16.8867 0H15.105L15.7578 1.46476L14.579 0H12.2253L14.1709 2.12849L11.17 0H6.53262L15.6806 5.24471C16.2454 4.30118 17.1008 3.55938 18.1141 3.13391Z" fill="#F29200"/>
<path d="M3.35015 0L15.5292 5.51501C15.2194 6.11182 15.022 6.77922 14.9671 7.49183C14.9316 7.953 14.9583 8.40449 15.0395 8.83846L0 12.8835V9.31231L9.8267 7.98904L0 7.36152V4.41314L10.5133 5.77879L0 2.75033V0H3.35015Z" fill="#F29200"/>
</g>
</g>
</svg>
