<svg width="28" height="28" viewBox="0 0 28 28" fill="none" xmlns="http://www.w3.org/2000/svg">
<path fill-rule="evenodd" clip-rule="evenodd" d="M21.6851 21.9948C19.7533 23.8534 17.1742 24.8927 14.4935 24.8927C10.2124 24.8927 6.35187 22.2423 4.81362 18.2471C4.78439 18.1682 4.71678 18.1094 4.63459 18.0915C4.55298 18.0709 4.46624 18.0932 4.40488 18.1508L0.0830178 22.0949C0.0317428 22.1404 0.00175951 22.2053 0.000242842 22.2739C-0.00279049 22.3423 0.0227012 22.409 0.0706512 22.4579C2.84714 25.3895 6.71184 27.0523 10.7496 27.0523C15.2161 27.0523 19.4478 25.0177 22.237 21.5293C22.2426 21.5227 22.2456 21.5144 22.2456 21.5058C22.2456 21.4859 22.2292 21.4695 22.2093 21.4695C22.1986 21.4695 22.1884 21.4742 22.1815 21.4824C22.0226 21.6553 21.8571 21.8261 21.6851 21.9948ZM16.1864 8.29069C20.6109 9.56971 23.6784 13.6496 23.6784 18.2552C23.6784 20.628 22.8642 22.9304 21.3726 24.7756C21.3186 24.8404 21.3013 24.9286 21.327 25.009C21.35 25.0901 21.413 25.154 21.4937 25.1782L27.0702 26.9477C27.0949 26.9554 27.1206 26.9593 27.1464 26.9593C27.2589 26.9593 27.3588 26.8851 27.3912 26.7773C27.795 25.4178 28 24.0071 28 22.5889C28 15.3512 22.6588 9.13483 15.5036 8.04499C15.4854 8.04178 15.4676 8.0531 15.4628 8.07089C15.4619 8.07404 15.4615 8.07731 15.4615 8.08057C15.4615 8.09767 15.4733 8.1126 15.49 8.11657C15.7238 8.16597 15.9559 8.22402 16.1864 8.29069ZM7.06844 19.9055C6.8673 19.0915 6.76563 18.256 6.76563 17.4175C6.76563 11.7273 11.4479 7.04492 17.1382 7.04492C17.6775 7.04492 18.2159 7.08698 18.7486 7.17069C18.7611 7.17256 18.7736 7.17343 18.7861 7.17343C18.927 7.17343 19.0429 7.05752 19.0429 6.91659C19.0429 6.89909 19.0412 6.88165 19.0376 6.8645L17.7818 1.15092C17.7678 1.08402 17.7266 1.02586 17.6682 0.99039C17.6105 0.952998 17.5397 0.941332 17.4731 0.958307C10.8766 2.53488 6.18498 8.47992 6.18498 15.2622C6.18498 17.0943 6.52734 18.9104 7.19438 20.6168C7.2012 20.6338 7.21975 20.6434 7.2376 20.639C7.25335 20.6349 7.26444 20.6206 7.26444 20.6043C7.26444 20.6001 7.26374 20.596 7.26228 20.5921C7.19064 20.3673 7.12519 20.1364 7.06844 19.9055Z" fill="#832D6A"/>
<path d="M18.5571 6.54008L17.4545 1.52668C17.4466 1.488 17.4228 1.4544 17.389 1.4341C17.3556 1.41293 17.3146 1.40704 17.2766 1.418C11.1256 3.02293 6.74715 8.54371 6.58548 14.8987C6.58475 14.9174 6.59892 14.9338 6.61759 14.9357C6.63585 14.9387 6.65341 14.9266 6.65714 14.9085C7.92577 9.62451 13.0007 6.08356 18.3978 6.71665C18.4035 6.71735 18.4093 6.7177 18.415 6.7177C18.4949 6.7177 18.5607 6.6519 18.5607 6.57199C18.5607 6.56125 18.5595 6.55058 18.5571 6.54008Z" fill="url(#paint0_radial_8389_66653)"/>
<path d="M22.0161 24.9239L26.9085 26.4761C26.9227 26.4806 26.9375 26.4828 26.9524 26.4828C27.0178 26.4828 27.0758 26.439 27.0937 26.3761C28.7753 20.2479 26.1838 13.6992 20.764 10.3813C20.7586 10.3785 20.7526 10.377 20.7465 10.377C20.7262 10.377 20.7095 10.3937 20.7095 10.4141C20.7095 10.4234 20.7131 10.4325 20.7195 10.4394C24.66 14.1806 25.1889 20.3451 21.9432 24.7029C21.915 24.7408 21.9072 24.7902 21.9222 24.835C21.9376 24.8779 21.9725 24.9109 22.0161 24.9239Z" fill="url(#paint1_radial_8389_66653)"/>
<path d="M4.36649 18.7275L0.575579 22.1851C0.545421 22.2111 0.527921 22.2489 0.527369 22.2888C0.526638 22.3283 0.541804 22.3666 0.569396 22.395C5.03586 26.9181 12.0055 27.9491 17.5902 24.9128C17.6072 24.904 17.6143 24.8832 17.6063 24.8659C17.5995 24.8489 17.5807 24.8398 17.5631 24.8449C12.3525 26.3882 6.74824 23.7639 4.59743 18.7732C4.57958 18.7298 4.54096 18.6982 4.49494 18.6893C4.44839 18.6785 4.39956 18.6931 4.36649 18.7275Z" fill="url(#paint2_radial_8389_66653)"/>
<path fill-rule="evenodd" clip-rule="evenodd" d="M14.1543 11.6688C16.9485 11.2133 19.5868 13.1119 20.0424 15.9061C20.4979 18.7002 18.5993 21.3386 15.8052 21.7941C13.011 22.2497 10.3726 20.351 9.91712 17.5569C9.46153 14.7628 11.3602 12.1244 14.1543 11.6688Z" fill="#FAA61A"/>
<path fill-rule="evenodd" clip-rule="evenodd" d="M19.4218 15.0866C18.5157 12.6343 15.7891 11.3791 13.3368 12.2852C10.8846 13.1914 9.62934 15.918 10.5355 18.3702C11.4416 20.8225 14.1682 22.0777 16.6205 21.1715C19.0727 20.2654 20.328 17.5388 19.4218 15.0866Z" fill="url(#paint3_radial_8389_66653)"/>
<defs>
<radialGradient id="paint0_radial_8389_66653" cx="0" cy="0" r="1" gradientUnits="userSpaceOnUse" gradientTransform="translate(10.7916 7.00023) rotate(-27.4744) scale(8.21859 8.86144)">
<stop stop-color="#EC008C" stop-opacity="0.407843"/>
<stop offset="1" stop-color="#621A4F"/>
</radialGradient>
<radialGradient id="paint1_radial_8389_66653" cx="0" cy="0" r="1" gradientUnits="userSpaceOnUse" gradientTransform="translate(26.8334 19.8333) rotate(-92.7263) scale(6.13194 32.1991)">
<stop stop-color="#EC008C" stop-opacity="0.407843"/>
<stop offset="1" stop-color="#621A4F"/>
</radialGradient>
<radialGradient id="paint2_radial_8389_66653" cx="0" cy="0" r="1" gradientUnits="userSpaceOnUse" gradientTransform="translate(7.58321 25.3749) rotate(19.179) scale(7.10255 6.68384)">
<stop stop-color="#EC008C" stop-opacity="0.407843"/>
<stop offset="1" stop-color="#621A4F"/>
</radialGradient>
<radialGradient id="paint3_radial_8389_66653" cx="0" cy="0" r="1" gradientUnits="userSpaceOnUse" gradientTransform="translate(12.8162 14.246) rotate(180) scale(6.94346)">
<stop stop-color="#FFE293"/>
<stop offset="1" stop-color="#FAA61A"/>
</radialGradient>
</defs>
</svg>
