<svg width="28" height="28" viewBox="0 0 28 28" fill="none" xmlns="http://www.w3.org/2000/svg">
<g id="Bank name=Mehr Iran">
<path id="Shape" fill-rule="evenodd" clip-rule="evenodd" d="M11.829 2.1875C14.9306 2.1875 17.7535 3.38008 19.8634 5.3314C16.532 8.58085 14.8424 12.2938 14.4869 13.2768C14.4338 13.4387 14.2813 13.4533 14.1917 13.3011C12.9273 10.2559 9.65093 7.96705 6.50604 8.0507C6.36967 8.05557 6.31365 8.20099 6.41155 8.30556C8.82489 11.7583 7.49037 19.2475 14.1162 22.5455C14.3802 22.6808 14.5088 22.5626 14.5249 22.3777C15.4605 14.2943 21.3187 5.95542 27.704 3.86451C27.742 3.84992 27.8628 3.83338 27.9431 3.91752C28.024 4.00215 28.0026 4.12228 27.9763 4.16752C26.3651 6.77203 25.558 11.5458 24.1397 15.7796C22.2242 21.4969 18.2011 25.8125 11.829 25.8125C5.29717 25.8125 0 20.5227 0 14C0 7.47727 5.29717 2.1875 11.829 2.1875Z" fill="#7EC242"/>
</g>
</svg>
