<svg width="28" height="28" viewBox="0 0 28 28" fill="none" xmlns="http://www.w3.org/2000/svg">
<path d="M14.0328 0L17.1216 3.09238L9.37415 10.8802C7.09697 13.1702 3.21529 12.2243 1.74375 8.88204C1.84412 8.89099 1.94432 8.90037 2.04431 8.90974C3.4803 9.04424 4.87068 9.17446 6.06393 7.95803L14.0328 0Z" fill="#029A4C"/>
<path d="M3.08887 10.914L0 14.0069L7.94902 21.9843C9.16428 23.1795 9.03394 24.5718 8.89938 26.0092C8.89004 26.109 8.88067 26.209 8.87174 26.3092C12.2107 24.8364 13.1555 20.9508 10.8679 18.6703L3.08887 10.914Z" fill="#029A4C"/>
<path d="M10.8979 24.9079L13.9873 28L21.9554 20.0422C23.1495 18.8254 24.5404 18.9559 25.9763 19.0906C26.0758 19.0999 26.1755 19.1093 26.2754 19.1182C24.8045 15.7757 20.9229 14.8298 18.6452 17.1198L10.8979 24.9079Z" fill="#029A4C"/>
<path d="M24.9111 17.0792L28 13.9863L20.051 6.00916C18.8359 4.81405 18.966 3.42175 19.1004 1.98476C19.1097 1.88481 19.1191 1.78464 19.128 1.68431C15.7896 3.15683 14.8447 7.04291 17.1321 9.32314L24.9111 17.0792Z" fill="#029A4C"/>
<path fill-rule="evenodd" clip-rule="evenodd" d="M9.625 14.0009C9.625 11.585 11.584 9.625 14.0003 9.625C16.4158 9.625 18.375 11.585 18.375 14.0009C18.375 16.4175 16.4158 18.375 14.0001 18.375C11.584 18.375 9.625 16.4164 9.625 14.0009Z" fill="#EB8C30"/>
</svg>
