<svg width="28" height="28" viewBox="0 0 28 28" fill="none" xmlns="http://www.w3.org/2000/svg">
<g id="Bank name=Mellat">
<path id="Shape" fill-rule="evenodd" clip-rule="evenodd" d="M13.524 0.149886L6.70642 4.06587L6.66832 4.0874C6.00677 4.47533 5.56285 5.19116 5.56285 6.01036V19.8027L9.23949 17.6911L9.21813 17.6432L9.21697 17.6397L9.19359 17.5843L9.17166 17.5297L9.16848 17.5217L9.14655 17.4657L9.12548 17.4094L9.1249 17.4071L9.12432 17.4066L9.10354 17.3491L9.08333 17.2903L9.08276 17.2886L9.06313 17.2303L9.04379 17.1697L9.0435 17.1685L9.04293 17.1674L9.03773 17.1504L9.03254 17.1341C9.02417 17.1059 9.01579 17.0769 9.00771 17.0482L9.00714 17.0474L8.99039 16.9868L8.97394 16.925L8.97337 16.923V16.9222L8.96471 16.8874L8.95576 16.853C8.94133 16.7944 8.92834 16.7352 8.91593 16.6758L8.91564 16.6749L8.90323 16.6121L8.89197 16.5515V16.5497L8.89139 16.5475V16.546L8.88014 16.4837L8.87032 16.4214C8.85705 16.3347 8.84579 16.2485 8.83742 16.1633L8.83713 16.1607L8.83107 16.0987L8.82558 16.0326L8.82097 15.9669L8.8175 15.9043L8.81721 15.902V15.9011L8.81404 15.8348L8.81202 15.7705V15.769L8.81086 15.7018L8.81029 15.6358L8.81086 15.5718L8.81202 15.508L8.81346 15.4649L8.81404 15.4526L8.81664 15.3802L8.81923 15.336L8.8201 15.3263L8.82068 15.3188L8.82472 15.2542L8.8354 15.1284L8.84175 15.0693L8.84954 15.0018L8.85676 14.9464L8.86628 14.878L8.87523 14.8209L8.88649 14.7531L8.8963 14.6994L8.90929 14.6308L8.92026 14.5757C8.92661 14.5447 8.93093 14.5254 8.93526 14.5068L8.94652 14.4577L8.96384 14.3873L8.97712 14.3351L8.9927 14.2776L8.99761 14.2593L9.00858 14.2196L9.01955 14.1823L9.03138 14.1441L9.04783 14.0901L9.06486 14.0364L9.08218 13.9842L9.0894 13.9638C9.09979 13.9339 9.11018 13.9043 9.12259 13.8702L9.13904 13.8268L9.13933 13.8257L9.14222 13.8179C9.14857 13.8016 9.15521 13.7835 9.16617 13.7556L9.1884 13.7008L9.20976 13.6485L9.24122 13.5762L9.25969 13.5342L9.28538 13.478L9.30905 13.4271L9.33705 13.3697L9.36389 13.3166L9.39217 13.2614L9.41757 13.2132L9.43374 13.1836L9.44932 13.1546L9.47588 13.1078L9.47819 13.1035C9.48685 13.0883 9.49522 13.0731 9.50907 13.0501L9.53534 13.0056L9.53563 13.0047L9.54053 12.9964L9.56968 12.9488L9.59682 12.9054L9.63607 12.8434L9.64589 12.829L9.67879 12.7791L9.71256 12.7297C9.77 12.6455 9.83003 12.5637 9.8918 12.4845L9.93365 12.4308L9.96165 12.3969L9.98099 12.3728L10.007 12.3412L10.0338 12.3096L10.0586 12.2806L10.0817 12.2539L10.1057 12.2272L10.1383 12.1907L10.1634 12.1631L10.1885 12.1359L10.2165 12.106L10.2451 12.0759L10.274 12.046L10.2939 12.0259L10.3271 11.9923L10.3605 11.9593L10.3732 11.9469L10.4076 11.9139L10.4425 11.8812L10.4607 11.8642L10.4959 11.8315L10.5323 11.7988L10.5383 11.7936L10.5782 11.758L10.6195 11.7227L10.6238 11.7189L10.6246 11.7184C10.6506 11.696 10.6757 11.675 10.6977 11.6572C10.7193 11.6394 10.7441 11.6196 10.7719 11.5975C10.9003 11.4961 11.0328 11.4008 11.1702 11.3124L11.1757 11.3083L11.2215 11.2793L11.2671 11.2506L11.2735 11.2469L11.3185 11.2196L11.363 11.1929L11.3765 11.1852L11.389 11.178L11.4017 11.1708C11.4239 11.1579 11.4449 11.1458 11.4637 11.1355L11.4784 11.1274L11.5211 11.1039L11.5647 11.0806L11.5846 11.0703L11.6297 11.047L11.6741 11.0244L11.6813 11.0209L11.7319 10.9962L11.7818 10.9721L11.7835 10.9715C11.8274 10.9509 11.8718 10.9305 11.9166 10.9112C11.9593 10.8926 12.0046 10.8736 12.0522 10.8547C12.2857 10.7608 12.5273 10.683 12.7756 10.6238L12.7799 10.6227L12.8347 10.6097L12.889 10.5977L12.8982 10.5957L12.9539 10.5842L13.0108 10.5733L13.014 10.5727L13.0685 10.5624L13.1242 10.5529L13.1387 10.5503L13.1923 10.5417L13.2469 10.5339L13.2538 10.5325L13.3101 10.525L13.3652 10.5178L13.3699 10.5173L13.4209 10.5107L13.4207 10.4596V4.93101C13.4207 4.83568 13.4403 4.75959 13.4723 4.70245C13.5 4.65335 13.5373 4.61689 13.5808 4.59334C13.625 4.56951 13.6758 4.55745 13.7292 4.55745C13.7991 4.55745 13.8732 4.57783 13.9431 4.61631L22.4333 9.49851V6.01036C22.4333 5.21614 22.0154 4.5184 21.3861 4.1233L14.4843 0.159648C14.3027 0.056279 14.1521 0.0022971 14.0005 0C13.9971 0 13.9936 0 13.9901 0C13.8418 0 13.696 0.0496748 13.524 0.149886ZM14.5801 10.4926L14.6326 10.4983L14.6364 10.4989L14.6958 10.5067L14.7547 10.5147L14.7631 10.5164L14.8228 10.5253L14.8826 10.5351L14.8846 10.5357L14.9461 10.5466L15.0073 10.5583L15.009 10.5586L15.0696 10.5713L15.1317 10.5845L15.1343 10.5853L15.1516 10.5893L15.1683 10.5931C15.1975 10.5997 15.2266 10.6071 15.2558 10.6143H15.2567L15.3181 10.6301L15.3799 10.6468L15.3819 10.6473L15.3825 10.6479L15.4174 10.6574L15.4515 10.6672C15.5095 10.6844 15.5678 10.7025 15.6255 10.7214L15.6273 10.722L15.6876 10.7424L15.7462 10.7631L15.7476 10.7636L15.7499 10.7648L15.7511 10.7651L15.8108 10.7869L15.87 10.8093L15.8706 10.8096C15.9529 10.8415 16.0328 10.875 16.111 10.9098L16.1136 10.9107L16.1708 10.9371L16.2308 10.9652L16.2903 10.9942L16.3466 11.0224L16.3489 11.0232L16.3497 11.0238L16.4089 11.0542L16.4658 11.0849L16.4669 11.0855L16.5264 11.118L16.5841 11.1504L16.6392 11.1829L16.6944 11.2159L16.7417 11.2452L16.8032 11.2842L16.8407 11.3083L16.8485 11.3135L16.8543 11.3178L16.8621 11.3227L16.9088 11.3537L16.9567 11.3864L17.013 11.4258L17.0615 11.4608L17.1163 11.5016L17.1608 11.5352L17.2156 11.578L17.261 11.6141L17.3143 11.6575L17.3562 11.6928L17.4093 11.7382L17.4517 11.7755C17.4754 11.7965 17.4901 11.8097 17.5043 11.8229L17.5415 11.8568L17.594 11.9073L17.633 11.9446L17.6749 11.9866L17.7179 12.0293L17.745 12.0575L17.7718 12.0868L17.8111 12.1278L17.8489 12.1695L17.8858 12.2105L17.9 12.2272C17.9208 12.251 17.9416 12.2746 17.9649 12.3024L17.9944 12.3383L17.9952 12.3389L18.0004 12.3455C18.012 12.3593 18.0238 12.3739 18.0429 12.3972L18.0795 12.4437L18.1142 12.4885L18.1546 12.5425L18.1615 12.5516L18.1889 12.5884L18.225 12.6386L18.2573 12.6846L18.2931 12.7371L18.3263 12.7871L18.3601 12.8388L18.3892 12.885L18.4074 12.9137L18.4244 12.9416L18.4519 12.9878L18.4545 12.9921C18.4634 13.007 18.4724 13.022 18.4856 13.0452L18.5113 13.0903L18.5116 13.0909L18.5165 13.0992L18.5436 13.148L18.5676 13.1934L18.5849 13.2256L18.6022 13.2583L18.6095 13.2732L18.6097 13.2738L18.6103 13.2741L18.6366 13.3269L18.6629 13.3809C18.7073 13.4728 18.7486 13.5652 18.7867 13.658L18.7965 13.6815L18.8124 13.7212L18.8282 13.7616L18.8536 13.8288L18.8678 13.8679L18.8805 13.9035L18.8923 13.9368L18.9039 13.971L18.9192 14.0172L18.9307 14.0528L18.942 14.0881L18.9656 14.1662L18.9772 14.2064L18.985 14.2334L19.0095 14.3241L19.0138 14.3414L19.0257 14.3879L19.0363 14.4338L19.0421 14.4577L19.0531 14.5048L19.0632 14.5527L19.0646 14.5605L19.0756 14.6127L19.086 14.6656L19.0871 14.6713V14.6724C19.0935 14.706 19.0993 14.7382 19.1039 14.7658C19.1085 14.7933 19.1137 14.8246 19.1186 14.8597C19.1426 15.0207 19.1593 15.183 19.1683 15.3452L19.1685 15.3521L19.1711 15.4064L19.1729 15.4598L19.1732 15.4672L19.1743 15.5198L19.1752 15.5712V15.6154C19.1755 15.6412 19.1752 15.6654 19.1749 15.6866L19.1737 15.7518L19.172 15.8012L19.1714 15.8233L19.1662 15.9235L19.1659 15.9313L19.1622 15.9875L19.1581 16.0421V16.0441C19.1538 16.0923 19.1492 16.1406 19.1437 16.1891C19.1385 16.2353 19.1322 16.2836 19.1252 16.3341C19.09 16.5822 19.0369 16.8291 18.9648 17.0726L18.9633 17.0769L18.9469 17.1303L18.9304 17.1835L18.9275 17.1924L18.9096 17.2461L18.8909 17.3006L18.89 17.3035L18.8715 17.3555L18.8516 17.4086L18.8467 17.4221L18.8274 17.4729L18.8072 17.5237L18.8049 17.5306L18.7832 17.5823L18.7619 17.634L18.7601 17.638L18.7402 17.6854L18.7849 17.7109L23.5979 20.4749C23.6811 20.5226 23.7371 20.5771 23.7711 20.634C23.8 20.6819 23.8127 20.7325 23.8115 20.7819C23.8107 20.8315 23.7951 20.8812 23.7685 20.9274C23.7333 20.9877 23.679 21.0414 23.6106 21.0825L15.2036 25.905L15.1149 25.9555L15.2036 26.0066L18.1517 27.6996C18.8435 28.0973 19.6595 28.0858 20.3182 27.7412L27.2194 23.777C27.4004 23.6722 27.5228 23.5694 27.6004 23.4399C27.6784 23.3101 27.7098 23.1574 27.7081 22.9544V15.0793C27.7012 14.3155 27.3 13.5747 26.587 13.1653L14.5801 6.26907V10.4926ZM1.41112 13.1664C0.71955 13.5638 0.321233 14.2727 0.291504 15.0121L0.29237 22.94C0.293236 23.1482 0.321522 23.3052 0.395124 23.4367C0.469015 23.5688 0.586489 23.6719 0.764 23.7724L7.58185 27.6881L7.61938 27.7099C8.28786 28.0858 9.13356 28.1105 9.84649 27.701L21.7651 20.8557L21.8531 20.8046L18.2224 18.7194L18.1765 18.6932L18.1453 18.7354L18.145 18.736L18.143 18.7383L18.1064 18.786L18.07 18.8322L18.0645 18.8388L18.0267 18.8859L17.9883 18.9321L17.9869 18.9339L17.9866 18.9344L17.9467 18.9812L17.9058 19.028L17.9046 19.0295L17.8636 19.0757L17.8206 19.1225L17.8195 19.1231L17.8186 19.1242L17.8068 19.1371L17.7949 19.1498C17.7747 19.1713 17.7539 19.1926 17.7329 19.2144L17.732 19.215L17.6881 19.2598L17.6422 19.3048L17.6408 19.3063L17.6402 19.3066L17.6145 19.3318L17.5888 19.3565C17.545 19.3982 17.5002 19.4389 17.4543 19.4794L17.4538 19.48L17.4053 19.5222L17.3579 19.5624L17.3568 19.5633L17.3548 19.5647L17.3539 19.5656L17.3048 19.6063L17.2558 19.6462C17.1871 19.7011 17.1172 19.7533 17.0476 19.8033L17.0459 19.8047L16.9943 19.8412L16.9397 19.8788L16.8846 19.9159L16.832 19.95L16.8303 19.9515L16.8294 19.9518L16.7732 19.9876L16.718 20.0215L16.7169 20.0221L16.6591 20.0571L16.602 20.0904L16.546 20.1223L16.4897 20.153L16.4516 20.1731L16.4409 20.1789L16.376 20.2128L16.3362 20.2326L16.3275 20.2366L16.3212 20.2398L16.3128 20.2441L16.2626 20.2688L16.1477 20.3224L16.0931 20.3469L15.9788 20.3951L15.9139 20.4209L15.8599 20.4419L15.7953 20.4663L15.7439 20.4847L15.6775 20.5077L15.6241 20.5257C15.5938 20.5358 15.575 20.5412 15.5563 20.5473L15.5084 20.5622L15.4382 20.5826L15.3863 20.597L15.3285 20.6125L15.3101 20.6173L15.2699 20.6277L15.2318 20.6369L15.1929 20.6458L15.1375 20.659L15.082 20.6707L15.0281 20.6819L15.0067 20.686C14.9758 20.6923 14.9447 20.698 14.9086 20.7041L14.8627 20.7115L14.8618 20.7118L14.8534 20.7132C14.8358 20.7161 14.8171 20.7196 14.7873 20.7239L14.7282 20.7325L14.6719 20.7399L14.6049 20.748L14.5934 20.7491L14.5475 20.754L14.4857 20.7603L14.4297 20.7652L14.3659 20.7695L14.3059 20.7733L14.2441 20.7764L14.189 20.7787L14.1223 20.7804L14.0684 20.7813L14.0634 20.781C14.0456 20.7813 14.0282 20.7816 14.0017 20.7816L13.9497 20.781H13.939L13.8831 20.7799L13.832 20.7781L13.7578 20.7753L13.7416 20.7738H13.7408L13.7402 20.7741L13.6807 20.7707L13.6207 20.7661C13.5188 20.7586 13.4175 20.748 13.3176 20.7345L13.2925 20.731L13.2501 20.725L13.2068 20.7181L13.1759 20.7135L13.1355 20.7066L13.0945 20.6995L13.057 20.6926L13.0223 20.6857L12.9868 20.6788L12.9389 20.669L12.8656 20.6529L12.8255 20.644L12.7857 20.6343L12.745 20.6242L12.7175 20.6173L12.6716 20.6053L12.6263 20.5929L12.609 20.5883L12.5628 20.5751L12.5172 20.5619L12.4936 20.5545L12.4471 20.5404L12.4006 20.5255L12.3931 20.5232L12.342 20.5059L12.2909 20.4884L12.2852 20.4867L12.2843 20.4864C12.2517 20.4749 12.2211 20.4637 12.1948 20.4537C12.1683 20.4442 12.1388 20.4327 12.1056 20.4195C11.9532 20.3601 11.804 20.2932 11.6582 20.2194L11.6519 20.2162L11.604 20.1915L11.5561 20.1665L11.5494 20.1628L11.5033 20.1378L11.4579 20.1126L11.4444 20.1045L11.4317 20.0976L11.4195 20.0904C11.3967 20.0778 11.3757 20.0655 11.3575 20.0548L11.3431 20.0462L11.3012 20.021L11.2594 19.9951L11.1976 19.9561L11.1554 19.9288L11.1491 19.9245L11.102 19.8932L11.0562 19.8622L11.0547 19.8613C11.0146 19.8337 10.975 19.8053 10.9358 19.7766C10.8983 19.749 10.859 19.7195 10.8186 19.6882C10.62 19.534 10.4318 19.3646 10.2561 19.1805L10.2532 19.1771L10.2145 19.1363L10.1767 19.0955L10.17 19.0886L10.1325 19.0461L10.0947 19.0031L10.0924 19.0005L10.056 18.9585L10.02 18.9155L10.0107 18.904L9.97637 18.8621L9.94203 18.819L9.9377 18.8138L9.90277 18.769L9.869 18.7248L9.8664 18.7217L9.83494 18.6809L4.9775 21.471C4.89466 21.5184 4.81904 21.5396 4.75294 21.5408C4.69666 21.5413 4.64614 21.5273 4.60343 21.5014C4.561 21.4759 4.5255 21.438 4.49836 21.3917C4.46344 21.3317 4.44381 21.2577 4.44237 21.1781L4.44756 11.4223L1.41112 13.1664Z" fill="#BA0B22"/>
<path id="Shape_2" fill-rule="evenodd" clip-rule="evenodd" d="M9.9165 15.5846C9.9165 17.8392 11.745 19.6679 13.9995 19.6679C16.2547 19.6679 18.0832 17.8392 18.0832 15.5846C18.0832 13.3299 16.2547 11.5012 13.9995 11.5012C11.745 11.5012 9.9165 13.3299 9.9165 15.5846Z" fill="#FFC730"/>
</g>
</svg>
