<svg width="28" height="28" viewBox="0 0 28 28" fill="none" xmlns="http://www.w3.org/2000/svg">
<g id="Bank name=Parsian">
<path id="Shape" fill-rule="evenodd" clip-rule="evenodd" d="M26.1582 28.0001H14.4428V16.5426C14.5996 14.6961 14.8774 12.9954 15.5587 11.7815C15.9637 12.0088 16.6865 13.0137 16.9021 14.9581C17.4306 14.0038 18.0742 12.9339 19.2419 12.2554C19.3206 14.3614 19.1952 15.1628 18.605 16.629C17.7764 18.6873 15.4962 19.1665 15.4962 19.1665V26.9467H25.1048C25.1048 20.6146 25.2242 14.2813 25.1038 7.95025C25.1017 7.88672 25.0982 7.82343 25.0929 7.76008C25.0638 7.45436 24.9916 7.15499 24.8718 6.8719C24.5772 6.17528 24.0141 5.60746 23.3226 5.30466L23.3216 5.30425C23.5304 4.98452 23.7437 4.69676 23.9547 4.43887C24.3326 4.63102 24.6798 4.88279 24.9799 5.18286C25.4039 5.60682 25.7315 6.12494 25.9307 6.6906C26.0822 7.12057 26.1553 7.57201 26.1582 8.02742V28.0001ZM13.5571 28.0001H1.8418V8.02742C1.84466 7.57201 1.91781 7.12057 2.06924 6.6906C2.26851 6.12494 2.59605 5.60682 3.02007 5.18286C3.32014 4.88279 3.66734 4.63102 4.04522 4.43887C4.25627 4.69676 4.4696 4.98452 4.67831 5.30425L4.67738 5.30466C3.9859 5.60746 3.42281 6.17528 3.12816 6.8719C3.00841 7.15499 2.93613 7.45436 2.90702 7.76008C2.90177 7.82343 2.89821 7.88672 2.89617 7.95025C2.77571 14.2813 2.89518 20.6146 2.89518 26.9467H12.5037V19.1665C12.5037 19.1665 10.2235 18.6873 9.39497 16.629C8.80476 15.1628 8.6794 14.3614 8.75809 12.2554C9.92581 12.9339 10.5694 14.0038 11.0979 14.9581C11.3135 13.0137 12.0363 12.0088 12.4413 11.7815C13.1225 12.9954 13.4003 14.6961 13.5571 16.5426V28.0001ZM18.4272 0.716797C18.4176 0.812639 18.4044 0.908189 18.3877 1.00333C18.3642 1.13662 18.3342 1.26863 18.2981 1.39901C18.0009 2.47211 17.3103 3.38496 16.5609 4.18722C16.4218 4.33615 16.2796 4.48221 16.1361 4.62688C16.001 4.76309 15.8645 4.89801 15.7282 5.033C15.9509 5.68668 16.208 6.32852 16.4965 6.95596C16.6141 7.21169 16.7372 7.46468 16.8648 7.7154C17.2267 7.15551 17.6269 6.62025 18.0599 6.11426C18.3899 5.72868 18.7396 5.35926 19.1081 5.00972C18.8289 4.47953 18.6687 3.89229 18.5668 3.3033C18.4194 2.45081 18.3908 1.58101 18.4272 0.716797ZM9.57271 0.716797C9.5824 0.812639 9.59552 0.908189 9.61226 1.00333C9.63571 1.13662 9.66576 1.26863 9.70186 1.39901C9.99901 2.47211 10.6897 3.38496 11.439 4.18722C11.5782 4.33615 11.7203 4.48221 11.8638 4.62688C11.999 4.76309 12.1355 4.89801 12.2718 5.033C12.049 5.68668 11.7919 6.32852 11.5035 6.95596C11.3859 7.21169 11.2628 7.46468 11.1352 7.7154C10.7732 7.15551 10.373 6.62025 9.9401 6.11426C9.61011 5.72868 9.2604 5.35926 8.89185 5.00972C9.17109 4.47953 9.33121 3.89229 9.43312 3.3033C9.58053 2.45081 9.60917 1.58101 9.57271 0.716797Z" fill="#B27D53"/>
<path id="Shape_2" fill-rule="evenodd" clip-rule="evenodd" d="M25.0724 2.65719C23.2219 3.99081 21.0573 6.90526 20.8022 9.97208C20.5945 12.4701 20.1677 13.5616 19.8489 14.0289C19.9902 13.1867 19.9893 12.0415 19.8311 11.1181C19.4775 11.2746 18.8905 11.6353 18.3531 12.1696C18.2863 11.9511 17.7379 10.8285 15.9314 11.3263C16.0183 11.0466 16.1141 10.77 16.2208 10.4969C16.4759 9.84375 16.7847 9.2117 17.1399 8.60667C17.1423 8.60276 17.1446 8.59885 17.1468 8.59489C17.5292 7.94494 17.9652 7.32631 18.4456 6.74624C18.8541 6.25286 19.296 5.78602 19.7692 5.35348C19.7834 5.34251 19.7967 5.33032 19.8092 5.31702C20.1539 5.00447 20.515 4.71012 20.8916 4.437C21.9461 3.67231 23.1368 3.06249 24.4128 2.77398C24.631 2.72469 24.851 2.6863 25.0724 2.65719ZM2.92725 2.65719C4.77781 3.99081 6.94239 6.90526 7.19748 9.97208C7.4052 12.4701 7.83203 13.5616 8.15076 14.0289C8.00954 13.1867 8.01041 12.0415 8.16855 11.1181C8.52223 11.2746 9.10918 11.6353 9.6466 12.1696C9.7134 11.9511 10.2618 10.8285 12.0683 11.3263C11.9814 11.0466 11.8856 10.77 11.7789 10.4969C11.5238 9.84375 11.215 9.2117 10.8598 8.60667C10.8574 8.60276 10.8551 8.59885 10.8529 8.59489C10.4704 7.94494 10.0345 7.32631 9.55409 6.74624C9.14558 6.25286 8.70365 5.78602 8.2305 5.35348C8.21633 5.34251 8.20297 5.33032 8.19049 5.31702C7.8458 5.00447 7.48465 4.71012 7.10805 4.437C6.05356 3.67231 4.86286 3.06249 3.58694 2.77398C3.36871 2.72469 3.14874 2.6863 2.92725 2.65719ZM15.1186 11.6002C14.916 11.4521 14.5954 11.186 13.9924 11.1879C13.3894 11.1898 13.0766 11.4573 12.8811 11.6002C12.7306 10.6529 12.1084 9.51649 11.5617 8.41779C11.8072 7.95374 12.541 6.34024 12.7369 5.72938C13.2569 4.1073 13.7107 2.11895 13.9998 1.04684C14.2777 2.12193 14.7318 4.17882 15.2628 5.72938C15.4707 6.33628 16.1925 7.95374 16.438 8.41779C15.8913 9.51649 15.2691 10.6529 15.1186 11.6002ZM19.2094 1.88264C19.3494 0.771861 20.6042 0.689903 21.378 0.94902C22.49 1.32142 22.8735 2.3601 21.9804 2.9369C21.5493 3.21527 21.0863 3.44236 20.6672 3.73484C20.3151 3.98054 19.9756 4.24386 19.649 4.52258L19.6438 4.51109C19.2677 3.30207 19.1313 2.5029 19.2094 1.88264ZM8.79027 1.88264C8.65033 0.771861 7.39546 0.689903 6.62167 0.94902C5.50972 1.32142 5.12618 2.3601 6.01932 2.9369C6.45035 3.21527 6.9134 3.44236 7.33252 3.73484C7.68456 3.98054 8.02412 4.24386 8.35067 4.52258L8.35592 4.51109C8.732 3.30207 8.86844 2.5029 8.79027 1.88264ZM14.8504 1.36429C14.7215 0.486845 15.6399 -0.0855803 16.2968 0.0104947C16.7285 0.0736114 17.9002 0.372803 17.5708 1.37777C17.4424 1.76959 17.2514 2.13995 17.0272 2.48552C16.6346 3.09044 16.1423 3.62045 15.6375 4.13209C15.5879 4.18179 15.5382 4.23138 15.4885 4.2809C15.2933 3.62273 15.1322 2.95452 15.0039 2.28007C14.9461 1.97586 14.8954 1.67054 14.8504 1.36429ZM13.1493 1.36429C13.2781 0.486845 12.3598 -0.0855803 11.7029 0.0104947C11.2712 0.0736114 10.0995 0.372803 10.4289 1.37777C10.5572 1.76959 10.7483 2.13995 10.9725 2.48552C11.3651 3.09044 11.8574 3.62045 12.3622 4.13209C12.4118 4.18179 12.4615 4.23138 12.5112 4.2809C12.7064 3.62273 12.8675 2.95452 12.9958 2.28007C13.0536 1.97586 13.1043 1.67054 13.1493 1.36429Z" fill="black"/>
</g>
</svg>
