<svg width="28" height="28" viewBox="0 0 28 28" fill="none" xmlns="http://www.w3.org/2000/svg">
<g id="Bank name=Pasargad">
<path id="Shape" fill-rule="evenodd" clip-rule="evenodd" d="M1.75 28H26.25V27.7416H1.75V28ZM1.75 27.6268H26.25V27.0119H1.75V27.6268ZM16.3749 6.73779L14.6229 17.8211C14.6229 17.8211 14.5021 19.7773 15.5132 20.8842C16.0021 21.4194 16.6008 21.5681 17.1566 21.8875C17.6472 22.1694 18.2056 22.6812 18.2918 23.2878C18.4273 24.2422 17.4169 24.3699 16.8796 24.1661C16.3081 23.9493 15.8741 23.8706 15.3029 23.8947C14.0316 23.9483 13.745 24.8672 13.7492 25.2026C13.7636 26.3485 14.8458 26.7714 14.8458 26.7714C14.8458 26.7714 13.7792 26.7773 12.9523 26.7847C8.08517 26.8288 6.41737 23.4898 5.79571 19.6365L3.71467 6.73779H16.3749ZM24.7399 26.759H16.2298C16.2298 26.759 14.4145 26.7241 14.4365 25.4283C14.4544 24.3783 15.6097 24.0402 16.9631 24.4924C17.3301 24.615 17.9187 24.6172 18.643 24.7118C19.3771 24.8076 20.2533 24.6776 21.3575 25.163C21.4441 25.201 21.6425 25.1609 21.8766 25.1683C22.0888 25.175 22.3393 25.2321 22.396 25.2127C22.7145 25.1036 22.8773 24.9342 23.1885 24.9411C23.3097 24.9438 23.4163 25.0459 23.4879 25.1332C23.5781 25.0593 23.6344 25.0034 23.7476 25.0029C24.0119 25.0017 24.1149 25.3933 24.2794 25.638C24.7284 25.739 25.0595 26.289 25.1322 26.5743C25.147 26.6324 24.9968 26.7127 24.9507 26.6744C24.7392 26.4987 23.8741 25.3599 23.743 25.3608C23.6851 25.3612 23.833 25.665 23.8632 25.7671C23.6322 25.6189 23.2175 25.0424 23.0512 25.2113C22.8464 25.4193 23.5609 25.922 23.2622 26.0238C23.1006 26.0789 22.7523 25.7515 22.3317 25.617C21.9836 25.5057 21.2757 25.5702 21.1772 25.5096C20.3755 25.0162 18.3677 25.0862 16.8902 24.9728C16.6391 24.9535 16.3425 24.8044 15.9772 24.7729C15.4859 24.7306 14.9774 24.9047 14.9829 25.4792C14.9855 25.7635 15.2476 26.3074 16.0173 26.3307C17.9127 26.3879 21.1163 26.3045 21.1163 26.3045L20.7092 26.0063C20.7092 26.0063 17.0585 25.983 16.2298 25.9468C15.8446 25.9299 15.744 25.5102 15.7851 25.3853C15.8771 25.1049 16.3186 25.1838 16.3186 25.1838C16.3186 25.1838 16.7923 25.2424 17.0353 25.2551C17.7935 25.2945 19.8787 25.4605 20.8479 25.7486C21.1254 25.831 21.619 25.798 21.9594 25.8602C22.582 25.9738 22.8383 26.1121 23.305 26.474L23.6731 26.4716C23.6731 26.4716 23.6167 26.1411 23.6655 26.0649C23.7143 25.9887 23.7953 26.0104 23.8825 26.0429C23.9698 26.0754 24.0586 26.1944 24.1295 26.2144C24.2005 26.2343 24.2254 26.1372 24.3039 26.1529C24.4668 26.1854 24.5957 26.4022 24.6878 26.5487C24.729 26.6143 24.7397 26.757 24.7399 26.759ZM12.2884 24.7935C12.1837 25.1378 12.3238 25.3593 12.6117 25.4836L10.9691 25.963C10.7506 26.0268 10.5219 25.9014 10.4581 25.6829C10.4053 25.5019 10.5089 25.3129 10.6893 25.2602L12.2884 24.7935ZM13.7298 24.3804C13.6933 24.6846 13.6427 24.9517 13.6001 25.1951L12.9308 25.3905C12.7344 25.3517 12.5301 25.2568 12.5003 25.0314C12.4806 24.8825 12.5711 24.7648 12.6884 24.6767L13.7298 24.3804ZM12.2981 23.8601C12.0843 24.1527 12.1868 24.4198 12.548 24.5716L10.9097 25.0498C10.6913 25.1136 10.4625 24.9882 10.3987 24.7698C10.3459 24.5887 10.4495 24.3997 10.63 24.347L12.2981 23.8601ZM18.4819 13.3768C17.6172 13.78 16.3833 15.0449 15.8818 16.0421C15.8461 16.1129 15.7647 16.2685 15.7007 16.3879C15.5778 16.6171 15.348 17.1556 15.2921 17.3455C15.1458 17.8424 15.1108 17.9845 15.0559 18.305C14.8909 19.2691 15.0348 20.0342 15.4748 20.5316C15.7996 20.8988 16.0633 21.0516 17.2063 21.5347C17.3521 21.5964 17.4632 21.6518 17.7106 21.7864C18.6178 22.2799 18.9922 23.3179 18.625 24.2494C18.5662 24.3987 18.5358 24.405 19.3051 24.4691C20.1849 24.5425 20.857 24.6589 21.0961 24.7778C20.9958 23.5063 20.7437 20.0765 20.6589 19.2851C20.6474 19.1775 20.5911 19.1636 20.5325 19.1627C20.3408 19.1596 19.9978 19.1549 19.7934 19.0466C19.8785 18.9393 19.9621 18.8666 20.1016 18.7808L19.7207 18.7652C19.161 18.7099 19.0308 18.4547 19.5494 18.1888C19.5494 18.1888 18.827 18.276 18.8281 17.6594C18.8283 17.5416 18.8445 17.4981 18.9488 17.5247C19.0472 17.5498 19.2761 17.5455 19.275 17.5185C19.2726 17.4539 19.1389 17.4223 19.0699 17.3949C18.909 17.3314 18.835 17.2126 18.7873 17.0697C18.7399 16.928 18.799 16.8933 19.0076 16.7989C19.2863 16.6728 19.296 16.5583 19.0524 16.5583C18.5458 16.5583 18.5535 15.7729 19.0231 15.3646C19.2581 15.1604 19.2731 15.0912 19.1123 15.0388C18.8725 14.9605 18.5389 14.5559 18.5558 14.1827C18.5803 13.6393 19.8157 13.3538 20.0162 13.8511C20.0691 13.9824 20.3016 14.0083 20.2953 13.8437C20.2921 13.7596 20.4483 13.613 20.6283 13.5369C20.7079 13.5032 20.496 13.364 20.3418 13.2882C20.0847 13.1615 19.5327 13.122 19.1261 13.1975C18.7326 13.2706 18.6542 13.2964 18.4819 13.3768ZM13.7778 23.4282C13.784 23.7193 13.7707 23.9818 13.7471 24.2216L12.9005 24.4688C12.4557 24.417 12.3003 24.1137 12.5464 23.7876L13.7778 23.4282ZM14.0597 24.2232C14.0597 24.2232 14.1938 21.9481 13.4496 20.3706C12.6501 18.6761 10.8282 16.8701 9.78197 15.6771C9.67435 15.5543 9.52338 15.2143 9.54549 14.9558C9.64122 13.8375 11.227 14.0966 11.227 14.0966C11.227 14.0966 11.2691 14.4598 11.3362 14.6276C11.8593 15.9366 13.4782 17.5631 14.244 19.0744C15.0254 20.6164 15.8535 23.7341 15.8535 23.7341C14.9726 23.6289 14.3672 23.785 14.0597 24.2232ZM12.1493 22.9702C12.0312 23.3849 12.2194 23.5532 12.444 23.6687L10.81 24.1456C10.5916 24.2094 10.3628 24.084 10.299 23.8656C10.2462 23.6845 10.3498 23.4955 10.5303 23.4428L12.1493 22.9702ZM13.6988 22.518C13.7395 22.7922 13.7628 23.0455 13.773 23.2808L12.8818 23.5409C12.6865 23.5362 12.5306 23.4732 12.4472 23.3616C12.3493 23.2307 12.351 23.0276 12.5266 22.8601L13.6988 22.518ZM11.9544 22.0994C11.7739 22.3618 11.9119 22.6747 12.2468 22.7985L10.5738 23.2868C10.469 23.3175 10.3562 23.3052 10.2604 23.2526C10.1646 23.2001 10.0935 23.1117 10.0629 23.0068L10.0627 23.0062C10.0101 22.8257 10.1137 22.6367 10.2941 22.584L11.9544 22.0994ZM13.5222 21.6418C13.588 21.9037 13.6388 22.1496 13.6772 22.381L12.596 22.6966C12.164 22.6591 12.0659 22.3978 12.2106 22.0246L13.5222 21.6418ZM11.6542 21.2565C11.5241 21.7446 11.7538 21.8575 12.0175 21.935L10.3084 22.4338C10.09 22.4975 9.86119 22.3722 9.79743 22.1537C9.74458 21.9727 9.84818 21.7836 10.0287 21.731L11.6542 21.2565ZM13.2705 20.7847C13.355 21.0377 13.4267 21.2778 13.4872 21.506L12.2594 21.8643C12.053 21.8117 11.9176 21.6298 11.8861 21.5146C11.8437 21.3597 11.9033 21.2426 11.979 21.1617L13.2705 20.7847ZM11.3009 20.4567C11.1576 20.7433 11.2901 21.0509 11.6241 21.1192L9.93253 21.613C9.82823 21.6434 9.71612 21.6312 9.6208 21.579C9.52554 21.5267 9.4549 21.4388 9.42445 21.3345C9.3989 21.2469 9.4094 21.1535 9.45338 21.0745C9.49731 20.9955 9.57116 20.9374 9.65825 20.9132L11.3009 20.4567ZM12.9182 19.9611C13.0403 20.1872 13.1445 20.4175 13.2254 20.6519L11.9177 21.0335C11.747 21.0149 11.5449 20.9352 11.4945 20.6722C11.4714 20.5689 11.5291 20.4542 11.6039 20.3659L12.9182 19.9611ZM10.8223 19.6841C10.7129 20.0503 10.902 20.2515 11.1716 20.3208L9.46972 20.8176C9.26164 20.8783 9.04347 20.7604 8.9803 20.553C8.95469 20.469 8.96391 20.3787 9.00573 20.302C9.0475 20.2254 9.11837 20.1687 9.20237 20.1448L10.8223 19.6841ZM12.4219 19.181C12.5764 19.3938 12.7195 19.6109 12.8463 19.832L11.4784 20.2313C11.1728 20.2049 10.9551 19.9447 11.0759 19.6063L12.4219 19.181ZM10.153 18.9506C10.2525 19.3248 10.3693 19.5155 10.5197 19.5806L8.92856 20.045C8.82928 20.074 8.72258 20.0623 8.63188 20.0126C8.54122 19.9629 8.47397 19.8792 8.44503 19.78C8.42135 19.6988 8.4308 19.612 8.47123 19.5383C8.51165 19.4645 8.57973 19.4098 8.66052 19.3863L10.153 18.9506ZM11.8457 18.4565C12.0126 18.6513 12.1747 18.8501 12.3273 19.053L10.8869 19.4734C10.6322 19.4232 10.3797 19.139 10.5615 18.8314L11.8457 18.4565ZM9.47998 18.2288C9.51032 18.2433 9.53855 18.259 9.55908 18.275C9.72166 18.4007 9.5067 18.6303 9.98305 18.8268L8.29214 19.3203C8.0836 19.3812 7.86514 19.2614 7.8043 19.0529C7.78032 18.9708 7.78989 18.8828 7.83084 18.8081C7.87179 18.7334 7.94074 18.678 8.02252 18.6542L9.47998 18.2288ZM19.4196 16.3468C19.5266 16.3263 19.5267 16.4867 19.4307 16.732C19.3272 16.9964 18.9811 17.0213 19.0137 17.0747C19.1568 17.309 19.6113 17.2161 19.7333 17.2558C19.8217 17.2845 19.6857 17.5947 19.3955 17.7851C19.1834 17.9244 19.2534 17.9898 19.5331 18.0098C19.6613 18.0189 19.8419 17.8918 20.0134 17.8935C20.0744 17.8941 20.0609 18.2176 19.886 18.3499C19.4764 18.6599 19.8094 18.6471 20.3222 18.5024C20.6085 18.4217 20.557 18.5111 20.4473 18.7201C20.381 18.8466 20.2464 18.9123 20.2865 18.9516C20.3402 19.0041 20.7695 19.0716 21.0895 18.6671C21.1489 18.5919 21.1648 18.4828 21.0055 18.3639C20.4451 17.9457 20.2165 17.4452 20.0287 16.692C19.9657 16.4386 19.9318 15.4285 19.983 15.2016C20.0148 15.0604 19.9784 15.0646 19.6242 15.2437C18.7697 15.6757 18.6238 16.4993 19.4196 16.3468ZM21.75 16.9151C20.5689 16.9255 20.2575 17.7095 21.1677 18.2625C21.3107 18.3493 21.2798 18.3759 21.2798 18.4959C21.2799 18.6664 21.4471 18.7712 21.5867 18.7834C21.8984 18.8105 22.0687 18.6969 22.126 18.309C22.154 18.1189 22.2076 18.0196 22.4011 17.7598C22.493 17.6364 22.5348 17.5561 22.5103 17.5471C22.4646 17.5303 22.3447 17.5579 22.2498 17.7185C21.9314 18.2576 21.1162 18.1332 20.9331 17.7438C20.8058 17.4729 21.0324 17.1034 21.8496 17.1004C22.4254 17.0984 22.4466 17.1216 22.4997 17.3159C22.5422 17.4711 22.6413 17.4079 22.8499 17.0929C23.1936 16.5735 23.1486 16.484 22.7976 16.6752C22.4652 16.8563 22.1763 16.9113 21.75 16.9151ZM11.1898 17.7297C11.3691 17.9211 11.5494 18.1173 11.7256 18.3182L10.3318 18.725C10.1976 18.6919 10.0703 18.6127 9.97447 18.486C9.89386 18.3794 9.8994 18.2076 10.0178 18.0718L11.1898 17.7297ZM9.04196 17.4408C8.94956 17.7864 9.05001 17.9403 9.38828 18.0498L7.69072 18.5453C7.59127 18.5743 7.4844 18.5627 7.39363 18.5128C7.30281 18.4631 7.23549 18.3793 7.20644 18.2799C7.18229 18.1971 7.19232 18.1086 7.23421 18.0339C7.27603 17.9591 7.34615 17.9042 7.42881 17.8817L9.04196 17.4408ZM10.4941 16.9937C10.6688 17.1797 10.852 17.3714 11.038 17.5683L9.68287 17.9638C9.32452 17.8908 9.21054 17.5967 9.37982 17.3382L10.4941 16.9937ZM8.36739 16.7141C8.34155 17.1011 8.59547 17.2269 8.85815 17.274L7.11661 17.7823C6.88607 17.8496 6.64376 17.722 6.5688 17.4939C6.55952 17.4656 6.55037 17.4376 6.54144 17.4105C6.51922 17.3428 6.52657 17.2689 6.56168 17.207C6.5968 17.145 6.65642 17.1008 6.72583 17.0851L8.36739 16.7141ZM21.4782 17.4123C21.7083 17.4108 21.9092 17.4265 22.1233 17.6488C22.1434 17.6697 22.168 17.5994 22.1834 17.5667C22.2182 17.4929 22.2867 17.4148 22.2154 17.3644C22.0746 17.265 21.6708 17.2401 21.3618 17.3344C21.1777 17.3907 21.2589 17.4138 21.4782 17.4123ZM9.84696 16.2693C9.99787 16.4524 10.1678 16.6424 10.3496 16.8387L9.14632 17.1899C8.67288 17.1777 8.58999 16.7971 8.62558 16.5811L8.79002 16.4794L9.84696 16.2693ZM7.875 15.9365C7.93508 16.2202 8.10944 16.3542 8.29401 16.4697L6.47127 16.9246C6.33156 16.9595 6.18532 16.9007 6.10855 16.7788C6.05897 16.7001 6.00069 16.6076 5.94446 16.5182C5.8954 16.4403 5.89009 16.3426 5.93046 16.2598C5.97082 16.1771 6.05109 16.1211 6.14273 16.1118L7.875 15.9365ZM21.4617 16.3771C21.4031 16.4745 21.317 16.6057 21.1749 16.7285C21.0767 16.8134 22.1945 16.7191 22.4812 16.5549C22.6824 16.4396 22.9045 16.4601 22.9614 16.4748C23.0448 16.4964 23.0305 16.3737 22.9546 16.1509C22.7993 15.6957 22.5297 15.559 22.1559 15.6883C21.9137 15.7721 21.7065 15.9704 21.4617 16.3771ZM21.4264 15.4239C21.319 15.5224 21.1696 15.6702 21.0622 15.7451C20.6272 16.0484 20.4321 16.349 20.6001 16.515C20.8863 16.7981 21.4198 16.3225 21.4278 15.753C21.4313 15.5131 21.6374 15.2809 22.2073 15.2132C22.3594 15.1951 22.4017 15.1364 22.2342 15.1394C22.0642 15.1424 21.9031 15.1455 21.8763 15.1546C21.7032 15.213 21.5966 15.2676 21.4264 15.4239ZM9.35585 15.5611C9.44854 15.7386 9.57483 15.9244 9.72574 16.1181L8.5519 16.4054C8.30906 16.2858 7.97043 15.9046 8.25498 15.6538L8.25533 15.6514L9.35585 15.5611ZM22.0378 15.4425C22.1946 15.4221 22.4248 15.3942 22.5842 15.4545C22.93 15.5853 23.1726 15.9162 23.1835 16.1548C23.1894 16.2818 23.2671 16.341 23.3035 16.1962C23.3278 16.0992 23.4316 15.8553 23.4366 15.6202C23.4376 15.5762 23.4317 15.4999 23.3945 15.4764C23.3549 15.4514 23.1894 15.4674 23.1144 15.454C23.0156 15.4361 22.8593 15.3994 22.7763 15.3558C22.5869 15.2564 22.2103 15.2871 22.004 15.3465C21.9568 15.3601 21.8808 15.4629 22.0378 15.4425ZM7.80961 15.8216L5.98459 15.8725C5.81875 15.8771 5.67484 15.7591 5.64684 15.5956C5.63675 15.5369 5.62578 15.4729 5.61458 15.4073C5.58886 15.2573 5.63506 15.1038 5.7393 14.9929C5.8436 14.882 5.99387 14.8263 6.14524 14.8427C6.70291 14.903 7.16088 14.9556 7.44007 14.9869C7.48212 15.4188 7.70472 15.7075 7.80961 15.8216ZM20.4177 15.6199C20.5963 15.7968 20.9304 15.7397 21.0629 15.5688C21.4192 15.1094 21.7053 14.9901 22.1469 14.9882C22.2963 14.9876 22.2283 14.9198 22.0927 14.7923C21.9123 14.6228 21.7988 14.6071 21.5808 14.6193C21.4144 14.6286 21.3569 14.6182 21.357 14.5679C21.3572 14.3644 21.0039 14.239 20.7615 14.3887C20.3355 14.652 20.146 15.3509 20.4177 15.6199ZM21.8823 14.8466C21.8965 14.8685 21.5229 14.9743 21.3718 15.0811C21.3086 15.1257 21.272 15.1713 21.2137 15.2027C21.2011 15.2095 20.9758 15.2052 20.8907 15.1072C20.7985 15.0008 20.851 14.7564 21.0222 14.7589C21.1259 14.7603 21.0659 14.846 21.0273 14.9431C21.0058 14.9971 21.0147 15.0673 21.049 15.0778C21.3635 15.1735 21.2683 14.6767 21.0807 14.6448C20.9429 14.6214 20.6749 14.7234 20.6592 14.9386C20.6519 15.0392 20.6634 15.1343 20.7867 15.2293C20.8907 15.3094 21.0183 15.2874 21.1227 15.2791C20.984 15.4232 20.8402 15.5436 20.6756 15.5347C20.4567 15.523 20.4295 15.1283 20.5709 14.8463C20.654 14.6806 20.8566 14.494 21.0166 14.5018C21.2348 14.5125 21.2114 14.6566 21.3109 14.7565C21.3687 14.8145 21.8013 14.7219 21.8823 14.8466ZM9.34395 15.3876L8.00059 15.4447C7.63087 15.1736 7.61454 14.1123 7.79946 13.9752C8.18411 14.4269 8.73034 14.5913 9.28882 14.6775C9.26917 14.77 9.25657 14.872 9.2519 14.9845C9.24752 15.0903 9.25552 15.2797 9.34395 15.3876ZM20.2117 14.2196C20.1001 14.3226 20.0615 14.3173 19.9355 14.1289C19.8029 13.9306 19.6304 13.8465 19.4715 13.8445C19.1047 13.8398 18.7929 14.1805 18.7668 14.2323C18.7445 14.2764 18.8099 14.2925 18.8311 14.3726C18.9013 14.6376 19.1713 15.009 19.5337 15.0292C19.8122 15.0448 20.0514 14.9463 20.24 14.6445C20.4247 14.3489 20.6075 14.1521 20.8051 14.0813C21.0832 13.9816 21.348 14.0922 21.5966 14.3459C21.6361 14.3862 21.7572 14.4045 21.7957 14.4028C21.8712 14.3995 22.0492 14.5311 22.1385 14.6389C22.3214 14.8596 22.4044 14.8682 22.3607 14.7244C22.3282 14.6175 21.9517 14.2152 21.7408 14.1465C21.5497 14.0843 21.3396 13.7478 21.0202 13.6816C20.8805 13.6525 20.7633 13.746 20.6476 13.8458C20.4988 13.9741 20.2548 14.1798 20.2117 14.2196ZM7.42799 14.8084C7.14589 14.7592 6.35827 14.6225 5.79804 14.5319C5.69193 14.5148 5.59708 14.4562 5.53432 14.369C5.47149 14.2819 5.44594 14.1733 5.46332 14.0673C5.47826 13.9758 5.4943 13.878 5.50964 13.784C5.52796 13.672 5.59697 13.5746 5.6966 13.5202C5.79623 13.4657 5.91547 13.4603 6.01965 13.5054C6.52155 13.7226 7.15563 14.0062 7.4291 14.129C7.406 14.3404 7.41883 14.6502 7.42799 14.8084ZM9.32394 14.5444C8.82163 14.4691 8.49112 14.3442 7.94687 13.9C7.64908 13.551 8.31547 12.6765 8.6289 12.9135C8.82286 13.5728 9.16977 13.8207 9.57822 14.1233C9.46907 14.2277 9.38117 14.3649 9.32394 14.5444ZM9.66957 14.0467C9.34173 13.757 9.01192 13.3384 8.90365 12.9621C8.87932 12.8775 8.86941 12.7375 8.90558 12.6785C9.15221 12.2754 9.7783 12.3264 10.0005 12.3581C10.0438 12.3643 10.07 12.4106 10.0662 12.4417C10.0092 12.8992 10.0911 13.248 10.2088 13.5441C10.2164 13.5633 10.2477 13.831 10.2057 13.838C10.0093 13.871 9.82386 13.9337 9.66957 14.0467ZM7.46235 13.9487L5.99264 13.1761C5.88519 13.1196 5.80463 13.0226 5.76876 12.9067C5.73294 12.7907 5.74472 12.6652 5.8016 12.5579C5.80796 12.5459 5.81437 12.5338 5.82085 12.5216C5.894 12.3836 6.02577 12.2862 6.17919 12.2566C6.33255 12.2271 6.4911 12.2688 6.61022 12.3698L7.71633 13.308C7.62038 13.4698 7.51841 13.7201 7.46235 13.9487ZM10.4851 13.8094C10.2966 13.5519 10.2437 12.8722 10.273 12.4636C10.2786 12.3855 10.3346 12.3594 10.3558 12.3603C10.7575 12.3776 11.0594 12.4885 11.3707 12.7735C11.4069 12.8067 11.4153 12.8929 11.3991 12.9157C11.2066 13.1857 11.1284 13.4908 11.1446 13.8252C10.9416 13.8135 10.7123 13.7986 10.4851 13.8094ZM7.80027 13.1781C7.51882 12.9442 6.71802 12.2729 6.63967 12.1456C6.52248 11.4492 7.1743 11.0387 7.60445 11.1959C7.7231 11.3664 8.14742 12.2688 8.30503 12.6069C8.06318 12.7988 7.89944 13.0287 7.80027 13.1781ZM11.1507 12.2504C11.38 11.9764 11.907 11.3534 12.1283 11.1459C12.2885 10.9957 12.5747 10.921 12.7107 11.0304C12.8349 11.1304 13.0492 11.3518 13.0881 11.5246C13.1434 11.7706 13.0824 11.9408 12.8868 12.0672C12.6575 12.2153 11.9484 12.6045 11.6502 12.7672C11.5109 12.533 11.3509 12.3652 11.1507 12.2504ZM8.45571 12.4947C8.27826 12.145 7.82454 11.246 7.71902 10.9916C7.68711 10.9147 7.67031 10.7957 7.73774 10.7189C7.98653 10.4355 8.56532 10.2345 8.87238 10.2657C9.00649 10.2793 9.05368 10.3482 9.05782 10.4553C9.07247 10.8347 9.09942 11.808 9.10857 12.1451C8.87658 12.2229 8.64768 12.3587 8.45571 12.4947ZM10.2343 12.0431C10.377 11.6644 10.683 10.8538 10.7825 10.6052C10.8114 10.5331 10.8687 10.3389 10.972 10.2833C11.087 10.2215 11.3622 10.1937 11.5505 10.2404C11.7388 10.2871 11.9443 10.4458 12.0099 10.571C12.0755 10.6962 12.041 10.8414 11.9641 10.9604C11.8156 11.1903 11.2689 11.882 11.0255 12.1877C10.811 12.0947 10.5535 12.0508 10.2343 12.0431ZM9.26357 12.1024C9.25715 11.7151 9.24344 10.6233 9.28532 10.3185C9.30539 10.1728 9.41039 10.0548 9.55179 10.0142C9.73315 9.96199 10.2167 9.95972 10.4 10.0217C10.5496 10.0724 10.6763 10.2059 10.6532 10.3622C10.6105 10.6514 10.236 11.6377 10.0794 12.0422C9.87432 12.0441 9.64547 12.0587 9.38881 12.0829C9.34733 12.0868 9.30551 12.0934 9.26357 12.1024ZM16.3997 6.58047H3.68929L3.66112 6.40599H16.4273L16.3997 6.58047ZM16.4796 6.07489H3.60774L3.54801 5.70477C3.59158 5.69456 3.63463 5.68207 3.67704 5.66691C3.81617 5.61727 3.94462 5.54091 4.05533 5.44314C4.16016 5.35057 4.2483 5.24032 4.32168 5.12149C4.3764 5.03294 4.42318 4.93955 4.46378 4.84371C4.4723 4.82352 4.48006 4.80293 4.48776 4.78234V4.424C4.47673 4.42686 4.46594 4.43059 4.45544 4.43508C4.39297 4.46197 4.3484 4.515 4.31818 4.57456C4.29841 4.61341 4.28511 4.65512 4.26924 4.6956C4.26183 4.71438 4.25402 4.73293 4.24637 4.75154C4.22712 4.79535 4.20741 4.83869 4.18594 4.88151C4.13192 4.98517 4.0698 5.08433 3.99239 5.17236C3.86598 5.31621 3.703 5.42051 3.51744 5.46939L3.51033 5.4712L2.76757 0.867533H17.3027L16.571 5.49669C16.524 5.49062 16.4772 5.48147 16.4314 5.46939C16.2459 5.42051 16.083 5.31621 15.9565 5.17236C15.8791 5.08433 15.817 4.98517 15.7629 4.88151C15.7415 4.83869 15.7218 4.79535 15.7025 4.75154C15.6949 4.73293 15.6871 4.71438 15.6797 4.6956C15.6638 4.65512 15.6505 4.61341 15.6307 4.57456C15.6005 4.515 15.5559 4.46197 15.4934 4.43508C15.4829 4.43059 15.4722 4.42686 15.4611 4.424V4.78234C15.4688 4.80293 15.4766 4.82352 15.4852 4.84371C15.5258 4.93955 15.5725 5.03294 15.6272 5.12149C15.7006 5.24032 15.7887 5.35057 15.8936 5.44314C16.0043 5.54091 16.1328 5.61727 16.2719 5.66691C16.3571 5.69736 16.445 5.71713 16.5343 5.72921L16.4796 6.07489ZM8.61268 5.50678C8.61268 5.50678 8.71675 5.50573 8.74633 5.50404C8.81977 5.49984 8.89332 5.48812 8.96443 5.46939C9.14999 5.42051 9.31292 5.31621 9.43938 5.17236C9.51673 5.08433 9.57892 4.98517 9.63293 4.88151C9.65434 4.83869 9.67406 4.79535 9.69337 4.75154C9.70095 4.73293 9.70882 4.71438 9.71617 4.6956C9.7321 4.65512 9.7454 4.61341 9.76512 4.57456C9.79533 4.515 9.83996 4.46198 9.90238 4.43508C9.91288 4.43059 9.92373 4.42686 9.93475 4.424V4.78234C9.92705 4.80293 9.91929 4.82352 9.91072 4.84371C9.87012 4.93955 9.82333 5.03294 9.76862 5.12149C9.69523 5.24032 9.60709 5.35057 9.50227 5.44314C9.39161 5.54091 9.2631 5.61727 9.12397 5.66691C9.00678 5.70879 8.88469 5.73043 8.76085 5.73971C8.72416 5.74146 8.60539 5.74315 8.60539 5.74315C8.56677 5.74321 8.49893 5.74134 8.46457 5.73971C8.34073 5.73043 8.21864 5.70879 8.10145 5.66691C7.96232 5.61727 7.83382 5.54091 7.72316 5.44314C7.61833 5.35057 7.53019 5.24032 7.45681 5.12149C7.40209 5.03294 7.35531 4.93955 7.31471 4.84371C7.30613 4.82352 7.29837 4.80293 7.29067 4.78234V4.424C7.3017 4.42686 7.31255 4.43059 7.32305 4.43508C7.38547 4.46198 7.43009 4.515 7.46031 4.57456C7.48002 4.61341 7.49332 4.65512 7.50925 4.6956C7.5166 4.71438 7.52447 4.73293 7.53206 4.75154C7.55137 4.79535 7.57108 4.83869 7.59249 4.88151C7.64651 4.98517 7.70869 5.08433 7.78604 5.17236C7.91251 5.31621 8.07543 5.42051 8.26099 5.46939C8.3321 5.48812 8.40566 5.49984 8.4791 5.50404C8.51066 5.50585 8.58107 5.50462 8.61268 5.50678ZM14.0597 5.74309C14.0597 5.74309 13.9459 5.74134 13.9115 5.73971C13.7877 5.73043 13.6656 5.70879 13.5484 5.66691C13.4093 5.61727 13.2808 5.54091 13.1701 5.44314C13.0653 5.35057 12.9771 5.24032 12.9037 5.12149C12.849 5.03294 12.8022 4.93955 12.7616 4.84371C12.7531 4.82352 12.7454 4.80293 12.7377 4.78234V4.424C12.7487 4.42686 12.7595 4.43059 12.77 4.43508C12.8325 4.46198 12.877 4.515 12.9072 4.57456C12.927 4.61341 12.9403 4.65512 12.9562 4.6956C12.9636 4.71438 12.9714 4.73293 12.979 4.75154C12.9983 4.79535 13.018 4.83869 13.0395 4.88151C13.0935 4.98517 13.1556 5.08433 13.233 5.17236C13.3594 5.31621 13.5224 5.42051 13.708 5.46939C13.7791 5.48812 13.8526 5.49984 13.926 5.50404C13.9576 5.50585 14.0281 5.50462 14.0597 5.50678C14.0597 5.50678 14.1637 5.50573 14.1933 5.50404C14.2667 5.49984 14.3403 5.48812 14.4114 5.46939C14.5969 5.42051 14.7598 5.31621 14.8863 5.17236C14.9637 5.08433 15.0258 4.98517 15.0799 4.88151C15.1013 4.83869 15.121 4.79535 15.1403 4.75154C15.1479 4.73293 15.1558 4.71438 15.1631 4.6956C15.179 4.65512 15.1923 4.61341 15.2121 4.57456C15.2423 4.515 15.2869 4.46198 15.3494 4.43508C15.3599 4.43059 15.3707 4.42686 15.3817 4.424V4.78234C15.374 4.80293 15.3662 4.82352 15.3577 4.84371C15.3171 4.93955 15.2703 5.03294 15.2156 5.12149C15.1422 5.24032 15.0541 5.35057 14.9493 5.44314C14.8385 5.54091 14.71 5.61727 14.5709 5.66691C14.4538 5.70879 14.3316 5.73043 14.2078 5.73971C14.1712 5.74146 14.0964 5.7435 14.0597 5.74309ZM11.3426 5.50643C11.3765 5.5048 11.4402 5.50573 11.4698 5.50404C11.5432 5.49984 11.6168 5.48812 11.6879 5.46939C11.8735 5.42051 12.0364 5.31621 12.1628 5.17236C12.2402 5.08433 12.3024 4.98517 12.3564 4.88151C12.3779 4.83869 12.3976 4.79535 12.4168 4.75154C12.4244 4.73293 12.4323 4.71438 12.4396 4.6956C12.4556 4.65512 12.4689 4.61341 12.4886 4.57456C12.5188 4.515 12.5634 4.46198 12.6258 4.43508C12.6363 4.43059 12.6472 4.42686 12.6582 4.424V4.78234C12.6505 4.80293 12.6428 4.82352 12.6342 4.84371C12.5936 4.93955 12.5469 5.03294 12.4921 5.12149C12.4187 5.24032 12.3306 5.35057 12.2258 5.44314C12.1151 5.54091 11.9866 5.61727 11.8474 5.66691C11.7302 5.70879 11.6082 5.73043 11.4844 5.73971C11.4477 5.74146 11.373 5.7435 11.3362 5.74309C11.2995 5.7435 11.2247 5.74146 11.188 5.73971C11.0642 5.73043 10.9421 5.70879 10.8249 5.66691C10.6858 5.61727 10.5573 5.54091 10.4466 5.44314C10.3418 5.35057 10.2537 5.24032 10.1803 5.12149C10.1256 5.03294 10.0788 4.93955 10.0382 4.84371C10.0296 4.82352 10.0218 4.80293 10.0141 4.78234V4.424C10.0252 4.42686 10.036 4.43059 10.0465 4.43508C10.109 4.46198 10.1536 4.515 10.1838 4.57456C10.2035 4.61341 10.2168 4.65512 10.2327 4.6956C10.2401 4.71438 10.2479 4.73293 10.2555 4.75154C10.2748 4.79535 10.2945 4.83869 10.316 4.88151C10.37 4.98517 10.4322 5.08433 10.5095 5.17236C10.636 5.31621 10.7989 5.42051 10.9845 5.46939C11.0556 5.48812 11.1291 5.49984 11.2026 5.50404C11.2341 5.50585 11.3426 5.50643 11.3426 5.50643ZM5.75558 5.50404C5.78719 5.50585 5.99323 5.50573 6.02286 5.50404C6.0963 5.49984 6.16986 5.48812 6.24091 5.46939C6.42652 5.42051 6.58945 5.31621 6.71592 5.17236C6.79327 5.08433 6.85545 4.98517 6.90941 4.88151C6.93087 4.83869 6.95059 4.79535 6.9699 4.75154C6.97748 4.73293 6.98536 4.71438 6.99271 4.6956C7.00857 4.65512 7.02193 4.61341 7.04165 4.57456C7.07187 4.515 7.11643 4.46198 7.17891 4.43508C7.18941 4.43059 7.2002 4.42686 7.21128 4.424V4.78234C7.20358 4.80293 7.19583 4.82352 7.18725 4.84371C7.14665 4.93955 7.09987 5.03294 7.04515 5.12149C6.97177 5.24032 6.88363 5.35057 6.7788 5.44314C6.66808 5.54091 6.53963 5.61727 6.40051 5.66691C6.28332 5.70879 6.16122 5.73043 6.03738 5.73971C6.00069 5.74146 5.77547 5.74134 5.74105 5.73971C5.61727 5.73043 5.49518 5.70879 5.37798 5.66691C5.23886 5.61727 5.11035 5.54091 4.99963 5.44314C4.89481 5.35057 4.80673 5.24032 4.73334 5.12149C4.67857 5.03294 4.63184 4.93955 4.59124 4.84371C4.58267 4.82352 4.57491 4.80293 4.56721 4.78234V4.424C4.57823 4.42686 4.58903 4.43059 4.59958 4.43508C4.662 4.46198 4.70662 4.515 4.73684 4.57456C4.75656 4.61341 4.76986 4.65512 4.78578 4.6956C4.79313 4.71438 4.80101 4.73293 4.80859 4.75154C4.82784 4.79535 4.84756 4.83869 4.86902 4.88151C4.92304 4.98517 4.98523 5.08433 5.06258 5.17236C5.18904 5.31621 5.35197 5.42051 5.53753 5.46939C5.60863 5.48812 5.68219 5.49984 5.75558 5.50404ZM4.45112 4.31643C4.41152 4.35114 4.36917 4.3883 4.35808 4.39804C4.35628 4.39962 4.35394 4.40037 4.35155 4.4002C4.33119 4.3981 4.30296 4.38696 4.2868 4.36053C4.28382 4.35528 4.28511 4.34869 4.28972 4.3449C4.32122 4.31713 4.45159 4.20233 4.50479 4.15549C4.5178 4.14406 4.53728 4.14406 4.55029 4.15549C4.60973 4.20787 4.76531 4.3449 4.76531 4.3449C4.76997 4.34869 4.7712 4.35528 4.76828 4.36053C4.75207 4.38696 4.72383 4.3981 4.70347 4.4002C4.70114 4.40037 4.69875 4.39962 4.69694 4.39804C4.6788 4.38212 4.57689 4.29275 4.54049 4.26078C4.53308 4.25425 4.522 4.25425 4.51453 4.26078C4.49277 4.27992 4.45112 4.31643 4.45112 4.31643ZM7.17459 4.31643C7.13504 4.35114 7.09263 4.3883 7.08155 4.39804C7.07974 4.39962 7.07741 4.40037 7.07502 4.4002C7.05472 4.3981 7.02648 4.38696 7.01027 4.36053C7.00735 4.35528 7.00857 4.34869 7.01318 4.3449C7.04474 4.31713 7.17506 4.20233 7.22826 4.15549C7.24127 4.14406 7.26075 4.14406 7.27376 4.15549C7.3332 4.20787 7.48877 4.3449 7.48877 4.3449C7.49344 4.34869 7.49467 4.35528 7.49175 4.36053C7.47553 4.38696 7.4473 4.3981 7.427 4.4002C7.42461 4.40037 7.42222 4.39962 7.42047 4.39804C7.40227 4.38212 7.30042 4.29275 7.26396 4.26078C7.25655 4.25425 7.24547 4.25425 7.23806 4.26078C7.21624 4.27992 7.17459 4.31643 7.17459 4.31643ZM9.89806 4.31643C9.85851 4.35114 9.81616 4.3883 9.80502 4.39804C9.80321 4.39962 9.80087 4.40037 9.79848 4.4002C9.77818 4.3981 9.74995 4.38696 9.73373 4.36053C9.73082 4.35528 9.73204 4.34869 9.73671 4.3449C9.76821 4.31713 9.89853 4.20233 9.95173 4.15549C9.96473 4.14406 9.98422 4.14406 9.99722 4.15549C10.0567 4.20787 10.2122 4.3449 10.2122 4.3449C10.2169 4.34869 10.2181 4.35528 10.2152 4.36053C10.199 4.38696 10.1708 4.3981 10.1505 4.4002C10.1481 4.40037 10.1457 4.39962 10.1439 4.39804C10.1257 4.38212 10.0239 4.29275 9.98742 4.26078C9.98002 4.25425 9.96893 4.25425 9.96152 4.26078C9.93971 4.27992 9.89806 4.31643 9.89806 4.31643ZM12.6216 4.31643C12.582 4.35114 12.5396 4.3883 12.5285 4.39804C12.5267 4.39962 12.5243 4.40037 12.5219 4.4002C12.5016 4.3981 12.4734 4.38696 12.4572 4.36053C12.4543 4.35528 12.4555 4.34869 12.4602 4.3449C12.4917 4.31713 12.6221 4.20233 12.6752 4.15549C12.6882 4.14406 12.7077 4.14406 12.7207 4.15549C12.7802 4.20787 12.9358 4.3449 12.9358 4.3449C12.9404 4.34869 12.9416 4.35528 12.9387 4.36053C12.9225 4.38696 12.8942 4.3981 12.8739 4.4002C12.8715 4.40037 12.8692 4.39962 12.8674 4.39804C12.8492 4.38212 12.7473 4.29275 12.7109 4.26078C12.7035 4.25425 12.6924 4.25425 12.685 4.26078C12.6632 4.27992 12.6216 4.31643 12.6216 4.31643ZM15.345 4.31643C15.3054 4.35114 15.2631 4.3883 15.252 4.39804C15.2502 4.39962 15.2478 4.40037 15.2455 4.4002C15.2251 4.3981 15.1969 4.38696 15.1807 4.36053C15.1777 4.35528 15.179 4.34869 15.1836 4.3449C15.2151 4.31713 15.3455 4.20233 15.3987 4.15549C15.4117 4.14406 15.4312 4.14406 15.4442 4.15549C15.5037 4.20787 15.6592 4.3449 15.6592 4.3449C15.6638 4.34869 15.6651 4.35528 15.6621 4.36053C15.646 4.38696 15.6178 4.3981 15.5974 4.4002C15.595 4.40037 15.5927 4.39962 15.5909 4.39804C15.5727 4.38212 15.4708 4.29275 15.4344 4.26078C15.427 4.25425 15.4159 4.25425 15.4085 4.26078C15.3867 4.27992 15.345 4.31643 15.345 4.31643ZM15.4215 3.03911L15.8063 2.68193C15.8063 2.68193 16.2707 2.2218 16.3941 2.11312C16.4648 2.05088 16.5384 2.05427 16.5384 2.05427C16.5384 2.05427 16.0753 2.9148 16.0771 3.42312C16.0791 3.97863 15.7123 4.28814 15.7123 4.28814L15.4215 4.032L15.1306 4.28814C15.1306 4.28814 14.7638 3.97863 14.7658 3.42312C14.7676 2.9148 14.3046 2.05427 14.3046 2.05427C14.3046 2.05427 14.3781 2.05088 14.4488 2.11312C14.5722 2.2218 15.0366 2.68193 15.0366 2.68193L15.4215 3.03911ZM4.52754 3.03911L4.91237 2.68193C4.91237 2.68193 5.37682 2.2218 5.50019 2.11312C5.57089 2.05088 5.64445 2.05427 5.64445 2.05427C5.64445 2.05427 5.1814 2.9148 5.18321 3.42312C5.18519 3.97863 4.81839 4.28814 4.81839 4.28814L4.52754 4.032L4.23669 4.28814C4.23669 4.28814 3.86989 3.97863 3.87188 3.42312C3.87368 2.9148 3.41063 2.05427 3.41063 2.05427C3.41063 2.05427 3.48419 2.05088 3.55489 2.11312C3.67827 2.2218 4.14272 2.68193 4.14272 2.68193L4.52754 3.03911ZM7.25101 3.03911L7.63583 2.68193C7.63583 2.68193 8.10028 2.2218 8.22366 2.11312C8.29436 2.05088 8.36792 2.05427 8.36792 2.05427C8.36792 2.05427 7.90487 2.9148 7.90667 3.42312C7.90866 3.97863 7.54186 4.28814 7.54186 4.28814L7.25101 4.032L6.96016 4.28814C6.96016 4.28814 6.59336 3.97863 6.59534 3.42312C6.59715 2.9148 6.1341 2.05427 6.1341 2.05427C6.1341 2.05427 6.20772 2.05088 6.27836 2.11312C6.40173 2.2218 6.86618 2.68193 6.86618 2.68193L7.25101 3.03911ZM9.97447 3.03911L10.3593 2.68193C10.3593 2.68193 10.8237 2.2218 10.9471 2.11312C11.0178 2.05088 11.0914 2.05427 11.0914 2.05427C11.0914 2.05427 10.6284 2.9148 10.6301 3.42312C10.6321 3.97863 10.2653 4.28814 10.2653 4.28814L9.97447 4.032L9.68362 4.28814C9.68362 4.28814 9.31688 3.97863 9.31881 3.42312C9.32062 2.9148 8.85762 2.05427 8.85762 2.05427C8.85762 2.05427 8.93118 2.05088 9.00188 2.11312C9.12526 2.2218 9.58971 2.68193 9.58971 2.68193L9.97447 3.03911ZM12.698 3.03911L13.0828 2.68193C13.0828 2.68193 13.5472 2.2218 13.6706 2.11312C13.7413 2.05088 13.8148 2.05427 13.8148 2.05427C13.8148 2.05427 13.3519 2.9148 13.3537 3.42312C13.3556 3.97863 12.9888 4.28814 12.9888 4.28814L12.698 4.032L12.4071 4.28814C12.4071 4.28814 12.0403 3.97863 12.0423 3.42312C12.0441 2.9148 11.5811 2.05427 11.5811 2.05427C11.5811 2.05427 11.6546 2.05088 11.7253 2.11312C11.8487 2.2218 12.3132 2.68193 12.3132 2.68193L12.698 3.03911ZM9.64944 2.61712C9.45589 2.43763 9.22186 2.2204 9.08396 2.09218C9.05205 2.06261 9.03438 2.02072 9.03543 1.97721C9.03648 1.93369 9.05619 1.89274 9.0895 1.86474C9.12322 1.8354 9.1672 1.82303 9.21042 1.82962C9.25371 1.83622 9.29203 1.86107 9.31566 1.89787L9.70457 2.50052C9.67913 2.53493 9.66018 2.57442 9.64944 2.61712ZM15.0964 2.61712C14.9029 2.43763 14.6688 2.2204 14.5309 2.09218C14.499 2.06261 14.4813 2.02072 14.4824 1.97721C14.4835 1.93369 14.5031 1.89274 14.5365 1.86474C14.5702 1.8354 14.6142 1.82303 14.6574 1.82962C14.7006 1.83622 14.739 1.86107 14.7626 1.89787L15.1515 2.50052C15.1261 2.53493 15.1072 2.57442 15.0964 2.61712ZM6.92597 2.61712C6.73243 2.43763 6.49833 2.2204 6.36049 2.09218C6.32852 2.06261 6.31085 2.02072 6.31196 1.97721C6.31301 1.93369 6.33272 1.89274 6.36603 1.86474C6.39975 1.8354 6.44373 1.82303 6.48696 1.82962C6.53018 1.83622 6.56851 1.86107 6.59219 1.89787L6.98104 2.50052C6.95567 2.53493 6.93671 2.57442 6.92597 2.61712ZM12.3729 2.61712C12.1794 2.43763 11.9453 2.2204 11.8074 2.09218C11.7755 2.06261 11.7578 2.02072 11.7589 1.97721C11.7599 1.93369 11.7797 1.89274 11.813 1.86474C11.8467 1.8354 11.8907 1.82303 11.9339 1.82962C11.9772 1.83622 12.0155 1.86107 12.0391 1.89787L12.428 2.50052C12.4027 2.53493 12.3836 2.57442 12.3729 2.61712ZM4.20245 2.61712C4.00896 2.43763 3.77487 2.2204 3.63697 2.09218C3.60506 2.06261 3.58738 2.02072 3.58843 1.97721C3.58954 1.93369 3.6092 1.89274 3.64257 1.86474C3.67628 1.8354 3.72027 1.82303 3.76349 1.82962C3.80672 1.83622 3.84504 1.86107 3.86867 1.89787L4.25757 2.50052C4.2322 2.53493 4.21324 2.57442 4.20245 2.61712ZM4.79716 2.50005C4.93389 2.28824 5.09075 2.0454 5.18607 1.89817C5.20969 1.86159 5.24784 1.83692 5.29089 1.83038C5.33394 1.82385 5.37769 1.83616 5.41106 1.8641C5.44582 1.89222 5.4656 1.9334 5.46665 1.97715C5.46764 2.02084 5.44985 2.0629 5.41771 2.09259L4.85246 2.6166C4.84167 2.5739 4.82259 2.53447 4.79716 2.50005ZM15.6911 2.50005C15.8278 2.28824 15.9847 2.0454 16.08 1.89817C16.1036 1.86159 16.1418 1.83692 16.1848 1.83038C16.2279 1.82385 16.2716 1.83616 16.305 1.8641C16.3398 1.89222 16.3595 1.9334 16.3605 1.97715C16.3616 2.02084 16.3438 2.0629 16.3116 2.09259L15.7464 2.6166C15.7356 2.5739 15.7165 2.53447 15.6911 2.50005ZM12.9676 2.50005C13.1044 2.28824 13.2612 2.0454 13.3565 1.89817C13.3801 1.86159 13.4183 1.83692 13.4614 1.83038C13.5043 1.82385 13.5482 1.83616 13.5815 1.8641C13.6162 1.89222 13.6361 1.9334 13.637 1.97715C13.6381 2.02084 13.6202 2.0629 13.5882 2.09259L13.0229 2.6166C13.0121 2.5739 12.993 2.53447 12.9676 2.50005ZM10.2441 2.50005C10.3809 2.28824 10.5377 2.0454 10.6331 1.89817C10.6566 1.86159 10.6948 1.83692 10.7378 1.83038C10.7809 1.82385 10.8246 1.83616 10.858 1.8641C10.8928 1.89222 10.9125 1.9334 10.9136 1.97715C10.9146 2.02084 10.8968 2.0629 10.8646 2.09259L10.2994 2.6166C10.2886 2.5739 10.2696 2.53447 10.2441 2.50005ZM7.52062 2.50005C7.65736 2.28824 7.81422 2.0454 7.90953 1.89817C7.93316 1.86159 7.97131 1.83692 8.01436 1.83038C8.05741 1.82385 8.10116 1.83616 8.13452 1.8641C8.16929 1.89222 8.18907 1.9334 8.19012 1.97715C8.19111 2.02084 8.17332 2.0629 8.14117 2.09259L7.57598 2.6166C7.56513 2.5739 7.54612 2.53447 7.52062 2.50005ZM12.4627 2.46044C12.3496 2.23965 12.2217 1.99027 12.1437 1.83756C12.1238 1.79882 12.1215 1.75344 12.1374 1.7129C12.1532 1.67236 12.1858 1.64062 12.2267 1.62569C12.2684 1.60965 12.3139 1.61315 12.3523 1.63409C12.3907 1.65509 12.4182 1.69155 12.4279 1.73419L12.5765 2.38665C12.5336 2.40339 12.495 2.42865 12.4627 2.46044ZM9.73927 2.46044C9.62611 2.23965 9.49824 1.99027 9.42013 1.83756C9.4003 1.79882 9.39797 1.75344 9.41389 1.7129C9.42976 1.67236 9.46225 1.64062 9.50314 1.62569C9.54491 1.60965 9.59047 1.61315 9.62885 1.63409C9.66723 1.65509 9.69471 1.69155 9.70433 1.73419L9.85302 2.38665C9.81015 2.40339 9.77153 2.42865 9.73927 2.46044ZM7.01581 2.46044C6.90258 2.23965 6.77477 1.99027 6.69667 1.83756C6.67677 1.79882 6.6745 1.75344 6.69042 1.7129C6.70629 1.67236 6.73878 1.64062 6.77967 1.62569C6.82144 1.60965 6.86694 1.61315 6.90532 1.63409C6.94371 1.65509 6.97124 1.69155 6.98087 1.73419L7.12956 2.38665C7.08662 2.40339 7.04801 2.42865 7.01581 2.46044ZM15.1863 2.46044C15.073 2.23965 14.9452 1.99027 14.8671 1.83756C14.8472 1.79882 14.845 1.75344 14.8608 1.7129C14.8767 1.67236 14.9092 1.64062 14.9501 1.62569C14.9918 1.60965 15.0374 1.61315 15.0758 1.63409C15.1142 1.65509 15.1417 1.69155 15.1513 1.73419L15.3 2.38665C15.2571 2.40339 15.2185 2.42865 15.1863 2.46044ZM4.29234 2.46044C4.17912 2.23965 4.05131 1.99027 3.9732 1.83756C3.95331 1.79882 3.95103 1.75344 3.9669 1.7129C3.98283 1.67236 4.01532 1.64062 4.05621 1.62569C4.09792 1.60965 4.14347 1.61315 4.18186 1.63409C4.22024 1.65509 4.24777 1.69155 4.2574 1.73419L4.40603 2.38665C4.36316 2.40339 4.32454 2.42865 4.29234 2.46044ZM7.37193 2.38642C7.42531 2.15232 7.48417 1.89455 7.52092 1.73431C7.5306 1.69184 7.55802 1.65562 7.59623 1.63479C7.63443 1.61397 7.67976 1.61053 7.72071 1.6254L7.72187 1.62493C7.763 1.63993 7.79567 1.67183 7.81159 1.71255C7.82752 1.75332 7.82512 1.79894 7.80506 1.83779L7.4858 2.45998C7.45348 2.4283 7.41487 2.40304 7.37193 2.38642ZM15.5423 2.38642C15.5958 2.15232 15.6546 1.89455 15.6914 1.73431C15.7011 1.69184 15.7285 1.65562 15.7667 1.63479C15.8049 1.61397 15.8502 1.61053 15.8911 1.6254L15.8923 1.62493C15.9334 1.63993 15.9661 1.67183 15.982 1.71255C15.9979 1.75332 15.9956 1.79894 15.9755 1.83779L15.6563 2.45998C15.6239 2.4283 15.5853 2.40304 15.5423 2.38642ZM4.64841 2.38642C4.70184 2.15232 4.7607 1.89455 4.79745 1.73431C4.80713 1.69184 4.83455 1.65562 4.87276 1.63479C4.91097 1.61397 4.95629 1.61053 4.99718 1.6254L4.99841 1.62493C5.03947 1.63993 5.07214 1.67183 5.08807 1.71255C5.10399 1.75332 5.10166 1.79894 5.08159 1.83779L4.76233 2.45998C4.73002 2.4283 4.69134 2.40304 4.64841 2.38642ZM10.0954 2.38642C10.1488 2.15232 10.2076 1.89455 10.2444 1.73431C10.2541 1.69184 10.2815 1.65562 10.3197 1.63479C10.358 1.61397 10.4033 1.61053 10.4442 1.6254L10.4453 1.62493C10.4865 1.63993 10.5191 1.67183 10.5351 1.71255C10.551 1.75332 10.5486 1.79894 10.5286 1.83779L10.2093 2.45998C10.177 2.4283 10.1383 2.40304 10.0954 2.38642ZM12.8189 2.38642C12.8723 2.15232 12.9312 1.89455 12.9679 1.73431C12.9775 1.69184 13.005 1.65562 13.0432 1.63479C13.0814 1.61397 13.1267 1.61053 13.1676 1.6254L13.1689 1.62493C13.2099 1.63993 13.2426 1.67183 13.2585 1.71255C13.2744 1.75332 13.2721 1.79894 13.252 1.83779L12.9327 2.45998C12.9005 2.4283 12.8618 2.40304 12.8189 2.38642ZM15.3597 2.36962C15.3271 2.07742 15.2894 1.73921 15.2679 1.54478C15.2631 1.50144 15.2769 1.45798 15.306 1.42543C15.3351 1.39288 15.3767 1.37427 15.4204 1.37422C15.4657 1.3734 15.5075 1.39218 15.5367 1.42491C15.5659 1.45763 15.5797 1.50127 15.5748 1.54484L15.4825 2.3695C15.4627 2.36582 15.4423 2.36396 15.4215 2.36396C15.4004 2.36396 15.3798 2.36588 15.3597 2.36962ZM12.6363 2.36962C12.6037 2.07742 12.5659 1.73921 12.5445 1.54478C12.5396 1.50144 12.5534 1.45798 12.5826 1.42543C12.6116 1.39288 12.6532 1.37427 12.6969 1.37422C12.7422 1.3734 12.784 1.39218 12.8132 1.42491C12.8424 1.45763 12.8563 1.50127 12.8513 1.54484L12.759 2.3695C12.7392 2.36582 12.7188 2.36396 12.698 2.36396C12.6769 2.36396 12.6563 2.36588 12.6363 2.36962ZM7.18935 2.36962C7.15668 2.07742 7.119 1.73921 7.09747 1.54478C7.09263 1.50144 7.10646 1.45798 7.13557 1.42543C7.16467 1.39288 7.20627 1.37427 7.2499 1.37422C7.29522 1.3734 7.33705 1.39218 7.36622 1.42491C7.39544 1.45763 7.40927 1.50127 7.40431 1.54484L7.31203 2.3695C7.29225 2.36582 7.27183 2.36396 7.25101 2.36396C7.22995 2.36396 7.2093 2.36588 7.18935 2.36962ZM4.46582 2.36962C4.43322 2.07742 4.39547 1.73921 4.37401 1.54478C4.36917 1.50144 4.38299 1.45798 4.4121 1.42543C4.44121 1.39288 4.48274 1.37427 4.52643 1.37422C4.57176 1.3734 4.61352 1.39218 4.64275 1.42491C4.67197 1.45763 4.6858 1.50127 4.68084 1.54484L4.58856 2.3695C4.56878 2.36582 4.54837 2.36396 4.52754 2.36396C4.50648 2.36396 4.48583 2.36588 4.46582 2.36962ZM9.91282 2.36962C9.88015 2.07742 9.84247 1.73921 9.82094 1.54478C9.8161 1.50144 9.82998 1.45798 9.85903 1.42543C9.88814 1.39288 9.92973 1.37427 9.97337 1.37422C10.0188 1.3734 10.0605 1.39218 10.0897 1.42491C10.1189 1.45763 10.1328 1.50127 10.1278 1.54484L10.0356 2.3695C10.0157 2.36582 9.99536 2.36396 9.97447 2.36396C9.95342 2.36396 9.93283 2.36588 9.91282 2.36962ZM17.355 0.536433H2.71413L2.62762 0H17.4399L17.355 0.536433Z" fill="#FECC09"/>
</g>
</svg>
