<svg width="28" height="28" viewBox="0 0 28 28" fill="none" xmlns="http://www.w3.org/2000/svg">
<g id="Bank name=Post">
<path id="Shape" fill-rule="evenodd" clip-rule="evenodd" d="M15.7631 0.121094C22.6214 0.989253 27.9544 6.86889 27.9544 13.9537C27.9544 21.6332 21.6885 27.8968 14.006 27.8968C6.32359 27.8968 0.0576172 21.6332 0.0576172 13.9537C0.0576172 11.957 0.481202 10.0561 1.24314 8.33601L1.9641 9.26277L2.00604 9.31442C2.00604 9.31442 2.14309 9.47607 2.30601 9.61689C2.45498 9.74395 2.6459 9.85842 2.78035 9.91372C2.88302 9.95501 2.98498 9.99054 3.09213 10.0112C3.56412 10.1038 4.04838 10.0983 4.39892 10.0823C4.67774 10.0697 4.87645 10.0542 4.87645 10.0542C6.69905 9.96913 7.39633 10.7904 7.87044 11.3494C8.30509 11.8604 12.5585 17.5254 12.5585 17.5254L14.6733 15.4087C14.6733 15.4087 12.8976 13.1455 12.1098 12.1309C11.2291 10.9972 10.5912 10.1824 10.2019 9.85371C9.35149 9.13713 7.47076 9.05219 7.04025 8.97819C7.04025 8.97819 5.45264 8.78419 4.50525 7.81289C4.28219 7.58419 4.12754 7.38219 4.12754 7.38219L2.76703 5.71172C3.11546 5.23856 3.493 4.78804 3.89697 4.36283L5.36427 6.25207C5.65053 6.61713 5.80683 6.82889 6.09605 7.11713C6.83267 7.85207 7.8734 7.95148 7.8734 7.95148C10.044 8.34207 11.2294 8.44501 11.9173 9.24183C12.7429 10.1974 12.9024 10.416 13.5924 11.3052C13.8466 11.6329 15.8417 14.2405 15.8417 14.2405L17.8909 12.1877C17.8909 12.1877 16.5789 10.4979 15.8169 9.49654C15.444 9.00607 14.8533 8.24054 14.4178 7.92807C13.5198 7.28524 12.7206 7.38066 11.9062 7.29442C11.2067 7.21972 10.5614 7.20548 9.72234 6.80619C9.72234 6.80619 9.35952 6.72548 8.61061 5.76113C7.86076 4.7976 7.65058 4.51819 7.65058 4.51819L6.04313 2.51666C6.51634 2.18618 7.01085 1.88424 7.52412 1.61338L9.10812 3.66724L9.8992 4.69795C11.0389 6.15266 11.7758 6.16936 12.5353 6.25866C13.7404 6.40148 14.8751 6.32524 15.8564 7.06489C16.4243 7.49266 16.721 7.94654 17.1296 8.47254C17.7464 9.2663 19.076 10.9954 19.076 10.9954L21.127 8.94183C21.127 8.94183 19.9462 7.41619 19.4875 6.83654C19.3353 6.64489 19.0739 6.40207 18.6867 6.15089C18.0747 5.75289 17.4638 5.63054 15.8966 5.39924C14.3299 5.16819 13.8206 4.8963 13.0803 4.08689C12.7265 3.69972 12.5305 3.42501 12.2922 3.11795L10.2406 0.528202C10.8803 0.348251 11.5385 0.21295 12.2113 0.125904L13.6093 2.05489C14.0784 2.62383 14.4969 3.36454 15.688 3.89501C17.1214 4.53324 18.2041 4.3836 19.1854 4.63713C19.1854 4.63713 19.4528 4.70219 19.7472 4.83136C20.0594 4.96913 20.2626 5.17477 20.4579 5.39513C20.7823 5.76113 21.0665 6.11795 21.1315 6.20195C21.1448 6.21854 22.3481 7.71819 22.3481 7.71819L24.3751 5.68971C24.3751 5.68971 23.9071 5.09195 23.5359 4.62277C23.3061 4.33254 23.2061 4.22795 23.0132 4.11019C22.8607 4.01736 22.6694 3.92489 22.4113 3.86383C22.1165 3.79513 21.7143 3.74419 21.0203 3.71619C19.1927 3.64348 18.5175 3.49819 17.3545 2.10595L16.4916 1.0596L15.7631 0.121094Z" fill="#14763E"/>
</g>
</svg>
