<svg width="28" height="28" viewBox="0 0 28 28" fill="none" xmlns="http://www.w3.org/2000/svg">
<g id="Bank name=Refah">
<path id="Shape" fill-rule="evenodd" clip-rule="evenodd" d="M14 19.25C15.9317 19.25 17.5 20.8183 17.5 22.75C17.5 24.6817 15.9317 26.25 14 26.25C12.0683 26.25 10.5 24.6817 10.5 22.75C10.5 20.8183 12.0683 19.25 14 19.25ZM25.2984 18.3572H2.70164C1.00329 16.4622 0 14.1249 0 11.5975C0 9.21562 0.891022 7.00267 2.41511 5.1696H10.1656C7.39007 6.37256 5.48529 8.83991 5.48529 11.6855C5.48529 14.0243 6.772 16.1076 8.77133 17.4433H19.2287C21.228 16.1075 22.5147 14.0242 22.5147 11.6855C22.5147 8.83991 20.6099 6.37256 17.8344 5.1696H25.5849C27.1089 7.00267 28 9.21562 28 11.5975C28 14.1249 26.9967 16.4621 25.2984 18.3572ZM14.8308 14.9376H6.98389C9.96567 13.8018 12.0472 11.2405 12.0472 8.26589C12.0472 5.42029 10.1424 2.95289 7.36684 1.75H15.1173C16.6414 3.58311 17.5324 5.79602 17.5324 8.17784C17.5324 10.7052 16.5292 13.0425 14.8308 14.9376Z" fill="#173576"/>
</g>
</svg>
