<svg width="28" height="28" viewBox="0 0 28 28" fill="none" xmlns="http://www.w3.org/2000/svg">
<g id="Bank name=Resalat">
<path id="Shape" fill-rule="evenodd" clip-rule="evenodd" d="M3.48415 23.9974C2.42347 23.7405 1.40106 23.0646 0.604931 21.6993C-0.79746 19.2943 0.552023 16.9207 1.49562 15.2959C-1.39462 21.3234 2.51132 23.1677 7.13599 19.1083C7.13599 19.1083 12.799 13.4383 14.3816 11.8539C15.1132 11.1213 16.2033 10.6358 17.2879 10.7621C18.9064 10.9506 19.9943 11.8737 20.6488 12.1543C21.0782 12.3385 21.4677 12.0693 21.3199 11.7126C21.1694 11.3494 20.849 10.9618 20.2424 10.3545C18.4433 8.55282 16.2355 6.45193 16.2355 6.45193C14.9517 5.21645 14.4403 4.09162 14.5104 2.98623C14.6217 1.23437 16.249 0.191841 17.347 0.145752C16.68 0.939785 16.7377 1.6181 17.1284 2.11235C17.1284 2.11235 23.2943 8.2868 23.4464 8.43914C24.2264 9.22027 25.2294 12.4785 22.3774 13.3298C22.0339 13.4323 21.6916 13.4257 21.3022 13.3131C20.2876 13.0195 18.7515 12.7402 17.7045 13.7698C15.8153 15.6278 9.75567 21.7544 9.22765 22.2586C8.69963 22.7628 7.10688 24.0154 4.83019 24.119C5.37549 26.0495 8.01256 25.7955 11.1041 23.0819C11.1041 23.0819 16.7672 17.412 18.3496 15.8276C19.0814 15.0949 20.1643 14.7193 21.2559 14.7357C22.0564 14.7478 22.6392 14.961 23.0838 15.2815C23.9866 15.9324 24.3086 16.5523 24.4385 17.2434C23.388 16.6338 22.7196 16.7138 21.6727 17.7435C20.1572 19.2339 16.1671 23.246 14.6476 24.7751C14.6558 24.9358 14.7081 25.0802 14.8402 25.1812C15.3063 25.5376 16.3784 25.5446 16.8848 25.0376C18.686 23.2342 21.4191 20.4978 22.4432 19.4724C23.1749 18.7398 24.1244 18.3065 25.2161 18.3229C26.0166 18.335 26.3164 18.5162 26.761 18.8367C27.6637 19.4876 27.87 20.3335 28 21.0247C27.0519 20.355 26.5314 20.6358 25.7662 21.3883C24.6593 22.477 22.232 24.9111 20.4116 26.7402C19.7785 27.3764 18.1283 28.1953 16.2624 27.5343C15.2112 27.1619 14.5003 26.043 14.0468 25.386C13.9208 25.8401 7.82301 30.6532 4.30256 25.4674C3.95824 24.9602 3.71091 24.4943 3.48415 23.9974ZM5.71312 12.4546C5.53707 12.1332 5.43691 11.7644 5.43691 11.3723C5.43691 10.1274 6.44614 9.11681 7.68922 9.11681C8.93231 9.11681 9.94153 10.1274 9.94153 11.3723C9.94153 12.6171 8.93231 13.6277 7.68922 13.6277C7.29769 13.6277 6.92931 13.5274 6.60836 13.3511C6.78441 13.6725 6.88457 14.0414 6.88457 14.4335C6.88457 15.6783 5.87535 16.689 4.63226 16.689C3.38918 16.689 2.37996 15.6783 2.37996 14.4335C2.37996 13.1887 3.38918 12.178 4.63226 12.178C5.02386 12.178 5.39217 12.2783 5.71312 12.4546Z" fill="#00BBE6"/>
</g>
</svg>
