<svg width="28" height="28" viewBox="0 0 28 28" fill="none" xmlns="http://www.w3.org/2000/svg">
<g id="Bank name=Saderat">
<g id="Shape">
<path d="M18.5558 27.9995H27.7082V4.73876C24.508 -2.82395 13.1444 0.20882 12.3325 3.27665C15.143 1.70695 17.4821 1.38958 18.5558 3.88053V27.9995Z" fill="#2D2A68"/>
<path d="M9.44384 0.00040821H0.291504V23.2612C3.49168 30.824 14.8553 27.7912 15.6671 24.7233C12.8566 26.293 10.5176 26.6104 9.44384 24.1194V0.00040821Z" fill="#2D2A68"/>
<path d="M18.4826 14C18.4826 16.4525 16.4689 18.4527 13.9998 18.4527C11.5308 18.4527 9.51702 16.4525 9.51702 14C9.51702 11.5475 11.5308 9.54723 13.9998 9.54723C16.4689 9.54723 18.4826 11.5475 18.4826 14Z" fill="#2D2A68"/>
</g>
</g>
</svg>
