<svg width="28" height="28" viewBox="0 0 28 28" fill="none" xmlns="http://www.w3.org/2000/svg">
<g id="Bank name=Saman">
<path id="Shape" fill-rule="evenodd" clip-rule="evenodd" d="M9.58825 4.88877L9.58813 4.88865C10.6756 3.29219 12.2253 1.68429 13.909 0.170654C14.8837 1.33936 15.7359 2.80388 16.0413 4.49426C17.2479 3.80097 18.607 3.22429 20.0399 2.74368C20.9833 2.42734 21.9565 2.15305 22.9367 1.91383C22.8154 4.10553 22.3998 6.43303 21.4493 8.5227V8.52276L21.4494 8.5227C23.6893 8.56885 25.9462 9.22655 28 10.1214C26.3598 12.2296 24.5199 14.2033 22.5686 15.6073L22.5686 15.6075L22.5687 15.6074C23.9694 16.7644 24.9367 18.382 25.5885 20.005C23.381 20.932 21.1601 21.6654 19.1904 21.9213L19.1901 21.9214L19.1904 21.9213C19.4442 23.3278 19.1904 24.8241 18.7626 26.141C18.0603 26.0827 17.3667 26.0023 16.6995 25.8937C15.678 25.7285 14.7151 25.4954 13.8722 25.1702L13.8714 25.1699L13.8722 25.1702C13.3951 26.2174 12.5678 27.1208 11.7246 27.8292C10.6182 27.141 9.56346 26.3501 8.81469 25.4825L8.81446 25.4822L8.81475 25.4826C8.04277 26.0362 7.08616 26.361 6.19832 26.5451C5.64929 25.6675 5.16005 24.7054 4.92094 23.7722C4.41233 23.8377 3.87806 23.8091 3.35907 23.7237C3.04284 23.6724 2.73029 23.6005 2.43139 23.5162C2.30947 22.6111 2.26648 21.6346 2.42247 20.7649V20.7645L2.42241 20.7648C1.67825 20.4796 0.96215 19.9503 0.345683 19.3855C0.578433 18.5297 0.915017 17.6307 1.40356 16.9129L1.40362 16.9128C0.83195 16.2485 0.36785 15.3483 0 14.4437C0.570442 13.72 1.27371 13 2.05234 12.5502L2.0461 12.5254C1.78354 11.4748 1.71891 10.2081 1.75379 8.95676C2.09813 8.789 2.4598 8.63803 2.83296 8.51203C3.44744 8.30693 4.08427 8.17784 4.70202 8.18875H4.70213C4.96037 6.76005 5.5524 5.15535 6.26092 3.58794C7.42175 3.73949 8.64628 4.1095 9.58807 4.88865L9.58825 4.88877Z" fill="#7DCDF1"/>
<path id="Shape_2" fill-rule="evenodd" clip-rule="evenodd" d="M11.4929 8.43754V8.43748C12.1937 7.60233 13.0341 6.74973 14.0145 5.91305C14.6209 5.38893 15.3043 4.92045 16.0411 4.49438C16.16 5.15454 16.194 5.84013 16.1178 6.54159C15.9928 7.70021 15.7423 8.81793 15.3942 9.85924C16.4687 9.40698 17.6686 9.02508 18.9692 8.74624C19.7801 8.57393 20.6106 8.50463 21.4491 8.52288C21.0898 9.31103 20.6566 10.0573 20.1425 10.7411C19.3135 11.8443 18.4363 12.806 17.554 13.6212C18.6087 13.7848 19.6957 14.0798 20.7701 14.5195C21.4296 14.79 22.0278 15.1612 22.5685 15.6075C21.8462 16.1257 21.1097 16.5662 20.3587 16.9091C19.158 17.457 18.0137 17.8572 16.9515 18.1296V18.1297L16.9516 18.1296C17.5875 18.7624 18.1596 19.5005 18.6265 20.329C18.9066 20.8231 19.0886 21.3619 19.1902 21.9214C18.457 22.0173 17.7538 22.0478 17.0911 21.9978C16.0187 21.9189 15.0465 21.7507 14.1814 21.5148C14.3084 22.2631 14.3349 23.0472 14.2505 23.8335C14.2003 24.2953 14.0657 24.7437 13.8719 25.1704C13.3465 24.9672 12.8631 24.73 12.4381 24.4464C11.737 23.9796 11.1314 23.4754 10.623 22.9527L10.6191 22.9494L10.6229 22.9534C10.3766 23.5619 10.0503 24.144 9.64623 24.6787C9.41494 24.9886 9.13068 25.2541 8.81445 25.4826C8.52273 25.1464 8.27405 24.794 8.08295 24.4264C7.7602 23.8125 7.52045 23.1947 7.3539 22.5887V22.5886C6.9094 22.9547 6.4173 23.2642 5.88869 23.5035C5.58471 23.6437 5.25845 23.7276 4.92076 23.7723C4.82562 23.4005 4.76945 23.0307 4.76425 22.6678C4.75393 22.0518 4.81051 21.4545 4.92426 20.8893V20.8892L4.9242 20.8893C4.41081 20.9891 3.87928 21.0212 3.34535 20.9817C3.03508 20.959 2.72568 20.8825 2.42223 20.7649C2.48698 20.4129 2.5834 20.0746 2.72055 19.7653C2.95843 19.2325 3.24905 18.7409 3.58306 18.3002V18.3001C3.09417 18.1325 2.61228 17.8959 2.15232 17.5889C1.88235 17.4086 1.63339 17.1793 1.40332 16.9131C1.60434 16.6189 1.8295 16.3547 2.08395 16.1357C2.52472 15.7576 2.99897 15.4468 3.49154 15.2047L3.49165 15.2046L3.49154 15.2046C3.11669 14.7681 2.7731 14.2627 2.47461 13.6893C2.29722 13.3496 2.15792 12.9652 2.0521 12.5495C2.37469 12.3652 2.70818 12.226 3.04826 12.1535C3.63819 12.0273 4.22957 11.9912 4.80427 12.0385C4.65605 11.347 4.57094 10.5846 4.55834 9.75973C4.54871 9.26278 4.60191 8.73586 4.70184 8.18881C5.10743 8.19721 5.50048 8.26797 5.8678 8.41882C6.49687 8.67484 7.07268 9.03138 7.58286 9.46491L7.5831 9.46503L7.58292 9.46485C7.80855 8.59265 8.13295 7.65978 8.57004 6.68381C8.83796 6.08385 9.18277 5.48483 9.58784 4.88878C9.96782 5.20127 10.2961 5.57787 10.5485 6.02511C10.9752 6.77988 11.2885 7.59842 11.4928 8.43748L11.4929 8.43754Z" fill="#00AAE7"/>
<path id="Shape_3" fill-rule="evenodd" clip-rule="evenodd" d="M9.32836 11.8075C9.315 11.8378 9.34177 11.8382 9.32836 11.8075L9.32882 11.8065L9.32836 11.8055C9.79887 10.7385 10.5228 9.5925 11.493 8.4375C11.7859 9.65702 11.842 10.9009 11.6788 12.0557C11.657 12.0738 11.6556 12.0956 11.6694 12.121C11.6726 12.0993 11.6757 12.0775 11.6788 12.0557C12.6632 11.2367 13.9181 10.4791 15.3943 9.8592C14.9041 11.3237 14.2308 12.6188 13.4555 13.666L13.4553 13.666H13.4555C13.6917 13.6191 13.9329 13.5809 14.1815 13.5499C15.2252 13.4212 16.3658 13.4368 17.5541 13.6217C16.3387 14.7419 15.107 15.5857 13.9521 16.138C15.0034 16.5497 16.0379 17.2227 16.9518 18.1296C15.7712 18.4318 14.6785 18.5748 13.7094 18.5781C13.4776 18.5786 13.2524 18.5709 13.0352 18.556L13.0352 18.5559L13.0352 18.556C13.595 19.3899 13.9943 20.405 14.1815 21.5146C12.9724 21.1827 11.953 20.7106 11.1572 20.1449V20.1443L11.1571 20.1448C11.1762 21.0649 10.9953 22.0307 10.6231 22.9526C9.89267 22.2038 9.34592 21.4021 8.99691 20.6002C8.98291 20.5679 9.00723 20.5808 8.99691 20.6002C8.5968 21.3479 8.03476 22.0298 7.35407 22.5886C7.11087 21.6946 7.02757 20.8122 7.10008 19.9929L7.10014 19.9929H7.10008V19.9929C6.45509 20.4315 5.71052 20.7378 4.92431 20.8893C5.09651 20.0392 5.40165 19.2523 5.8185 18.5811C5.84382 18.5788 5.83664 18.5518 5.81856 18.5811C5.67045 18.5944 5.52298 18.6015 5.37336 18.6015C4.77917 18.603 4.17449 18.5036 3.58317 18.3002C4.09008 17.6272 4.69325 17.0705 5.35078 16.6692C4.68164 16.3461 4.04925 15.8499 3.4917 15.2046C4.09504 14.9077 4.72405 14.7171 5.34472 14.6404C5.49924 14.6205 5.65476 14.6096 5.81004 14.6051C5.82719 14.6319 5.84282 14.6042 5.80998 14.6051C5.3628 13.9103 5.01776 13.0415 4.80572 12.0386C5.67827 12.112 6.5003 12.3798 7.1996 12.8148V12.8149C7.20123 12.8448 7.2255 12.831 7.1996 12.8149V12.8148C7.14302 11.8318 7.2661 10.6963 7.58302 9.46493C8.34439 10.1131 8.9412 10.9219 9.32836 11.8055L9.32789 11.8065L9.32836 11.8075Z" fill="#006FBA"/>
<path id="Shape_4" fill-rule="evenodd" clip-rule="evenodd" d="M11.6808 12.0422C11.6802 12.0466 11.6797 12.0511 11.679 12.0555C10.8886 12.7138 10.2621 13.421 9.82507 14.1425C9.83002 13.3597 9.65952 12.563 9.32859 11.8074C8.94371 12.6818 8.72017 13.5186 8.66878 14.284C8.31581 13.6932 7.80965 13.1938 7.19983 12.8147C7.24568 13.6386 7.41887 14.3715 7.71392 14.9786C7.14086 14.7056 6.49091 14.584 5.81022 14.605C5.80252 14.593 5.78729 14.5946 5.76635 14.6064C5.78099 14.6059 5.79563 14.6054 5.81027 14.605C6.19195 15.2004 6.65535 15.6783 7.18222 16.0053C6.55811 16.0791 5.93412 16.3123 5.35107 16.669C5.93412 16.9521 6.55146 17.1027 7.1674 17.0997C6.64199 17.4787 6.18553 17.9874 5.81879 18.5809C6.46705 18.5224 7.09326 18.3332 7.65384 18.0146C7.34893 18.6076 7.16483 19.2806 7.10037 19.9927C7.67688 19.6024 8.16805 19.1122 8.53648 18.5441C8.54144 19.2212 8.70063 19.9163 8.99714 20.6C9.35058 19.9385 9.56875 19.236 9.62807 18.5403C9.98105 19.1337 10.5002 19.6769 11.1573 20.1446L11.1574 20.1445C11.1414 19.3472 10.9756 18.5981 10.6603 17.9556C11.3159 18.2886 12.1184 18.4925 13.0354 18.5558C12.5626 17.8527 11.9833 17.2891 11.3359 16.9087C12.1399 16.8403 13.0267 16.5808 13.9523 16.1378C13.0922 15.8012 12.2272 15.6458 11.4145 15.6775C12.1345 15.1944 12.8282 14.5132 13.4557 13.6659L13.4557 13.6658C12.4648 13.8618 11.5814 14.1951 10.8478 14.6481C11.2613 13.8951 11.5441 13.0127 11.6791 12.0555C11.6826 12.0526 11.683 12.0481 11.6808 12.0422Z" fill="white"/>
</g>
</svg>
