<svg width="28" height="28" viewBox="0 0 28 28" fill="none" xmlns="http://www.w3.org/2000/svg">
<g id="Bank name=Sarmayeh">
<g id="Shape">
<path d="M8.2749 9.57597V17.7507C13.5127 17.6517 18.7504 15.6481 23.9885 9.39432L23.9661 0.0388184C19.2212 5.74329 14.0805 9.38854 8.2749 9.57597Z" fill="#1F1F48"/>
<path d="M19.4172 24.483C19.4172 26.4201 17.8373 28 15.9 28C13.9629 28 12.383 26.4201 12.383 24.483C12.383 22.5457 13.9629 20.9658 15.9 20.9658C17.8373 20.9658 19.4172 22.5457 19.4172 24.483Z" fill="#1F1F48"/>
</g>
<path id="Shape_2" fill-rule="evenodd" clip-rule="evenodd" d="M19.2658 10.2881V18.4629C13.4604 18.6503 8.3196 22.2955 3.57465 28L3.55225 18.6445C8.79035 12.3907 14.0281 10.3871 19.2658 10.2881Z" fill="#AFB2AE"/>
</g>
</svg>
