<svg width="28" height="28" viewBox="0 0 28 28" fill="none" xmlns="http://www.w3.org/2000/svg">
<g id="Bank name=Sepah">
<path id="Shape 1" fill-rule="evenodd" clip-rule="evenodd" d="M4.46261 20.3953C2.637 18.2886 1.51357 15.5714 1.46046 12.5955C1.33887 5.78537 6.86908 0.124895 13.7788 0.00195672L14.0441 0L14.2216 0.00195672C21.131 0.124895 26.6615 5.78537 26.5399 12.5955C26.4868 15.5714 25.3633 18.2886 23.5377 20.395C23.8502 20.5857 24.1208 20.8829 24.3279 21.2941C24.5633 21.7577 24.5504 22.308 24.2983 22.7534C23.8765 23.5109 23.4019 24.5052 22.9915 25.3416C22.71 25.9147 22.4543 26.4196 22.2002 26.7647C21.917 27.1488 21.6017 27.3841 21.2923 27.4945C20.5191 27.8235 19.7487 27.9896 18.9814 27.9999C18.9308 28.0005 18.8805 27.9974 18.8307 27.9902C17.6983 27.8299 17.0524 27.337 16.7751 26.6621C15.8697 26.305 14.9478 26.1113 14.0027 26.1104C14.0027 26.1104 13.9747 26.1104 13.9756 26.1104C13.0364 26.1146 12.1226 26.3081 11.2253 26.6618C10.948 27.337 10.302 27.8299 9.16962 27.9902C9.11958 27.9974 9.06927 28.0005 9.01895 27.9999C8.25164 27.9896 7.48125 27.8235 6.70807 27.4945C6.39864 27.3841 6.08305 27.1488 5.80017 26.7647C5.54579 26.4196 5.29003 25.9147 5.00882 25.3416C4.59847 24.5052 4.12382 23.5109 3.70537 22.7596C3.44932 22.3071 3.43731 21.7568 3.67072 21.2971C3.87869 20.8843 4.14981 20.5863 4.46261 20.3953ZM5.18632 20.5681C3.18433 18.4779 1.93483 15.6773 1.87976 12.588C1.76208 6.00672 7.10893 0.538594 13.7863 0.420116L14.0471 0.418159L14.214 0.420116C20.8914 0.538594 26.2383 6.00672 26.1206 12.588C26.0655 15.6773 24.8157 18.4779 22.8137 20.5684C23.2833 20.6403 23.6822 20.9439 23.9539 21.4831C24.1258 21.8215 24.1169 22.2232 23.9316 22.5505C23.5067 23.3135 23.0281 24.3151 22.6147 25.1578C22.3464 25.7045 22.1048 26.1876 21.8622 26.5171C21.6352 26.8252 21.3878 27.0195 21.1396 27.1048C20.4154 27.4145 19.6942 27.5723 18.9758 27.5818C18.947 27.5821 18.9182 27.5804 18.8897 27.5762C17.863 27.431 17.2958 26.988 17.1074 26.3454C16.0947 25.9222 15.0626 25.6931 14.0016 25.6923H13.9736C12.9203 25.697 11.897 25.9259 10.8926 26.3454C10.7042 26.988 10.1374 27.431 9.11064 27.5762C9.08213 27.5804 9.05332 27.5821 9.02453 27.5818C8.30586 27.5723 7.58467 27.4145 6.86041 27.1048C6.61247 27.0195 6.36509 26.8252 6.13811 26.5171C5.89548 26.1876 5.65397 25.7045 5.38534 25.1576C4.97192 24.3151 4.49337 23.3135 4.07044 22.5538C3.88344 22.2235 3.87449 21.8218 4.04557 21.485C4.31783 20.9442 4.71699 20.6403 5.18632 20.5681Z" fill="#E95B00"/>
<path id="Shape 2" fill-rule="evenodd" clip-rule="evenodd" d="M13.9709 25.1351C12.7474 25.1406 11.5616 25.4267 10.3991 25.9519C10.3476 26.5448 9.89199 26.9028 9.0316 27.0249C8.37638 27.016 7.71894 26.869 7.05841 26.5836C6.64499 26.459 6.30592 25.7662 5.88718 24.9132C5.46957 24.0621 4.98597 23.0507 4.55689 22.2802C4.46185 22.1121 4.4571 21.9077 4.54459 21.7357C4.80036 21.2278 5.21994 21.0251 5.70912 21.1486C5.83574 21.1804 5.94281 21.2649 6.00291 21.3806C6.07475 21.5191 6.16726 21.6975 6.16726 21.6975C6.69054 21.869 7.22417 22.0072 7.78015 22.0744L7.84892 22.0173C7.83383 22.0086 7.81957 21.9983 7.80531 21.9897C4.64132 20.002 2.50907 16.5397 2.43834 12.5786C2.32597 6.30258 7.42823 1.0912 13.7956 0.978022L14.0506 0.976074C14.1014 0.976353 14.1526 0.977186 14.2035 0.978022C20.5711 1.0912 25.6734 6.30258 25.561 12.5786C25.4903 16.5397 23.358 20.002 20.194 21.9897C20.1798 21.9983 20.1656 22.0086 20.1505 22.0173L20.2192 22.0744C20.7752 22.0072 21.3088 21.869 21.8321 21.6975C21.8321 21.6975 21.9246 21.5191 21.9965 21.3806C22.0566 21.2649 22.1636 21.1804 22.2902 21.1486C22.7794 21.0251 23.199 21.2278 23.4548 21.7357C23.5423 21.9077 23.5375 22.1121 23.4425 22.2802C23.0134 23.0507 22.5298 24.0621 22.1122 24.9132C21.6934 25.7662 21.3544 26.459 20.941 26.5836C20.2804 26.869 19.623 27.016 18.9678 27.0249C18.1074 26.9028 17.6517 26.5448 17.6003 25.9519C16.4285 25.4225 15.2332 25.1362 13.9997 25.1351H13.9709ZM6.33582 22.1469C6.33582 22.1469 6.64219 22.9894 6.80683 23.4064C7.02011 23.9456 7.61438 25.3821 7.61438 25.3821C7.75359 25.7222 8.03648 25.9792 7.30774 26.3614C7.31669 26.387 7.32535 26.4121 7.33485 26.4459C7.78154 26.5917 8.18519 26.7294 8.60393 26.7219C8.65424 26.6954 8.7054 26.6772 8.74816 26.6594L6.75176 22.5542C6.54183 22.1224 6.48537 22.0995 6.33582 22.1469ZM21.6635 22.1469C21.6635 22.1469 21.3572 22.9894 21.1925 23.4064C20.9793 23.9456 20.385 25.3821 20.385 25.3821C20.2458 25.7222 19.9629 25.9792 20.6916 26.3614C20.6827 26.387 20.674 26.4121 20.6645 26.4459C20.2178 26.5917 19.8142 26.7294 19.3954 26.7219C19.3451 26.6954 19.294 26.6772 19.2512 26.6594L21.2476 22.5542C21.4575 22.1224 21.514 22.0995 21.6635 22.1469ZM18.9516 21.685C17.5489 20.9259 15.7794 20.6265 13.9997 20.6764L13.9393 20.675C11.3894 20.6145 8.86892 21.2741 7.42683 22.9791C7.39944 23.2026 8.71015 25.6904 8.98465 26.0508C9.10624 26.1682 9.14929 26.1844 9.25244 26.1994C10.4614 25.1769 12.2269 24.744 13.9997 24.7685L14.0413 24.7679C15.8001 24.7509 17.5472 25.1847 18.7469 26.1994C18.8501 26.1844 18.8931 26.1682 19.0147 26.0508C19.2892 25.6904 20.5999 23.2026 20.5725 22.9791C20.1342 22.4605 19.5962 22.039 18.9879 21.7048C18.9781 21.719 18.958 21.741 18.9272 21.7703C18.847 21.8458 18.7584 21.9161 18.6614 21.9796C18.5636 22.0443 18.464 22.0956 18.3623 22.1352L18.1093 22.2392C18.0241 22.2648 17.9371 22.291 17.8499 22.317C17.763 22.344 17.6758 22.3663 17.5883 22.3847C17.5819 22.3864 17.576 22.388 17.5704 22.3894L17.4762 22.5297C17.4348 22.5955 17.3946 22.6613 17.3552 22.7279L17.2909 22.845C17.2442 22.9261 17.2025 23.0097 17.1668 23.0972C17.1307 23.1845 17.0974 23.2715 17.0661 23.3585L17.0656 23.3596C17.0259 23.4691 17.0105 23.5556 17.0189 23.6194C17.0276 23.6835 17.0636 23.727 17.1276 23.7501C17.1505 23.7585 17.1723 23.7591 17.1925 23.7521C17.2123 23.7451 17.2311 23.7342 17.2481 23.7197C17.2654 23.7052 17.2814 23.6888 17.2956 23.6701C17.3102 23.6512 17.3224 23.6339 17.3325 23.618C17.351 23.5918 17.3649 23.5815 17.3747 23.5873C17.3848 23.5929 17.3856 23.6074 17.3772 23.6305C17.3546 23.6813 17.3244 23.739 17.2867 23.8039C17.2489 23.8689 17.2067 23.9283 17.1598 23.9824C17.1131 24.0362 17.0639 24.078 17.0127 24.1075C16.9616 24.1371 16.911 24.1429 16.8607 24.1248C16.8067 24.1053 16.7695 24.0749 16.7494 24.0339C16.7293 23.9929 16.7189 23.9472 16.7184 23.8971C16.7181 23.8469 16.7251 23.7964 16.7388 23.7459C16.7528 23.6952 16.7665 23.6517 16.7796 23.6149L16.7802 23.6147C16.8028 23.5572 16.8288 23.4981 16.8576 23.4357C16.8867 23.373 16.9149 23.3119 16.9412 23.2511C16.9546 23.2258 16.9607 23.2082 16.9596 23.199C16.9582 23.1898 16.9403 23.1982 16.9054 23.2224C16.8101 23.2927 16.7159 23.3526 16.6233 23.4039C16.5311 23.4544 16.4319 23.4942 16.3276 23.524C16.173 23.5689 16.0148 23.5912 15.8521 23.5904C15.6897 23.5898 15.5265 23.5717 15.3618 23.5366C15.2344 23.5098 15.1052 23.4753 14.9758 23.4318C14.8458 23.3886 14.7128 23.3345 14.5766 23.2706C14.5165 23.2425 14.4643 23.2121 14.4184 23.1809C14.3734 23.1491 14.3368 23.1126 14.31 23.0699C14.2828 23.0273 14.265 22.9774 14.2574 22.9202C14.2499 22.8631 14.2557 22.7956 14.275 22.7176C14.2882 22.6679 14.3069 22.6172 14.3304 22.5653C14.3527 22.5141 14.3784 22.465 14.4067 22.4184C14.4318 22.3769 14.4522 22.3593 14.4668 22.3644C14.4808 22.3696 14.4813 22.3975 14.4679 22.4466C14.4561 22.4926 14.4528 22.535 14.4578 22.574C14.4631 22.613 14.4796 22.6493 14.507 22.6836C14.5758 22.765 14.6583 22.8282 14.7544 22.8734C14.8509 22.9188 14.9478 22.9604 15.0457 22.9977C15.3998 23.1363 15.7915 23.2115 16.2194 23.2238C16.3061 23.2266 16.3913 23.2224 16.4746 23.2113C16.5588 23.1998 16.6401 23.1781 16.7201 23.1458C16.8422 23.0978 16.9445 23.0317 17.0262 22.9473C17.1081 22.862 17.1287 22.8455 17.1964 22.7326C17.2106 22.7056 17.2266 22.6824 17.2445 22.6632L17.418 22.4856C17.4477 22.4558 17.4787 22.4265 17.5108 22.3978C17.5053 22.3936 17.517 22.3769 17.5461 22.3471C17.5838 22.3147 17.6215 22.2816 17.659 22.2473C17.6967 22.213 17.7389 22.1851 17.7851 22.1648C17.8242 22.1486 17.8756 22.128 17.9405 22.1031C17.9972 22.0814 18.279 21.9816 18.3629 21.9482C18.5309 21.8804 18.6969 21.806 18.8621 21.724L18.9516 21.685ZM20.7948 26.1437C20.6969 26.0974 20.5521 26.0185 20.5555 25.8482C20.7704 25.7841 21.0435 25.7718 21.1489 26.1138C21.0438 26.1911 20.8722 26.1802 20.7948 26.1437ZM7.20459 26.1437C7.30243 26.0974 7.44724 26.0185 7.4436 25.8482C7.22892 25.7841 6.95582 25.7718 6.85044 26.1138C6.95554 26.1911 7.12716 26.1802 7.20459 26.1437ZM5.63896 21.4096C5.14447 21.2537 4.77242 21.6412 4.87165 22.0351L6.72828 25.8565C6.91333 25.6296 7.09614 25.6065 7.27727 25.5956L5.63896 21.4096ZM22.3604 21.4096C22.8549 21.2537 23.227 21.6412 23.1277 22.0351L21.2711 25.8565C21.086 25.6296 20.9032 25.6065 20.7221 25.5956L22.3604 21.4096ZM17.2777 24.8557C17.2883 24.8268 17.3342 24.7757 17.4153 24.7024C17.4963 24.6291 17.5447 24.5954 17.56 24.601C17.6104 24.6191 17.6503 24.6601 17.6797 24.7239C17.7088 24.788 17.7152 24.8429 17.6984 24.8892C17.683 24.9316 17.642 24.9773 17.5751 25.0264C17.5081 25.0751 17.4622 25.0952 17.4371 25.0863C17.4253 25.0821 17.3943 25.0445 17.3431 24.9739C17.3255 24.9502 17.3079 24.9266 17.2903 24.9026C17.2772 24.885 17.273 24.8691 17.2777 24.8557ZM10.1794 24.9034C10.178 24.8931 10.1975 24.8368 10.2383 24.7336C10.2791 24.6308 10.3057 24.5784 10.318 24.5764C10.3524 24.5708 10.3963 24.5856 10.4499 24.6207C10.5036 24.6581 10.5335 24.6957 10.5397 24.7342C10.5469 24.7788 10.5324 24.8393 10.4966 24.9154C10.4606 24.9896 10.4323 25.0283 10.4122 25.0316C10.4019 25.033 10.3854 25.0269 10.3624 25.013C10.3392 24.999 10.3163 24.9843 10.2931 24.9695C10.2663 24.9592 10.2414 24.9491 10.2179 24.9394C10.1944 24.9293 10.1816 24.9174 10.1794 24.9034ZM9.89675 24.5589C9.89424 24.5427 9.9152 24.4791 9.9602 24.3682C10.0049 24.2575 10.0334 24.2009 10.0455 24.199C10.072 24.1951 10.1134 24.207 10.1701 24.2355C10.2246 24.2642 10.2635 24.2935 10.287 24.323C10.3082 24.2739 10.3306 24.2246 10.3541 24.1753C10.3868 24.1056 10.4072 24.0704 10.4153 24.069C10.4519 24.0632 10.5 24.0785 10.5598 24.1148C10.6205 24.1549 10.654 24.1962 10.6607 24.2388C10.6685 24.2873 10.6506 24.3514 10.607 24.4309C10.5645 24.5042 10.5321 24.5424 10.5098 24.546C10.4935 24.5485 10.4656 24.5374 10.4264 24.5126C10.3705 24.4758 10.3247 24.4496 10.2892 24.4345C10.2327 24.5909 10.1813 24.6726 10.1346 24.6801C10.1265 24.6812 10.0852 24.6628 10.0102 24.6249C9.93561 24.587 9.89759 24.565 9.89675 24.5589ZM18.3148 22.7011C18.3173 22.6989 18.3198 22.6964 18.3223 22.6941C18.3324 22.6847 18.3405 22.6788 18.3467 22.6766C18.3528 22.6746 18.3556 22.6777 18.3548 22.6861C18.3539 22.6947 18.3455 22.7111 18.3302 22.736C18.2357 22.894 18.1473 23.0565 18.0649 23.2241C17.8435 23.6738 18.0045 23.344 17.8905 23.6255V23.6258C17.8505 23.7356 17.8351 23.8226 17.8435 23.8867C17.8521 23.9506 17.8882 23.9943 17.9522 24.0172C17.9752 24.0256 17.997 24.0261 18.0168 24.0191C18.0369 24.0122 18.0556 24.0016 18.0727 23.9871C18.09 23.9726 18.106 23.9559 18.1205 23.9372C18.1348 23.9182 18.1471 23.901 18.1571 23.8851C18.1753 23.8589 18.1895 23.8485 18.1993 23.8544C18.2094 23.8602 18.2102 23.8745 18.2019 23.8979C18.1792 23.9483 18.149 24.0063 18.1113 24.071C18.0735 24.136 18.0313 24.1956 17.9844 24.2494C17.9374 24.3032 17.8885 24.345 17.8373 24.3749C17.7862 24.4041 17.7356 24.41 17.6853 24.3919C17.631 24.3724 17.5941 24.3422 17.574 24.3013C17.5539 24.26 17.5436 24.2146 17.5433 24.1641C17.5427 24.1139 17.5494 24.0635 17.5634 24.013C17.5774 23.9626 17.5908 23.9188 17.6042 23.8823L17.609 23.8778C17.6425 23.7861 17.6951 23.6701 17.7661 23.5302C17.9265 23.2138 17.6881 23.6698 18.002 23.0724C18.0291 23.0211 18.0621 22.9721 18.1012 22.925C18.1239 22.8985 18.1515 22.8673 18.1837 22.8321L18.3148 22.7011ZM11.6133 22.964C11.7866 22.9409 11.9547 22.9113 12.1176 22.8751C12.2806 22.8391 12.441 22.7878 12.599 22.7212C12.7393 22.6615 12.8746 22.5918 13.0046 22.5124C13.1343 22.4327 13.2589 22.3482 13.3777 22.2587C13.5452 22.1327 13.7017 22.0006 13.8473 21.8623C13.9927 21.724 14.142 21.5849 14.2943 21.4447C14.3396 21.402 14.3852 21.3616 14.4313 21.3234C14.4771 21.2849 14.5266 21.249 14.5797 21.2158C14.6289 21.1851 14.6638 21.1759 14.6845 21.1882C14.7052 21.2005 14.7061 21.2311 14.6868 21.2799C14.6739 21.317 14.6602 21.3555 14.6457 21.3953C14.6311 21.4349 14.6141 21.4717 14.5945 21.506C14.585 21.5241 14.5744 21.5389 14.5626 21.5501C14.5509 21.5612 14.5355 21.5724 14.5165 21.5838C14.4894 21.5983 14.4517 21.6284 14.4025 21.6733C14.3536 21.7184 14.2912 21.7773 14.2152 21.8492C14.1266 21.9339 14.0383 22.0201 13.9502 22.1076C13.8622 22.1951 13.7724 22.2816 13.6807 22.3666C13.5891 22.4516 13.496 22.5344 13.4018 22.6144C13.3073 22.695 13.2095 22.77 13.108 22.8399C12.6828 23.1377 12.2082 23.3278 11.6843 23.4106L11.3391 23.4574C11.243 23.4694 11.1616 23.4736 11.0943 23.4697C11.0205 23.4647 10.9475 23.4566 10.8748 23.4452C10.8024 23.4337 10.7317 23.4159 10.6635 23.3913C10.6369 23.381 10.6157 23.373 10.6003 23.3671C10.5847 23.3612 10.5707 23.3582 10.5581 23.3582C10.5458 23.3582 10.5341 23.3632 10.5232 23.373C10.5123 23.383 10.4983 23.4 10.4812 23.4231C10.4659 23.4443 10.4499 23.4686 10.4334 23.4962C10.417 23.5238 10.3974 23.5569 10.3745 23.5957C10.3309 23.6629 10.2761 23.7136 10.2095 23.7479C10.1433 23.7822 10.0695 23.7933 9.98844 23.7814C9.94371 23.7738 9.90289 23.7657 9.86599 23.7571C9.82937 23.7485 9.78773 23.7499 9.74189 23.7613C9.69968 23.7719 9.65943 23.7867 9.62086 23.805C9.582 23.8237 9.54481 23.8505 9.50848 23.8853C9.45397 23.9352 9.41819 23.9581 9.40085 23.9536C9.38352 23.9492 9.39247 23.9141 9.42769 23.8483C9.46766 23.7713 9.51434 23.6966 9.56829 23.6236C9.62252 23.5508 9.68347 23.485 9.75112 23.4268C9.78578 23.3961 9.82351 23.3679 9.86405 23.3417C9.90458 23.3158 9.94846 23.301 9.99598 23.2977C10.0351 23.2957 10.0742 23.2996 10.1134 23.3102C10.1525 23.3205 10.1922 23.3278 10.2325 23.3317C10.2769 23.3373 10.3163 23.3323 10.3502 23.3164C10.384 23.3008 10.4142 23.2773 10.4404 23.2461C10.4709 23.2143 10.4977 23.1809 10.5215 23.146C10.545 23.1112 10.5685 23.0763 10.5922 23.0415C10.6263 22.9947 10.6588 22.9632 10.6895 22.9467C10.7202 22.9305 10.7666 22.9289 10.8293 22.9417C10.9707 22.9671 11.1026 22.9821 11.2251 22.9866C11.3475 22.991 11.4772 22.9835 11.6133 22.964ZM17.6042 22.6861C17.614 22.659 17.6596 22.6088 17.7406 22.5355C17.8217 22.4625 17.87 22.4285 17.8857 22.434C17.936 22.4522 17.9757 22.4932 18.0051 22.5573C18.0344 22.6211 18.0406 22.676 18.0238 22.7223C18.0084 22.7649 17.9676 22.8101 17.9011 22.8581C17.8346 22.906 17.7887 22.9255 17.7636 22.9163C17.7518 22.9124 17.7205 22.8748 17.6696 22.8043C17.6512 22.7825 17.6333 22.7597 17.6157 22.7357C17.6031 22.7162 17.5995 22.6994 17.6042 22.6861ZM18.9817 21.3396C19.2185 21.4402 19.8561 21.8213 19.7946 21.8026C19.827 21.7823 19.914 21.7268 19.9472 21.7062C23.0338 19.7877 25.118 16.4237 25.1865 12.5719C25.2955 6.49912 20.3584 1.45696 14.1968 1.3474L13.9997 1.34572C13.934 1.34572 13.8683 1.34628 13.8026 1.3474C7.64094 1.45696 2.70389 6.49912 2.81263 12.5719C2.8814 16.4237 4.96557 19.7877 8.05214 21.7062C8.0854 21.7268 8.15724 21.7728 8.18994 21.7932C8.18323 21.7722 8.80602 21.4137 8.92454 21.3845C8.83649 21.3661 8.74984 21.341 8.66542 21.3089C8.36744 21.196 8.10579 21.0006 7.88888 20.7695C7.84108 20.7185 7.79496 20.6655 7.75135 20.6106C7.70691 20.5548 7.6647 20.4974 7.62585 20.4378L7.58113 20.3647C7.47994 20.3332 7.38181 20.2936 7.28761 20.2446C7.03324 20.1121 6.81633 19.9156 6.63966 19.6915C6.61059 19.6544 6.58236 19.6165 6.55525 19.5777C6.51024 19.5136 6.46804 19.4473 6.42891 19.3793C6.39788 19.3252 6.36881 19.27 6.34282 19.2131L6.29725 19.1086C6.31626 19.1047 6.33469 19.101 6.3537 19.0971C6.19689 19.0247 6.04931 18.9332 5.91849 18.8206C5.70102 18.6335 5.53525 18.3927 5.41478 18.134C5.39493 18.0913 5.37619 18.0478 5.35858 18.0041C5.32951 17.9313 5.30379 17.8572 5.28143 17.7819C5.26354 17.7222 5.24788 17.6617 5.23558 17.6007L5.21547 17.4883L5.34768 17.4928C5.13859 17.3595 4.94936 17.1934 4.80401 16.9921C4.63629 16.7599 4.53089 16.4873 4.47415 16.2077C4.46492 16.1617 4.45682 16.1151 4.44983 16.0686C4.43865 15.9908 4.43083 15.9127 4.42636 15.8344C4.423 15.7722 4.42188 15.7098 4.4244 15.6473L4.43083 15.5336C4.46521 15.5431 4.49987 15.5523 4.53425 15.5617C4.591 15.5776 4.6469 15.5971 4.70196 15.6183C4.7506 15.637 4.79897 15.6574 4.84649 15.6791C4.82804 15.6671 4.80987 15.6548 4.79198 15.6423C4.75312 15.6155 4.7151 15.5877 4.67792 15.5587C4.45262 15.383 4.25501 15.1676 4.12139 14.9139C3.98806 14.6605 3.92208 14.3758 3.90531 14.0909C3.90252 14.0441 3.90112 13.997 3.90084 13.9499C3.90056 13.8713 3.90391 13.7929 3.91062 13.7149C3.91621 13.6527 3.92377 13.5908 3.93495 13.5292L3.95759 13.4174C3.99029 13.4316 4.02327 13.4456 4.05598 13.4598C4.10993 13.4835 4.16248 13.5108 4.21391 13.5395C4.2782 13.5752 4.39309 13.6469 4.38889 13.6427C4.35479 13.6101 4.32154 13.5763 4.28939 13.5418C4.09484 13.3329 3.93411 13.0887 3.84242 12.8172C3.75102 12.546 3.73144 12.2544 3.75995 11.9709C3.7647 11.924 3.77085 11.8772 3.77812 11.8307C3.79042 11.7532 3.80608 11.6762 3.82536 11.6001C3.84046 11.5396 3.8578 11.4797 3.87876 11.4209L3.91872 11.3141C3.94891 11.333 3.97911 11.3523 4.0093 11.3712C4.05878 11.4033 4.10629 11.4384 4.15241 11.4749C4.21558 11.5246 4.27625 11.5775 4.33467 11.6327C4.35843 11.6559 4.38219 11.679 4.40539 11.703L4.40846 11.6957C4.36374 11.6377 4.32125 11.5778 4.28156 11.5162C4.25612 11.4766 4.23152 11.4362 4.20832 11.3952C4.06743 11.1471 3.96736 10.8725 3.94109 10.5873C3.91509 10.3021 3.96346 10.0142 4.0571 9.74487C4.07248 9.70026 4.08924 9.65622 4.10713 9.61246C4.13676 9.53998 4.17002 9.46861 4.20608 9.39919C4.23515 9.34372 4.26591 9.28936 4.29973 9.23695L4.36318 9.14216C4.38834 9.16781 4.41322 9.19318 4.4381 9.21882C4.47891 9.2612 4.51693 9.30636 4.55355 9.35264C4.5583 9.35849 4.56304 9.36463 4.5678 9.37076C4.50043 9.14663 4.46689 8.91218 4.4831 8.67857C4.50295 8.39282 4.59659 8.11628 4.73216 7.86511C4.75452 7.82357 4.778 7.78259 4.80288 7.74245C4.84369 7.67554 4.88785 7.61059 4.93481 7.54758C4.97199 7.49768 5.01114 7.44862 5.05306 7.40234L5.13105 7.31899C5.15146 7.34798 5.17213 7.37725 5.19254 7.40652C5.22608 7.45503 5.25655 7.50549 5.28506 7.55678L5.28619 7.55874C5.27529 7.34129 5.29541 7.12218 5.35774 6.9131C5.43936 6.63878 5.59144 6.38901 5.77873 6.17324C5.80947 6.13783 5.84161 6.10298 5.87432 6.06897C5.92911 6.01266 5.98612 5.95886 6.04566 5.90756C6.09318 5.86686 6.14211 5.82755 6.19299 5.79159L6.28718 5.72692L6.34169 5.86045C6.3702 5.69151 6.41912 5.52648 6.49263 5.37148C6.61535 5.1125 6.80403 4.88921 7.02178 4.70438C7.05784 4.67399 7.09474 4.64445 7.13247 4.61601C7.19509 4.56862 7.25995 4.52402 7.32648 4.48248C7.37959 4.4493 7.43381 4.41808 7.48972 4.39021L7.59287 4.34086C7.60126 4.37543 7.60992 4.40999 7.61831 4.44456C7.63173 4.50199 7.64151 4.56026 7.64961 4.61824C7.66024 4.69769 7.6675 4.77797 7.67086 4.85798C7.67225 4.89116 7.67309 4.92433 7.67309 4.9575L7.68874 4.9511C7.73346 4.83931 7.79161 4.7331 7.8654 4.63748C7.88665 4.6096 7.90956 4.58256 7.93332 4.55691C8.07057 4.40888 8.24417 4.29765 8.42922 4.21847C8.52007 4.17973 8.61427 4.14767 8.71042 4.12593L8.82811 4.10195C8.82755 4.1393 8.82672 4.17666 8.82588 4.21402C8.82448 4.25639 8.82056 4.29877 8.81525 4.34086C8.80882 4.39355 8.79959 4.44596 8.78841 4.49781C8.73977 4.71804 8.64892 4.93269 8.50329 5.10693C8.40685 5.22234 8.28834 5.3174 8.15863 5.39351L8.15667 5.4002C8.18742 5.39713 8.2179 5.39463 8.24865 5.3924C8.29589 5.38933 8.3434 5.38765 8.39092 5.38709C8.41049 5.38682 8.41048 5.38681 8.42977 5.38681C8.49853 5.38737 8.56702 5.38989 8.63551 5.39713L8.749 5.41079C8.7367 5.44675 8.72468 5.48271 8.71182 5.51867C8.69058 5.57721 8.6657 5.63464 8.63914 5.69096C8.60728 5.75814 8.57234 5.82421 8.53488 5.88833C8.5114 5.92875 8.4868 5.96862 8.4608 6.00765C8.30119 6.24934 8.09825 6.4665 7.85087 6.62094C7.76002 6.67753 7.66387 6.7252 7.56436 6.76479C7.55514 6.80521 7.54451 6.84535 7.53305 6.88522C7.51069 6.96216 7.48469 7.03827 7.45534 7.11298C7.43829 7.15647 7.41984 7.19967 7.40056 7.24205C7.27505 7.5158 7.09893 7.77032 6.86525 7.96323C6.78306 8.03125 6.69445 8.09119 6.60192 8.14332C6.60137 8.15531 6.60054 8.16702 6.59998 8.17873C6.59495 8.25873 6.58628 8.33874 6.57398 8.41791C6.56671 8.46419 6.55832 8.51019 6.54854 8.55562C6.48593 8.85029 6.36964 9.13686 6.18376 9.37605C6.10996 9.47083 6.02638 9.55753 5.93553 9.63587C5.94196 9.67629 5.94699 9.71671 5.95091 9.75742C5.95901 9.83714 5.9632 9.91743 5.96348 9.99772C5.96376 10.0443 5.96294 10.0911 5.9607 10.1377C5.94588 10.4385 5.87683 10.7398 5.73176 11.0052C5.67026 11.1181 5.5959 11.2232 5.51204 11.3208L5.54112 11.3827C5.56571 11.4362 5.58668 11.4914 5.60569 11.5471C5.63197 11.623 5.6546 11.6999 5.67361 11.778C5.68479 11.8234 5.69458 11.8691 5.70325 11.9148C5.75859 12.2109 5.76111 12.5201 5.68144 12.8119C5.64678 12.939 5.59702 13.0617 5.53608 13.1782L5.57048 13.229C5.60318 13.278 5.63252 13.329 5.66047 13.3809C5.69821 13.4517 5.73288 13.5242 5.76419 13.5983C5.78236 13.6413 5.79941 13.6848 5.81507 13.7288C5.91681 14.0123 5.96852 14.317 5.93637 14.6178C5.90702 14.891 5.81058 15.1539 5.67641 15.3925L5.59953 15.5205C5.61099 15.5314 5.62218 15.5422 5.63336 15.5534C5.64091 15.5361 5.64818 15.5191 5.656 15.5024C5.68843 15.431 5.72394 15.361 5.76279 15.2927C5.79354 15.2384 5.82651 15.1851 5.86229 15.1341L5.9291 15.0415C5.95314 15.068 5.97718 15.0945 6.00122 15.121C6.04035 15.1648 6.0767 15.2113 6.11164 15.2587C6.15916 15.3234 6.2036 15.3906 6.24497 15.4594C6.26901 15.4993 6.29222 15.54 6.31402 15.5815C6.45462 15.8478 6.54883 16.1421 6.55917 16.4446C6.56196 16.5232 6.55917 16.6016 6.55134 16.6796L6.55833 16.6629C6.58768 16.683 6.61731 16.703 6.64666 16.7231C6.69502 16.7568 6.74142 16.7936 6.78642 16.8318C6.84764 16.8837 6.90662 16.9386 6.9628 16.996C6.99551 17.0292 7.02737 17.0635 7.05812 17.0989C7.25715 17.3253 7.41732 17.5898 7.49782 17.8814C7.51292 17.9355 7.52494 17.9899 7.53473 18.0448C7.58252 18.0646 7.6292 18.0869 7.67533 18.1106C7.74717 18.1471 7.81705 18.1869 7.88497 18.2299C7.92439 18.255 7.96324 18.2812 8.00153 18.3082C8.24249 18.4799 8.45578 18.6957 8.60113 18.9547C8.63104 19.0085 8.65816 19.0634 8.68248 19.12C8.71798 19.1303 8.7532 19.1417 8.78814 19.154C8.86417 19.1802 8.93908 19.2103 9.01232 19.2438C9.05481 19.263 9.09702 19.2836 9.13839 19.3054C9.4059 19.445 9.65104 19.6343 9.83161 19.8774C9.99821 20.1018 10.1069 20.365 10.1701 20.6357C10.1807 20.6814 10.19 20.7271 10.1981 20.7731C10.2017 20.7929 10.2048 20.8127 10.2079 20.8325L10.2137 20.8305C11.2413 20.4617 12.2605 20.2998 13.7803 20.2975C13.8532 20.2947 13.9264 20.2928 13.9997 20.292L14.2191 20.2975C15.9228 20.3 16.9974 20.5033 18.1594 20.9733C18.1454 20.9264 18.1337 20.8791 18.1239 20.8311C18.0794 20.6162 18.0741 20.3898 18.1322 20.1771C18.1904 19.9641 18.3103 19.7718 18.4582 19.6092C18.5241 19.5365 18.5963 19.4685 18.6745 19.4088L18.7715 19.3383C18.7863 19.3726 18.8014 19.4069 18.8163 19.4409C18.8325 19.4802 18.8467 19.52 18.8596 19.5605C18.8755 19.6112 18.8889 19.6622 18.9004 19.7141C18.9188 19.7988 18.9311 19.8855 18.9359 19.9728C18.9633 19.9571 18.991 19.9427 19.0192 19.929C18.9784 19.7199 18.975 19.5005 19.0318 19.2939C19.0899 19.0812 19.2096 18.8886 19.3574 18.7261C19.4237 18.6533 19.4958 18.5853 19.5741 18.5257L19.6711 18.4551C19.6859 18.4894 19.7007 18.5237 19.7155 18.558C19.732 18.597 19.7463 18.6372 19.7588 18.6776C19.7748 18.728 19.7885 18.7793 19.7996 18.8312C19.8181 18.9159 19.8304 19.0026 19.8351 19.0896C19.8393 19.0871 19.8438 19.0849 19.848 19.0824C19.8108 18.88 19.8097 18.6687 19.8642 18.4693C19.9226 18.2564 20.0423 18.064 20.1901 17.9015C20.2564 17.8287 20.3282 17.7607 20.4065 17.701L20.5035 17.6305L20.5639 17.7727C20.5675 17.732 20.5731 17.6913 20.5812 17.6511C20.6237 17.4345 20.7291 17.2341 20.8647 17.061C20.9253 16.9838 20.9924 16.9107 21.0659 16.8455L21.1576 16.7683L21.223 16.8948C21.2222 16.8658 21.2224 16.8366 21.2238 16.8073C21.2345 16.5871 21.3097 16.3733 21.4187 16.1826C21.4673 16.0973 21.5229 16.0153 21.5864 15.9403L21.6658 15.8505C21.6879 15.8807 21.7097 15.911 21.7318 15.9412C21.7563 15.9757 21.7787 16.0117 21.8 16.0485C21.8265 16.0942 21.8508 16.1416 21.8732 16.1895C21.9095 16.2684 21.9406 16.3504 21.964 16.4343C21.9797 16.4201 21.9959 16.4064 22.0121 16.3928C21.9025 16.2255 21.8209 16.037 21.7924 15.8383C21.7611 15.6197 21.7941 15.3959 21.8651 15.1882C21.8967 15.0951 21.9358 15.0042 21.9839 14.9183L22.0448 14.8152C22.0719 14.8408 22.0993 14.8662 22.1264 14.8919C22.1572 14.9211 22.1863 14.9523 22.2139 14.9844C22.2486 15.0243 22.2816 15.0661 22.3126 15.109C22.3632 15.1795 22.409 15.2543 22.4482 15.3323L22.4694 15.305C22.3364 15.1508 22.2296 14.9716 22.1754 14.7745C22.1169 14.5618 22.1217 14.3354 22.1659 14.1205C22.1857 14.0243 22.2131 13.9292 22.25 13.8381L22.2972 13.7283C22.3277 13.75 22.3579 13.772 22.3881 13.794C22.4222 13.8191 22.4549 13.8465 22.4865 13.8749C22.5262 13.9103 22.5639 13.9474 22.6 13.9864C22.6137 14.0009 22.6366 14.0268 22.6383 14.0288C22.6383 14.029 22.6385 14.029 22.6383 14.0288C22.5737 13.949 22.5183 13.8623 22.475 13.7692C22.3825 13.5688 22.3501 13.3447 22.3585 13.1253C22.3621 13.0271 22.3733 12.929 22.3951 12.8331L22.4236 12.7169C22.4571 12.7336 22.4907 12.7503 22.5242 12.767C22.5583 12.7846 22.5919 12.8038 22.6246 12.8245C22.605 12.8002 22.5865 12.7754 22.5692 12.7495C22.4457 12.5666 22.3777 12.3506 22.3506 12.1328C22.3386 12.0353 22.3341 11.9366 22.34 11.8385L22.3495 11.7191C22.3853 11.7303 22.4211 11.7414 22.4568 11.7526C22.4974 11.7657 22.5368 11.781 22.5759 11.7978C22.6246 11.8187 22.6724 11.8421 22.719 11.8674C22.7956 11.9087 22.8694 11.9561 22.9388 12.0093C22.9413 11.9971 22.9441 11.9845 22.9469 11.9723C22.7995 11.8925 22.6645 11.7894 22.5569 11.6612C22.4149 11.4919 22.3249 11.284 22.2754 11.0702C22.2534 10.9745 22.2385 10.8767 22.2341 10.7786L22.2315 10.659C22.2682 10.6662 22.3048 10.6737 22.3414 10.681C22.3749 10.6882 22.4082 10.6969 22.4409 10.7066C22.4325 10.6991 22.4242 10.6916 22.4158 10.6838C22.255 10.5324 22.1413 10.3364 22.0669 10.1299C22.0336 10.0373 22.0076 9.94196 21.9917 9.84495L21.9749 9.72647C22.0121 9.72954 22.0496 9.7326 22.0868 9.73567C22.129 9.73957 22.1712 9.74599 22.2128 9.75379C22.2218 9.75546 22.2307 9.75714 22.2394 9.75881C22.2251 9.74961 22.2111 9.73985 22.1972 9.72982C22.0183 9.60019 21.8802 9.4201 21.7801 9.22468C21.7354 9.13714 21.6974 9.04598 21.6691 8.95176L21.6373 8.83635C21.6772 8.83467 21.7172 8.83245 21.7572 8.83105L21.8517 8.83189C21.8385 8.82659 21.8254 8.82102 21.8125 8.81516C21.6113 8.72317 21.4405 8.57403 21.3035 8.40202C21.2423 8.32508 21.187 8.24312 21.1405 8.15642L21.0866 8.04965C21.1255 8.03989 21.164 8.02986 21.2029 8.02066C21.247 8.01062 21.3267 7.99362 21.3267 7.99362C21.2974 7.98331 21.2683 7.97188 21.2398 7.95906C21.0522 7.8757 20.8887 7.74384 20.7537 7.59079C20.6885 7.5172 20.629 7.43802 20.5781 7.35383L20.5189 7.24986C20.5572 7.23815 20.5952 7.22616 20.6338 7.21501C20.6494 7.21055 20.6651 7.20637 20.681 7.20274C20.487 7.1166 20.3196 6.97805 20.1826 6.81775C20.1189 6.74304 20.0604 6.66304 20.0112 6.57773L19.9537 6.47291L20.0395 6.4481C19.8407 6.35722 19.6711 6.21059 19.5347 6.04137C19.4729 5.96499 19.417 5.88331 19.37 5.79689L19.3155 5.6904C19.3233 5.68817 19.3203 5.689 19.3264 5.68733C19.1771 5.61039 19.0435 5.50362 18.9286 5.38208C18.861 5.31043 18.7986 5.23349 18.7453 5.15097L18.6824 5.04894C18.7201 5.03612 18.7578 5.02274 18.7959 5.01047C18.8551 4.99179 18.9155 4.97702 18.9764 4.96559C19.0692 4.94803 19.1634 4.938 19.2576 4.93577H19.3295C19.2965 4.86496 19.2691 4.79136 19.2467 4.71693C19.2185 4.6227 19.1973 4.52625 19.1866 4.4284L19.176 4.30936C19.2132 4.31438 19.2501 4.3194 19.2873 4.32414C19.3292 4.33055 19.3711 4.33891 19.4122 4.34895C19.4639 4.36149 19.5151 4.37654 19.5654 4.39355C19.6671 4.4284 19.7667 4.47244 19.8597 4.52708C19.8625 4.42199 19.8765 4.31717 19.8997 4.21486C19.9212 4.11896 19.9506 4.02445 19.9892 3.93413L20.0389 3.82513C20.0688 3.84771 20.0985 3.87029 20.1284 3.89287C20.1619 3.91879 20.1941 3.94668 20.2251 3.97539C20.2639 4.01163 20.3011 4.04954 20.3363 4.08913C20.4918 4.2628 20.6156 4.46993 20.6687 4.69796C20.6718 4.71162 20.6813 4.73058 20.6813 4.73058L20.7095 4.67427L20.764 4.57615C20.792 4.60096 20.8199 4.62577 20.8479 4.65058C20.8792 4.67901 20.9091 4.7094 20.9379 4.74062C20.9737 4.77965 21.0078 4.82063 21.0399 4.86272C21.1685 5.03138 21.2688 5.22569 21.3122 5.43393L21.3712 5.31935C21.3997 5.34332 21.4285 5.3673 21.457 5.39127C21.4894 5.41915 21.5199 5.44843 21.5495 5.47881C21.5864 5.51701 21.6216 5.55686 21.6549 5.59812C21.7689 5.73974 21.8628 5.90059 21.9182 6.07399L22.0034 6.14313C22.0362 6.17017 22.0672 6.19916 22.0974 6.22899C22.1348 6.26634 22.1706 6.30565 22.2047 6.34635C22.354 6.52533 22.4705 6.73636 22.5158 6.96606C22.5172 6.97248 22.5183 6.97889 22.5195 6.9853L22.5424 6.94488C22.57 6.96969 22.598 6.99449 22.6257 7.01958C22.657 7.0483 22.6866 7.07869 22.7151 7.11019C22.7506 7.1495 22.7845 7.19048 22.8163 7.23285C22.9564 7.41907 23.062 7.63596 23.0956 7.86762C23.1165 8.01286 23.1093 8.16088 23.0819 8.30473L23.0822 8.3039C23.1193 8.24368 23.1604 8.18569 23.2051 8.13105L23.2834 8.04046C23.3058 8.07028 23.3281 8.10039 23.3505 8.13022C23.3754 8.16451 23.3983 8.20019 23.4201 8.23671C23.4472 8.28215 23.4721 8.32899 23.495 8.37693C23.5951 8.58713 23.656 8.82018 23.6429 9.05407C23.6395 9.11205 23.632 9.1692 23.6205 9.22579L23.7091 9.14607C23.7276 9.17869 23.746 9.21102 23.7642 9.24363C23.7846 9.28099 23.8028 9.31918 23.8196 9.35821C23.8405 9.40672 23.8595 9.45634 23.876 9.50679C23.9487 9.72786 23.9792 9.96677 23.9361 10.197C23.9241 10.2609 23.907 10.3236 23.885 10.3847L23.9305 10.3498L24.0222 10.2854C24.0367 10.3197 24.051 10.3543 24.0653 10.3886C24.0812 10.4281 24.0949 10.4683 24.1069 10.5087C24.122 10.5597 24.1349 10.611 24.1455 10.6629C24.1916 10.8912 24.1936 11.132 24.124 11.3556C24.0935 11.4532 24.0502 11.5463 23.9973 11.6336L24.0717 11.5873L24.1695 11.5324C24.1804 11.5683 24.191 11.604 24.2017 11.6397C24.2134 11.6804 24.2229 11.7219 24.2307 11.7635C24.2405 11.8156 24.2478 11.868 24.2528 11.9207C24.2749 12.1524 24.252 12.3924 24.1595 12.6076C24.1027 12.7394 24.0219 12.8593 23.9258 12.9661L23.9294 12.9641C23.9962 12.9259 24.0658 12.8922 24.1374 12.8641L24.25 12.8228C24.2551 12.8599 24.2598 12.8969 24.2646 12.9337C24.2696 12.9758 24.2721 13.0182 24.2732 13.0606C24.2746 13.1136 24.2735 13.1665 24.2702 13.2195C24.2548 13.4517 24.1936 13.6848 24.0675 13.8824C23.9878 14.0076 23.8847 14.116 23.7684 14.2083C23.8324 14.1857 23.8975 14.1668 23.9638 14.1528L24.0817 14.1305C24.0804 14.1679 24.0792 14.2052 24.0778 14.2423C24.0759 14.2847 24.0714 14.3271 24.0655 14.3689C24.0583 14.4213 24.0485 14.4734 24.0365 14.525C23.9831 14.7516 23.8847 14.9719 23.7279 15.1461C23.5856 15.3047 23.4011 15.4215 23.2049 15.5021C23.1574 15.5216 23.1093 15.5394 23.0601 15.5545C23.0601 15.5723 23.0595 15.5902 23.059 15.608C23.1532 15.5609 23.2527 15.5244 23.3541 15.4968C23.4492 15.4711 23.5467 15.4525 23.6448 15.4444L23.7648 15.4368C23.7586 15.4736 23.7528 15.5104 23.7466 15.5475C23.7393 15.5891 23.7298 15.6306 23.7186 15.6713C23.7047 15.7226 23.6885 15.773 23.67 15.8227C23.5889 16.0407 23.4634 16.2467 23.2862 16.4003C23.1252 16.54 22.9273 16.6331 22.7224 16.6885C22.6592 16.7058 22.5947 16.7198 22.5298 16.7295C22.5245 16.7599 22.5183 16.79 22.5114 16.8201C22.6125 16.792 22.7174 16.7747 22.8222 16.7669C22.8585 16.7641 22.8951 16.7627 22.9318 16.7621C22.9455 16.7619 22.9592 16.7619 22.9729 16.7619L23.1252 16.7711L23.2367 16.7853C23.223 16.8229 23.2096 16.8605 23.1954 16.8979C23.1593 16.9893 23.1137 17.0772 23.062 17.1605C22.9457 17.347 22.7934 17.5148 22.6042 17.6294C22.4149 17.744 22.1952 17.8011 21.9758 17.8179C21.9386 17.8206 21.9009 17.8223 21.8634 17.8229C21.8601 17.8321 21.8564 17.841 21.8528 17.8502H21.8533C21.9098 17.8429 21.9668 17.8393 22.0239 17.8382L22.134 17.8401C22.1955 17.8432 22.257 17.8496 22.3179 17.8594L22.4678 17.8903L22.5756 17.9207C22.5566 17.9558 22.5379 17.991 22.5183 18.0258C22.4697 18.1111 22.4116 18.1914 22.3481 18.2667C22.2061 18.4342 22.0308 18.5783 21.8271 18.6642C21.6703 18.73 21.5009 18.7601 21.3309 18.7634C21.3969 18.769 21.4623 18.7782 21.5271 18.791C21.5925 18.8041 21.6577 18.8206 21.7211 18.8421L21.834 18.8828C21.8125 18.9162 21.7913 18.9502 21.7692 18.9834C21.7141 19.0651 21.6507 19.1409 21.5819 19.2112C21.4282 19.3681 21.2428 19.4991 21.0332 19.5699C20.9426 19.6006 20.849 19.6196 20.7542 19.6288C20.7512 19.6279 20.8414 19.6508 20.8884 19.6667L21.0013 19.7074C20.9798 19.7411 20.9586 19.7748 20.9365 19.8083C20.8814 19.8897 20.818 19.9655 20.7492 20.0358C20.5952 20.1927 20.4101 20.3237 20.2005 20.3945C19.9908 20.4654 19.7639 20.474 19.5461 20.4428C19.5003 20.4361 19.4544 20.428 19.4091 20.4177C19.4019 20.4347 19.394 20.4511 19.3862 20.4676L19.479 20.4656C19.5852 20.4667 19.6909 20.4782 19.7952 20.4988C19.8606 20.5119 19.9257 20.5284 19.9892 20.5495L20.1021 20.5902C20.0803 20.624 20.0593 20.6577 20.0372 20.6912C19.9822 20.7728 19.9187 20.8487 19.8497 20.9189C19.6959 21.0759 19.5106 21.2066 19.3012 21.2777C19.1978 21.3125 19.0905 21.3323 18.9817 21.3396ZM9.34887 21.1846C9.1409 21.1224 8.9416 21.0307 8.76577 20.903C8.56255 20.7556 8.3954 20.564 8.26179 20.3524C8.11531 20.3628 7.96967 20.3867 7.82766 20.4233L7.82263 20.4244C7.88804 20.5144 7.96016 20.5994 8.03731 20.6792C8.06582 20.709 8.09545 20.7377 8.12536 20.7659C8.31517 20.9426 8.53711 21.089 8.78421 21.1715C8.91923 21.2164 9.05983 21.2423 9.20127 21.2526C9.19009 21.2579 9.28877 21.2119 9.34887 21.1846ZM18.589 21.1442C18.6265 21.1517 18.6639 21.1576 18.7016 21.1623C18.8934 21.186 19.0927 21.1751 19.2747 21.1071C19.4279 21.0499 19.5648 20.956 19.6834 20.8445C19.7094 20.82 19.7345 20.7946 19.7588 20.7684L19.834 20.6811C19.8013 20.6728 19.7681 20.6658 19.7348 20.6597C19.6501 20.6443 19.564 20.636 19.4776 20.6348C19.4717 20.6348 19.4656 20.6348 19.4597 20.6348C19.3996 20.6354 19.3395 20.6396 19.2803 20.6485C19.2484 20.6942 19.2132 20.738 19.1749 20.779C19.0292 20.9343 18.8423 21.0472 18.6444 21.1238L18.589 21.1442ZM9.92861 20.9379C9.86096 20.789 9.77906 20.6466 9.68095 20.5155C9.58367 20.3851 9.47047 20.2663 9.34049 20.1679C9.1901 20.0542 9.01903 19.9703 8.84041 19.9112C8.74845 19.8808 8.65423 19.8568 8.55919 19.8387C8.43564 19.8153 8.31013 19.8016 8.18434 19.7971H8.1796C8.18016 19.7985 8.18044 19.8002 8.181 19.8019C8.22265 19.9159 8.27241 20.0268 8.33027 20.1336C8.37611 20.2181 8.42727 20.2998 8.48373 20.3775C8.59387 20.5292 8.72524 20.6664 8.87843 20.7751C9.01931 20.8752 9.17695 20.9501 9.34104 21.0045C9.42629 21.0327 9.51324 21.0552 9.60129 21.0728L9.70582 21.0285C9.59904 20.9563 9.4945 20.8807 9.39052 20.8046C9.27311 20.7165 9.15656 20.627 9.04363 20.5328C8.93014 20.4389 8.81888 20.3421 8.71322 20.2368L8.71379 20.2362C8.8502 20.2967 8.98045 20.3661 9.10875 20.4383C9.23733 20.5102 9.36284 20.5869 9.48723 20.6647C9.61051 20.7441 9.73322 20.8244 9.85258 20.9094C9.87019 20.922 9.88781 20.9345 9.90542 20.9471L9.92861 20.9379ZM18.5932 20.9618C18.5993 20.9593 18.6055 20.9568 18.6119 20.9543C18.7905 20.8813 18.9588 20.7742 19.0841 20.6259C19.1892 20.5013 19.2624 20.3522 19.3105 20.1974C19.3211 20.1632 19.3306 20.1286 19.339 20.094L19.3613 19.9809L19.2512 20.0157C19.2174 20.0277 19.1841 20.0408 19.1511 20.055C18.9929 20.1239 18.8442 20.2198 18.7282 20.3486C18.6125 20.4773 18.5334 20.6354 18.4819 20.7996C18.4803 20.8057 18.4783 20.8119 18.4764 20.818C18.5242 20.762 18.5739 20.7079 18.6245 20.6541C18.6924 20.5841 18.7615 20.5153 18.835 20.45C18.9082 20.3842 18.9843 20.3212 19.0681 20.2646L19.0687 20.2652C19.0262 20.3569 18.9759 20.4417 18.9228 20.5242C18.8696 20.607 18.8126 20.6861 18.7542 20.7642C18.7019 20.8314 18.6491 20.898 18.5932 20.9618ZM18.7679 20.0829C18.7698 19.997 18.7629 19.9109 18.7489 19.8267C18.743 19.7913 18.736 19.7562 18.7276 19.7216L18.6972 19.6104L18.6142 19.6906C18.5896 19.7163 18.5655 19.7431 18.5426 19.7704C18.4319 19.9025 18.3419 20.0547 18.2963 20.2217C18.2508 20.3884 18.2508 20.5652 18.2787 20.7349C18.284 20.7664 18.298 20.8253 18.298 20.8253C18.2988 20.8225 18.2997 20.8194 18.3002 20.8166C18.357 20.6045 18.454 20.3998 18.6019 20.2354C18.6513 20.1802 18.7061 20.1303 18.7648 20.0851L18.7679 20.0829ZM10.0175 20.7333C9.99487 20.6223 9.96412 20.513 9.92443 20.4068C9.86768 20.2546 9.7922 20.1088 9.69492 19.9783C9.58283 19.8272 9.44223 19.6984 9.28709 19.592C9.20407 19.5348 9.11686 19.4838 9.02657 19.4384C8.91783 19.3837 8.80518 19.3374 8.68946 19.2995L8.68471 19.2979C8.68499 19.2998 8.68499 19.3012 8.68499 19.3029C8.69281 19.4241 8.70931 19.5446 8.73503 19.6633C8.7381 19.6778 8.74145 19.6923 8.7448 19.7065C8.95669 19.7612 9.1613 19.8445 9.34467 19.9638C9.388 19.992 9.42994 20.0221 9.47019 20.0539C9.58564 20.145 9.68877 20.2507 9.7799 20.3656C9.87075 20.4801 9.94959 20.6039 10.0175 20.7333ZM19.4882 20.2613C19.5257 20.2685 19.5632 20.2744 19.6009 20.2791C19.7927 20.3028 19.992 20.292 20.1742 20.2239C20.3271 20.1671 20.4644 20.0728 20.5826 19.9616C20.6086 19.9371 20.6338 19.9114 20.6581 19.8852L20.7333 19.798C20.6961 19.7885 20.6584 19.7807 20.6203 19.7743C20.5398 19.7603 20.4585 19.7528 20.3769 19.752H20.359C20.2989 19.7523 20.2391 19.7567 20.1798 19.7656C20.1477 19.8114 20.1127 19.8548 20.0741 19.8958C19.9285 20.0514 19.7418 20.1643 19.5436 20.2407C19.5254 20.2479 19.507 20.2546 19.4882 20.2613ZM7.81929 20.2504C7.86876 20.2384 7.97918 20.217 7.98869 20.2153C7.77736 20.1233 7.57917 19.9998 7.41257 19.8401C7.23143 19.6664 7.09222 19.4537 6.98908 19.2257C6.95581 19.2234 6.92256 19.222 6.88958 19.2212C6.8661 19.2206 6.8426 19.2204 6.8194 19.2204C6.73387 19.2209 6.64861 19.2257 6.56335 19.2346L6.54407 19.2368C6.55218 19.2516 6.56028 19.2663 6.56838 19.2808C6.67293 19.4648 6.80012 19.6368 6.95079 19.7863C7.06987 19.9042 7.20433 20.0079 7.35248 20.0871C7.49867 20.1651 7.65716 20.2181 7.81929 20.2504L7.81845 20.2507L7.81929 20.2504ZM8.40573 19.6438C8.31209 19.4593 8.19105 19.2881 8.03815 19.1476C7.90817 19.0277 7.75751 18.9313 7.5979 18.8554C7.4095 18.7662 7.20796 18.7043 7.00307 18.6676L6.98377 18.6645C6.98433 18.6659 6.98462 18.6675 6.9849 18.6692C7.01033 18.788 7.04415 18.9048 7.08692 19.0182C7.12074 19.1083 7.16016 19.1961 7.20545 19.2808C7.29098 19.4417 7.3986 19.5917 7.53026 19.718C7.66219 19.8443 7.81649 19.9457 7.98086 20.0252C8.02474 20.0464 8.06947 20.0659 8.11475 20.0843C8.08959 20.0305 8.06611 19.9761 8.04431 19.9209C8.02474 19.8705 7.99259 19.7737 7.9937 19.7768C7.90705 19.6901 7.82152 19.602 7.73878 19.5111C7.63926 19.4027 7.54228 19.2914 7.45227 19.173L7.45281 19.1721C7.57944 19.251 7.69909 19.3374 7.81622 19.4266C7.90259 19.4919 7.98672 19.5593 8.07002 19.6279L8.13543 19.6268C8.22572 19.6276 8.316 19.6335 8.40573 19.6438ZM19.5182 20.0684C19.6943 19.9953 19.8597 19.8891 19.9833 19.7428C20.0884 19.6184 20.1616 19.4693 20.21 19.3143C20.2206 19.2803 20.2298 19.2457 20.2382 19.2109L20.2609 19.098L20.1505 19.1325C20.1169 19.1445 20.0834 19.1576 20.0506 19.1718C19.8924 19.2407 19.7435 19.3366 19.6277 19.4654C19.5416 19.561 19.4757 19.6731 19.4265 19.7916L19.519 19.7759L19.5238 19.7712C19.5917 19.701 19.6607 19.6321 19.7345 19.5669C19.8077 19.5014 19.8838 19.4381 19.9674 19.3815L19.9682 19.382C19.9257 19.4738 19.8751 19.5585 19.822 19.641C19.7692 19.7241 19.7119 19.8033 19.6534 19.881C19.611 19.936 19.5679 19.9903 19.5232 20.0433C19.5215 20.0517 19.5198 20.06 19.5182 20.0684ZM19.2258 19.8451C19.2845 19.665 19.3742 19.4936 19.5011 19.3522C19.5517 19.2962 19.6073 19.2454 19.6671 19.1997C19.6691 19.1139 19.6621 19.028 19.6481 18.9435C19.6426 18.9081 19.6353 18.8733 19.6272 18.8384L19.5964 18.7275L19.5137 18.8075C19.4888 18.8334 19.4648 18.8599 19.4418 18.8875C19.3311 19.0194 19.2411 19.1718 19.1956 19.3386C19.15 19.5055 19.15 19.682 19.178 19.8521L19.1796 19.8613L19.2258 19.8451ZM8.51252 19.1557C8.49015 19.1061 8.465 19.0575 8.43733 19.0104C8.34508 18.8538 8.2246 18.7147 8.08875 18.594C7.92942 18.4523 7.74884 18.3347 7.55764 18.241L7.55317 18.2391C7.55289 18.2407 7.55289 18.2424 7.55261 18.2441C7.54338 18.369 7.5434 18.4947 7.55346 18.6199C7.5543 18.6305 7.5554 18.6413 7.55624 18.6519C7.7958 18.7501 8.01999 18.8875 8.20308 19.0707C8.33809 19.2056 8.44906 19.3625 8.53823 19.5306L8.52035 19.3793C8.51476 19.3171 8.51252 19.1557 8.51252 19.1557ZM20.3464 19.4414C20.3752 19.4464 20.4045 19.4509 20.4336 19.4545C20.6254 19.4782 20.8247 19.4674 21.0069 19.3993C21.1598 19.3425 21.2971 19.2482 21.4153 19.137C21.4413 19.1125 21.4665 19.0868 21.4908 19.0606L21.566 18.9734C21.5288 18.9639 21.4911 18.9561 21.4531 18.9497C21.3726 18.9357 21.2912 18.9282 21.2096 18.9274C21.2037 18.9274 21.1976 18.9274 21.1917 18.9274C21.1316 18.9276 21.0718 18.9321 21.0125 18.9407C20.9804 18.9867 20.9454 19.0302 20.9069 19.0712C20.7612 19.2268 20.5745 19.3397 20.3763 19.4161C20.3682 19.4191 20.3601 19.4225 20.352 19.4253C20.35 19.4305 20.3481 19.4359 20.3464 19.4414ZM20.4068 18.895C20.4588 18.8426 20.5116 18.7913 20.5672 18.7423C20.6402 18.6768 20.7162 18.6135 20.8001 18.5569L20.8009 18.5574C20.7581 18.6491 20.7078 18.7339 20.6547 18.8164C20.6019 18.8992 20.5446 18.9784 20.4862 19.0564C20.4666 19.0815 20.4473 19.1063 20.4275 19.1311C20.4227 19.1601 20.4171 19.1886 20.411 19.2173C20.5644 19.1459 20.7067 19.0478 20.816 18.9182C20.9211 18.7936 20.9943 18.6447 21.0427 18.4897C21.053 18.4554 21.0626 18.4211 21.0709 18.3863L21.0933 18.2734L20.9832 18.3079C20.9494 18.3199 20.9161 18.333 20.8834 18.3472C20.7249 18.4161 20.5762 18.512 20.4604 18.6408C20.3861 18.7233 20.3271 18.8178 20.2804 18.9182L20.4068 18.895ZM6.75259 19.052C6.5094 18.8967 6.29026 18.6982 6.13288 18.4551C5.99675 18.2446 5.90982 18.0057 5.86174 17.7601C5.72617 17.7186 5.5864 17.6893 5.44552 17.6721L5.42623 17.6698C5.42678 17.6712 5.42707 17.6729 5.42762 17.6746C5.45921 17.7916 5.49976 17.9065 5.54867 18.0177C5.58725 18.1055 5.63141 18.1911 5.68117 18.2734C5.77537 18.4292 5.89109 18.573 6.02946 18.6921C6.16447 18.8083 6.3196 18.8995 6.48313 18.9692C6.55944 19.0015 6.72157 19.0531 6.72157 19.0531C6.73192 19.0525 6.74225 19.0523 6.75259 19.052ZM20.0719 18.9809C20.1306 18.8153 20.2161 18.6586 20.3338 18.5276C20.3841 18.4716 20.44 18.4208 20.4999 18.3751C20.5018 18.2893 20.4948 18.2034 20.4808 18.1189C20.475 18.0835 20.468 18.0487 20.4599 18.0138L20.4291 17.9026L20.3464 17.9829C20.3215 18.0088 20.2975 18.0353 20.2746 18.0626C20.1639 18.1947 20.0739 18.347 20.0283 18.5139C19.9844 18.674 19.9827 18.8429 20.0073 19.0063L20.0719 18.9809ZM7.15261 18.5251C7.14478 18.4905 7.1364 18.4565 7.1269 18.4225C7.08301 18.2661 7.02039 18.1145 6.93486 17.9759C6.83562 17.8159 6.70647 17.676 6.56111 17.5566C6.48313 17.4928 6.4004 17.4345 6.31458 17.3816C6.21088 17.318 6.10241 17.2623 5.99032 17.2146L5.98585 17.2129C5.98585 17.2146 5.98585 17.216 5.98585 17.2176C5.98305 17.3392 5.9892 17.4605 6.00485 17.5809C6.01715 17.6762 6.03534 17.7707 6.05965 17.8636C6.10773 18.0445 6.18068 18.2198 6.28411 18.3762C6.38223 18.524 6.50578 18.6536 6.64359 18.7651C6.71766 18.8253 6.87559 18.9246 6.87559 18.9246C6.85965 18.873 6.84568 18.8209 6.8331 18.7685C6.82667 18.7414 6.82052 18.7141 6.81493 18.6868C6.79369 18.6539 6.77245 18.6207 6.75121 18.5878C6.67378 18.4635 6.59746 18.338 6.5259 18.2095C6.45406 18.0813 6.3853 17.9508 6.32492 17.8148L6.32548 17.8142C6.43059 17.9202 6.52731 18.0314 6.62095 18.1449C6.7118 18.2544 6.79817 18.3668 6.88314 18.4802L6.78335 18.4716L6.89012 18.4808C6.94882 18.4863 7.00726 18.4956 7.06512 18.5067C7.09447 18.5123 7.12354 18.5184 7.15261 18.5251ZM21.2037 18.544L21.1883 18.5903C21.1992 18.5912 21.2099 18.5917 21.2208 18.5923C21.4136 18.602 21.6115 18.577 21.7882 18.4958C21.9366 18.4281 22.0666 18.3241 22.1765 18.2045C22.2008 18.1783 22.224 18.151 22.2464 18.1231L22.3151 18.0306C22.2363 18.0166 22.1566 18.0096 22.077 18.0077C22.063 18.0074 22.049 18.0074 22.035 18.0074C21.9428 18.0085 21.8503 18.018 21.7605 18.0381C21.7317 18.086 21.7002 18.1323 21.6649 18.1758C21.5414 18.3283 21.3807 18.4473 21.206 18.5362L21.2037 18.544ZM7.38517 18.2081C7.37622 18.1131 7.35946 18.0186 7.33402 17.9266C7.28286 17.7406 7.1951 17.5664 7.08552 17.4083C7.03074 17.3292 6.97036 17.2539 6.90578 17.1828C6.82416 17.0928 6.73583 17.0089 6.64163 16.9319L6.63772 16.9288C6.63716 16.9305 6.63659 16.9322 6.63603 16.9336C6.59941 17.0493 6.57147 17.1678 6.55246 17.2876C6.55023 17.3024 6.54799 17.3169 6.54603 17.3317C6.75652 17.4819 6.94323 17.6668 7.07936 17.887C7.20907 18.0963 7.29098 18.3322 7.33598 18.5736C7.35107 18.5783 7.36589 18.5828 7.38099 18.5878C7.37959 18.5691 7.37874 18.5507 7.3779 18.5321C7.37482 18.4537 7.37511 18.3751 7.37903 18.2971C7.38042 18.2672 7.38237 18.2377 7.38517 18.2081ZM21.2761 18.175L21.2596 18.3102C21.3762 18.2352 21.4813 18.1421 21.5629 18.0297C21.6588 17.8979 21.7209 17.744 21.7578 17.5859C21.7659 17.5511 21.7728 17.5162 21.7784 17.4808L21.7927 17.3665L21.6853 17.4092C21.6526 17.4234 21.6202 17.439 21.5884 17.4554C21.4357 17.5354 21.294 17.6419 21.1881 17.7788C21.1087 17.8811 21.0511 17.9979 21.0106 18.1206C21.041 18.1114 21.0721 18.103 21.1028 18.0958L21.1067 18.0913C21.1693 18.0166 21.2334 17.9427 21.3021 17.8722C21.37 17.8017 21.4413 17.7331 21.521 17.6707L21.5215 17.6712C21.4858 17.7657 21.4416 17.8538 21.3946 17.94C21.358 18.0077 21.3186 18.0735 21.2781 18.1382L21.2761 18.175ZM20.8135 18.1928C20.8585 18.0069 20.9359 17.8271 21.0536 17.6751C21.0992 17.6166 21.15 17.5628 21.2051 17.5134L21.2079 17.5109C21.204 17.4253 21.1906 17.34 21.1705 17.2567C21.1621 17.2221 21.1526 17.1875 21.1417 17.1535L21.1031 17.0451C21.1028 17.0454 21.1028 17.0454 21.1025 17.0456C21.0762 17.0732 21.0508 17.1017 21.0262 17.1309C21.0036 17.1585 20.9815 17.1867 20.9605 17.2157C20.8599 17.3556 20.7813 17.514 20.7478 17.6835C20.7145 17.8533 20.7274 18.0297 20.7679 18.197C20.7691 18.202 20.7702 18.2067 20.7716 18.2118C20.7853 18.2053 20.7992 18.1989 20.8135 18.1928ZM14.9498 16.3546C15.7023 16.6292 16.5071 16.7532 17.3174 16.7139C16.3656 17.0222 15.3917 17.0588 14.4782 16.867L14.4707 17.0548L13.9997 17.7013L13.5287 17.0548L13.5211 16.867C12.6076 17.0588 11.6335 17.0222 10.6819 16.7139C11.492 16.7532 12.2971 16.6292 13.0496 16.3546C11.8171 15.7109 10.8262 14.6042 10.3619 13.1805C9.67397 11.0707 10.3244 8.75523 12.0114 7.3084C10.1782 10.0128 10.8382 13.6655 13.468 15.5693L13.2852 11.0612V7.51497C13.5701 7.37865 13.816 7.17263 13.9997 6.91644C14.1833 7.17263 14.4293 7.37865 14.7139 7.51497V11.0612L14.5313 15.5693C17.1609 13.6655 17.8211 10.0128 15.988 7.3084C17.6749 8.75523 18.3254 11.0707 17.6375 13.1805C17.1732 14.6042 16.1822 15.7109 14.9498 16.3546ZM21.9165 17.6517C21.9425 17.6506 21.9682 17.6486 21.9939 17.6461C22.1863 17.628 22.3783 17.5742 22.5415 17.4686C22.6785 17.3799 22.7917 17.2584 22.8831 17.124C22.9033 17.0944 22.9223 17.0643 22.9404 17.0334L22.9949 16.9319C22.9787 16.9314 22.9628 16.9314 22.9466 16.9314C22.9144 16.9316 22.8823 16.9325 22.8501 16.9347C22.7132 16.9436 22.5756 16.9701 22.4473 17.0194L22.4459 17.0228C22.425 17.0733 22.4007 17.1226 22.3727 17.1697C22.2642 17.3529 22.1063 17.5037 21.9297 17.621L21.923 17.6255C21.921 17.6341 21.9188 17.6431 21.9165 17.6517ZM4.99603 15.9478C4.98149 15.9392 4.96669 15.9308 4.95187 15.9225C4.83867 15.8592 4.72014 15.8051 4.59827 15.7605L4.59351 15.7588C4.59351 15.7605 4.59352 15.7622 4.5938 15.7639C4.59715 15.8851 4.60973 16.0061 4.63154 16.1254C4.64859 16.2199 4.67151 16.3136 4.70058 16.405C4.75621 16.5784 4.83502 16.7451 4.94208 16.8932C5.04607 17.0373 5.17578 17.1619 5.31862 17.2676C5.40388 17.3306 5.49416 17.3871 5.58752 17.4373C5.5769 17.4265 5.566 17.4153 5.55538 17.4044C5.35775 17.1981 5.1931 16.9564 5.09778 16.6863C5.0142 16.4502 4.98541 16.1976 4.99603 15.9478ZM6.0711 17.0649C6.08256 16.8271 6.05601 16.5865 5.97411 16.3621C5.91177 16.1915 5.81841 16.0329 5.70688 15.8896C5.57578 15.7218 5.41953 15.5735 5.24818 15.4469L5.24425 15.4441C5.24397 15.4455 5.24341 15.4472 5.24285 15.4488C5.2121 15.5662 5.19003 15.6858 5.17689 15.8065C5.16683 15.9018 5.16236 15.998 5.16459 16.0942C5.16879 16.276 5.19729 16.4583 5.25795 16.63C5.31889 16.802 5.41114 16.9617 5.52211 17.1061C5.57829 17.1792 5.63923 17.2483 5.70408 17.3138C5.74154 17.3515 5.77984 17.3877 5.81954 17.4228L5.81674 17.3618C5.76335 17.2288 5.71527 17.0939 5.66831 16.9587C5.62162 16.8196 5.5769 16.6802 5.53721 16.5386C5.49724 16.3972 5.46062 16.2545 5.43378 16.1081L5.43435 16.1079C5.51206 16.235 5.58025 16.3657 5.64454 16.4979C5.70967 16.6297 5.76949 16.7635 5.82735 16.8982C5.84021 16.9286 5.8528 16.9589 5.86538 16.9893L5.93693 17.0128C5.98222 17.0281 6.02694 17.0456 6.0711 17.0649ZM21.9677 17.2553L21.9615 17.3866C22.0784 17.2901 22.1801 17.1744 22.2506 17.0401C22.326 16.8957 22.3652 16.7343 22.3786 16.5726C22.3816 16.5372 22.3833 16.5012 22.3839 16.4655L22.3811 16.3507L22.2813 16.4081C22.2508 16.4271 22.2212 16.4471 22.1921 16.4683C22.0526 16.5695 21.928 16.6952 21.843 16.8461C21.779 16.9598 21.7387 17.0852 21.7167 17.2138L21.7963 17.1867L21.8081 17.1669C21.8589 17.0838 21.9118 17.0016 21.9693 16.9219C22.0266 16.8421 22.087 16.7641 22.1566 16.6908L22.1572 16.6911C22.1357 16.7897 22.1049 16.8834 22.0708 16.9757C22.0398 17.0613 22.0043 17.1446 21.9671 17.2274L21.9677 17.2553ZM21.5344 17.2929C21.5534 17.1078 21.6034 16.9252 21.6948 16.763C21.732 16.6972 21.7754 16.6356 21.824 16.5782C21.8072 16.494 21.7818 16.4114 21.7496 16.332C21.7365 16.2988 21.722 16.2662 21.7063 16.2341L21.6524 16.1324L21.5886 16.2283C21.5702 16.259 21.5526 16.2902 21.5361 16.322C21.4567 16.4747 21.4019 16.6428 21.3938 16.8154C21.3854 16.9871 21.4234 17.1586 21.4869 17.3174L21.5344 17.2929ZM6.26398 17.1574C6.29137 17.0841 6.31514 17.0091 6.33415 16.9333C6.37524 16.7708 6.39619 16.6027 6.38864 16.4349C6.38054 16.2523 6.33834 16.0722 6.27321 15.9018C6.19578 15.6986 6.08675 15.5079 5.95621 15.3343L5.94447 15.3189C5.94364 15.3203 5.94281 15.3217 5.94197 15.3231C5.87935 15.4271 5.82427 15.5358 5.77787 15.6479C5.77228 15.6615 5.7667 15.6755 5.76139 15.6894C5.93107 15.8843 6.06943 16.1073 6.15078 16.3532C6.23464 16.6066 6.25671 16.8776 6.2363 17.1429C6.23267 17.141 6.2514 17.1507 6.26398 17.1574ZM22.5969 16.5447C22.6343 16.5369 22.6712 16.5274 22.7079 16.5165C22.8932 16.4625 23.0715 16.3733 23.2116 16.2389C23.3293 16.126 23.4176 15.9852 23.4819 15.8361C23.4959 15.8034 23.5087 15.77 23.5207 15.7363L23.5548 15.6264L23.4416 15.6493C23.407 15.6576 23.3723 15.6674 23.3382 15.678C23.232 15.7114 23.1286 15.7569 23.0338 15.8157C23.0226 15.8703 23.0078 15.9244 22.9891 15.9774C22.9175 16.1776 22.7909 16.3554 22.6399 16.504C22.6257 16.5179 22.6117 16.5316 22.5969 16.5447ZM22.4102 16.1488C22.418 16.1263 22.4261 16.1037 22.4342 16.0811C22.4686 15.9899 22.5046 15.8991 22.546 15.8101C22.5871 15.7209 22.6318 15.6328 22.6861 15.5478L22.6869 15.5481C22.6844 15.649 22.6718 15.7468 22.6559 15.8436C22.6405 15.9406 22.6195 16.0359 22.5972 16.1307C22.5818 16.1904 22.5661 16.2498 22.5488 16.3089L22.5516 16.3521C22.6821 16.216 22.7901 16.0543 22.8446 15.8729C22.8915 15.717 22.8991 15.5512 22.8817 15.3897C22.8778 15.3543 22.8728 15.3189 22.8664 15.2838L22.842 15.1712L22.7548 15.2467C22.7285 15.271 22.7031 15.2963 22.6788 15.3226C22.5608 15.4483 22.4624 15.5952 22.4076 15.7594C22.3632 15.8926 22.3484 16.034 22.3543 16.1742L22.4158 16.1466L22.4102 16.1488ZM22.1902 16.2651C22.1726 16.0772 22.1865 15.8851 22.2464 15.7056C22.2704 15.6342 22.3014 15.5656 22.3381 15.4999C22.3056 15.4204 22.2648 15.3443 22.2184 15.2724C22.1991 15.2423 22.1787 15.2127 22.1572 15.1843L22.0848 15.0945L22.0406 15.201C22.0283 15.2345 22.0169 15.2682 22.0068 15.3025C21.9579 15.4675 21.9361 15.6431 21.9607 15.8143C21.9853 15.9852 22.0557 16.1472 22.1491 16.2918L22.1902 16.2651ZM17.7524 15.6445C17.749 15.6493 17.7456 15.654 17.7423 15.6579C19.9528 14.3839 20.7092 11.5647 19.4312 9.361C18.8045 8.2802 17.7661 7.4988 16.5512 7.19577C19.2232 9.1982 19.7611 12.9811 17.7524 15.6445ZM8.56786 9.361C7.29013 11.5647 8.04655 14.3839 10.2571 15.6579C10.2537 15.654 10.2504 15.6493 10.247 15.6445C8.2383 12.9811 8.77584 9.1982 11.4479 7.19577C10.2333 7.4988 9.19457 8.2802 8.56786 9.361ZM5.24314 15.2381C5.27725 15.2593 5.33762 15.3019 5.33483 15.3003C5.40667 15.0201 5.42847 14.7229 5.3653 14.4391C5.32784 14.2713 5.26188 14.1105 5.17746 13.961C5.07263 13.7759 4.93985 13.6064 4.78918 13.4564L4.77548 13.4428C4.77492 13.4445 4.77409 13.4459 4.77354 13.4475C4.72657 13.5593 4.68772 13.6747 4.65781 13.7924C4.63405 13.8855 4.61616 13.98 4.6047 14.0753C4.58345 14.256 4.58597 14.4405 4.62203 14.6192C4.65781 14.7979 4.72656 14.9691 4.81629 15.1277C4.86353 15.2113 4.91665 15.2916 4.97452 15.3686C5.00219 15.4053 5.03097 15.4413 5.06088 15.4767L5.07318 15.4268C5.03852 15.286 5.00946 15.1441 4.98178 15.002C4.95523 14.8578 4.93035 14.7134 4.91134 14.5676C4.89149 14.4221 4.87555 14.2755 4.8694 14.1269L4.87025 14.1266C4.92924 14.2635 4.97815 14.4023 5.02343 14.5423C5.06927 14.6819 5.10925 14.823 5.14782 14.9643C5.1699 15.0491 5.19143 15.1338 5.21184 15.2189L5.24314 15.2381ZM4.45877 13.907C4.3478 13.8183 4.22845 13.7402 4.10378 13.6725L4.08672 13.6633C4.08672 13.665 4.08644 13.6666 4.08616 13.6683C4.07218 13.7929 4.06771 13.9187 4.07302 14.0441C4.07694 14.1358 4.08645 14.2275 4.10182 14.3181C4.13313 14.5027 4.19016 14.6836 4.27933 14.8489C4.36123 15.0009 4.46913 15.1377 4.59212 15.2587C4.6676 15.3332 4.74892 15.4017 4.83446 15.4644C4.82524 15.4522 4.81602 15.4399 4.80708 15.4274C4.64048 15.1957 4.5119 14.9331 4.45543 14.6524C4.40595 14.4068 4.41321 14.1528 4.45877 13.907ZM23.0623 15.3752C23.0984 15.3627 23.1339 15.3488 23.1685 15.3334C23.3458 15.2565 23.5118 15.1461 23.6337 14.9953C23.7363 14.8684 23.8061 14.7179 23.8511 14.5621C23.8609 14.5278 23.8699 14.4929 23.8774 14.4581L23.8975 14.3446L23.788 14.3817C23.7544 14.3942 23.7214 14.4082 23.6887 14.423C23.5878 14.4695 23.4908 14.5272 23.4042 14.5975C23.4003 14.6532 23.3921 14.7087 23.3801 14.7633C23.3343 14.971 23.2309 15.1634 23.0998 15.3295C23.0875 15.3449 23.0752 15.3602 23.0623 15.3752ZM5.49164 15.373C5.55006 15.276 5.60178 15.1748 5.64483 15.07C5.70828 14.915 5.75272 14.7514 5.76893 14.5844C5.78654 14.4023 5.77005 14.2183 5.72979 14.0402C5.68172 13.8283 5.60038 13.624 5.49584 13.4339L5.48633 13.4171C5.48521 13.4183 5.4841 13.4197 5.48326 13.4208C5.40667 13.5153 5.33679 13.6148 5.27501 13.7196C5.26747 13.7324 5.26019 13.7453 5.25292 13.7581C5.39352 13.975 5.49919 14.2153 5.54475 14.4698C5.59423 14.7447 5.57439 15.0285 5.5101 15.2994C5.50423 15.324 5.49807 15.3485 5.49164 15.373ZM22.6215 15.1391C22.5821 14.9579 22.5728 14.7689 22.6092 14.5866C22.624 14.5127 22.6461 14.4405 22.6743 14.3708C22.6321 14.2961 22.5824 14.2256 22.5273 14.1601C22.5041 14.1325 22.48 14.106 22.4554 14.0803L22.3722 14.0001L22.342 14.1113C22.3336 14.1461 22.3266 14.1813 22.321 14.2164C22.293 14.3862 22.2933 14.5629 22.3392 14.7296C22.3847 14.8949 22.4739 15.0457 22.5832 15.1768L22.6215 15.1391ZM23.0142 15.1603C23.1165 15.0162 23.1942 14.8528 23.2236 14.678C23.2507 14.5172 23.2373 14.3519 23.1998 14.1941C23.1915 14.1592 23.1819 14.1247 23.1713 14.0907L23.133 13.9819L23.0559 14.0678C23.033 14.0951 23.0112 14.1233 22.9899 14.1523C22.889 14.2919 22.8099 14.45 22.7761 14.6195C22.7501 14.7486 22.7512 14.8815 22.7708 15.0117L22.8359 14.9652C22.8381 14.9554 22.8404 14.9454 22.8426 14.9356C22.8652 14.8408 22.8896 14.7463 22.9198 14.6529C22.9491 14.5593 22.9824 14.4662 23.0257 14.375L23.0265 14.3753C23.0366 14.4756 23.0366 14.5743 23.033 14.6722C23.0299 14.7703 23.0209 14.8676 23.0106 14.9643C23.0056 15.0042 23.0002 15.0443 22.9944 15.0839L23.0142 15.1603ZM23.4486 14.2172C23.4819 14.1988 23.5146 14.1793 23.5467 14.1587C23.7086 14.0539 23.8542 13.9175 23.9498 13.7489C24.0303 13.6073 24.0745 13.4472 24.0935 13.2861C24.0974 13.2504 24.1005 13.2148 24.1022 13.1791L24.1033 13.0639L24.0015 13.1183C23.9705 13.1364 23.94 13.1554 23.9104 13.1754C23.8184 13.2379 23.7321 13.3106 23.6583 13.394C23.6633 13.4498 23.6647 13.5055 23.6616 13.5615C23.6504 13.774 23.58 13.9803 23.478 14.1659C23.4685 14.1832 23.4587 14.2002 23.4486 14.2172ZM22.6746 14.0717C22.7056 14.1102 22.7353 14.1498 22.7627 14.1907C22.766 14.1852 22.7694 14.1793 22.7727 14.1737C22.7383 14.1414 22.7056 14.1074 22.6746 14.0717ZM23.1671 13.723C23.1727 13.658 23.1797 13.5928 23.1892 13.5275C23.2032 13.4305 23.2205 13.3332 23.2485 13.2362H23.249C23.2756 13.3335 23.2918 13.4311 23.3041 13.5284C23.3172 13.6257 23.3245 13.723 23.3301 13.8203C23.3329 13.8947 23.3351 13.9691 23.3346 14.0435C23.3365 14.05 23.3385 14.0564 23.3404 14.0631L23.3435 14.0569C23.4332 13.8866 23.4931 13.6965 23.4933 13.5027C23.4936 13.3399 23.4534 13.1788 23.3905 13.0294C23.3765 12.9962 23.3617 12.9639 23.3455 12.9318L23.2898 12.8309L23.2278 12.9282C23.2099 12.9591 23.1926 12.9903 23.1766 13.0224C23.0998 13.1766 23.0478 13.3455 23.0422 13.5183C23.0391 13.6145 23.0503 13.7104 23.0727 13.8038C23.0805 13.7965 23.1671 13.723 23.1671 13.723ZM22.936 13.9468C22.8915 13.8066 22.8675 13.66 22.8722 13.5128C22.8748 13.4375 22.8848 13.3628 22.901 13.2895C22.8473 13.2226 22.7864 13.161 22.7213 13.1055C22.6942 13.0821 22.6659 13.0598 22.6371 13.0386L22.5424 12.9731L22.5304 13.0876C22.5281 13.1233 22.527 13.159 22.527 13.1947C22.5273 13.367 22.5566 13.5412 22.6293 13.6981C22.6872 13.823 22.771 13.934 22.8689 14.0307L22.936 13.9468ZM5.12211 13.4874C5.14615 13.459 5.16935 13.4302 5.19199 13.4007C5.34993 13.1952 5.4746 12.9608 5.53274 12.7074C5.57103 12.5398 5.58054 12.3662 5.56852 12.195C5.55342 11.9829 5.50645 11.7732 5.43489 11.5733L5.42819 11.5552C5.42707 11.5563 5.42567 11.5575 5.42455 11.5586C5.33371 11.6394 5.24902 11.7269 5.17159 11.8206C5.16208 11.832 5.15286 11.8435 5.14335 11.8552C5.2479 12.0913 5.31387 12.3453 5.31862 12.604C5.32365 12.883 5.25879 13.1604 5.15229 13.4174C5.14279 13.4408 5.13273 13.4643 5.12211 13.4874ZM4.00734 11.5772L4.00594 11.582C3.97323 11.6988 3.94947 11.8181 3.93466 11.9385C3.92292 12.0339 3.91705 12.1301 3.91789 12.226C3.91956 12.408 3.94528 12.5906 4.0037 12.7634C4.06185 12.9363 4.15158 13.0974 4.26059 13.2432C4.31818 13.3204 4.38108 13.3935 4.44816 13.4623C4.45152 13.4659 4.45794 13.4721 4.45794 13.4721C4.45123 13.459 4.44453 13.4459 4.43782 13.4328C4.31036 13.1777 4.22481 12.8981 4.21391 12.612C4.20413 12.3617 4.25165 12.1119 4.33551 11.8766L4.33578 11.8764C4.24018 11.7715 4.1348 11.6754 4.02271 11.589L4.00734 11.5772ZM4.97395 13.4029C5.01896 13.3012 5.05669 13.1961 5.08548 13.0887C5.12937 12.9271 5.15314 12.7592 5.14839 12.5917C5.14307 12.4088 5.10393 12.2282 5.0416 12.0565C5.00862 11.9656 4.9692 11.8772 4.92447 11.7913C4.86661 11.6801 4.7998 11.5733 4.72517 11.4724L4.72237 11.4682C4.72125 11.4696 4.72043 11.471 4.71959 11.4724C4.65306 11.5789 4.59492 11.6904 4.54572 11.8058C4.5077 11.8948 4.47527 11.9862 4.44927 12.0793C4.40063 12.2552 4.3752 12.4384 4.38442 12.621C4.39309 12.7977 4.43307 12.9722 4.49457 13.1381C4.52755 13.2267 4.56639 13.3132 4.61028 13.3971L4.67095 13.2652L4.68576 13.2371C4.68268 13.1715 4.68016 13.1058 4.67792 13.0402C4.67485 12.8936 4.67318 12.7473 4.67765 12.6003C4.68129 12.4534 4.68855 12.3062 4.70616 12.1585H4.707C4.74362 12.3026 4.76961 12.4479 4.79225 12.5931C4.81517 12.7381 4.83251 12.8836 4.84789 13.0294C4.85655 13.1194 4.86465 13.2095 4.87136 13.2995L4.97395 13.4029ZM23.6021 13.0363C23.6323 13.0132 23.6613 12.9887 23.6896 12.963C23.8327 12.834 23.9546 12.6762 24.0219 12.4944C24.0784 12.3416 24.0966 12.1766 24.0893 12.0146C24.0876 11.979 24.0848 11.9433 24.0806 11.9079L24.0636 11.7938L23.9716 11.8638C23.9439 11.8864 23.9171 11.9101 23.8908 11.9346C23.8101 12.0107 23.7365 12.0963 23.677 12.1905C23.691 12.2446 23.7013 12.2995 23.7072 12.3556C23.7304 12.5669 23.6941 12.7818 23.6228 12.9811C23.6163 12.9998 23.6093 13.0182 23.6021 13.0363ZM23.0637 12.873C22.9916 12.7355 22.9402 12.5872 22.9203 12.4331C22.9105 12.3584 22.9083 12.2831 22.9128 12.2081C22.849 12.1507 22.7789 12.0997 22.7056 12.0551C22.6752 12.0364 22.6439 12.0188 22.612 12.0024L22.5077 11.953L22.5144 12.0679C22.5178 12.1036 22.5225 12.139 22.5284 12.1744C22.5564 12.3441 22.6134 12.5114 22.7101 12.655C22.7914 12.7754 22.8993 12.876 23.019 12.9583L23.0637 12.873ZM23.438 12.7481C23.4562 12.7785 23.4735 12.8097 23.49 12.8412C23.5389 12.6739 23.5596 12.4969 23.5316 12.3244C23.5059 12.1635 23.4402 12.0107 23.3541 11.8733C23.3351 11.8429 23.3153 11.8134 23.294 11.7844L23.223 11.6935L23.1775 11.7994C23.1646 11.8326 23.1526 11.8663 23.142 11.9006C23.0908 12.0648 23.0665 12.2399 23.0889 12.4116C23.1017 12.5128 23.1311 12.6109 23.1713 12.7046L23.2462 12.6107C23.2406 12.5398 23.2365 12.4688 23.2356 12.3971C23.2334 12.2993 23.2351 12.2006 23.2471 12.1002H23.2479C23.2896 12.1919 23.3212 12.2856 23.3491 12.3796C23.3776 12.4735 23.4003 12.5686 23.4212 12.6636C23.4271 12.6918 23.4327 12.7197 23.438 12.7481ZM23.6141 11.8398C23.6415 11.8136 23.6681 11.786 23.6935 11.7579C23.8224 11.6146 23.9272 11.4451 23.9753 11.2575C24.0158 11.0997 24.0166 10.9336 23.9923 10.7733C23.9873 10.7379 23.9806 10.7027 23.9727 10.6679L23.9439 10.5564L23.8598 10.6353C23.8346 10.6606 23.8103 10.6871 23.7868 10.7142C23.7142 10.7984 23.6502 10.8912 23.6007 10.991C23.6202 11.0431 23.6362 11.0969 23.6479 11.1516C23.6929 11.3595 23.6789 11.5772 23.6289 11.7827C23.6244 11.8019 23.6194 11.8209 23.6141 11.8398ZM23.0369 11.694C22.9628 11.5753 22.9055 11.4465 22.8731 11.3105C22.856 11.2383 22.8462 11.1647 22.8426 11.0911L22.8423 11.0872C22.773 11.0367 22.6981 10.9932 22.6207 10.9564C22.5882 10.9411 22.5552 10.9269 22.522 10.9138L22.413 10.8753L22.4317 10.989C22.4387 11.0239 22.4471 11.0587 22.4566 11.0933C22.5021 11.2592 22.5759 11.4197 22.6872 11.5524C22.773 11.6547 22.8792 11.7381 22.9947 11.8047L23.0369 11.694ZM23.0973 10.5444C23.0847 10.5804 23.0732 10.6166 23.0631 10.6534C23.0536 10.6877 23.0455 10.7225 23.0385 10.7576C23.0047 10.9263 22.9986 11.1031 23.0385 11.2714C23.0584 11.3545 23.0892 11.4345 23.1277 11.5106L23.1867 11.4136L23.2135 11.4392C23.2015 11.374 23.1909 11.3082 23.1831 11.2419C23.1711 11.1446 23.1624 11.0462 23.1638 10.9453L23.1643 10.945C23.2155 11.0322 23.2566 11.122 23.294 11.2126C23.3323 11.3032 23.3648 11.3952 23.3955 11.4878C23.4209 11.5686 23.4458 11.65 23.4665 11.7322C23.4679 11.7258 23.4693 11.7194 23.471 11.7127C23.5126 11.5248 23.5205 11.3258 23.4701 11.1387C23.4277 10.9815 23.3466 10.8365 23.2465 10.7086C23.2244 10.6804 23.2015 10.6528 23.1777 10.6264L23.0975 10.5433L23.0973 10.5444ZM5.77956 9.75323C5.77956 9.75323 5.63252 9.85666 5.55482 9.89959C5.51456 9.92189 5.47374 9.94335 5.43209 9.96342C5.47682 10.2132 5.4813 10.4711 5.42679 10.7195C5.36697 10.9921 5.23978 11.2469 5.07681 11.4727C5.062 11.4933 5.04663 11.5137 5.03126 11.5338C5.06117 11.5117 5.09052 11.4891 5.11931 11.4655C5.32029 11.3018 5.49584 11.1025 5.61129 10.8692C5.68732 10.715 5.73678 10.5486 5.76474 10.3791C5.79856 10.1725 5.80192 9.96119 5.77956 9.75323ZM4.90044 11.4253L4.9024 11.4228C5.08186 11.1875 5.22106 10.9157 5.27278 10.6227C5.30325 10.4488 5.30323 10.2704 5.28059 10.0956C5.25404 9.88927 5.19702 9.68688 5.11708 9.49509L5.10952 9.47725C5.1084 9.47836 5.10728 9.47948 5.10589 9.48059C5.01951 9.56617 4.93957 9.6579 4.86689 9.75519C4.80931 9.83241 4.75647 9.91297 4.70923 9.9966C4.62034 10.1555 4.55215 10.3269 4.51665 10.5059C4.48143 10.6846 4.47946 10.8689 4.50155 11.0495C4.51301 11.1449 4.53146 11.2394 4.55522 11.3325C4.56025 11.3517 4.56556 11.3709 4.57087 11.3899L4.64885 11.2742C4.66534 11.1814 4.6838 11.0888 4.70253 10.9966C4.73327 10.8533 4.76571 10.7103 4.80401 10.5684C4.84146 10.4265 4.88283 10.2849 4.93427 10.1452H4.9351C4.93706 10.2941 4.92895 10.4412 4.91721 10.5876C4.90603 10.7342 4.88898 10.8798 4.87053 11.025C4.85655 11.1248 4.84201 11.2246 4.82552 11.3238L4.90044 11.4253ZM4.38862 9.41871L4.38611 9.42288C4.32741 9.52938 4.27653 9.63977 4.23432 9.75351C4.20077 9.84355 4.17282 9.93583 4.15157 10.0295C4.11076 10.2068 4.09372 10.3905 4.11049 10.572C4.12698 10.7535 4.1773 10.931 4.24942 11.098C4.28743 11.1864 4.33188 11.2717 4.38108 11.3545C4.38303 11.3576 4.38499 11.3609 4.38695 11.3643L4.38889 11.3673C4.38526 11.3526 4.38162 11.3378 4.37799 11.323C4.31034 11.0342 4.29331 10.7303 4.35704 10.4393C4.40819 10.2057 4.50854 9.98545 4.6388 9.78529C4.56808 9.65706 4.48477 9.53552 4.39169 9.42261L4.38862 9.41871ZM22.8884 10.6503C22.8046 10.5438 22.7353 10.4259 22.6886 10.2982C22.6631 10.2285 22.6447 10.1569 22.6324 10.0841L22.6318 10.0805C22.5569 10.0381 22.4775 10.0039 22.3962 9.97625C22.3624 9.96482 22.328 9.9545 22.2933 9.94558L22.1807 9.91994L22.2125 10.0309C22.2237 10.0646 22.236 10.0984 22.2494 10.1315C22.314 10.291 22.4065 10.4418 22.5326 10.5606C22.6285 10.6509 22.742 10.7206 22.8627 10.7733L22.8884 10.6503ZM23.4869 10.7376C23.511 10.7083 23.5339 10.6779 23.556 10.647C23.6669 10.4895 23.7511 10.3091 23.7768 10.117C23.7983 9.95563 23.7799 9.79058 23.7371 9.63419C23.7276 9.59963 23.717 9.56562 23.7052 9.53161L23.6633 9.42428L23.5892 9.51266C23.5671 9.54081 23.5459 9.5698 23.5261 9.59935C23.4637 9.69162 23.4109 9.79115 23.3737 9.89597C23.3991 9.94559 23.4212 9.99716 23.4394 10.0501C23.5084 10.2514 23.5202 10.4691 23.495 10.6793C23.4925 10.6988 23.49 10.7181 23.4869 10.7376ZM23.3357 10.5491C23.3435 10.3824 23.3237 10.2135 23.2613 10.0582C23.2007 9.90712 23.1031 9.77246 22.9888 9.65705C22.9636 9.63168 22.9374 9.60716 22.9105 9.58346L22.8214 9.51042L22.8001 9.6236C22.7948 9.65901 22.7906 9.69442 22.7878 9.7301C22.7741 9.90182 22.7889 10.0777 22.8482 10.2402C22.875 10.313 22.9102 10.3821 22.9519 10.4471L22.9843 10.3702L23.0324 10.269L23.0167 10.3019C23.0067 10.2662 22.9972 10.2302 22.9885 10.1942C22.9647 10.0989 22.9449 10.0022 22.9343 9.90182L22.9351 9.90154C22.9961 9.98211 23.0472 10.0666 23.0953 10.1522C23.1437 10.2377 23.1867 10.3253 23.2284 10.4134C23.2337 10.4256 23.2392 10.4379 23.2448 10.4502L23.3357 10.5491ZM22.631 9.60576C22.5471 9.51823 22.4745 9.42066 22.4185 9.31277C22.3842 9.24698 22.3568 9.17813 22.3353 9.1076L22.3341 9.10397C22.2545 9.07164 22.1714 9.04766 22.0873 9.03066C22.0521 9.02369 22.0166 9.01783 21.9811 9.01309L21.8662 9.00222L21.9121 9.10787C21.9274 9.14021 21.9439 9.17199 21.9615 9.20321C22.0459 9.35319 22.1569 9.49119 22.2972 9.59294C22.3937 9.66291 22.5024 9.71448 22.6159 9.75072L22.6254 9.64702C22.6271 9.63336 22.629 9.61942 22.631 9.60576ZM5.81281 9.51767C5.90366 9.44045 5.98668 9.35459 6.0588 9.25981C6.16977 9.11429 6.25252 8.94898 6.31206 8.77614C6.3825 8.57068 6.42108 8.35435 6.43198 8.13775L6.43282 8.11823C6.43114 8.11879 6.42975 8.11935 6.42807 8.11991C6.31319 8.16005 6.20136 8.20856 6.09374 8.26543C6.0806 8.2724 6.06747 8.27936 6.05433 8.28661C6.05992 8.54475 6.02359 8.80457 5.92827 9.04515C5.83379 9.28462 5.68508 9.50011 5.50786 9.68633L5.63336 9.60967C5.68759 9.57872 5.81281 9.51767 5.81281 9.51767ZM23.2661 9.6473C23.2865 9.61497 23.3052 9.58207 23.3231 9.54862C23.4134 9.37829 23.4738 9.18844 23.4746 8.9947C23.4755 8.83189 23.4358 8.67048 23.3734 8.52078C23.3594 8.48788 23.3446 8.45527 23.3287 8.42349L23.2734 8.32229L23.211 8.4193C23.1928 8.44997 23.1758 8.48147 23.1596 8.51325C23.1095 8.61249 23.0699 8.71787 23.0464 8.82687C23.0782 8.87287 23.1068 8.9211 23.1314 8.97127C23.2256 9.16223 23.2652 9.37661 23.2666 9.5882C23.2669 9.60772 23.2667 9.62751 23.2661 9.6473ZM5.34266 9.61301C5.40835 9.54722 5.47012 9.47781 5.52687 9.40421C5.62946 9.27151 5.71583 9.12543 5.77593 8.96876C5.84134 8.79788 5.8746 8.61612 5.88299 8.43353C5.89277 8.21664 5.86901 7.99836 5.8187 7.78705L5.81394 7.76837C5.81254 7.76948 5.81143 7.77033 5.81003 7.77144C5.71108 7.84197 5.61715 7.91975 5.52994 8.00449C5.4609 8.0714 5.39576 8.14248 5.33594 8.21775C5.21937 8.36439 5.12239 8.52747 5.05893 8.70421C4.99911 8.87091 4.9692 9.04738 4.96221 9.22384C4.95998 9.27765 4.95998 9.33117 4.96194 9.3847C4.99576 9.35041 5.03098 9.31723 5.06704 9.28517L5.16319 9.20489L5.16627 9.21074L5.16906 9.20349C5.22245 9.0669 5.27725 8.93113 5.33763 8.79704C5.39745 8.66267 5.4609 8.5297 5.53414 8.39979L5.53468 8.40007C5.51316 8.54726 5.48158 8.69139 5.44636 8.83412C5.41198 8.97685 5.37201 9.11791 5.33036 9.25841C5.31247 9.31695 5.29401 9.37522 5.27529 9.4332C5.2792 9.44213 5.28283 9.45104 5.28646 9.46024C5.30687 9.51042 5.32561 9.56144 5.34266 9.61301ZM23.095 9.52325C23.0858 9.34232 23.0447 9.16084 22.9558 9.00194C22.8761 8.85977 22.7624 8.7385 22.6341 8.6387C22.6058 8.61668 22.5768 8.59577 22.5471 8.57569L22.4493 8.51464L22.4429 8.6295C22.442 8.66519 22.4426 8.70114 22.4443 8.73683C22.4524 8.90855 22.4896 9.08139 22.5695 9.235C22.5991 9.29242 22.6346 9.34678 22.6746 9.39752L22.7243 9.24531L22.7344 9.25172C22.7235 9.22496 22.7126 9.19848 22.7026 9.17144C22.6668 9.08 22.6346 8.98689 22.6114 8.88848L22.612 8.8882C22.683 8.96012 22.7445 9.03734 22.8032 9.11623C22.8622 9.19485 22.9161 9.27625 22.9684 9.35849C22.9902 9.3939 23.0117 9.42902 23.0327 9.46498L23.095 9.52325ZM5.30016 7.9978C5.25236 7.86427 5.19199 7.73548 5.12155 7.61254L5.11175 7.59581C5.11064 7.59721 5.1098 7.5986 5.10868 7.59972C5.03125 7.69868 4.96109 7.80322 4.89987 7.91278C4.85487 7.99306 4.81435 8.07585 4.77997 8.16116C4.71148 8.32982 4.66507 8.50851 4.65249 8.69027C4.63991 8.87203 4.66115 9.05518 4.7056 9.23165C4.72908 9.32476 4.759 9.41647 4.7945 9.50568C4.79646 9.51042 4.79813 9.51488 4.80008 9.51962C4.80036 9.52185 4.79785 9.49146 4.79645 9.47446C4.77576 9.1784 4.80763 8.87593 4.91721 8.59855C5.00498 8.37609 5.13943 8.17482 5.30016 7.9978ZM22.2724 8.64706C22.1497 8.57012 22.0375 8.47562 21.9467 8.36272C21.9 8.30473 21.8595 8.24284 21.8243 8.17789C21.8243 8.17789 21.7608 8.16423 21.7298 8.16061C21.6865 8.15559 21.6428 8.15308 21.599 8.15168C21.5828 8.1514 21.5663 8.1514 21.5498 8.1514C21.5193 8.15196 21.4891 8.15307 21.4587 8.15503L21.3438 8.16701C21.3779 8.22054 21.4156 8.27183 21.4561 8.3209C21.5794 8.4692 21.7318 8.59772 21.9107 8.67299C22.0264 8.72177 22.1502 8.74798 22.2751 8.75746L22.2724 8.64706ZM22.5466 7.33042C22.539 7.35133 22.4663 7.71958 22.4658 7.76224C22.506 7.80126 22.5435 7.84308 22.5779 7.88741C22.7081 8.05606 22.7892 8.25817 22.8328 8.4653C22.837 8.48454 22.8406 8.50377 22.844 8.52329C22.8574 8.48761 22.8694 8.45165 22.8803 8.4154C22.9348 8.23058 22.9564 8.03264 22.9189 7.84252C22.8873 7.68278 22.8166 7.53253 22.7257 7.39816C22.7056 7.36833 22.6847 7.33962 22.6626 7.31119L22.5882 7.22309L22.5466 7.33042ZM22.6534 8.44272C22.6089 8.26459 22.532 8.0923 22.4116 7.95208C22.3056 7.8283 22.1698 7.73185 22.0244 7.65937C21.9923 7.6432 21.9599 7.62843 21.9266 7.61477L21.8187 7.57407L21.8349 7.68808C21.8413 7.72321 21.8489 7.75806 21.8575 7.7929C21.8998 7.95961 21.9705 8.12186 22.0792 8.2565C22.1387 8.33038 22.2086 8.39505 22.2852 8.45109L22.3062 8.32871C22.2684 8.2763 22.2318 8.22305 22.1972 8.16814C22.1441 8.08534 22.094 8.00031 22.0515 7.9086L22.0524 7.90804C22.1359 7.96491 22.2117 8.02819 22.2847 8.09426C22.3582 8.15949 22.4272 8.22863 22.4949 8.29888C22.5256 8.33205 22.5561 8.36522 22.5863 8.39895C22.6089 8.41289 22.6313 8.42767 22.6534 8.44272ZM5.99144 7.7798C6.0071 7.84838 6.03422 7.9847 6.03422 7.9847C6.25029 7.84085 6.444 7.65937 6.58125 7.43802C6.67181 7.29195 6.73695 7.13082 6.78112 6.96495C6.83563 6.75922 6.85911 6.54567 6.85603 6.33353L6.85574 6.31402C6.85407 6.31485 6.85268 6.31541 6.851 6.31597C6.73891 6.36364 6.63044 6.41911 6.52674 6.48267C6.44483 6.53285 6.36573 6.58805 6.29082 6.64854C6.14909 6.76312 6.0219 6.89693 5.92267 7.05025C5.82316 7.2033 5.75273 7.37363 5.70605 7.54953C5.69682 7.58466 5.68843 7.61978 5.68088 7.65519L5.80304 7.57212L5.91066 7.508L5.9263 7.554C6.00373 7.43942 6.08257 7.32568 6.16615 7.21445C6.25364 7.09625 6.34477 6.98028 6.44428 6.86961L6.44512 6.86989C6.39173 7.00899 6.32939 7.14253 6.26398 7.27411C6.19913 7.40625 6.12925 7.53504 6.05797 7.66328C6.03588 7.70175 6.0138 7.74049 5.99115 7.77896L5.99144 7.7798ZM6.59858 7.89549C6.60026 7.93117 6.60082 7.94623 6.60082 7.94623C6.67238 7.90051 6.7403 7.84921 6.80376 7.79234C6.93877 7.67108 7.05115 7.52612 7.14283 7.37001C7.24821 7.19048 7.32759 6.99562 7.38182 6.79462L7.38293 6.78988C7.38153 6.79016 7.37987 6.79044 7.37819 6.79044C7.25324 6.80521 7.1294 6.82947 7.00808 6.8632C6.99774 6.86599 6.98741 6.86905 6.97707 6.87212C6.92619 7.12496 6.83366 7.37084 6.68831 7.58494C6.58879 7.7313 6.4672 7.8612 6.33135 7.97439C6.38279 7.95571 6.43506 7.93842 6.48789 7.92393L6.59858 7.89549ZM21.6742 7.75109C21.5705 7.68697 21.4751 7.60975 21.3938 7.51887C21.3438 7.46256 21.2993 7.40179 21.2605 7.33739C21.2087 7.33042 21.1568 7.32652 21.1045 7.3254C21.093 7.3254 21.0813 7.32512 21.0698 7.32512C20.9734 7.32596 20.8772 7.33599 20.7825 7.35383L20.7816 7.35412C20.8185 7.40569 20.8588 7.45503 20.9018 7.50186C21.0324 7.64376 21.1911 7.76446 21.3737 7.83053C21.4816 7.86956 21.5951 7.88964 21.7094 7.89522L21.7091 7.89382C21.6968 7.85173 21.6742 7.75109 21.6742 7.75109ZM6.30395 6.42636C6.30088 6.40127 6.29725 6.37646 6.29334 6.35165C6.27433 6.23177 6.24609 6.11358 6.20947 5.99789L6.2078 5.99315C6.20668 5.99427 6.20528 5.9951 6.20416 5.99621C6.03924 6.13114 5.8908 6.28725 5.76837 6.46121C5.66103 6.61425 5.5741 6.78207 5.52071 6.96133C5.46872 7.13612 5.44915 7.31954 5.4539 7.5013C5.45669 7.59748 5.46593 7.69338 5.48103 7.78817C5.48186 7.79318 5.4827 7.7982 5.48353 7.80322L5.48997 7.75778C5.53245 7.47594 5.62386 7.19856 5.77983 6.95798C5.91652 6.74779 6.09934 6.57076 6.30395 6.42636ZM22.359 7.35885C22.3758 7.22253 22.3719 7.0837 22.3383 6.95017C22.2986 6.79211 22.2204 6.64576 22.1225 6.51585C22.101 6.48741 22.0784 6.45953 22.0552 6.43249L21.9763 6.34802L21.9403 6.4573C21.9302 6.49159 21.9213 6.52644 21.9134 6.56129C21.8897 6.66973 21.8777 6.7818 21.8819 6.89303L21.8844 6.89526C21.9255 6.9315 21.964 6.97025 21.9998 7.01206C22.1385 7.17375 22.2302 7.37168 22.2841 7.5763C22.2883 7.59191 22.2922 7.60752 22.2958 7.62285L22.3006 7.62647C22.3028 7.6195 22.3079 7.59944 22.3079 7.59944C22.3185 7.51803 22.3361 7.43747 22.359 7.35885ZM21.2258 6.73858C21.232 6.77622 21.2392 6.81357 21.2479 6.85065C21.256 6.8855 21.2652 6.92007 21.2758 6.95436C21.3264 7.11883 21.4055 7.2769 21.5207 7.40625C21.5584 7.44834 21.5998 7.48709 21.6437 7.52249L21.6415 7.35412L21.6688 7.36025C21.6571 7.34436 21.6454 7.32819 21.6339 7.31174C21.5769 7.23201 21.5224 7.1495 21.4754 7.06001L21.476 7.05945C21.5624 7.11214 21.6415 7.17151 21.7178 7.2334C21.7944 7.29501 21.8668 7.36053 21.938 7.42743L21.954 7.44276C21.9769 7.45168 21.9995 7.46117 22.0222 7.47092C22.0423 7.48012 22.0624 7.48932 22.0826 7.49907C22.0286 7.34686 21.9489 7.20274 21.8371 7.0851C21.7248 6.9669 21.5844 6.87769 21.4354 6.81246C21.4027 6.79797 21.3695 6.78486 21.3357 6.77288L21.2255 6.73775L21.2258 6.73858ZM20.4691 6.55766C20.4322 6.55822 20.3953 6.55989 20.3584 6.56295L20.2147 6.58164C20.2508 6.63377 20.2902 6.68394 20.3324 6.73133C20.4605 6.87546 20.6173 6.99868 20.799 7.06809C20.9147 7.11214 21.038 7.13416 21.1618 7.14002L21.1126 7.00146C21.0052 6.934 20.9071 6.8526 20.8241 6.7567C20.7755 6.70039 20.733 6.63989 20.6955 6.57606L20.6939 6.57299C20.6693 6.56909 20.5412 6.54874 20.4691 6.55766ZM15.2165 6.86292C14.8221 7.13946 14.277 7.04524 13.9997 6.65161C13.7224 7.04524 13.1773 7.13946 12.7829 6.86292C12.4519 6.63126 12.3242 6.20306 12.4743 5.82811C12.5587 6.27471 12.9903 6.56881 13.4381 6.48407C13.674 6.44002 13.8795 6.29506 13.9997 6.08765C14.1199 6.29506 14.3253 6.44002 14.561 6.48407C15.0091 6.56881 15.4407 6.27471 15.5251 5.82811C15.6752 6.20306 15.5474 6.63126 15.2165 6.86292ZM21.7997 6.33799C21.7955 6.29283 21.7885 6.24822 21.7782 6.2039C21.7413 6.04528 21.6652 5.89752 21.5699 5.76622C21.5487 5.73723 21.5269 5.70908 21.5037 5.68176L21.4265 5.59589L21.3885 5.70462C21.3779 5.73891 21.3684 5.7732 21.36 5.80804C21.3345 5.91621 21.3203 6.02799 21.3225 6.13922C21.3639 6.17658 21.403 6.217 21.4388 6.26021C21.5582 6.40461 21.6406 6.57634 21.6934 6.75531C21.7002 6.75949 21.7069 6.76368 21.7136 6.76786C21.7194 6.66304 21.7373 6.5585 21.7639 6.4573C21.774 6.41855 21.7997 6.33799 21.7997 6.33799ZM20.6695 5.97363C20.6749 6.01155 20.6816 6.0489 20.6897 6.08626C20.6969 6.1211 20.7059 6.15567 20.7157 6.18996C20.7637 6.35555 20.8398 6.51501 20.953 6.64603C20.9846 6.68283 21.019 6.71684 21.0553 6.74862C21.0503 6.71489 21.0463 6.6806 21.0438 6.64659L21.0374 6.52699L21.0511 6.5295C21.0013 6.45619 20.9544 6.38064 20.9136 6.29924L20.9141 6.29868C20.9997 6.35276 21.0777 6.41354 21.1528 6.47682C21.1897 6.50776 21.2258 6.53926 21.2613 6.57188L21.4234 6.62457C21.4402 6.63098 21.457 6.63739 21.4735 6.64436C21.4245 6.52979 21.3594 6.42246 21.2747 6.33046C21.1646 6.21031 21.0257 6.11859 20.8778 6.05113C20.8454 6.03607 20.8121 6.02242 20.7785 6.00959L20.6693 5.9728L20.6695 5.97363ZM7.47938 6.61203L7.49055 6.61174C7.57497 6.57885 7.6566 6.53954 7.73431 6.49326C7.89615 6.39681 8.03844 6.26996 8.16003 6.12667C8.22265 6.05308 8.27995 5.97502 8.3325 5.89362C8.40043 5.78824 8.45997 5.6773 8.51084 5.56272L8.51308 5.55827L8.39288 5.55631C8.34844 5.55714 8.30399 5.55854 8.25982 5.56161C8.20615 5.56495 8.15248 5.57025 8.09909 5.57722C8.0102 5.81975 7.88105 6.04834 7.70467 6.23791C7.54031 6.41437 7.3396 6.55376 7.12381 6.66053L7.29293 6.6307C7.35471 6.62178 7.41704 6.61509 7.47938 6.61203ZM7.02178 6.5217C7.08244 6.49271 7.14198 6.46093 7.19956 6.42636C7.33904 6.34273 7.46903 6.24181 7.58001 6.12278C7.70831 5.98506 7.80922 5.82338 7.88581 5.65193C7.92522 5.56384 7.95821 5.47268 7.9856 5.38013C8.02138 5.2597 8.04738 5.13676 8.06415 5.01243L8.06471 5.00741C8.06304 5.00796 8.06135 5.00824 8.05995 5.0088C7.94199 5.03863 7.82599 5.07682 7.7139 5.12393C7.62501 5.16129 7.53864 5.20366 7.45534 5.25217C7.29769 5.3436 7.15148 5.45651 7.02989 5.59283C6.91137 5.72553 6.81745 5.87857 6.74505 6.04054C6.72073 6.09545 6.69865 6.15093 6.6788 6.20752C6.6939 6.20027 6.709 6.19331 6.72437 6.18634C6.78112 6.16069 6.83926 6.13671 6.89824 6.11636L6.94856 6.09992C7.04499 5.99566 7.1431 5.89223 7.24513 5.79215C7.34995 5.68901 7.45758 5.58809 7.5733 5.49386L7.57386 5.49442C7.49979 5.6235 7.41761 5.74615 7.33291 5.8663C7.24849 5.98673 7.15988 6.10354 7.06959 6.21923C7.05449 6.23818 7.03968 6.25686 7.02458 6.27582C7.0257 6.30509 7.02625 6.33436 7.02625 6.36363C7.02653 6.41632 7.02486 6.46901 7.02178 6.5217ZM20.5801 6.32377C20.4275 6.24069 20.2874 6.13281 20.1776 5.99816C20.1298 5.93962 20.0881 5.87662 20.0523 5.81055C20.0216 5.80498 19.9906 5.80052 19.9593 5.79717C19.9159 5.79243 19.8723 5.7902 19.8284 5.78936L19.7026 5.79243L19.5732 5.80637C19.6079 5.85961 19.6459 5.91063 19.6867 5.95914C19.8108 6.10689 19.964 6.23428 20.1435 6.30872C20.2497 6.35248 20.3623 6.37758 20.4767 6.38817L20.6061 6.39235C20.5969 6.36977 20.5882 6.34691 20.5801 6.32377ZM7.50229 5.03417C7.50648 4.89255 7.49727 4.75066 7.47658 4.61071L7.47378 4.59176C7.47239 4.59259 7.47098 4.59343 7.46959 4.59427C7.36476 4.65588 7.26442 4.72529 7.16994 4.80195C7.09531 4.86244 7.02431 4.92767 6.95806 4.99737C6.8292 5.13341 6.71821 5.28757 6.63966 5.4579C6.56531 5.61875 6.52003 5.79215 6.49766 5.9675C6.48481 6.06786 6.47921 6.16933 6.48033 6.27053L6.49376 6.22648C6.58265 5.94324 6.72297 5.67312 6.92619 5.45456C7.08943 5.27949 7.28789 5.14066 7.50229 5.03417ZM20.8015 5.83759C20.7593 5.74643 20.7059 5.66057 20.6399 5.58419C20.5328 5.46125 20.3967 5.3659 20.2508 5.29398C20.2186 5.27837 20.186 5.2636 20.1527 5.24994L20.0445 5.21035L20.0616 5.32409C20.068 5.35921 20.0758 5.39406 20.0848 5.42863C20.1281 5.59533 20.1999 5.75702 20.3092 5.89111C20.369 5.96415 20.4389 6.028 20.5155 6.08319C20.5035 6.02186 20.4948 5.95942 20.4904 5.89697V5.89669C20.4686 5.86547 20.4473 5.83397 20.4266 5.80191C20.373 5.71939 20.3224 5.63464 20.2796 5.54321L20.2802 5.54265C20.364 5.59896 20.4403 5.66196 20.5138 5.7272C20.5315 5.74281 20.5485 5.75842 20.5656 5.77403C20.5656 5.77403 20.5583 5.77263 20.5952 5.7796C20.6368 5.78797 20.6779 5.79856 20.7187 5.81083C20.7464 5.81891 20.7741 5.82811 20.8015 5.83759ZM21.9182 6.07399L21.9162 6.07232L21.9182 6.07427V6.07399ZM21.1257 5.99147C21.1682 5.82198 21.1814 5.64357 21.1464 5.47157C21.114 5.31211 21.0421 5.16241 20.9502 5.02832C20.9301 4.99905 20.9088 4.97005 20.8865 4.94217L20.8118 4.85436L20.7707 4.96197C20.759 4.9957 20.7486 5.02998 20.7394 5.06455C20.7109 5.17188 20.6936 5.28311 20.693 5.39434C20.693 5.39434 20.7716 5.47546 20.8057 5.51867C20.9021 5.64189 20.9723 5.78351 21.0204 5.93209C21.0561 5.95049 21.0913 5.97029 21.1257 5.99147ZM19.9458 5.55965C19.8049 5.49135 19.6744 5.40159 19.566 5.28841C19.5148 5.2346 19.469 5.17634 19.4284 5.11446L19.4265 5.11138L19.3146 5.10498C19.3057 5.1047 19.2968 5.1047 19.2878 5.1047C19.1741 5.10553 19.0606 5.11919 18.9493 5.14428H18.9485C18.987 5.19474 19.0292 5.24269 19.0737 5.28813C19.209 5.42556 19.3717 5.5407 19.5565 5.60063C19.588 5.61067 19.6199 5.61931 19.6521 5.62656C19.6934 5.62294 19.7351 5.6207 19.7764 5.61987C19.7946 5.61959 19.8131 5.61959 19.8312 5.61987C19.8773 5.6207 19.9235 5.62322 19.9696 5.62796L19.9458 5.55965ZM20.1734 5.07598C20.1245 4.98984 20.0652 4.90955 19.9945 4.83986C19.8782 4.72556 19.7348 4.6411 19.5836 4.58088C19.5503 4.56778 19.5165 4.55551 19.4824 4.54464L19.3714 4.51342L19.3974 4.62549C19.4066 4.66006 19.417 4.69434 19.4287 4.72807C19.4852 4.89088 19.5693 5.04616 19.689 5.17133C19.7493 5.23433 19.8173 5.28869 19.8908 5.33524L19.8899 5.33078C19.8804 5.27642 19.8734 5.22151 19.8695 5.16631V5.1624C19.8455 5.13313 19.8217 5.10358 19.7988 5.07319C19.739 4.99542 19.682 4.91485 19.6319 4.82704L19.6325 4.82649C19.7208 4.87611 19.8016 4.9327 19.8799 4.99208L19.8841 4.99542L19.9755 5.01494C20.0171 5.02441 20.0579 5.0364 20.0982 5.0495C20.1236 5.05786 20.1485 5.06651 20.1734 5.07598ZM20.504 5.24408C20.5395 5.06093 20.5424 4.86858 20.4906 4.68793C20.4456 4.53154 20.3621 4.3877 20.26 4.26141C20.2377 4.23353 20.2142 4.20649 20.1899 4.18028L20.1085 4.0986L20.0758 4.20928C20.0669 4.24357 20.0593 4.27869 20.0529 4.31382C20.0328 4.4231 20.0244 4.53544 20.0325 4.64639C20.0755 4.6818 20.1166 4.72 20.1544 4.76153C20.2681 4.88531 20.3531 5.03249 20.4141 5.18861C20.4445 5.20617 20.4747 5.22457 20.504 5.24408ZM8.24501 4.90704C8.24166 4.96586 8.23466 5.02442 8.22572 5.0824C8.22236 5.10526 8.21846 5.12811 8.21454 5.15097C8.27995 5.0994 8.34004 5.04086 8.39176 4.97507C8.49267 4.84656 8.56087 4.69462 8.60364 4.53768C8.61314 4.50311 8.62125 4.46798 8.62824 4.43285L8.64697 4.31856C8.64642 4.31884 8.64613 4.31884 8.64558 4.31884C8.60924 4.33055 8.57289 4.34337 8.53739 4.35731C8.50413 4.37041 8.47115 4.3849 8.43873 4.40024C8.28247 4.47467 8.13655 4.57614 8.0253 4.7094C7.98253 4.76041 7.94536 4.81533 7.91321 4.87304L7.91852 4.87164C7.98672 4.85157 8.05604 4.83401 8.1262 4.82062L8.15807 4.81505C8.22711 4.74926 8.29867 4.68543 8.37806 4.628L8.37862 4.62827C8.34032 4.71859 8.29477 4.80307 8.24585 4.88503L8.24501 4.90704Z" fill="#4E4E4E"/>
</g>
</svg>
