<svg width="28" height="28" viewBox="0 0 28 28" fill="none" xmlns="http://www.w3.org/2000/svg">
<g id="Bank name=Shahr">
<path id="Shape" fill-rule="evenodd" clip-rule="evenodd" d="M14.0222 1.71347C15.4474 1.71347 16.604 2.88223 16.604 4.32397C16.604 5.76588 15.4472 6.93464 14.0222 6.93464C12.5948 6.93464 11.438 5.76588 11.438 4.32397C11.438 2.88223 12.5948 1.71347 14.0222 1.71347ZM20.0341 0C21.4618 0 22.6179 1.16892 22.6179 2.61066C22.618 4.05257 21.4618 5.22149 20.034 5.22149C18.6086 5.22149 17.4518 4.05257 17.4518 2.61066C17.4518 1.16892 18.6088 0 20.0341 0ZM8.5126 4.38451C9.93934 4.38451 11.0958 5.55375 11.0958 6.99613C11.0958 8.43756 9.93934 9.60663 8.5126 9.60663C7.08601 9.60663 5.92936 8.43756 5.92936 6.99613C5.92936 5.55375 7.08601 4.38451 8.5126 4.38451ZM14.0061 16.5906C14.1772 16.5824 15.8995 16.5146 16.9583 17.0482C17.346 17.2434 17.3858 17.4951 17.3852 17.7614C17.3846 18.9999 14.0393 20.7682 13.7104 20.9359C9.47408 23.0975 3.5 23.465 3.5 23.465L3.55614 28C6.11218 27.6458 10.7236 27.1245 16.2886 24.1094C19.0411 22.6181 22.02 20.1631 21.4643 16.6492C20.9274 13.2593 17.3771 12.3041 14.0336 12.4505L13.9942 16.5759C13.8248 16.5843 12.1014 16.6522 11.0425 16.1188C10.6547 15.9235 10.6156 15.6721 10.6156 15.4054C10.6159 14.1668 13.9609 12.3984 14.2901 12.2312C18.5269 10.0691 24.5 9.70163 24.5 9.70163L24.444 5.16648C21.8872 5.5215 17.2764 6.04234 11.7119 9.05719C8.95894 10.5484 5.98097 13.0035 6.53709 16.5174C7.07382 19.9081 10.6242 20.8626 13.9667 20.7159L14.0061 16.5906Z" fill="#D8262C"/>
</g>
</svg>
