<svg width="28" height="28" viewBox="0 0 28 28" fill="none" xmlns="http://www.w3.org/2000/svg">
<g id="Bank name=Sina">
<g id="Shape">
<path d="M20.013 3.48269L20.7867 3.94697L8.83837 10.9167V16.9445L13.1233 19.4356L6.3875 23.4816L2.0415 20.8959V6.96538L14.0225 0L20.013 3.48269Z" fill="#243873"/>
<path d="M7.98673 24.5173L7.21295 24.053L19.1614 17.0833V11.0555L14.8764 8.56442L21.6123 4.51835L25.9582 7.1041V21.0347L13.9772 28L7.98673 24.5173Z" fill="#243873"/>
</g>
<path id="Shape_2" fill-rule="evenodd" clip-rule="evenodd" d="M13.9998 18.0834C16.2489 18.0834 18.0832 16.2491 18.0832 14.0001C18.0832 11.751 16.2489 9.91675 13.9998 9.91675C11.7508 9.91675 9.9165 11.751 9.9165 14.0001C9.9165 16.2491 11.7508 18.0834 13.9998 18.0834Z" fill="#DBAF2E"/>
</g>
</svg>
