<svg width="28" height="28" viewBox="0 0 28 28" fill="none" xmlns="http://www.w3.org/2000/svg">
<g id="Bank name=Taavon Eslami">
<path id="Shape" fill-rule="evenodd" clip-rule="evenodd" d="M25.0349 10.845C25.7442 12.3853 26.1397 14.0991 26.1397 15.9045C26.1397 17.3462 25.8875 18.7294 25.4248 20.0126C25.2379 19.9826 25.0462 19.967 24.8509 19.967C22.864 19.967 21.251 21.5789 21.251 23.5643C21.251 24.1886 21.4104 24.7759 21.6909 25.2878C19.8216 26.82 17.4869 27.8057 14.9322 28V24.7936C19.4311 24.3272 22.9438 20.5225 22.9438 15.9045C22.9438 14.6807 22.6971 13.5139 22.2505 12.4514L25.0349 10.845ZM2.92696 10.9284L5.71414 12.5364C5.28998 13.5761 5.05618 14.7132 5.05618 15.9045C5.05618 20.4598 8.47424 24.2237 12.8851 24.7727V27.9847C10.4019 27.7584 8.13379 26.7834 6.30906 25.2878C6.5895 24.7759 6.74898 24.1886 6.74898 23.5643C6.74898 21.5789 5.13592 19.967 3.14908 19.967C2.95376 19.967 2.76205 19.9826 2.57513 20.0126C2.11244 18.7294 1.86025 17.3462 1.86025 15.9045C1.86025 14.1317 2.24162 12.4471 2.92696 10.9284ZM3.14908 20.8546C4.64568 20.8546 5.86073 22.0688 5.86073 23.5643C5.86073 25.0597 4.64568 26.2739 3.14908 26.2739C1.65255 26.2739 0.4375 25.0597 0.4375 23.5643C0.4375 22.0688 1.65255 20.8546 3.14908 20.8546ZM24.8509 20.8546C26.3475 20.8546 27.5625 22.0688 27.5625 23.5643C27.5625 25.0597 26.3475 26.2739 24.8509 26.2739C23.3543 26.2739 22.1393 25.0597 22.1393 23.5643C22.1393 22.0688 23.3543 20.8546 24.8509 20.8546ZM10.2394 20.3687C10.4799 20.8279 10.7597 21.2668 11.0763 21.6774C11.4433 22.1532 11.8598 22.5912 12.32 22.978C12.5443 23.1665 12.779 23.3427 13.0227 23.5051C11.3158 23.2877 9.78339 22.5087 8.61714 21.3594C9.10995 20.9728 9.64871 20.6444 10.2162 20.3793L10.2394 20.3687ZM17.7748 20.3752L17.7838 20.3793C18.3513 20.6444 18.89 20.9728 19.3828 21.3594C18.2216 22.5038 16.6972 23.2811 14.999 23.5023C15.2413 23.3406 15.4746 23.1654 15.6975 22.978C16.2095 22.5477 16.6674 22.054 17.0633 21.5153C17.3288 21.1539 17.5664 20.7722 17.7748 20.3752ZM14.2355 19.5565C14.5706 19.566 14.9047 19.5908 15.2371 19.6358C15.9654 19.7343 16.6818 19.9218 17.3633 20.1967C17.1241 20.6484 16.8448 21.0791 16.5278 21.4803C16.1757 21.9261 15.7771 22.3355 15.3376 22.6957C14.9937 22.9776 14.6247 23.2291 14.2355 23.4442V19.5565ZM13.7644 19.5565V23.4344C13.3818 23.2216 13.0187 22.9734 12.68 22.6957C12.2404 22.3355 11.8418 21.9261 11.4897 21.4803C11.1714 21.0773 10.8911 20.6447 10.6511 20.1909C11.3283 19.9192 12.0396 19.7336 12.7628 19.6358C13.0953 19.5908 13.4293 19.566 13.7644 19.5565ZM21.6644 16.1399C21.6073 18.0263 20.8666 19.7422 19.6815 21.0482C19.1539 20.6299 18.5757 20.2754 17.9656 19.9905C18.5273 18.7859 18.8237 17.466 18.8551 16.1399H21.6644ZM6.33556 16.1399H9.16249C9.19372 17.4635 9.48917 18.7808 10.0491 19.9837L10.0343 19.9905C9.42431 20.2754 8.84604 20.6299 8.31849 21.0482C7.13345 19.7422 6.39265 18.0263 6.33556 16.1399ZM18.4079 16.1399C18.3766 17.4047 18.0926 18.6633 17.5554 19.8113C16.8315 19.5162 16.0696 19.3153 15.2948 19.2104C14.9432 19.1629 14.5899 19.1368 14.2355 19.1271V16.1399H18.4079ZM13.7644 16.1399V19.1271C13.41 19.1368 13.0567 19.1629 12.7052 19.2104C11.9357 19.3146 11.1789 19.5135 10.4594 19.8054C9.92401 18.6589 9.64083 17.4026 9.60966 16.1399H13.7644ZM6.33556 15.6691C6.39265 13.7827 7.13351 12.0668 8.3186 10.7607C8.85047 11.1822 9.43348 11.5385 10.0493 11.8249C9.48958 13.0278 9.19384 14.3452 9.16255 15.6691H6.33556ZM9.60966 15.6691C9.64101 14.4062 9.92436 13.1498 10.4595 12.0034C10.7256 12.1115 10.9968 12.2069 11.2717 12.2893C12.0801 12.5315 12.9209 12.6619 13.7644 12.6823V15.6691H9.60966ZM18.8551 15.6691C18.8238 14.3428 18.5272 13.0229 17.9652 11.8181C18.5756 11.5328 19.1537 11.1789 19.6813 10.7607C20.8665 12.0668 21.6073 13.7827 21.6644 15.6691H18.8551ZM14.2355 12.6823C15.0791 12.6619 15.9199 12.5315 16.7282 12.2893C17.0083 12.2054 17.2845 12.108 17.5553 11.9974C18.0922 13.1454 18.3765 14.404 18.4079 15.6691H14.2355V12.6823ZM13.7644 8.37445V12.253C12.9626 12.2327 12.1636 12.1084 11.3951 11.8781C11.1434 11.8028 10.895 11.7159 10.6511 11.6179C10.664 11.5935 10.677 11.5693 10.6901 11.545C10.9061 11.1459 11.1535 10.7637 11.4306 10.4043C11.8161 9.90442 12.2593 9.44854 12.7526 9.05433C13.0704 8.80034 13.409 8.57214 13.7644 8.37445ZM14.2355 8.36477C14.5975 8.56467 14.9419 8.79614 15.2649 9.05433C15.7582 9.44854 16.2015 9.90442 16.5869 10.4043C16.8641 10.7637 17.1115 11.1459 17.3274 11.545C17.3394 11.5673 17.3514 11.5896 17.3633 11.6121C17.1147 11.7125 16.8615 11.8012 16.6048 11.8781C15.8364 12.1084 15.0373 12.2327 14.2355 12.253V8.36477ZM13.0225 8.30404C12.8062 8.44801 12.5972 8.60288 12.3963 8.76756C11.8796 9.19106 11.4164 9.67867 11.0148 10.2121C10.727 10.5945 10.4708 11.0004 10.2479 11.4238L10.2395 11.4399C9.66313 11.1727 9.11673 10.8412 8.61732 10.4495C9.78344 9.30037 11.3157 8.52139 13.0225 8.30404ZM14.9995 8.3069C16.6974 8.5281 18.2215 9.30533 19.3826 10.4495C18.8873 10.838 18.3458 11.1673 17.7746 11.4333C17.5348 10.9766 17.2563 10.5401 16.9412 10.1315C16.5743 9.65562 16.1577 9.21766 15.6975 8.83091C15.4747 8.6436 15.2416 8.46842 14.9995 8.3069ZM3.92333 9.14118C5.51566 6.77793 7.91832 5.0043 10.7319 4.21913C11.3034 5.45131 12.5525 6.30682 14 6.30682C15.4475 6.30682 16.6966 5.45131 17.2681 4.21913C20.0516 4.9959 22.4328 6.74007 24.0252 9.06547L21.2467 10.6685C19.6211 8.4266 16.9797 6.96733 14 6.96733C10.9873 6.96733 8.32059 8.45897 6.69977 10.743L3.92333 9.14118ZM14 0C15.4966 0 16.7116 1.21415 16.7116 2.70958C16.7116 4.20507 15.4966 5.41922 14 5.41922C12.5034 5.41922 11.2884 4.20507 11.2884 2.70958C11.2884 1.21415 12.5034 0 14 0Z" fill="#00920A"/>
</g>
</svg>
