<svg width="28" height="28" viewBox="0 0 28 28" fill="none" xmlns="http://www.w3.org/2000/svg">
<g id="Bank name=Tejarat">
<path id="Shape" fill-rule="evenodd" clip-rule="evenodd" d="M24.3333 28H4.20776V24.8348L4.60162 24.3729C3.5525 23.4216 2.64816 22.3136 1.92564 21.086L7.12997 24.0661H7.70502L1.41417 20.1347C1.21275 19.7226 1.03098 19.2992 0.8701 18.8657L8.34522 24.0661H8.74072L0.566533 17.9518C0.416733 17.4425 0.295108 16.9212 0.203525 16.3898L9.32528 24.0661H9.73857L0.0440417 15.1166C0.0148167 14.7482 0 14.3758 0 14C0 13.9175 0.0007 13.835 0.00221667 13.7529L10.1349 24.0661H10.4218L0.06195 12.6762C0.110892 12.1551 0.188475 11.6423 0.293067 11.1395L10.8019 24.0661H11.0637L0.576217 10.0152C0.706125 9.57746 0.856917 9.14871 1.02742 8.72993L11.3517 24.0661H11.5959L1.54087 7.61262C1.76668 7.17342 2.01507 6.74765 2.28451 6.33681L11.8725 24.0661H12.0961L9.63433 18.9795C9.60803 18.9669 9.58195 18.9539 9.55593 18.9407C9.42818 18.8726 9.30615 18.7951 9.2015 18.6941C9.10268 18.5989 9.02189 18.4869 8.9544 18.3678C8.86807 18.2155 8.80215 18.0525 8.72608 17.8951C8.70234 17.8485 8.67831 17.8026 8.65223 17.7574C8.6373 17.7325 8.62453 17.7137 8.60288 17.6947C8.56893 17.6672 8.53277 17.6427 8.4987 17.6154C8.46615 17.5873 8.43342 17.5573 8.41114 17.5199C8.393 17.4896 8.38186 17.4564 8.37002 17.4232L8.3692 17.4229C8.34464 17.409 8.32428 17.3953 8.30818 17.3714C8.29307 17.349 8.28444 17.3225 8.28339 17.2955C8.28252 17.2725 8.2866 17.273 8.28765 17.25C8.28788 17.2442 8.28619 17.2384 8.28648 17.2326C8.28765 17.2069 8.28998 17.2049 8.29757 17.1807C8.30258 17.1446 8.3083 17.1088 8.31495 17.0729C8.3223 17.0388 8.33041 17.0071 8.34727 16.9764C8.39539 16.8888 8.48808 16.8356 8.57657 16.7938L7.06732 13.6754C7.05489 13.6716 7.04328 13.6678 7.01849 13.6599C6.86478 13.6067 6.70267 13.5383 6.60077 13.4049C6.57504 13.3712 6.55282 13.3358 6.53473 13.2974C6.51327 13.2519 6.49816 13.2037 6.48795 13.1545C6.47587 13.0963 6.4715 13.037 6.46975 12.9777C6.468 12.9201 6.47167 12.8617 6.46432 12.8044C6.46357 12.7999 6.46403 12.7999 6.46141 12.7961C6.45126 12.7825 6.44047 12.77 6.42932 12.757C6.38073 12.7035 6.33045 12.6518 6.28244 12.5978C6.244 12.5522 6.20748 12.5051 6.17832 12.4528C6.13299 12.3715 6.10645 12.2803 6.10948 12.1868C6.11088 12.1449 6.11957 12.1046 6.13147 12.0647C6.15341 12.003 6.17651 11.9418 6.1985 11.8802L3.02155 5.31586C3.3082 4.95407 3.61229 4.60676 3.93266 4.27519L4.84277 6.41993C4.84429 6.35256 4.84808 6.28378 4.86097 6.21775C4.90321 6.00057 5.06549 5.81945 5.27158 5.74286C5.348 5.71445 5.43661 5.69742 5.51757 5.71503C5.57603 5.72775 5.63051 5.7505 5.68394 5.77728C5.73277 5.80177 5.77937 5.83012 5.82377 5.86157L4.90105 3.36321C5.23133 3.08035 5.57492 2.81266 5.93075 2.56113L7.16322 6.44665C7.20306 6.41241 7.24167 6.37688 7.28029 6.34124C7.41498 6.2132 7.54413 6.07967 7.67795 5.9507C7.77041 5.86442 7.86876 5.77278 7.98292 5.71357L6.95392 1.90225C7.37292 1.65748 7.80576 1.43389 8.25102 1.23287L9.46207 6.87143C9.4717 6.86204 9.48121 6.85259 9.49072 6.84297C9.52286 6.80837 9.55342 6.77273 9.5795 6.7333C9.60138 6.70022 9.62086 6.66511 9.63503 6.62801C9.667 6.54424 9.67032 6.45412 9.66846 6.36545C9.66362 6.25998 9.65067 6.15522 9.64407 6.04987C9.64011 5.95519 9.64022 5.8562 9.67884 5.76771C9.73659 5.63523 9.8791 5.56652 10.0105 5.52732C10.0368 5.51944 10.0636 5.51267 10.0904 5.50672C10.1322 5.49745 10.1744 5.49033 10.2169 5.48467L10.227 5.48333L9.43588 0.762067C9.84013 0.622533 10.2527 0.501025 10.6726 0.398533L11.2815 5.44997C11.3572 5.4467 11.401 5.44524 11.5053 5.44145C11.6585 5.43678 11.8117 5.43258 11.9649 5.43048C12.0716 5.42897 12.1797 5.43136 12.2863 5.4278C12.3056 5.42646 12.325 5.42488 12.3443 5.42319L11.9574 0.148225C12.4053 0.0826 12.8602 0.0382667 13.3208 0.016275L13.481 6.61488C13.4933 6.62737 13.5047 6.64084 13.5153 6.65548C13.5423 6.69311 13.5591 6.7389 13.5738 6.7823C13.6103 6.88963 13.6262 7.00297 13.6352 7.11556C13.6391 7.1645 13.6417 7.21356 13.6435 7.26262C13.6464 7.34084 13.6484 7.41912 13.6526 7.49735C13.6561 7.54653 13.6604 7.59558 13.6652 7.6447C13.679 7.77309 13.6939 7.90131 13.7062 8.02987C13.7089 8.06097 13.7114 8.092 13.7137 8.12309L13.7166 8.12198C13.7415 8.11113 13.7654 8.099 13.789 8.08576C13.8876 8.02777 13.9758 7.95451 14.0621 7.87984C14.1408 7.81165 14.2183 7.74206 14.2978 7.67474C14.3405 7.63962 14.3403 7.6398 14.3837 7.60538C14.4285 7.57149 14.4742 7.53865 14.5213 7.50837L14.7118 0.01785C15.1613 0.040425 15.6052 0.084175 16.0426 0.148225L15.52 7.27422C15.7328 7.2541 15.947 7.24051 16.1607 7.25334C16.2727 7.26005 16.3861 7.2737 16.4951 7.30281L17.3274 0.398533C17.7474 0.501083 18.16 0.622592 18.5641 0.762067L17.3669 7.90638C17.4593 7.9002 17.5518 7.89495 17.6443 7.8904C17.7281 7.88707 17.7641 7.88521 17.8482 7.88352C17.9616 7.88124 18.0755 7.88083 18.1887 7.88888C18.231 7.89192 18.274 7.89565 18.3165 7.90265L19.749 1.23287C20.1942 1.43389 20.627 1.65748 21.0461 1.90225L19.2695 8.48237C19.2837 8.48855 19.2978 8.49514 19.3118 8.50185C19.3784 8.53364 19.4429 8.56917 19.5057 8.60807C19.6926 8.72387 19.857 8.883 19.9617 9.07754C19.9704 9.09382 19.9787 9.11027 19.9866 9.12695L22.0693 2.56113C22.4251 2.81266 22.7687 3.08041 23.0989 3.36321L19.7865 12.3322C19.8186 12.3908 19.839 12.4554 19.8438 12.5231C19.8469 12.5673 19.8412 12.6095 19.8355 12.6532C19.8312 12.6866 19.8279 12.72 19.8246 12.7535C19.8188 12.8266 19.8189 12.8263 19.8146 12.8993C19.7979 13.3194 19.8284 13.7386 19.8746 14.1559L24.0673 4.27519C24.3876 4.6067 24.6918 4.95402 24.9785 5.31586L20.5834 14.397C20.7134 14.4522 20.8298 14.5333 20.9106 14.6529C20.9399 14.6963 20.9635 14.7435 20.9803 14.7931C20.9987 14.8471 21.0089 14.9035 21.0094 14.9605C21.0098 14.9912 21.0074 15.0218 21.0023 15.052L25.7155 6.33681C25.9849 6.74759 26.2333 7.17337 26.4591 7.61262L20.6565 17.1078C20.6979 17.1415 20.7416 17.1725 20.786 17.2023C20.8885 17.2689 20.9946 17.3296 21.0977 17.3953C21.1072 17.4016 21.1168 17.4079 21.1262 17.4144L26.9726 8.72993C27.1431 9.14865 27.2938 9.57746 27.4238 10.0152L21.5411 17.8966C21.5521 17.9278 21.5613 17.9597 21.569 17.992C21.6004 18.125 21.6005 18.261 21.6126 18.3965C21.6578 18.4183 21.7058 18.4346 21.7521 18.4538L21.7584 18.4567L27.7069 11.1395C27.8115 11.6424 27.8891 12.1552 27.938 12.6762L20.7788 20.5472C20.7778 20.5713 20.7771 20.5954 20.7766 20.6194C20.7755 20.6884 20.7769 20.7573 20.7815 20.8259L20.7999 20.8241C20.8577 20.8195 20.8575 20.8195 20.9155 20.816C20.9746 20.8138 20.9744 20.8133 21.0334 20.8133C21.0424 20.8133 21.0514 20.8136 21.0604 20.8139L27.9978 13.7529L27.9988 13.8146C27.9996 13.8763 28 13.9381 28 14C28 14.3758 27.9852 14.7482 27.956 15.1166L21.5104 21.0668C21.5079 21.0841 21.5049 21.1011 21.5024 21.1174C21.4969 21.1636 21.4959 21.2686 21.4941 21.3143C21.4906 21.4076 21.4875 21.5009 21.4841 21.5942C21.4812 21.6361 21.4764 21.673 21.4597 21.7114C21.4566 21.7186 21.453 21.7253 21.4488 21.7316L27.7965 16.3898L27.7789 16.4893C27.6896 16.9864 27.5739 17.4743 27.4335 17.9518L19.2593 24.0661H19.6548L27.1299 18.8657L27.0994 18.9468C26.9462 19.3521 26.7746 19.7484 26.5858 20.1347L20.295 24.0661H20.87L26.0744 21.086L26.0457 21.1343C25.3986 22.2239 24.6079 23.2184 23.6997 24.0915L24.3333 24.8348V28ZM23.9833 25.1848H4.55776V27.65H23.9833V25.1848ZM18.0604 26.8777C18.0604 26.953 18.0274 27.0558 17.9616 27.1863C17.8982 27.3117 17.8334 27.4077 17.7669 27.4741C17.7236 27.4741 17.6656 27.4591 17.5928 27.429C17.5201 27.3989 17.468 27.3685 17.4366 27.3377C17.5502 27.2856 17.6515 27.2252 17.7405 27.1562C17.8453 27.0752 17.9073 27.0022 17.9268 26.937C17.8986 26.8586 17.8405 26.7899 17.7528 26.731L17.8826 26.4798C17.929 26.5199 17.9702 26.5808 18.0063 26.6622C18.0424 26.7438 18.0604 26.8156 18.0604 26.8777ZM23.6553 27.2211L23.5038 27.364L23.3552 27.2154L23.5095 27.0743L23.6553 27.2211ZM19.3379 27.2079L19.1865 27.3509L19.0378 27.2022L19.1921 27.0611L19.3379 27.2079ZM7.25212 25.7272H7.4564V26.6019C7.4564 26.7162 7.44899 26.8042 7.43423 26.8657C7.4144 26.9461 7.37841 27.0107 7.3262 27.0594C7.27405 27.1081 7.20527 27.1325 7.11987 27.1325C7.01972 27.1325 6.9426 27.0943 6.88858 27.018C6.83457 26.9416 6.80738 26.8296 6.80692 26.682L7.00006 26.6518C7.00239 26.731 7.01091 26.7869 7.02572 26.8196C7.04789 26.8692 7.08155 26.894 7.12682 26.894C7.17249 26.894 7.20481 26.8763 7.22377 26.8407C7.24267 26.8053 7.25212 26.7316 7.25212 26.6198V25.7272ZM8.58993 27.1089H8.36692L8.27832 26.7951H7.87255L7.78878 27.1089H7.57132L7.9667 25.7272H8.18347L8.58993 27.1089ZM6.69264 25.961H6.14495V26.2673H6.65455V26.5001H6.14495V26.8761H6.71201V27.1089H5.93997V25.7272H6.69264V25.961ZM8.90429 27.1089H8.69931V25.7272H9.13068C9.23918 25.7272 9.31799 25.7396 9.36717 25.7644C9.41634 25.7893 9.45572 25.8334 9.48523 25.8968C9.51475 25.9603 9.52957 26.0329 9.52957 26.1146C9.52957 26.2183 9.50717 26.3038 9.46237 26.3714C9.41763 26.4389 9.35066 26.4815 9.26158 26.4991C9.30592 26.5343 9.34249 26.5729 9.37131 26.615C9.40018 26.6571 9.43909 26.7319 9.48798 26.8393L9.61193 27.1089H9.36682L9.21865 26.8083C9.16603 26.7008 9.13004 26.6331 9.11062 26.6051C9.09125 26.5772 9.07072 26.558 9.04902 26.5477C9.02732 26.5373 8.9929 26.5321 8.94582 26.5321H8.90429V27.1089ZM10.6381 27.1089H10.4152L10.3265 26.7951H9.92075L9.83698 27.1089H9.61957L10.015 25.7272H10.2317L10.6381 27.1089ZM11.3756 25.961H11.075V27.1089H10.8701V25.961H10.5689V25.7272H11.3756V25.961ZM12.248 27.1089H11.9025V25.7272H12.3083C12.3886 25.7272 12.4485 25.7318 12.4879 25.7409C12.5274 25.75 12.5627 25.769 12.5939 25.7979C12.6251 25.8268 12.651 25.8653 12.6718 25.9134C12.6926 25.9614 12.703 26.0153 12.703 26.075C12.703 26.1397 12.6902 26.1991 12.6645 26.2532C12.6389 26.3072 12.6042 26.3477 12.5603 26.3747C12.6222 26.3992 12.6697 26.441 12.703 26.5001C12.7362 26.5591 12.7528 26.6285 12.7528 26.7083C12.7528 26.7712 12.7421 26.8323 12.7206 26.8917C12.6992 26.951 12.6698 26.9985 12.6327 27.0339C12.5955 27.0695 12.5497 27.0913 12.4952 27.0995C12.4611 27.1045 12.3787 27.1076 12.248 27.1089ZM13.8413 27.1089H13.6184L13.5297 26.7951H13.1239L13.0402 27.1089H12.8228L13.2182 25.7272H13.4349L13.8413 27.1089ZM14.1426 27.1089H13.9521V25.7272H14.1515L14.567 26.6499V25.7272H14.7574V27.1089H14.5518L14.1426 26.2079V27.1089ZM15.1819 27.1089H14.9769V25.7272H15.1819V26.3408L15.5959 25.7272H15.8716L15.4893 26.2654L15.8923 27.1089H15.6271L15.3481 26.4605L15.1819 26.6914V27.1089ZM5.80772 25.961H5.50719V27.1089H5.30227V25.961H5.00103V25.7272H5.80772V25.961ZM22.3222 26.9191H22.2611C22.1915 26.9191 22.1254 26.8946 22.0626 26.8457C22.0281 26.8187 21.9836 26.7702 21.929 26.6999C21.8745 26.6296 21.8309 26.5817 21.7983 26.556C21.802 26.5785 21.8039 26.602 21.8039 26.6265C21.8039 26.6585 21.8004 26.6923 21.7936 26.7281C21.7377 26.8084 21.6471 26.863 21.5217 26.8918C21.4427 26.91 21.3342 26.9191 21.1962 26.9191C21.0087 26.9191 20.8823 26.9059 20.8171 26.8796C20.7217 26.8413 20.6741 26.7604 20.6741 26.6369C20.6741 26.5259 20.7126 26.4098 20.7898 26.2888C20.8193 26.2863 20.8381 26.2966 20.8462 26.3198C20.8098 26.3794 20.7917 26.4368 20.7917 26.492C20.7917 26.571 20.8365 26.6215 20.9262 26.6435C20.977 26.656 21.0827 26.6622 21.2432 26.6622C21.3912 26.6622 21.4995 26.6566 21.5678 26.6453C21.6292 26.6353 21.6816 26.6149 21.7249 26.5842C21.6522 26.4625 21.5255 26.3606 21.3448 26.2785C21.3486 26.1511 21.3586 26.0442 21.3749 25.9576C21.6465 25.8046 21.9071 25.7011 22.1567 25.6472L22.0438 25.8899C21.956 25.9113 21.8425 25.9505 21.7033 26.0075C21.5923 26.0527 21.512 26.0887 21.4624 26.1157C21.5609 26.1527 21.6737 26.2204 21.8011 26.3189C21.8487 26.3559 21.9074 26.4101 21.977 26.4816C22.0397 26.5462 22.0855 26.5889 22.1143 26.6096C22.162 26.6441 22.2119 26.6613 22.264 26.6613H22.3599C22.496 26.6613 22.564 26.6409 22.564 26.6002C22.564 26.5719 22.5286 26.5099 22.4578 26.4139L22.6026 26.2163C22.6741 26.3117 22.7099 26.4114 22.7099 26.5155C22.6879 26.6485 22.6578 26.7388 22.6196 26.7864C22.5487 26.8749 22.4496 26.9191 22.3222 26.9191ZM23.2762 26.9191H23.215C23.0953 26.9191 23.0172 26.8696 22.9808 26.7704C22.9563 26.7034 22.94 26.5537 22.9319 26.3217C22.9281 26.2069 22.9234 26.1273 22.9178 26.0828C22.9071 25.9962 22.887 25.9194 22.8576 25.8523L23.0297 25.6716C23.0586 25.7174 23.0764 25.788 23.0833 25.8833C23.0858 25.9178 23.0871 25.9909 23.0871 26.1025V26.38C23.0871 26.4628 23.0931 26.5231 23.105 26.5607C23.1263 26.6278 23.1689 26.6613 23.2329 26.6613H23.3138C23.4499 26.6613 23.518 26.6409 23.518 26.6002C23.518 26.5719 23.4825 26.5099 23.4117 26.4139L23.5565 26.2163C23.628 26.3117 23.6638 26.4114 23.6638 26.5155C23.6419 26.6485 23.6117 26.7388 23.5735 26.7864C23.5026 26.8749 23.4035 26.9191 23.2762 26.9191ZM17.3652 26.476C17.3652 26.5055 17.3473 26.5585 17.3115 26.635C17.2758 26.7115 17.2467 26.7588 17.2241 26.777C17.1965 26.799 17.1102 26.8266 16.9654 26.8598C16.7929 26.8993 16.6333 26.9191 16.4865 26.9191C16.2896 26.9191 16.1541 26.8805 16.0801 26.8034C16.0331 26.7545 16.0095 26.682 16.0095 26.5861C16.0095 26.4556 16.0469 26.3327 16.1215 26.2173C16.1246 26.2167 16.1281 26.2163 16.1318 26.2163C16.1594 26.2163 16.1786 26.227 16.1892 26.2483C16.151 26.3387 16.1318 26.4076 16.1318 26.4553C16.1318 26.5939 16.2811 26.6632 16.5796 26.6632C16.8506 26.6632 17.0629 26.6309 17.2166 26.5663C17.1902 26.498 17.1557 26.4352 17.1131 26.3782L17.2561 26.1844C17.2849 26.2201 17.3109 26.2719 17.3341 26.3396C17.3548 26.3998 17.3652 26.4452 17.3652 26.476ZM18.6935 26.9191H18.5646C18.4448 26.9191 18.3668 26.8696 18.3304 26.7704C18.3059 26.7034 18.2896 26.5537 18.2815 26.3217C18.2777 26.2069 18.273 26.1273 18.2674 26.0828C18.2567 25.9962 18.2366 25.9194 18.2071 25.8523L18.3793 25.6716C18.4081 25.7174 18.426 25.788 18.4329 25.8833C18.4354 25.9178 18.4367 25.9909 18.4367 26.1025V26.38C18.4367 26.4628 18.4427 26.5231 18.4546 26.5607C18.4759 26.6278 18.5186 26.6613 18.5825 26.6613H18.7349C18.8371 26.6613 18.9209 26.651 18.9861 26.6303C19.0306 26.6165 19.1143 26.5788 19.2373 26.5174C18.9983 26.4233 18.8635 26.3763 18.8327 26.3763C18.8051 26.3763 18.7829 26.385 18.7659 26.4026C18.7509 26.4177 18.7302 26.4503 18.7039 26.5005C18.6938 26.5049 18.6847 26.507 18.6766 26.507C18.6597 26.507 18.6462 26.4986 18.6361 26.4816C18.6788 26.3706 18.7114 26.2941 18.734 26.2521C18.776 26.1731 18.8165 26.1336 18.8553 26.1336C18.8804 26.1336 18.9665 26.1665 19.1136 26.2323C19.2606 26.2982 19.3677 26.3311 19.4348 26.3311C19.5088 26.3311 19.6242 26.3161 19.781 26.286L19.6813 26.5136C19.5991 26.5224 19.5314 26.5324 19.4781 26.5437C19.5157 26.6221 19.5885 26.6613 19.6964 26.6613H19.8958C20.0319 26.6613 20.0999 26.6409 20.0999 26.6002C20.0999 26.5719 20.0645 26.5099 19.9936 26.4139L20.1385 26.2163C20.21 26.3117 20.2458 26.4114 20.2458 26.5155C20.2238 26.6485 20.1937 26.7388 20.1554 26.7864C20.0846 26.8749 19.9855 26.9191 19.8582 26.9191H19.7801C19.6741 26.9191 19.5897 26.8874 19.527 26.8241C19.4769 26.7732 19.4333 26.6918 19.3962 26.5795C19.1956 26.7212 19.0761 26.8028 19.0378 26.8241C18.9243 26.8874 18.8095 26.9191 18.6935 26.9191ZM12.273 26.5067H12.1075V26.8761H12.2972C12.371 26.8761 12.4179 26.8733 12.4378 26.8676C12.4682 26.8601 12.4931 26.8417 12.5122 26.8125C12.5313 26.7833 12.541 26.7441 12.541 26.6951C12.541 26.6537 12.5336 26.6185 12.5188 26.5896C12.504 26.5607 12.4826 26.5396 12.4547 26.5264C12.4268 26.5133 12.3663 26.5067 12.273 26.5067ZM13.464 26.5623L13.3241 26.0496L13.187 26.5623H13.464ZM8.21252 26.5623L8.07269 26.0496L7.93555 26.5623H8.21252ZM10.2608 26.5623L10.1209 26.0496L9.98381 26.5623H10.2608ZM9.06424 25.961H8.90429V26.3115H9.0559C9.15425 26.3115 9.21562 26.3059 9.24012 26.2946C9.26456 26.2833 9.28375 26.2638 9.29757 26.2362C9.31146 26.2085 9.31834 26.1739 9.31834 26.1325C9.31834 26.086 9.30924 26.0485 9.29098 26.0199C9.27278 25.9913 9.24706 25.9732 9.21381 25.9657C9.19718 25.9625 9.14731 25.961 9.06424 25.961ZM12.2252 25.9572H12.1075V26.2767H12.2418C12.3217 26.2767 12.3713 26.2751 12.3907 26.272C12.4258 26.2663 12.4533 26.2498 12.4734 26.2225C12.4935 26.1952 12.5036 26.1592 12.5036 26.1146C12.5036 26.0718 12.4949 26.0371 12.4776 26.0104C12.4603 25.9837 12.4345 25.9675 12.4004 25.9619C12.3801 25.9587 12.3217 25.9572 12.2252 25.9572ZM16.669 26.0846L16.5298 26.2163L16.3934 26.078L16.5354 25.951L16.669 26.0846ZM17.0133 26.0668L16.8741 26.1976L16.7377 26.0602L16.8807 25.9323L17.0133 26.0668ZM22.724 25.9379L22.5725 26.0809L22.4239 25.9323L22.5781 25.7912L22.724 25.9379ZM20.3793 25.9454L20.2495 26.0752L20.1178 25.9595L19.9974 26.0809L19.8591 25.9595L19.9889 25.8268L20.1206 25.9444L20.241 25.8212L20.3793 25.9454ZM12.5471 24.0661L11.8173 22.0901L11.8005 22.0873L11.7482 22.0775C11.7227 22.0704 11.7008 22.0625 11.6803 22.0449C11.6344 22.0057 11.6174 21.9402 11.6384 21.8835C11.6478 21.8583 11.663 21.8408 11.6818 21.8221L11.7098 21.7989L11.4694 21.148C11.4463 21.1634 11.4213 21.1758 11.3947 21.1861C11.3601 21.1995 11.3241 21.2092 11.2877 21.216C11.2689 21.2194 11.2502 21.222 11.2312 21.2238C11.1971 21.2271 11.1609 21.2276 11.1248 21.2243L12.3307 24.0661H12.5471ZM12.7521 24.0661H12.9379L12.4209 22.1514C12.3266 22.1468 12.2325 22.1404 12.1385 22.1315L12.7521 24.0661ZM13.1551 24.0661H13.3408L13.0221 22.1642L12.9365 22.1636L12.7461 22.1617L13.1551 24.0661ZM13.5258 24.0661H13.7115L13.5723 22.1682L13.5414 22.1685C13.4599 22.1675 13.3783 22.1667 13.2967 22.1661L13.5258 24.0661ZM14.1 24.0661L14.1489 22.1478C14.0807 22.1911 14.0046 22.1786 13.9286 22.1665C13.9118 22.1647 13.8948 22.1654 13.8778 22.1653L13.8584 22.1651L13.9045 24.0661H14.1ZM14.4742 24.0661L14.7915 21.4347C14.7864 21.4484 14.7812 21.4621 14.7757 21.4757C14.7624 21.5049 14.7485 21.5336 14.7306 21.5604C14.6707 21.65 14.5849 21.7218 14.4996 21.7859C14.4843 21.7969 14.4689 21.8076 14.4534 21.8182L14.2885 24.0661H14.4742ZM14.8449 24.0661L15.556 20.7551C15.5396 20.7906 15.5233 20.8262 15.5063 20.8616C15.4856 20.903 15.4856 20.9029 15.4639 20.9435C15.3923 21.0674 15.3017 21.1996 15.1552 21.2375C15.1476 21.2395 15.14 21.2411 15.1323 21.2425L14.6592 24.0661H14.8449ZM15.0621 24.0661H15.2479L16.0597 21.5067C16.0467 21.4971 16.0348 21.4862 16.0247 21.4734C16.0046 21.4482 15.9918 21.4172 15.9827 21.3866C15.962 21.3166 15.964 21.2426 15.9744 21.171C15.9769 21.1541 15.9808 21.1317 15.9841 21.1149C15.9917 21.0769 16.0001 21.0391 16.007 21.001C16.0189 20.9224 16.0277 20.8432 16.0361 20.7641C16.0457 20.6654 16.0529 20.5665 16.0523 20.4672C16.0521 20.4461 16.0517 20.425 16.0509 20.4039L15.0621 24.0661ZM15.4529 24.0661H15.6693L16.6122 21.844C16.5962 21.841 16.5804 21.8368 16.565 21.8306C16.4997 21.8046 16.4498 21.7507 16.4287 21.6836C16.4185 21.6511 16.416 21.6174 16.4149 21.5835L16.4146 21.5729C16.4015 21.5711 16.3884 21.5697 16.3753 21.5686L15.4529 24.0661ZM15.9039 24.0661H16.1275L17.2397 22.0095C17.1642 22.0074 17.089 22.0012 17.0146 21.9868C16.9833 21.9808 16.9515 21.9744 16.9213 21.9639L15.9039 24.0661ZM16.6483 24.0661L18.0434 21.9937C17.9181 21.9956 17.7927 21.9958 17.6674 21.9989L16.4041 24.0661H16.6483ZM17.1981 24.0661L18.914 21.9554L18.9039 21.9561C18.7675 21.9642 18.631 21.9719 18.4945 21.9783L16.9363 24.0661H17.1981ZM17.8651 24.0661L20.0106 21.8824C19.9295 21.8877 19.8483 21.8926 19.7672 21.898L19.5358 21.9138L17.5782 24.0661H17.8651ZM18.6747 24.0661L21.387 21.7836C21.3451 21.8044 21.2944 21.8123 21.2512 21.8154C21.2407 21.8162 21.2302 21.8167 21.2196 21.8169C21.1994 21.8174 21.1784 21.817 21.1583 21.8162C21.1289 21.815 21.1031 21.8129 21.0731 21.8106C21.0372 21.8077 21.0016 21.8042 20.9656 21.8033C20.9067 21.8044 20.8477 21.8096 20.789 21.8139C20.7566 21.8166 20.7243 21.8193 20.692 21.8223L18.2614 24.0661H18.6747ZM11.4899 20.7788C11.4935 20.7785 11.497 20.7782 11.5007 20.7779C11.5246 20.7782 11.5244 20.7782 11.5484 20.7801C11.5552 20.7811 11.562 20.7822 11.5688 20.7835L11.5707 20.7839C11.5771 20.7852 11.5835 20.7865 11.5899 20.788L11.5927 20.7886C11.5989 20.7901 11.6051 20.7916 11.6111 20.7933L11.618 20.7952L11.6247 20.7972L11.6337 20.7999L11.6406 20.8021L11.6467 20.8042L11.6544 20.8068L11.6629 20.8099L11.6748 20.8144L11.685 20.8185L11.695 20.8227L11.7067 20.8279L11.7149 20.8316L11.7281 20.8379C11.7762 20.8611 11.8223 20.8892 11.8667 20.919C11.9463 20.9724 12.0248 21.0315 12.0852 21.1067C12.2117 21.2642 12.2446 21.472 12.1892 21.6644C12.1714 21.726 12.1472 21.7839 12.1093 21.8358L12.1087 21.8366C12.1861 21.8445 12.2635 21.8506 12.341 21.8553L12.3515 21.8559L12.4191 21.8596L12.438 21.8605L12.5081 21.8635L12.5914 21.8664L12.6762 21.8686L12.7394 21.87C12.8173 21.8709 12.8952 21.8716 12.9732 21.8721L13.2615 21.8742C13.3553 21.8748 13.449 21.8756 13.5428 21.8768L13.626 21.8761L13.7762 21.8741L13.7822 21.8741C13.8153 21.8737 13.8483 21.8735 13.8814 21.8736C13.9244 21.8745 13.9242 21.8728 13.9668 21.8773L13.9774 21.879C13.9833 21.8601 13.9899 21.842 13.9974 21.8238C14.0147 21.7892 14.0353 21.7596 14.065 21.7345C14.0965 21.7105 14.1285 21.6872 14.161 21.6644L14.2443 21.6082L14.2858 21.5798L14.3269 21.5509C14.351 21.5328 14.3744 21.5141 14.3974 21.4946L14.4209 21.4729L14.4325 21.4619L14.4441 21.4506L14.4553 21.4389L14.4604 21.4334L14.4661 21.4268L14.471 21.421L14.4763 21.4144L14.4837 21.4046L14.4881 21.3982C14.5032 21.3756 14.5129 21.3491 14.522 21.3237C14.5333 21.2923 14.5442 21.2609 14.5561 21.2297C14.5676 21.2021 14.5676 21.2023 14.5804 21.1752C14.6 21.1394 14.6209 21.1055 14.6494 21.0759C14.7031 21.0202 14.7724 20.9861 14.8473 20.9714L14.8603 20.969C14.8652 20.9681 14.8702 20.9673 14.8752 20.9667C14.9399 20.9581 15.0055 20.966 15.0701 20.9574C15.0792 20.9558 15.0884 20.9542 15.0963 20.9493L15.1062 20.9413L15.1158 20.9327L15.1189 20.9298L15.128 20.9207L15.1366 20.9113L15.1449 20.9014L15.153 20.8911L15.1558 20.8875L15.1635 20.8769L15.1705 20.8666L15.1815 20.8493L15.1896 20.8358L15.1978 20.8217L15.2032 20.812C15.2114 20.7973 15.2192 20.7826 15.2267 20.7685C15.2704 20.6813 15.3091 20.5918 15.352 20.5043C15.377 20.4563 15.4051 20.4101 15.4303 20.3622C15.4605 20.3052 15.4894 20.2476 15.5206 20.191C15.5383 20.1609 15.5564 20.1312 15.5762 20.1024C15.5984 20.0717 15.6216 20.042 15.6476 20.0145C15.67 19.9908 15.6939 19.9687 15.7193 19.9482L15.7314 19.9388L15.7399 19.9322L15.7492 19.9253L15.761 19.9169L15.7673 19.9125L15.7825 19.9023L15.7841 19.9014C15.7909 19.8969 15.7977 19.8926 15.8046 19.8884C15.8995 19.8301 16.0161 19.7721 16.1279 19.8162C16.1531 19.8262 16.1766 19.8424 16.197 19.86L16.1975 19.8606C16.2185 19.8788 16.2367 19.9002 16.252 19.9234C16.2752 19.9587 16.2914 19.9983 16.3027 20.0388C16.3241 20.1152 16.3275 20.1947 16.3342 20.2732C16.3409 20.3531 16.3448 20.4328 16.3438 20.5131C16.3428 20.5826 16.3389 20.6519 16.3331 20.7212L16.3329 20.7236L16.3327 20.7258C16.3314 20.7412 16.33 20.7566 16.3286 20.7719C16.3267 20.7908 16.3248 20.8097 16.3227 20.8285L16.3207 20.8463L16.3176 20.8736L16.3159 20.8876L16.315 20.8962L16.3134 20.9079L16.3116 20.9236L16.3084 20.9488L16.307 20.9598L16.2986 21.0233C16.2901 21.0872 16.2734 21.1495 16.2631 21.2131C16.2608 21.2308 16.2591 21.2481 16.2584 21.2659L16.2585 21.269C16.3019 21.273 16.3456 21.2739 16.3891 21.2767L16.4116 21.2788L16.4274 21.2805L16.4466 21.2829L16.4566 21.2844L16.4656 21.2858L16.4789 21.2882C16.4997 21.2921 16.5201 21.2973 16.5401 21.3047C16.6112 21.3308 16.6673 21.3838 16.6912 21.4564C16.7021 21.4895 16.705 21.5238 16.706 21.5584L16.7336 21.5579L16.739 21.5578L16.7528 21.5578L16.7721 21.5581C16.8321 21.5624 16.886 21.5781 16.9343 21.6148C16.9486 21.6256 16.9618 21.6378 16.9745 21.6502C16.9872 21.6627 16.9993 21.6775 17.0143 21.6875L17.0233 21.6903L17.0324 21.6927L17.0505 21.6968C17.0635 21.6995 17.0767 21.7016 17.0896 21.704C17.1949 21.7204 17.3014 21.7216 17.4079 21.7182L17.4322 21.7174L17.4684 21.716L17.6159 21.7091L17.6538 21.7076C17.6661 21.7072 17.6785 21.7068 17.6908 21.7065L17.6917 21.7064C17.8037 21.7053 17.9157 21.7047 18.0277 21.7029C18.1052 21.7009 18.1826 21.6985 18.26 21.6956L18.3457 21.6924L18.3715 21.6913L18.4804 21.6866L18.4911 21.6861L18.5917 21.6813L18.6142 21.6802L18.7431 21.6735C18.8837 21.6651 19.0242 21.6562 19.1648 21.647L19.4809 21.626L19.8184 21.6031L20.0932 21.5847C20.1728 21.5788 20.2522 21.5716 20.3316 21.564C20.4114 21.5564 20.4912 21.5483 20.5709 21.5408L20.5981 21.5381L20.6325 21.535L20.6554 21.5328L20.6823 21.5304L20.6907 21.5296C20.716 21.5274 20.7412 21.5252 20.7665 21.5231C20.825 21.5189 20.8834 21.5151 20.942 21.512L20.9576 21.5119H20.9629L20.9733 21.5121L20.9838 21.5123L21.0046 21.5132L21.0255 21.5143C21.081 21.5177 21.1364 21.5238 21.192 21.5253H21.1942C21.196 21.4178 21.2024 21.31 21.2066 21.2025L21.2111 21.0999C21.1835 21.1016 21.156 21.1037 21.1284 21.1051L21.1009 21.1063C21.0809 21.1062 21.061 21.1059 21.041 21.1056L21.0111 21.1054C21.0011 21.1054 20.9911 21.1054 20.9811 21.1054L20.9518 21.1067L20.9235 21.1082L20.8665 21.112L20.8386 21.1143L20.8062 21.117L20.7756 21.1198C20.6827 21.1286 20.5899 21.1395 20.4969 21.1485C20.4397 21.1532 20.4399 21.1532 20.3826 21.157C20.3338 21.159 20.2852 21.1605 20.2364 21.1601L20.2217 21.1597L20.2131 21.1595L20.2113 21.1594C20.2061 21.1593 20.2003 21.159 20.1897 21.1583C20.1343 21.1526 20.0821 21.1371 20.0313 21.1146C19.9726 21.0885 19.918 21.0543 19.8591 21.0285C19.843 21.0222 19.8276 21.0177 19.8106 21.0134L19.7961 21.0106L19.7814 21.0082L19.7757 21.0073L19.7667 21.006L19.7609 21.0052L19.7521 21.0041L19.7411 21.0028L19.7224 21.0008L19.6925 20.998C19.6537 20.9947 19.6148 20.9921 19.5761 20.9878C19.543 20.9831 19.5433 20.9831 19.5106 20.9771C19.4752 20.9687 19.4406 20.9595 19.407 20.9453C19.3714 20.9303 19.3374 20.9127 19.3042 20.8936L19.3019 20.8923C19.2926 20.8869 19.2834 20.8815 19.2741 20.8759L19.2731 20.8752L19.2545 20.8637L19.247 20.859L19.2442 20.8573L19.2406 20.855L19.2336 20.8505L19.2256 20.8453L19.2146 20.8383L19.1968 20.8265L19.1921 20.8235L19.1868 20.82L19.1853 20.819L19.1407 20.7895L19.1165 20.7738L19.1018 20.7642L19.0943 20.7595L19.0674 20.7427C19.0404 20.7273 19.0133 20.7127 18.9848 20.7001L18.972 20.6952L18.9687 20.6939L18.9619 20.6916L18.9484 20.6872L18.9435 20.6856C18.9041 20.6739 18.8638 20.6671 18.8224 20.6609C18.7764 20.654 18.7303 20.6485 18.6841 20.6441C18.6257 20.6385 18.5668 20.6342 18.5078 20.6317L18.503 20.6315L18.4698 20.6304L18.4623 20.6302L18.4358 20.6296L18.4268 20.6295L18.3996 20.6294L18.3927 20.6293L18.3587 20.6296L18.3533 20.6298L18.3255 20.6304L18.3144 20.6308L18.2918 20.6317L18.2799 20.6323L18.2464 20.6344L18.2132 20.637L18.1751 20.6407L18.1638 20.642L18.1355 20.6454L18.1249 20.6467L18.0878 20.6517L18.0312 20.66C17.9801 20.6677 17.9291 20.6757 17.8779 20.6824C17.8323 20.6877 17.8325 20.6876 17.7866 20.6919C17.6976 20.6981 17.6089 20.6999 17.5203 20.6884C17.4505 20.6793 17.3861 20.6636 17.3249 20.6278L17.3148 20.6217L17.3122 20.6201L17.3108 20.6192L17.3087 20.6179L17.3049 20.6155L17.3021 20.6136L17.2969 20.6102L17.2878 20.6039L17.2854 20.6023L17.2846 20.6017C17.279 20.5977 17.2734 20.5936 17.2678 20.5894L17.2666 20.5885L17.2638 20.5864L17.257 20.5812L17.2506 20.576L17.2481 20.5742L17.2465 20.5728L17.2441 20.5709L17.2399 20.5674L17.23 20.5593L17.222 20.5525L17.2188 20.5498L17.2156 20.5471L17.2122 20.5442L17.2051 20.5379L17.1939 20.5283L17.1769 20.5133C17.1578 20.4964 17.1387 20.4795 17.1191 20.4634C17.0417 20.4031 16.9582 20.351 16.8793 20.2926C16.8708 20.286 16.8624 20.2792 16.854 20.2724L16.8471 20.2668L16.8407 20.2614L16.8391 20.2602C16.8334 20.2554 16.8278 20.2506 16.8221 20.2458L16.8188 20.243L16.8066 20.2322L16.8049 20.2306L16.8032 20.2291L16.7913 20.2182L16.7879 20.215L16.785 20.2123L16.7816 20.2089L16.7763 20.2039L16.7711 20.1987L16.7673 20.195L16.7649 20.1925L16.7617 20.1892L16.7501 20.1772L16.7489 20.1759C16.7437 20.1703 16.7385 20.1645 16.7334 20.1587C16.7285 20.153 16.7236 20.1473 16.7189 20.1415L16.7176 20.14L16.7144 20.136L16.7078 20.1279L16.7047 20.1238L16.7023 20.1209L16.6997 20.1174L16.6956 20.112L16.6907 20.1053L16.6878 20.1014L16.6861 20.099L16.6839 20.0959L16.6737 20.0814L16.6731 20.0806C16.669 20.0744 16.6648 20.0682 16.6608 20.0619L16.6603 20.0611L16.6578 20.0572L16.6509 20.0461L16.649 20.0429L16.6475 20.0404L16.6449 20.0359L16.6407 20.0289L16.6375 20.0233L16.6352 20.0193L16.6334 20.0159L16.6309 20.0116L16.6263 20.0028L16.6237 19.9979L16.6227 19.996L16.6216 19.994L16.6134 19.9778L16.6126 19.9762L16.6119 19.9746L16.6041 19.9582L16.6032 19.9562L16.6023 19.9541L16.5999 19.9486L16.5961 19.94L16.5943 19.9356L16.5926 19.9318L16.5907 19.9271L16.5884 19.9215L16.5857 19.9147L16.5835 19.9092L16.5823 19.906L16.5811 19.9029L16.5774 19.8927L16.5751 19.8863L16.5746 19.8848L16.5744 19.8842C16.5665 19.8619 16.5597 19.8392 16.5537 19.8162C16.5255 19.7079 16.5165 19.5959 16.4986 19.4855C16.4939 19.4605 16.4887 19.4359 16.4825 19.4112C16.472 19.3767 16.4601 19.3421 16.4368 19.3139C16.416 19.2887 16.388 19.2723 16.3578 19.2613L16.3438 19.2565L16.3428 19.2562L16.3292 19.2524L16.3267 19.2517L16.3136 19.2487L16.2958 19.2451C16.2717 19.2408 16.2473 19.2382 16.2229 19.2376L16.2083 19.2376C16.1985 19.2376 16.1887 19.2381 16.1789 19.2389C16.0795 19.2467 15.9868 19.2869 15.8989 19.3314L15.8576 19.3535C15.7672 19.403 15.6792 19.4567 15.5888 19.506C15.5305 19.5364 15.4706 19.5632 15.4097 19.587L15.409 19.5873L15.4074 19.588L15.3995 19.591L15.3848 19.5966L15.3807 19.5981L15.3764 19.5998L15.369 19.6025L15.3598 19.6058L15.3519 19.6086L15.3452 19.6111L15.34 19.6129L15.3347 19.6148L15.3218 19.6191L15.3139 19.6219L15.3114 19.6227C15.3022 19.6258 15.2929 19.6289 15.2837 19.6319L15.2824 19.6323L15.2751 19.6345L15.2587 19.6397L15.2548 19.6409L15.2508 19.6422L15.243 19.6445L15.2332 19.6475L15.2256 19.6497L15.219 19.6517L15.2132 19.6533L15.2076 19.6549L15.1957 19.6583L15.1871 19.6607L15.1839 19.6616L15.1818 19.6622L15.1597 19.6681L15.155 19.6694L15.1454 19.6719L15.1302 19.6758L15.1273 19.6765L15.1229 19.6777L15.1129 19.6801L15.1042 19.6823L15.101 19.6831C15.0849 19.687 15.0688 19.6908 15.0527 19.6944L15.0522 19.6946L15.0508 19.6948L15.0257 19.7004L14.9999 19.7059L14.9931 19.7073C14.8641 19.734 14.7334 19.7536 14.6036 19.7702C14.5913 19.7717 14.5791 19.7733 14.5669 19.7748C14.5234 19.7802 14.4798 19.7854 14.4363 19.7906C14.4169 19.7929 14.3974 19.7952 14.3778 19.7973L14.3764 19.7974L14.3669 19.7984L14.3514 19.8L14.349 19.8001L14.3463 19.8004L14.3365 19.8013L14.3229 19.8025L14.3197 19.8028L14.3161 19.8031L14.3064 19.8037L14.2942 19.8046L14.2902 19.8048L14.2857 19.8052L14.2764 19.8056L14.2656 19.8061L14.2608 19.8063L14.2554 19.8066L14.2465 19.8068L14.237 19.8071L14.2314 19.8071L14.225 19.8073L14.2168 19.8072L14.2084 19.8073C14.1231 19.8068 14.0387 19.7949 13.959 19.7604C13.8991 19.7345 13.8462 19.6993 13.7976 19.6589L13.7952 19.6569L13.7882 19.651L13.7809 19.6446L13.7786 19.6427L13.7773 19.6415C13.7659 19.6314 13.7547 19.6211 13.7436 19.6104L13.742 19.6089L13.7396 19.6065L13.734 19.6011L13.7264 19.5935L13.7209 19.588L13.7172 19.5842L13.7066 19.5735L13.6985 19.5649L13.6951 19.5614L13.6927 19.5588C13.6853 19.551 13.6781 19.5431 13.6708 19.5352L13.6699 19.5343L13.6666 19.5305L13.6553 19.5182L13.6506 19.5129L13.645 19.5067L13.6239 19.4828L13.6219 19.4805L13.6209 19.4794L13.6204 19.4788L13.5827 19.4358L13.5623 19.4127L13.5502 19.3992L13.5444 19.3927L13.522 19.3682C13.5033 19.349 13.4841 19.3304 13.464 19.3126L13.4515 19.3024L13.4472 19.2992L13.4387 19.2928L13.4333 19.2889L13.4257 19.2835L13.4196 19.2794L13.4125 19.2746L13.4056 19.2704L13.399 19.2662L13.3915 19.2617L13.3853 19.2581L13.3769 19.2534L13.3715 19.2504L13.3619 19.2454C13.247 19.1859 13.114 19.1611 12.988 19.1372L12.9038 19.1212L12.8954 19.1196C12.8701 19.1148 12.8449 19.1099 12.8197 19.1048C12.7709 19.0942 12.7224 19.083 12.6741 19.0699C12.6655 19.0674 12.6568 19.0648 12.6482 19.0622L12.6462 19.0615L12.64 19.0595L12.6278 19.0556L12.6225 19.0539L12.6185 19.0526L12.6129 19.0507L12.6048 19.0479L12.5967 19.045L12.5911 19.0431L12.5871 19.0416L12.582 19.0398L12.5704 19.0355L12.5639 19.0331L12.5617 19.0322L12.5595 19.0314L12.54 19.0238L12.5369 19.0226L12.5328 19.0209L12.5147 19.0135L12.5128 19.0127L12.5102 19.0116L12.4926 19.004C12.4102 18.968 12.3312 18.9246 12.2552 18.8749C12.1653 18.8159 12.0808 18.7498 11.9985 18.6808L11.9963 18.679L11.9919 18.6754L11.9733 18.6597L11.966 18.6535L11.964 18.6518L11.9604 18.6488L11.9338 18.626L11.9325 18.6249L11.8841 18.583L11.8697 18.5705L11.867 18.5682L11.8665 18.5677L11.8054 18.5145L11.7417 18.4595L11.6891 18.4158L11.6702 18.4001L11.6368 18.3726L11.526 18.2817L11.4979 18.2586L11.4348 18.2067L11.425 18.1985L11.4181 18.1929L11.3838 18.1644L11.3759 18.1578L11.3644 18.1482L11.3482 18.1346L11.333 18.1218L11.3109 18.1032C11.2145 18.0199 11.1196 17.9349 11.0295 17.8448C10.9751 17.7905 10.9201 17.736 10.8757 17.673C10.7998 17.5652 10.7505 17.4403 10.7145 17.3141C10.6668 17.1473 10.6411 16.9742 10.6252 16.8016C10.6198 16.7418 10.6198 16.6817 10.6156 16.6218C10.6131 16.5967 10.6102 16.5719 10.6051 16.5472C10.5994 16.5238 10.5928 16.4979 10.5749 16.4807C10.5684 16.4753 10.5615 16.4719 10.5534 16.4699C10.5288 16.4653 10.5029 16.4698 10.4786 16.474C10.4411 16.4804 10.404 16.4882 10.3665 16.4941C10.3527 16.4956 10.3391 16.497 10.3256 16.4979L10.3228 16.4982L10.3164 16.4986L10.3127 16.4988L10.3111 16.4989C10.3056 16.4992 10.3001 16.4995 10.2946 16.4996C10.2667 16.4992 10.2392 16.4975 10.2117 16.4919C10.1754 16.4844 10.1392 16.4706 10.1046 16.4586C10.0136 16.427 9.92343 16.3833 9.86399 16.3047C9.82701 16.2557 9.81009 16.1953 9.78454 16.1403L9.78087 16.1331C9.76535 16.1268 9.74948 16.1215 9.7328 16.1193L9.72603 16.1187L9.72428 16.1185L9.7181 16.1184L9.71163 16.1187L9.70293 16.1197L9.69436 16.1215L9.69179 16.1221L9.68549 16.124L9.68333 16.1247L9.67534 16.1278L9.67353 16.1286L9.66741 16.1314L9.66478 16.1328L9.65912 16.1359L9.65697 16.137L9.65002 16.1414L9.63888 16.1491L9.63731 16.1502L9.62663 16.1584C9.61572 16.1673 9.60534 16.1767 9.59531 16.1858C9.55162 16.2294 9.5123 16.2768 9.47013 16.3217C9.41028 16.3823 9.34727 16.44 9.28918 16.5023C9.27558 16.5176 9.26252 16.5331 9.24992 16.5492C9.22985 16.5771 9.21124 16.6059 9.19298 16.635L9.18377 16.6499L9.1735 16.6664L9.15682 16.6934L9.14818 16.7073L9.14311 16.7154L9.1413 16.7183L9.13862 16.7225L9.1287 16.7379L9.12234 16.7479L9.12088 16.7501L9.12001 16.7514L9.11867 16.7534L9.11167 16.764L9.10082 16.7799C9.08477 16.8019 9.06833 16.8233 9.051 16.8444C9.02796 16.8706 9.00498 16.8961 8.97709 16.9172C8.93276 16.951 8.88177 16.9753 8.83137 16.9986C8.80693 17.0098 8.78232 17.0207 8.75782 17.0319L8.74323 17.0385L8.70689 17.0554L8.70386 17.0568C8.68997 17.0634 8.67615 17.0702 8.66244 17.0773C8.645 17.087 8.62814 17.0971 8.61227 17.1093C8.6079 17.113 8.60796 17.1128 8.60388 17.1169C8.5995 17.1371 8.59606 17.1573 8.59267 17.1777L8.58947 17.1992C8.6002 17.2171 8.60913 17.2356 8.61782 17.2545C8.6331 17.2915 8.64418 17.3301 8.65993 17.3668C8.67032 17.3795 8.6835 17.3898 8.69627 17.4C8.72783 17.4239 8.76015 17.4467 8.79095 17.4716C8.81067 17.489 8.81049 17.4889 8.82939 17.5072C8.84923 17.529 8.84905 17.5289 8.86737 17.552C8.88679 17.5809 8.90435 17.6107 8.92173 17.6409C9.00742 17.7955 9.07556 17.9586 9.15221 18.1177C9.1749 18.1623 9.19788 18.2062 9.22291 18.2495C9.27273 18.332 9.32902 18.4099 9.39738 18.4776L9.41121 18.4909L9.41506 18.4946L9.42877 18.5071C9.53499 18.6021 9.6621 18.672 9.79096 18.7312L9.84089 18.7537L9.85647 18.7606L9.88569 18.7734L9.95861 18.805L10.0447 18.8418L10.0473 18.8429C10.0738 18.8543 10.1003 18.8657 10.1267 18.8772L10.1294 18.8784C10.163 18.8931 10.1965 18.9081 10.2298 18.9235C10.2675 18.9415 10.3049 18.96 10.3421 18.9792C10.3993 19.0101 10.4568 19.0413 10.5087 19.0808C10.6184 19.1642 10.7109 19.2708 10.7945 19.3796C10.809 19.3985 10.8234 19.4175 10.8375 19.4369L10.8458 19.4483L10.851 19.4556L10.8572 19.4643L10.8647 19.475L10.8706 19.4834L10.878 19.4942C10.8838 19.5029 10.8896 19.5116 10.8953 19.5203L10.9062 19.5372L10.915 19.5512C10.9202 19.5597 10.9254 19.5683 10.9304 19.5768L10.9394 19.5924L10.9498 19.6111L10.9562 19.623L10.964 19.638L10.9704 19.6509C10.9733 19.6567 10.9761 19.6625 10.9789 19.6685C11.0145 19.7447 11.04 19.8253 11.058 19.9075C11.0601 19.9172 11.0621 19.9268 11.064 19.9365L11.0685 19.9603L11.0702 19.9697L11.0731 19.9868L11.0753 20.0009L11.0772 20.0134L11.0799 20.0322L11.0841 20.0654L11.0874 20.095L11.0898 20.1202C11.0988 20.2169 11.1017 20.3142 11.1044 20.4111C11.1068 20.4989 11.1123 20.5864 11.1155 20.6741C11.1178 20.7391 11.115 20.8042 11.118 20.8692C11.1196 20.8896 11.1208 20.9101 11.1253 20.9301C11.1728 20.9433 11.2285 20.932 11.2743 20.9193C11.282 20.9168 11.2817 20.9168 11.2893 20.9141L11.2935 20.9124C11.2974 20.9024 11.3018 20.8927 11.3069 20.8832C11.3172 20.867 11.3273 20.851 11.342 20.8381C11.3453 20.8353 11.3486 20.8326 11.352 20.83L11.3602 20.8238L11.3686 20.8181L11.3777 20.8125L11.3871 20.8073L11.3966 20.8027L11.4063 20.7984L11.4161 20.7946L11.4261 20.7912L11.4363 20.7883L11.4466 20.7857L11.4601 20.7829L11.47 20.7812L11.4801 20.7799L11.4899 20.7788ZM11.8834 21.3271L11.9223 21.4499C11.9181 21.4068 11.9052 21.3651 11.8834 21.3271ZM8.99103 7.42321C8.94973 7.40582 8.90464 7.39573 8.86217 7.38879L8.8333 7.38453L8.82385 7.38337L8.80413 7.38109L8.79311 7.37998L8.77473 7.37835L8.76336 7.37747L8.74481 7.37631L8.7339 7.37572L8.71337 7.37497L8.7045 7.37467L8.67551 7.37427H8.6681L8.64628 7.37444L8.63427 7.37467L8.61706 7.3752L8.60364 7.37567L8.58795 7.37642L8.57372 7.37718L8.54402 7.37911L8.5323 7.38004C8.50897 7.38191 8.48569 7.38412 8.46248 7.38669L8.43552 7.38978C8.41079 7.39276 8.38612 7.39602 8.36168 7.39952L8.33677 7.40349C8.34639 7.33052 8.35497 7.25748 8.36313 7.18427L8.36763 7.13831L8.37218 7.09012L8.37778 7.02852L8.38139 6.98629L8.38338 6.96243L8.38863 6.89512C8.39283 6.82926 8.39679 6.76346 8.39918 6.69748C8.40076 6.65315 8.40187 6.60829 8.40216 6.56396C8.40245 6.52079 8.40204 6.47687 8.4007 6.4337C8.39918 6.38569 8.39743 6.35845 8.39382 6.31079C8.38688 6.22119 8.37498 6.12593 8.33858 6.04292C8.31944 5.99941 8.29068 5.95741 8.2425 5.94545C8.22745 5.94323 8.21432 5.943 8.19922 5.94428L8.18907 5.94638L8.1858 5.94714L8.17909 5.94883L8.17524 5.94994L8.16923 5.95169L8.16527 5.95297L8.15943 5.95496L8.15552 5.95636L8.14969 5.95857L8.14602 5.96003L8.13983 5.9626L8.13663 5.964L8.12828 5.96785L8.12741 5.96826L8.11183 5.97619L8.10985 5.9773L8.09655 5.98488L8.08506 5.99194L8.07911 5.99567L8.06371 6.00594L8.06219 6.00699L8.04458 6.01959C7.98554 6.0627 7.93199 6.11258 7.87862 6.16239C7.7623 6.27445 7.64954 6.39007 7.53375 6.50271C7.47938 6.55439 7.42461 6.60543 7.36826 6.65502C7.32153 6.69614 7.27323 6.73563 7.22365 6.77326C7.18486 6.80272 7.14507 6.83095 7.10418 6.85743C7.07426 6.8768 7.04381 6.89523 7.0126 6.91244C6.91454 6.96646 6.80873 7.00916 6.69754 7.02613C6.67625 7.0294 6.65478 7.03173 6.63337 7.03278L6.61191 7.03331C6.58338 7.03337 6.55486 7.03074 6.52668 7.02421C6.4799 7.01336 6.43603 6.99288 6.39619 6.96628C6.30712 6.9069 6.23811 6.82062 6.17581 6.73499L6.1488 6.69725L6.146 6.69328L6.14448 6.69112L6.13888 6.68302C6.08008 6.59907 6.02443 6.5128 5.96546 6.42897C5.93302 6.38458 5.89989 6.34124 5.86524 6.29854C5.78264 6.20147 5.69018 6.11252 5.5776 6.05086C5.55322 6.0375 5.52813 6.02548 5.50241 6.01493C5.48917 6.0095 5.47534 6.00297 5.46088 6.00127C5.43148 5.99777 5.40056 6.00612 5.37326 6.01627C5.31405 6.03832 5.26009 6.07652 5.21938 6.12471C5.1877 6.16216 5.16407 6.20626 5.15182 6.25386C5.14447 6.28232 5.14162 6.31172 5.13911 6.34095C5.1345 6.39479 5.13328 6.44892 5.13392 6.503C5.13608 6.67934 5.15702 6.85557 5.18636 7.02928C5.20876 7.16158 5.23641 7.29318 5.27018 7.42315L5.2731 7.434L5.28692 7.48522L5.28885 7.49222L5.30343 7.54332L5.30548 7.55032L5.31831 7.59296L5.32233 7.60602L5.33791 7.65502C5.37081 7.75617 5.40797 7.85622 5.45288 7.95264L5.46828 7.98478L5.47347 7.99517L5.48432 8.01669L5.49745 8.04137L5.49973 8.04545L5.5146 8.07176L5.52347 8.08669L5.52691 8.09223C5.53432 8.10437 5.54202 8.11638 5.55001 8.12811L5.56121 8.14427L5.57124 8.15803L5.58133 8.17139L5.59137 8.18411C5.59749 8.19175 5.60373 8.19922 5.61015 8.20651L5.62678 8.38483L5.63197 8.43885L5.63477 8.46831L5.64317 8.55178C5.66889 8.77234 5.69958 9.00328 5.80253 9.20342C5.82797 9.25277 5.85906 9.29851 5.89196 9.34313C5.93676 9.40392 5.98313 9.4633 6.03068 9.52192L6.09035 9.59484L6.10248 9.6096L6.13363 9.64717L6.22831 9.76109L6.24091 9.7762L6.27293 9.81476L6.29434 9.84066C6.31412 9.86457 6.33378 9.88861 6.35337 9.91264C6.40961 9.98322 6.46467 10.0543 6.51875 10.1265C6.55468 10.176 6.59021 10.2258 6.62416 10.2767C6.65811 10.3276 6.69229 10.3768 6.71125 10.4353C6.734 10.5058 6.74164 10.5807 6.74392 10.6543C6.74666 10.7413 6.74129 10.8285 6.73178 10.9149L6.7312 10.9204L6.73114 10.9212L6.73097 10.9226L6.72647 10.9607C6.69118 11.2431 6.62025 11.5215 6.53514 11.7928C6.50965 11.874 6.48252 11.9548 6.45359 12.0349C6.43726 12.0801 6.41556 12.1249 6.40436 12.1717C6.4029 12.18 6.40185 12.188 6.40127 12.1964C6.40173 12.2794 6.45172 12.346 6.50306 12.407C6.55947 12.4704 6.61949 12.5305 6.67462 12.5951C6.69387 12.6194 6.71335 12.6442 6.72706 12.6722C6.74969 12.7184 6.75523 12.7702 6.7585 12.8209C6.76124 12.8845 6.76037 12.9482 6.76317 13.0119L6.76492 13.0324L6.76533 13.0364L6.76748 13.0559C6.77163 13.0895 6.77839 13.1227 6.79082 13.1545C6.80767 13.1979 6.83445 13.2329 6.86718 13.2618C6.87954 13.2728 6.89278 13.2829 6.90667 13.2922L6.92172 13.3019L6.93723 13.3111L6.95292 13.3197L6.96716 13.3269L6.97107 13.3288L6.98857 13.337L6.9944 13.3396L7.01487 13.3484L7.03652 13.3569L7.04212 13.359L7.05256 13.3629L7.07438 13.3708L7.08277 13.3737L7.11072 13.3832C7.14449 13.3944 7.16007 13.3988 7.19437 13.4092C7.32177 13.4457 7.45022 13.4783 7.57756 13.5148C7.59208 13.5192 7.60661 13.5235 7.62108 13.528L7.65963 13.54L7.66943 13.5431L7.70047 13.5532L7.71511 13.558L7.72619 13.5618L7.74107 13.5668L7.75098 13.5703L7.76049 13.5736L7.77018 13.577L7.78155 13.581L7.79374 13.5855L7.8057 13.5899L7.81358 13.5929L7.82174 13.5959L7.83615 13.6015L7.8505 13.607L7.86293 13.612C7.88847 13.6222 7.91391 13.6329 7.93911 13.6443C8.01663 13.6792 8.092 13.7191 8.16328 13.7655C8.20359 13.7917 8.24256 13.82 8.27983 13.8505C8.30982 13.8749 8.33963 13.9 8.3636 13.9307C8.44398 14.0336 8.45886 14.1731 8.46166 14.2992C8.4623 14.3291 8.46207 14.3593 8.46148 14.3891C8.46055 14.4364 8.45857 14.4755 8.45664 14.5249C8.45407 14.5909 8.45378 14.5907 8.45227 14.6567C8.45203 14.6977 8.45279 14.7383 8.45501 14.7793C8.46224 14.8647 8.47828 14.9614 8.54817 15.0195C8.57331 15.0404 8.60382 15.0504 8.63153 15.0669C8.64587 15.0774 8.64564 15.0772 8.65906 15.0888C8.71051 15.1413 8.74172 15.2077 8.76522 15.2767C8.7892 15.3473 8.80583 15.4207 8.81784 15.4942C8.84578 15.6646 8.85856 15.8372 8.86229 16.01L8.86322 16.0605L8.8634 16.0767V16.0904L8.86363 16.1174L8.86357 16.1324L8.86363 16.1418L8.86352 16.1549L8.86346 16.1743L8.86317 16.2068L8.86299 16.2176L8.86287 16.2312L8.86235 16.2565L8.86212 16.2718L8.86194 16.2794L8.86177 16.2881L8.86089 16.3213L8.86054 16.3367L8.86037 16.3406C8.85984 16.3609 8.85914 16.3813 8.85844 16.4016L8.85582 16.4565L8.9299 16.5077L8.96402 16.453C8.97552 16.4347 8.98707 16.4166 8.99897 16.3986L9.01227 16.3805L9.02586 16.3627L9.03729 16.3483C9.04272 16.3414 9.04832 16.3346 9.05403 16.3279C9.12374 16.2494 9.20284 16.1804 9.27453 16.1039C9.30475 16.0701 9.33456 16.0361 9.36559 16.003C9.39464 15.9741 9.42393 15.9456 9.45665 15.9207C9.47771 15.9048 9.49988 15.8903 9.52297 15.8778L9.53283 15.8726L9.54281 15.8677L9.55319 15.8628L9.56311 15.8584L9.57343 15.8542L9.58341 15.8504L9.59805 15.8454L9.60493 15.8433L9.61433 15.8405L9.62891 15.8368L9.63725 15.8349L9.646 15.8331L9.66052 15.8307L9.67038 15.8293L9.67837 15.8285C9.68322 15.8279 9.688 15.8275 9.69284 15.8272C9.69932 15.8268 9.70585 15.8265 9.71233 15.8265L9.73187 15.8267C9.74487 15.8272 9.75782 15.8283 9.77077 15.83C9.80665 15.8347 9.84188 15.844 9.87572 15.8568C9.91217 15.8705 9.94741 15.8867 9.97657 15.9128C10.0178 15.9497 10.0432 16.0012 10.0642 16.0513C10.075 16.0772 10.0836 16.1057 10.0978 16.1301C10.1045 16.1376 10.1128 16.1432 10.1211 16.1486C10.1465 16.1632 10.1736 16.1737 10.2012 16.1834C10.2103 16.1864 10.2207 16.1905 10.2316 16.1944L10.2433 16.1984L10.2579 16.2029C10.2636 16.2045 10.2694 16.2058 10.2749 16.2068C10.2858 16.208 10.2965 16.2079 10.3075 16.2072C10.3593 16.2014 10.4101 16.1895 10.4616 16.1815C10.4858 16.1789 10.5091 16.1768 10.5334 16.1763C10.569 16.1771 10.6038 16.1805 10.6381 16.1905C10.661 16.1971 10.6832 16.2061 10.7042 16.2174C10.7276 16.2301 10.7495 16.2453 10.7694 16.2631C10.8557 16.3402 10.8872 16.4498 10.9026 16.5604C10.9097 16.6321 10.9103 16.7041 10.9158 16.7759C10.9322 16.9392 10.9546 17.103 11.0027 17.2604C11.033 17.3592 11.0735 17.4559 11.1387 17.5369C11.1553 17.5557 11.1725 17.5738 11.1899 17.5918L11.2357 17.6385L11.276 17.6776L11.3168 17.7161L11.3333 17.7313L11.3581 17.7542L11.3756 17.77L11.3998 17.7918L11.4176 17.8075L11.442 17.8291L11.4595 17.8443L11.4847 17.8663L11.5012 17.8804L11.5281 17.9034L11.5427 17.9158L11.5678 17.937L11.6028 17.9663L11.662 18.0155L11.6768 18.0277C11.7611 18.0973 11.846 18.1665 11.93 18.2368C12.023 18.3163 12.1145 18.3972 12.2081 18.4757C12.28 18.5341 12.3539 18.5911 12.4318 18.6412L12.4617 18.66L12.4919 18.678L12.5225 18.6952L12.5378 18.7034L12.5534 18.7115L12.5691 18.7193L12.5849 18.7269L12.6008 18.7342L12.6169 18.7413L12.633 18.7481L12.6494 18.7547L12.6657 18.7609L12.6823 18.7669L12.7098 18.7762L12.7375 18.7848L12.7487 18.7881L12.7653 18.7928L12.7775 18.7961L12.7933 18.8002L12.8061 18.8035L12.821 18.8072L12.835 18.8105L12.8483 18.8135L12.8641 18.817L12.8937 18.8233C12.9811 18.8414 13.0696 18.8555 13.1565 18.8734C13.1956 18.8823 13.2343 18.8914 13.273 18.9017C13.2987 18.9091 13.3241 18.9169 13.3495 18.9254L13.3621 18.9297L13.384 18.9375L13.4058 18.9457L13.4275 18.9543L13.4427 18.9607L13.4604 18.9685L13.47 18.973L13.4778 18.9766L13.491 18.983L13.4951 18.9851L13.512 18.9938C13.5183 18.9971 13.5245 19.0006 13.5307 19.0041L13.5458 19.0128L13.5521 19.0166L13.5623 19.0229L13.5718 19.029L13.5785 19.0334L13.5912 19.0421L13.5945 19.0444L13.6102 19.0559L13.6224 19.0653L13.6331 19.0738C13.6396 19.079 13.646 19.0844 13.6523 19.0899L13.6579 19.0947L13.6648 19.1009L13.675 19.11L13.6807 19.1152L13.687 19.1213L13.6955 19.1292L13.7029 19.1364L13.7083 19.1419L13.7155 19.149L13.7245 19.1581L13.7351 19.1691L13.7457 19.1803L13.7544 19.1897L13.7734 19.2105L13.787 19.2258C13.8325 19.2767 13.8765 19.3293 13.9232 19.3789C13.9417 19.3974 13.9605 19.4151 13.9803 19.4321C14.0134 19.4587 14.0489 19.4841 14.0893 19.4983C14.128 19.5119 14.1698 19.5155 14.2105 19.5159L14.2388 19.5156L14.262 19.5147L14.2852 19.5132L14.3085 19.5113L14.3319 19.509L14.3552 19.5065L14.4021 19.5009C14.445 19.4959 14.4877 19.4907 14.5305 19.4854L14.5818 19.4788L14.6253 19.4729C14.7492 19.456 14.8726 19.4352 14.9944 19.4076C15.0086 19.4043 15.0229 19.401 15.0371 19.3976L15.0645 19.3908L15.0861 19.3852L15.1116 19.3783L15.1374 19.3712L15.1632 19.3636L15.1882 19.3559L15.2146 19.3475L15.2407 19.3386L15.2524 19.3345L15.2669 19.3293L15.2784 19.3251L15.2928 19.3197L15.3042 19.3153L15.3187 19.3096L15.3298 19.3051L15.3446 19.2989L15.3553 19.2944L15.3705 19.2877L15.3805 19.2833L15.4056 19.2717L15.4305 19.2596C15.544 19.2006 15.6519 19.1316 15.7652 19.0721C15.8254 19.0416 15.887 19.0137 15.9507 18.992L15.9637 18.9876L15.9843 18.9811L16.005 18.9751L16.0259 18.9696L16.0469 18.9646L16.0687 18.96C16.0756 18.9587 16.0825 18.9574 16.0894 18.9562L16.1069 18.9535L16.1246 18.9512L16.1424 18.9493L16.1531 18.9483L16.1604 18.9477L16.1764 18.9467C16.1899 18.946 16.2034 18.9456 16.217 18.9456H16.2186L16.2332 18.9457L16.2516 18.9463L16.2626 18.9469L16.27 18.9474L16.286 18.9486C16.2999 18.9499 16.3137 18.9515 16.3274 18.9535L16.3431 18.9561L16.3612 18.9594L16.3792 18.9632L16.3939 18.9668C16.408 18.9703 16.4219 18.9744 16.4356 18.9789C16.5097 19.0033 16.5782 19.0417 16.6333 19.0968C16.6623 19.1257 16.6871 19.1588 16.7074 19.1943C16.7322 19.2377 16.7498 19.2837 16.7632 19.3311L16.7662 19.3418L16.7697 19.3555C16.7714 19.3622 16.773 19.3689 16.7745 19.3757C16.7766 19.3847 16.7785 19.3938 16.7803 19.4029L16.7848 19.4259L16.7864 19.4353L16.7889 19.4497L16.7921 19.4702L16.7964 19.4986L16.8029 19.5455L16.8055 19.5652L16.8117 19.6104L16.8152 19.6346L16.8176 19.6509L16.819 19.6596L16.8238 19.6879C16.8295 19.7153 16.8358 19.7421 16.8433 19.769L16.8482 19.7835L16.8534 19.7977L16.859 19.8119L16.8649 19.8258L16.8711 19.8396L16.8777 19.8532L16.8846 19.8666L16.8919 19.8799L16.8995 19.8929L16.9074 19.9057L16.9157 19.9183L16.9244 19.9307L16.9335 19.9428L16.9429 19.9547L16.9527 19.9663L16.9633 19.9781C16.9916 20.0087 17.0235 20.035 17.0562 20.0607C17.1305 20.1157 17.2079 20.1662 17.2824 20.2208L17.3034 20.2378L17.3241 20.2551L17.3344 20.2641C17.3498 20.2774 17.365 20.2909 17.3804 20.3043L17.3865 20.3096L17.407 20.3271L17.4272 20.3438L17.4478 20.3598C17.463 20.3703 17.4782 20.3806 17.4956 20.3874C17.5155 20.3942 17.5372 20.3965 17.5579 20.3992L17.5732 20.401L17.5886 20.4025L17.6038 20.4037L17.6191 20.4045L17.6341 20.4051L17.6474 20.4054L17.6755 20.4055L17.6861 20.4053C17.8391 20.4021 17.9903 20.3699 18.1417 20.351C18.1889 20.3463 18.1887 20.3463 18.2362 20.3428C18.2526 20.342 18.2691 20.3413 18.2855 20.3408L18.2948 20.3404C18.3107 20.3399 18.3265 20.3395 18.3424 20.3393L18.3684 20.3389L18.4008 20.3387C18.4174 20.3387 18.4342 20.3389 18.4508 20.3391L18.4591 20.3393C18.4754 20.3396 18.4917 20.34 18.5079 20.3405L18.5145 20.3408C18.549 20.342 18.5834 20.3438 18.6178 20.3461L18.6217 20.3463C18.6395 20.3475 18.6572 20.3489 18.6748 20.3504C18.7046 20.3529 18.7345 20.3558 18.7643 20.3592C18.8697 20.371 18.9775 20.3841 19.0769 20.4227L19.1012 20.4326L19.1251 20.4434L19.1346 20.448L19.1411 20.4511L19.1486 20.4548L19.1633 20.4624L19.1717 20.4669L19.1851 20.4742L19.1946 20.4795L19.2067 20.4865L19.2172 20.4927L19.228 20.4992L19.2395 20.5062L19.2492 20.5123L19.2702 20.5256L19.2927 20.5402L19.3055 20.5485L19.3495 20.5775L19.3943 20.6068L19.4156 20.6204L19.4372 20.6338L19.4583 20.6456L19.4805 20.6574C19.4934 20.6641 19.5065 20.6705 19.5198 20.6764C19.5499 20.6884 19.5811 20.6939 19.613 20.6985C19.6782 20.7058 19.7436 20.709 19.8087 20.717C19.8458 20.7227 19.8822 20.7299 19.9177 20.7405L19.931 20.7445L19.9379 20.7467L19.9508 20.7513L19.9523 20.7519C19.9584 20.7541 19.9645 20.7564 19.9705 20.7589C20.0322 20.7843 20.0891 20.8199 20.1496 20.848C20.1629 20.8536 20.176 20.8587 20.1897 20.8629C20.1976 20.8648 20.2052 20.8667 20.2133 20.8675C20.2303 20.8685 20.2476 20.8687 20.2647 20.8686L20.3162 20.8679C20.3748 20.8654 20.4333 20.8609 20.4917 20.8555C20.4729 20.5857 20.4928 20.3132 20.5453 20.0479C20.5474 20.037 20.5497 20.0261 20.5519 20.0152L20.5582 19.9862L20.5651 19.9555L20.5683 19.9416C20.5793 19.8951 20.5914 19.8488 20.6047 19.8029C20.6259 19.7303 20.6494 19.6587 20.6834 19.5909C20.757 19.4444 20.8662 19.3196 20.9759 19.1992C21.0117 19.16 21.0478 19.121 21.0832 19.0815C21.0987 19.0643 21.1132 19.0461 21.1301 19.0304C21.1383 19.0237 21.1466 19.0183 21.1559 19.0134C21.2089 18.9895 21.2679 18.9983 21.3231 19.0095L21.3271 19.0104C21.3905 19.0249 21.4525 19.045 21.5161 19.0591C21.5375 19.0633 21.5617 19.0681 21.5851 19.0679L21.593 19.0676C21.6084 19.0667 21.6234 19.0632 21.6368 19.0553C21.6583 19.0428 21.6762 19.0225 21.6902 19.0022C21.7225 18.9552 21.7398 18.8949 21.7349 18.8379C21.7327 18.8127 21.7257 18.7867 21.7097 18.7666C21.7001 18.7545 21.6883 18.7477 21.675 18.7399C21.6399 18.7221 21.6036 18.7081 21.5669 18.6936C21.5419 18.6836 21.5171 18.6733 21.4924 18.6623C21.4686 18.6509 21.4459 18.6388 21.4233 18.625C21.4007 18.6095 21.3791 18.5924 21.3634 18.5697C21.3387 18.5341 21.3312 18.4896 21.325 18.4476C21.3162 18.3748 21.3139 18.3016 21.3086 18.2285L21.3072 18.21L21.3052 18.1872L21.302 18.1556C21.2921 18.0826 21.2771 18.0102 21.2455 17.9432L21.2393 17.9307L21.2372 17.9266L21.2327 17.9184L21.2301 17.9137L21.2258 17.9062L21.223 17.9015L21.2185 17.8942L21.2157 17.8897L21.2107 17.8821L21.208 17.8782L21.2015 17.8689L21.2001 17.8669L21.192 17.8559L21.1894 17.8526L21.1835 17.8451L21.1801 17.841L21.1748 17.8344L21.1711 17.8301L21.1657 17.8239L21.1619 17.8197L21.1586 17.816L21.143 17.7994L21.1422 17.7986L21.1259 17.7825L21.1241 17.7808L21.1073 17.7652L21.1047 17.7629L21.0945 17.754L21.0821 17.7435L21.0726 17.7357L21.0606 17.7261L21.0505 17.7182L21.0387 17.7093L21.028 17.7013L21.0173 17.6935C20.9995 17.6807 20.9815 17.6683 20.9634 17.6563L20.9584 17.6529C20.942 17.6421 20.9256 17.6315 20.9093 17.6212C20.8146 17.5627 20.7186 17.5063 20.6253 17.4456C20.5759 17.4125 20.5274 17.3778 20.4812 17.3407L20.4791 17.3391L20.4748 17.3356L20.4651 17.3277L20.459 17.3225L20.4552 17.3194L20.4518 17.3165L20.4461 17.3118L20.4362 17.3032L20.4317 17.2993L20.4299 17.2977C20.4228 17.2915 20.4157 17.285 20.4087 17.2787L20.408 17.278L20.3908 17.2618L20.3881 17.2593L20.3861 17.2573L20.3818 17.2531L20.373 17.2444L20.3677 17.2391L20.3641 17.2355L20.3607 17.232L20.3555 17.2267L20.347 17.2176L20.3426 17.213L20.3409 17.2111C20.3344 17.2041 20.3281 17.1971 20.3218 17.1899C20.259 17.118 20.2046 17.0382 20.163 16.9522C20.1591 16.9441 20.1553 16.9359 20.1517 16.9277L20.151 16.9262L20.1507 16.9255C20.1472 16.9177 20.1438 16.9098 20.1406 16.9018L20.1398 16.9L20.1393 16.8988C20.1361 16.8909 20.133 16.8831 20.1301 16.8752L20.1295 16.8736L20.129 16.872L20.1272 16.8673L20.1237 16.8573L20.12 16.8469L20.1188 16.843L20.1172 16.8385L20.114 16.8283L20.1113 16.8201L20.1101 16.8159L20.1081 16.8096L20.1052 16.7989L20.1035 16.7931L20.1025 16.7891L20.1 16.7804L20.0972 16.7691L20.0965 16.766L20.0958 16.7632L20.0928 16.7511L20.0901 16.7387L20.0864 16.7215C20.0387 16.4848 20.0696 16.2332 20.1085 15.9963C20.1186 15.9346 20.1234 15.9094 20.1361 15.8381C20.1399 15.8202 20.1442 15.8028 20.1493 15.7852C20.1837 15.6826 20.2459 15.5954 20.3169 15.5146C20.3937 15.4272 20.4791 15.3477 20.5586 15.2629C20.5827 15.2361 20.5826 15.2364 20.6058 15.2091C20.6739 15.1238 20.7409 15.0205 20.7099 14.9064C20.7029 14.8806 20.6928 14.8559 20.6793 14.8329C20.6627 14.8045 20.6414 14.7791 20.6172 14.7569C20.581 14.7238 20.5388 14.6978 20.4947 14.6769C20.4876 14.6735 20.4805 14.6702 20.4733 14.6672L20.4562 14.66L20.4395 14.6534L20.4354 14.6518L20.4204 14.6463L20.4143 14.6442L20.4003 14.6394L20.3931 14.6371L20.3797 14.633L20.3716 14.6306L20.3587 14.6268L20.3499 14.6245L20.3375 14.6211L20.3165 14.6159L20.2952 14.6111L20.2854 14.6091L20.273 14.6065L20.2632 14.6047L20.2509 14.6023L20.2411 14.6006L20.2285 14.5985L20.219 14.5969L20.2061 14.5949L20.1969 14.5935L20.1834 14.5916L20.1748 14.5904L20.1308 14.5851L20.1021 14.5821L20.0926 14.5812L20.0733 14.5795L20.0445 14.5773L20.0324 14.5765L20.0156 14.5754L20.0033 14.5747L19.9867 14.5739L19.9741 14.5734L19.9577 14.5728L19.9451 14.5724L19.9286 14.572L19.9161 14.5717L19.8994 14.5715L19.8871 14.5714H19.8591L19.8429 14.5716L19.831 14.5717L19.8028 14.5723L19.7837 14.5729L19.7748 14.5732L19.7544 14.574L19.7473 14.5743L19.7251 14.5754L19.7207 14.5756L19.6958 14.5771L19.6768 14.5783C19.6668 14.579 19.6567 14.5798 19.6467 14.5805L19.6358 14.5815C19.6005 14.3444 19.5728 14.106 19.5523 13.8672C19.5312 13.6225 19.5173 13.3768 19.5175 13.1312C19.5176 13.0936 19.518 13.056 19.5189 13.0185L19.5198 12.9799L19.5216 12.9294L19.5222 12.9144L19.5232 12.8933L19.5239 12.8791L19.5245 12.8677L19.5253 12.8519L19.5267 12.8287L19.5278 12.8106L19.5304 12.7744C19.5315 12.7589 19.5327 12.7435 19.534 12.728C19.5372 12.6905 19.5415 12.6531 19.5463 12.6157C19.549 12.5952 19.5522 12.5758 19.553 12.5553C19.5526 12.5434 19.5515 12.5323 19.5494 12.5207C19.5242 12.4211 19.4281 12.3584 19.3469 12.3066C19.3299 12.2956 19.3126 12.2849 19.2954 12.274C19.2613 12.2524 19.2274 12.231 19.1939 12.2084C19.1702 12.1915 19.1704 12.1917 19.1473 12.1741C19.1423 12.1699 19.1372 12.1657 19.1322 12.1613L19.1305 12.1599L19.1276 12.1572L19.1206 12.1512L19.1169 12.1478L19.1139 12.1451L19.1089 12.1404L19.1077 12.1392L19.1071 12.1388C19.1033 12.1351 19.0996 12.1314 19.0959 12.1276L19.0951 12.1268L19.0942 12.1257C19.0892 12.1206 19.0844 12.1153 19.0798 12.1098L19.0775 12.1071L19.077 12.1065L19.0757 12.1049L19.0734 12.1019L19.0721 12.1002L19.0711 12.099L19.069 12.0962L19.0674 12.0939L19.0668 12.0932L19.0657 12.0916C19.054 12.0752 19.0444 12.0574 19.0378 12.0377C19.0221 11.9907 19.0307 11.9408 19.0435 11.8941C19.0747 11.7805 19.1416 11.6776 19.2094 11.583C19.2393 11.5412 19.2706 11.5005 19.3024 11.4603C19.3362 11.4173 19.3679 11.3786 19.4032 11.3353C19.4603 11.2652 19.5175 11.1951 19.5732 11.1238C19.6053 11.0817 19.6366 11.0392 19.6672 10.996C19.7377 10.8914 19.8063 10.7808 19.8386 10.6575C19.8726 10.5272 19.8898 10.3932 19.8949 10.2587L19.8962 10.2143L19.8963 10.1999L19.8966 10.1698L19.8966 10.1527L19.8963 10.1252L19.896 10.1073L19.8952 10.0802L19.8946 10.0623L19.8933 10.0345L19.8924 10.0176L19.8904 9.98649L19.8894 9.97307L19.8858 9.92921L19.8846 9.91707L19.8813 9.88511L19.8792 9.86702L19.8761 9.84107L19.8735 9.82123L19.8701 9.79714L19.867 9.77637L19.8634 9.75351L19.8599 9.73204L19.856 9.71022L19.8519 9.68806L19.8482 9.66846C19.844 9.64722 19.8396 9.62611 19.8349 9.60505C19.8277 9.57285 19.8199 9.54077 19.8115 9.50886C19.7778 9.38117 19.7357 9.25318 19.6606 9.14328C19.571 9.01197 19.4452 8.9096 19.3089 8.82986C19.269 8.80647 19.2279 8.785 19.1861 8.76505C19.1631 8.75408 19.1402 8.74306 19.116 8.73495C19.0807 8.72305 19.044 8.71628 19.0072 8.71051C18.9137 8.69837 18.8194 8.69359 18.7256 8.68315C18.6614 8.67393 18.5798 8.66559 18.5341 8.61315C18.5098 8.58515 18.4963 8.54992 18.4843 8.51538C18.4667 8.4581 18.4525 8.39994 18.4346 8.34277C18.4203 8.30293 18.4036 8.26187 18.3721 8.23241L18.3655 8.22675L18.3633 8.225L18.3587 8.22162L18.356 8.21975L18.3517 8.21695L18.3486 8.2152L18.3443 8.21281L18.3412 8.21117L18.3367 8.20907L18.3335 8.20762L18.3287 8.20569L18.3257 8.20447L18.3204 8.2026L18.3178 8.20167L18.3098 8.19927L18.3077 8.19869L18.3017 8.19712L18.2892 8.19437L18.2791 8.19251L18.2723 8.19128L18.2621 8.18977L18.255 8.18878L18.239 8.18668C18.174 8.17833 18.1083 8.17582 18.0428 8.1746C17.834 8.17057 17.6249 8.18072 17.4164 8.19513L17.3174 8.20225L17.208 8.21059L17.168 8.21397C17.1558 8.19362 17.143 8.17384 17.1299 8.15407C17.1047 8.11807 17.0785 8.08331 17.0514 8.04877C16.9501 7.92569 16.8348 7.81474 16.7032 7.72427C16.6468 7.68547 16.5875 7.64785 16.5245 7.62043L16.5097 7.61425L16.505 7.61238L16.4945 7.6083L16.4894 7.60643L16.4785 7.60252L16.4744 7.60112L16.4597 7.59622L16.4565 7.59523C16.4057 7.57925 16.3532 7.56852 16.3008 7.56058C16.1932 7.54425 16.0839 7.53976 15.9752 7.54022C15.8123 7.54087 15.6497 7.55317 15.4877 7.57032L15.4666 7.5726L15.4008 7.57995L15.313 7.59039C15.2314 7.60037 15.15 7.61145 15.0683 7.62055C15.0346 7.62428 15.0012 7.62691 14.9677 7.63181C14.9463 7.63577 14.9253 7.64056 14.9042 7.64616C14.7614 7.68938 14.6386 7.77379 14.5235 7.86677C14.4042 7.96308 14.2924 8.06808 14.1749 8.16661C14.1357 8.19852 14.1359 8.1984 14.096 8.22949C13.993 8.3062 13.8871 8.37398 13.7647 8.41476L13.7429 8.42123L13.7217 8.42677L13.7215 8.43191C13.7183 8.5155 13.7098 8.60172 13.6915 8.68531C13.6874 8.72083 13.6832 8.75636 13.679 8.79188C13.6718 8.84427 13.6649 8.89659 13.6556 8.94868C13.6494 8.98362 13.6424 9.01839 13.6339 9.05287C13.6263 9.08372 13.6176 9.11429 13.6068 9.14422C13.5917 9.18622 13.5721 9.22833 13.5453 9.26444L13.5407 9.27057L13.537 9.27512L13.5363 9.27611L13.5351 9.27745L13.5308 9.28276L13.5279 9.28591L13.5266 9.28731L13.5244 9.2897L13.5201 9.29437L13.5179 9.29652L13.5165 9.29798L13.5131 9.30119L13.5088 9.30539L13.5062 9.30767L13.5053 9.30848C13.502 9.31146 13.4986 9.31432 13.495 9.31706L13.4944 9.31758L13.4937 9.31811C13.4902 9.32085 13.4867 9.32347 13.483 9.32598L13.4776 9.3296L13.4769 9.33001L13.4763 9.33047L13.4731 9.33246L13.4708 9.33386L13.4699 9.33438L13.4659 9.33666L13.4638 9.33788L13.4566 9.34167C13.4387 9.35077 13.4195 9.35742 13.3999 9.3618C13.3868 9.36477 13.3742 9.36676 13.3619 9.36728L13.3547 9.3674C13.3304 9.36722 13.3076 9.36069 13.2856 9.34354C13.2616 9.3247 13.2426 9.29903 13.2265 9.27337C13.219 9.26147 13.2118 9.24939 13.2047 9.23726C13.1463 9.26071 13.0859 9.27908 13.0246 9.29337C12.8783 9.32744 12.7283 9.3373 12.5785 9.34121C12.4729 9.34284 12.3675 9.34144 12.2619 9.34051C12.1713 9.33969 12.0807 9.34185 11.9901 9.33922C11.9179 9.33596 11.8463 9.32913 11.7745 9.32073C11.7217 9.31356 11.6691 9.30551 11.6164 9.29711C11.6089 9.29775 11.6013 9.29833 11.5938 9.29886C11.5697 9.30055 11.5456 9.30183 11.5214 9.30236L11.4973 9.30271C11.401 9.30294 11.3055 9.29069 11.2164 9.24974C11.2034 9.24379 11.1907 9.23738 11.1782 9.23061C11.147 9.22722 11.1157 9.22466 11.0843 9.22361C11.0112 9.22116 10.938 9.22676 10.8649 9.22717C10.8328 9.22652 10.8012 9.22489 10.7693 9.22186C10.7299 9.21655 10.6909 9.20867 10.6548 9.1917C10.6226 9.17653 10.5939 9.15431 10.5672 9.13103C10.5294 9.09807 10.4947 9.06121 10.462 9.02335C10.3888 8.93894 10.3201 8.85086 10.2458 8.76744C10.2239 8.74358 10.2015 8.72037 10.1784 8.69762C10.1071 8.63153 10.0279 8.56981 9.92798 8.56164L9.91532 8.56129L9.84964 8.54146C9.83302 8.54297 9.81639 8.54437 9.79971 8.54566L9.79271 8.54624L9.76412 8.54823C9.74487 8.54904 9.72562 8.54974 9.70637 8.54992H9.68713C9.66146 8.54968 9.63579 8.5484 9.61024 8.54525C9.56906 8.54017 9.52805 8.53061 9.49031 8.51299C9.43524 8.48715 9.39499 8.44509 9.36454 8.39533L9.17082 8.337C9.13692 8.25737 9.0972 8.18037 9.06313 8.10087C9.05018 8.0689 9.03788 8.03682 9.02825 8.00368C9.00935 7.93847 8.9985 7.87016 8.98858 7.80307C8.97027 7.67976 8.95988 7.54623 8.99103 7.42321ZM10.3059 19.2944L10.8153 20.4948C10.8143 20.4696 10.8135 20.4444 10.8128 20.4192C10.811 20.3568 10.8088 20.2945 10.8057 20.232C10.8023 20.182 10.7983 20.1323 10.7923 20.0826C10.7796 19.9914 10.7612 19.9009 10.7252 19.8158C10.6801 19.7094 10.6085 19.6129 10.5366 19.5234C10.4707 19.4413 10.3982 19.356 10.3098 19.297L10.3059 19.2944ZM9.96677 10.5666C10.6805 10.8753 11.2545 11.4258 11.4038 12.4591C11.5377 12.4664 11.6543 12.5127 11.7632 12.5973C11.6959 12.7362 11.6417 12.8811 11.6013 13.0303H11.1494C11.0518 13.4582 11.0518 13.9026 11.1494 14.3305H11.6013C11.6569 14.5355 11.7385 14.7325 11.8442 14.9168L11.5246 15.2364C11.7582 15.608 12.0724 15.9222 12.444 16.1558L12.7636 15.8362C12.9478 15.9419 13.1449 16.0235 13.3499 16.0791V16.531C13.7778 16.6286 14.2222 16.6286 14.6501 16.531V16.0791C14.8551 16.0235 15.0522 15.9419 15.2364 15.8362L15.9557 16.5555C15.3983 16.9356 14.7249 17.1579 14 17.1579C12.0807 17.1579 10.5225 15.5997 10.5225 13.6804C10.5225 13.4147 10.5463 13.1381 10.559 12.8466C10.5701 12.5918 10.486 12.1619 10.2538 11.9296C9.84661 11.5221 9.4339 11.2519 9.4339 11.2519L9.96677 10.5666ZM18.0332 16.7942C17.3195 16.4855 16.7455 15.935 16.5962 14.9017C16.4622 14.8943 16.3457 14.8481 16.2368 14.7635C16.304 14.6246 16.3583 14.4797 16.3987 14.3305H16.8506C16.9482 13.9026 16.9482 13.4582 16.8506 13.0303H16.3987C16.3431 12.8253 16.2615 12.6282 16.1558 12.444L16.4754 12.1244C16.2418 11.7528 15.9276 11.4386 15.556 11.205L15.2364 11.5246C15.0522 11.4189 14.8551 11.3373 14.6501 11.2817V10.8298C14.2222 10.7322 13.7778 10.7322 13.3499 10.8298V11.2817C13.1449 11.3373 12.9478 11.4189 12.7636 11.5246L12.0443 10.8053C12.6017 10.4252 13.2751 10.2029 14 10.2029C15.9193 10.2029 17.4775 11.7611 17.4775 13.6804C17.4775 13.9461 17.4537 14.2227 17.441 14.5141C17.4299 14.7689 17.514 15.1989 17.7462 15.4312C18.1534 15.8387 18.5661 16.1089 18.5661 16.1089L18.0332 16.7942ZM20.792 15.4409C20.717 15.5249 20.6331 15.6024 20.5581 15.6826C20.5371 15.7059 20.5167 15.7295 20.497 15.7539C20.4692 15.7908 20.4424 15.8283 20.4277 15.8724C20.4163 15.9116 20.4111 15.9573 20.4045 15.9945C20.3982 16.0305 20.3944 16.0556 20.3886 16.0915C20.3822 16.1338 20.3759 16.1769 20.3704 16.2205L20.792 15.4409ZM14.4738 11.2985C14.161 11.2363 13.839 11.2363 13.5262 11.2985L13.5378 11.6685C13.3135 11.7201 13.0993 11.8088 12.9042 11.931L12.6508 11.6611C12.3856 11.8383 12.1579 12.066 11.9807 12.3312L12.2506 12.5846C12.1284 12.7797 12.0397 12.9939 11.9881 13.2182L11.6181 13.2066C11.5559 13.5194 11.5559 13.8414 11.6181 14.1542L11.9881 14.1426C12.0397 14.3669 12.1284 14.5811 12.2506 14.7762L11.9807 15.0296C12.1579 15.2948 12.3856 15.5224 12.6508 15.6997L12.9042 15.4297C13.0993 15.552 13.3135 15.6407 13.5378 15.6923L13.5262 16.0623C13.839 16.1244 14.161 16.1244 14.4738 16.0623L14.4622 15.6923C14.6865 15.6407 14.9007 15.552 15.0958 15.4297L15.3492 15.6997C15.6144 15.5224 15.842 15.2948 16.0193 15.0296L15.7494 14.7762C15.8716 14.5811 15.9603 14.3669 16.0119 14.1426L16.3819 14.1542C16.444 13.8414 16.444 13.5194 16.3819 13.2066L16.0119 13.2182C15.9603 12.9939 15.8716 12.7797 15.7494 12.5846L16.0193 12.3312C15.842 12.066 15.6144 11.8383 15.3492 11.6611L15.0958 11.931C14.9007 11.8088 14.6865 11.7201 14.4622 11.6685L14.4738 11.2985ZM13.8948 12.3569V12.1375H14.1052V12.3561C14.3476 12.3107 14.4568 12.1238 14.4537 12.1392C14.4139 12.3269 14.3215 12.5302 14.1052 12.5808V13.0313C14.5381 12.9821 14.7324 12.6538 14.7271 12.6795C14.6596 12.9933 14.4975 13.3345 14.1052 13.3881V13.7976C14.6374 13.7504 14.876 13.3728 14.8696 13.402C14.7877 13.7582 14.5894 14.1461 14.1052 14.1973V14.6922C14.7853 14.6429 15.0901 14.1458 15.082 14.1837C14.9732 14.6717 14.6985 15.2061 14 15.2087C13.2999 15.2109 13.0256 14.6727 12.9218 14.1815C12.9151 14.1461 13.2151 14.6464 13.8948 14.6927V14.1983C13.4072 14.1512 13.2086 13.7597 13.1303 13.4003C13.1251 13.373 13.361 13.7546 13.8948 13.7983V13.3891C13.4996 13.3391 13.3374 12.9946 13.2729 12.678C13.2685 12.6539 13.4606 12.9858 13.8948 13.032V12.5819C13.6768 12.533 13.5843 12.3278 13.5463 12.1383C13.5437 12.1238 13.6517 12.3128 13.8948 12.3569ZM8.08961 14.0714L8.16789 14.2559C8.16638 14.2312 8.16375 14.2065 8.15914 14.1821C8.15465 14.1583 8.1487 14.1331 8.13528 14.1125C8.12344 14.0964 8.10594 14.0837 8.08961 14.0714ZM10.7954 8.93095C10.8042 8.93229 10.813 8.93305 10.8221 8.93392C10.9001 8.93801 10.9781 8.93223 11.0561 8.93147C11.0945 8.93206 11.0942 8.93206 11.1324 8.93404C11.342 8.95265 11.5477 8.99249 11.7555 9.02382C11.8107 9.03134 11.8658 9.03776 11.9213 9.04301C11.9656 9.04628 12.0098 9.04832 12.0543 9.04884C12.227 9.04803 12.3997 9.05228 12.5725 9.0496C12.6901 9.04651 12.808 9.04003 12.9237 9.01682C12.9954 9.00241 13.0661 8.98158 13.1326 8.9509C13.2022 8.91876 13.2763 8.87553 13.3245 8.81452C13.3617 8.76744 13.3843 8.71016 13.3994 8.65252C13.4233 8.56135 13.4302 8.46592 13.4312 8.372C13.4318 8.32067 13.4304 8.26933 13.4277 8.21806C13.4249 8.1641 13.4205 8.11026 13.4158 8.05642C13.4001 7.89343 13.3793 7.73097 13.3652 7.56787C13.356 7.43972 13.3546 7.31127 13.3475 7.18299C13.3445 7.13994 13.3407 7.09724 13.3359 7.05437C13.3274 6.99405 13.3174 6.93408 13.2977 6.87627C13.2914 6.85778 13.2855 6.83322 13.2725 6.81812C13.263 6.80855 13.2519 6.80108 13.2407 6.79367C13.2274 6.78562 13.2141 6.7781 13.2004 6.77081C13.1323 6.73692 13.0628 6.70612 12.9952 6.67135C12.9089 6.62474 12.8269 6.57131 12.759 6.49962C12.6971 6.43423 12.6515 6.35588 12.6082 6.27748C12.5588 6.18829 12.5167 6.09519 12.4847 5.9983C12.4555 5.9101 12.4356 5.81986 12.4182 5.7288L12.4159 5.70932C12.4057 5.71025 12.3954 5.71118 12.3852 5.71212L12.3656 5.71392L12.3604 5.71439L12.3467 5.71567L12.3414 5.71608L12.3301 5.71702L12.3245 5.71748L12.3014 5.71912C12.241 5.72116 12.1805 5.72011 12.12 5.72052C11.9874 5.72145 11.9503 5.72244 11.8177 5.72472L11.7681 5.72594L11.7605 5.72617L11.7551 5.72629L11.6688 5.7288L11.6413 5.72967L11.6298 5.73002L11.6252 5.7302C11.6061 5.73078 11.587 5.73142 11.568 5.73207L11.5671 5.73212L11.5622 5.7323L11.52 5.73376L11.5101 5.73417L11.5046 5.73434L11.4505 5.73638L11.442 5.73667L11.4347 5.73697L11.4207 5.73749L11.3793 5.73912L11.3779 5.73918C11.3575 5.74 11.3371 5.74082 11.3167 5.74169C11.2191 5.74566 11.1215 5.74992 11.0238 5.75412C10.8462 5.75896 10.6684 5.75202 10.4907 5.75633C10.4192 5.75884 10.3468 5.76223 10.2752 5.7708C10.2602 5.77255 10.2453 5.77459 10.2303 5.77687L10.2293 5.77698L10.2283 5.77716L10.2222 5.77815L10.2178 5.77879L10.2172 5.77891L10.216 5.77914L10.211 5.77996L10.2065 5.78072L10.2052 5.78095L10.2036 5.78124L10.1994 5.782L10.1951 5.78276L10.1933 5.78311L10.1913 5.78346L10.1876 5.78416L10.1837 5.78492L10.1814 5.78538L10.179 5.78585L10.1724 5.78719L10.1695 5.78783L10.1667 5.78836L10.1641 5.78894L10.1611 5.78958L10.1576 5.7904L10.1545 5.79104L10.1523 5.79157L10.1498 5.79215L10.1457 5.79308L10.1423 5.7939L10.1405 5.79431L10.1386 5.79477L10.1338 5.796L10.1302 5.79688L10.1288 5.79722L10.1273 5.79757L10.1218 5.79903L10.1172 5.80026L10.1162 5.80055L10.1094 5.80242L10.106 5.80335C10.1021 5.80446 10.0978 5.80568 10.0939 5.80685C10.0555 5.81834 10.0173 5.83269 9.98293 5.85352C9.97156 5.8604 9.95604 5.86816 9.94852 5.87983C9.94233 5.89056 9.94023 5.90351 9.93813 5.91558C9.93108 5.9647 9.93411 6.01457 9.9372 6.06392L9.93813 6.07524C9.94105 6.11199 9.94443 6.14874 9.9477 6.18549C9.95155 6.22843 9.95528 6.2713 9.95808 6.31435C9.95867 6.32654 9.95913 6.33879 9.95942 6.35104C9.96339 6.48964 9.95248 6.62842 9.8973 6.75751C9.87158 6.81771 9.83797 6.87464 9.79965 6.92767C9.7559 6.98816 9.70509 7.04229 9.6516 7.09415L9.64407 7.10109L9.64151 7.10343L9.63667 7.10786L9.62331 7.11993L9.62162 7.12145L9.60587 7.13545L9.59047 7.14887L9.5823 7.15592L9.57524 7.16199L9.5655 7.17039L9.53231 7.19857C9.4864 7.23748 9.44043 7.27621 9.39639 7.31728C9.3527 7.3598 9.30807 7.40647 9.28404 7.46357C9.2547 7.53352 9.26135 7.62084 9.2687 7.69364C9.27319 7.73868 9.28025 7.78347 9.28842 7.82798C9.29513 7.86479 9.30142 7.90195 9.31309 7.93753C9.3282 7.98356 9.34932 8.02737 9.36979 8.07117L9.38152 8.09585L9.96222 8.27079L9.94391 8.27027C9.97197 8.2726 9.97173 8.27254 9.99962 8.27633C10.0263 8.28135 10.0262 8.28129 10.0525 8.28765C10.0932 8.29949 10.1323 8.31378 10.1701 8.33286C10.2952 8.39609 10.3945 8.49292 10.486 8.59781L10.5004 8.61443L10.5146 8.63112L10.5286 8.64768L10.5421 8.66378L10.5536 8.67772C10.5689 8.69627 10.5842 8.71488 10.5995 8.73343L10.624 8.76312L10.6455 8.78903L10.6588 8.80472L10.6732 8.82152L10.6865 8.83692L10.699 8.85098C10.7183 8.8718 10.7378 8.89198 10.7588 8.911C10.7649 8.91619 10.7737 8.92605 10.782 8.92838C10.7865 8.92943 10.7909 8.93025 10.7954 8.93095ZM13.3223 0.0162167C13.5468 0.005425 13.7728 0 14 0C14.2385 0 14.4761 0.00600833 14.7118 0.01785L13.3223 0.0162167Z" fill="#2F4A98"/>
</g>
</svg>
