<svg width="28" height="28" viewBox="0 0 28 28" fill="none" xmlns="http://www.w3.org/2000/svg">
<g id="Bank name=Tosee Taavon">
<path id="Shape" fill-rule="evenodd" clip-rule="evenodd" d="M18.2396 14.5845C18.2396 12.2316 16.3279 10.3198 14.0044 10.3198C11.6514 10.3198 9.73975 12.2021 9.73975 14.5551C9.73975 16.908 11.6514 18.7903 13.975 18.8197C16.3573 18.8491 18.2396 16.9374 18.2396 14.5845Z" fill="#CDCCCC"/>
<g id="Shape_2">
<path d="M12.6516 9.17279C12.2693 9.29045 11.8869 9.05514 11.7398 8.70222L9.62221 3.37878C9.53395 3.14346 9.62221 2.87874 9.82807 2.73169L12.5045 0.790528C13.4163 0.114095 14.6515 0.114095 15.5339 0.790528L18.2103 2.76109C18.4163 2.87874 18.4751 3.14346 18.4163 3.37878L16.2986 8.70222C16.1515 9.08459 15.7692 9.29045 15.3574 9.20219C14.9457 9.08459 14.4751 9.02574 14.0045 9.02574C13.5633 9.02574 13.0928 9.08459 12.6516 9.17279Z" fill="#51B5D1"/>
<path d="M17.3574 10.1728C18.0927 10.7316 18.6809 11.4669 19.0339 12.2904C19.2103 12.6433 19.6809 12.8493 20.0338 12.7316L25.475 11.0846C25.7103 11.0258 25.8573 10.761 25.8573 10.5257L25.7397 7.20224C25.6809 6.08463 24.9162 5.14342 23.8574 4.8493L20.6515 3.96695C20.3868 3.90815 20.1515 3.99641 20.0338 4.20227L17.1515 9.17279C17.0045 9.43751 17.0633 9.93749 17.3574 10.1728Z" fill="#51B5D1"/>
<path d="M7.94577 12.761L2.47521 11.1728C2.23995 11.0552 2.09289 10.8492 2.12229 10.614L2.23995 7.29049C2.26935 6.17283 3.03404 5.23168 4.06345 4.90816L7.26928 3.99641C7.50459 3.93755 7.73985 4.02581 7.88691 4.23167L10.7693 9.17279C10.9751 9.49631 10.8869 9.96689 10.5928 10.2022C9.85753 10.761 9.29869 11.4963 8.91632 12.3492C8.73986 12.7022 8.29869 12.8787 7.94577 12.761Z" fill="#51B5D1"/>
<path d="M27.7691 16.0551L26.4455 13.0257C26.3573 12.7904 26.122 12.6433 25.8867 12.7022L20.2398 13.6139C19.828 13.6727 19.5339 14.0257 19.5633 14.4374V14.6139C19.5633 15.4962 19.3574 16.3492 18.975 17.0845C18.7986 17.4374 18.9162 17.8786 19.2397 18.0845L23.975 21.2903C24.1809 21.4374 24.475 21.408 24.6514 21.2315L27.122 19.0256C27.9749 18.261 28.2396 17.0845 27.7691 16.0551Z" fill="#51B5D1"/>
<path d="M8.41634 14.5845C8.41634 15.4668 8.6516 16.3198 9.03398 17.0551C9.18104 17.4374 9.09278 17.8786 8.73986 18.1139L4.03405 21.3197C3.79874 21.4668 3.56348 21.4374 3.35756 21.2609L0.887028 19.0844C0.0340775 18.3492 -0.230639 17.1433 0.210536 16.1139L1.53406 13.0845C1.62232 12.8787 1.85758 12.761 2.09289 12.761L7.73985 13.6433C8.15163 13.7021 8.44574 14.0551 8.41634 14.4668V14.5845Z" fill="#51B5D1"/>
<path d="M18.6515 18.8197C18.3574 18.5551 17.9162 18.5551 17.5927 18.7903C16.9163 19.3786 16.0927 19.7903 15.181 19.9962C14.7986 20.0551 14.5045 20.4374 14.5339 20.8491L15.0045 26.555C15.0339 26.7903 15.2398 26.9961 15.4751 27.0255L18.7692 27.5844C19.8574 27.7902 20.9456 27.2315 21.475 26.2314L23.0044 23.2903C23.1221 23.0844 23.0927 22.7903 22.9162 22.6138L18.6515 18.8197Z" fill="#51B5D1"/>
<path d="M12.8575 20.0257C11.9457 19.8197 11.0928 19.408 10.4163 18.8492C10.1222 18.5845 9.65161 18.6433 9.3869 18.8786L5.15166 22.7903C4.9752 22.9668 4.9458 23.2315 5.06346 23.4373L6.62224 26.3785C7.15162 27.3491 8.26929 27.8785 9.3575 27.6726L12.6516 27.0844C12.8869 27.0255 13.0634 26.8197 13.0928 26.5844L13.5045 20.8785C13.5339 20.4668 13.2398 20.0845 12.8575 20.0257Z" fill="#51B5D1"/>
</g>
</g>
</svg>
