<svg width="28" height="28" viewBox="0 0 28 28" fill="none" xmlns="http://www.w3.org/2000/svg">
<g id="Bank name=Tosee Saderat">
<path id="Shape" fill-rule="evenodd" clip-rule="evenodd" d="M19.799 28H8.20103L0 19.799V8.20103L8.20103 0H19.799L28 8.20103V19.799L19.799 28ZM18.1076 23.9167L23.9167 18.1076V9.8924L18.1076 4.08333H9.8924L4.08333 9.8924V18.1076L9.8924 23.9167H18.1076ZM9.85425 14L16.7039 20.8857L13.9645 23.625L7.11497 16.7754L7.11433 16.776L4.375 14L7.76528 10.6465H13.2439L9.85425 14ZM20.2347 17.3535H14.7561L18.1457 14L11.2961 7.11433L14.0355 4.375L20.885 11.2246L20.8857 11.224L23.625 14L20.2347 17.3535Z" fill="#006D08"/>
</g>
</svg>
